<svg width="393" height="100" viewBox="0 0 393 100" fill="none" xmlns="http://www.w3.org/2000/svg">
<g clip-path="url(#clip0_414_3524)">
<rect width="393" height="100" fill="#1C73CE"/>
<path d="M198.51 -6.27186C198.215 -7.14476 197.675 -7.75119 196.89 -8.09116C196.104 -8.43112 195.135 -8.46853 193.984 -8.20338C193.201 -8.02321 192.566 -7.76035 192.078 -7.41479C191.588 -7.07662 191.244 -6.68244 191.044 -6.23225C190.852 -5.78377 190.812 -5.3159 190.924 -4.82864C191.003 -4.4192 191.169 -4.08438 191.424 -3.82419C191.685 -3.56569 192.008 -3.36395 192.391 -3.21895C192.772 -3.08134 193.2 -2.98147 193.673 -2.91934C194.144 -2.86458 194.64 -2.83878 195.16 -2.84192L197.31 -2.82378C198.35 -2.83006 199.326 -2.74381 200.238 -2.56505C201.149 -2.38628 201.97 -2.09712 202.7 -1.69757C203.429 -1.29801 204.044 -0.771033 204.545 -0.116639C205.052 0.536055 205.419 1.33404 205.644 2.27732C205.956 3.66695 205.879 4.9519 205.412 6.13218C204.951 7.30337 204.128 8.32077 202.943 9.1844C201.763 10.0389 200.251 10.6787 198.405 11.1036C196.574 11.5251 194.915 11.6117 193.428 11.3634C191.947 11.1133 190.701 10.5259 189.687 9.60091C188.679 8.66689 187.969 7.38834 187.556 5.76528L192.196 4.69702C192.423 5.44554 192.787 6.0303 193.288 6.45132C193.795 6.86325 194.403 7.12363 195.112 7.23245C195.827 7.33219 196.598 7.28687 197.425 7.09651C198.237 6.90954 198.914 6.6291 199.458 6.25518C200.009 5.87956 200.402 5.4431 200.638 4.94581C200.873 4.44851 200.928 3.92671 200.802 3.38039C200.685 2.87099 200.435 2.47764 200.052 2.20035C199.677 1.92135 199.173 1.72633 198.541 1.61528C197.917 1.50253 197.168 1.44167 196.295 1.4327L193.683 1.38111C191.664 1.35622 189.987 0.976623 188.652 0.242305C187.317 -0.492013 186.46 -1.69795 186.081 -3.37551C185.758 -4.74697 185.847 -6.03079 186.349 -7.22694C186.858 -8.42479 187.696 -9.46122 188.863 -10.3362C190.03 -11.2112 191.44 -11.8391 193.094 -12.2198C194.777 -12.6073 196.313 -12.6576 197.7 -12.3707C199.095 -12.0855 200.262 -11.5106 201.199 -10.6459C202.137 -9.78116 202.772 -8.67584 203.105 -7.32992L198.51 -6.27186ZM219.512 -1.72024L217.264 -11.4875L221.981 -12.5736L225.897 4.43601L221.368 5.47878L220.657 2.38915L220.479 2.42994C220.325 3.51498 219.871 4.46302 219.117 5.27405C218.37 6.08339 217.359 6.63508 216.081 6.92913C214.944 7.19088 213.885 7.1628 212.902 6.84488C211.919 6.52696 211.074 5.94791 210.368 5.10773C209.669 4.26585 209.163 3.18133 208.849 1.85416L206.356 -8.97616L211.073 -10.0623L213.373 -0.0735669C213.612 0.92877 214.064 1.66036 214.73 2.12121C215.395 2.58206 216.175 2.70966 217.068 2.50399C217.637 2.37312 218.138 2.12154 218.574 1.74927C219.007 1.36962 219.316 0.886555 219.499 0.300084C219.69 -0.288087 219.695 -0.961528 219.512 -1.72024ZM232.124 -7.3525L234.388 2.48115L229.671 3.56726L225.755 -13.4423L230.251 -14.4774L230.942 -11.4764L231.141 -11.5223C231.29 -12.5982 231.741 -13.5261 232.494 -14.3059C233.246 -15.0931 234.253 -15.632 235.515 -15.9227C236.696 -16.1946 237.786 -16.1733 238.783 -15.8588C239.781 -15.5443 240.634 -14.9633 241.342 -14.1157C242.048 -13.2755 242.554 -12.1947 242.858 -10.8732L245.351 -0.0428889L240.634 1.04321L238.334 -8.94548C238.102 -9.98813 237.649 -10.739 236.976 -11.1982C236.301 -11.6647 235.491 -11.7892 234.546 -11.5716C233.911 -11.4255 233.382 -11.1597 232.957 -10.7744C232.54 -10.3907 232.256 -9.90539 232.103 -9.31833C231.956 -8.74036 231.963 -8.08508 232.124 -7.3525ZM257.741 -19.9087C257.447 -20.7816 256.907 -21.388 256.121 -21.728C255.336 -22.068 254.367 -22.1054 253.215 -21.8402C252.433 -21.6601 251.798 -21.3972 251.31 -21.0516C250.82 -20.7135 250.475 -20.3193 250.276 -19.8691C250.084 -19.4206 250.044 -18.9527 250.156 -18.4655C250.235 -18.056 250.401 -17.7212 250.655 -17.461C250.917 -17.2025 251.239 -17.0008 251.623 -16.8558C252.004 -16.7182 252.431 -16.6183 252.904 -16.5562C253.376 -16.5014 253.871 -16.4756 254.391 -16.4788L256.541 -16.4606C257.581 -16.4669 258.558 -16.3807 259.469 -16.2019C260.381 -16.0231 261.202 -15.734 261.931 -15.3344C262.661 -14.9349 263.276 -14.4079 263.776 -13.7535C264.284 -13.1008 264.651 -12.3028 264.875 -11.3595C265.188 -9.9699 265.11 -8.68494 264.643 -7.50467C264.182 -6.33348 263.359 -5.31607 262.174 -4.45245C260.995 -3.5979 259.483 -2.95817 257.637 -2.53325C255.806 -2.11172 254.147 -2.02513 252.659 -2.27347C251.179 -2.5235 249.932 -3.11099 248.919 -4.03594C247.911 -4.96996 247.2 -6.2485 246.788 -7.87157L251.428 -8.93982C251.655 -8.19131 252.018 -7.60654 252.52 -7.18553C253.027 -6.77359 253.635 -6.51322 254.344 -6.4044C255.059 -6.30466 255.829 -6.34997 256.656 -6.54034C257.468 -6.72731 258.146 -7.00775 258.69 -7.38167C259.241 -7.75729 259.634 -8.19374 259.869 -8.69104C260.105 -9.18834 260.159 -9.71014 260.034 -10.2565C259.916 -10.7659 259.666 -11.1592 259.284 -11.4365C258.909 -11.7155 258.405 -11.9105 257.773 -12.0216C257.149 -12.1343 256.4 -12.1952 255.527 -12.2041L252.915 -12.2557C250.896 -12.2806 249.219 -12.6602 247.883 -13.3945C246.548 -14.1289 245.691 -15.3348 245.313 -17.0124C244.989 -18.3838 245.079 -19.6676 245.581 -20.8638C246.09 -22.0616 246.928 -23.0981 248.095 -23.9731C249.262 -24.848 250.672 -25.4759 252.326 -25.8566C254.009 -26.2442 255.544 -26.2945 256.932 -26.0076C258.327 -25.7224 259.493 -25.1474 260.431 -24.2827C261.368 -23.418 262.004 -22.3127 262.337 -20.9668L257.741 -19.9087ZM277.332 -7.05589C275.582 -6.65307 273.995 -6.66069 272.569 -7.07878C271.149 -7.50595 269.949 -8.29471 268.969 -9.44506C267.987 -10.6028 267.29 -12.0787 266.877 -13.8726C266.474 -15.6223 266.46 -17.2361 266.835 -18.7139C267.21 -20.1918 267.929 -21.4418 268.992 -22.4639C270.062 -23.4877 271.432 -24.1917 273.1 -24.5758C274.222 -24.8342 275.308 -24.8938 276.359 -24.7547C277.415 -24.6247 278.387 -24.2849 279.276 -23.7354C280.171 -23.1875 280.947 -22.4177 281.603 -21.426C282.257 -20.4416 282.751 -19.2259 283.084 -17.7789L283.382 -16.4833L269.019 -13.1765L268.346 -16.1L278.269 -18.3844C278.112 -19.0636 277.826 -19.6313 277.41 -20.0875C276.994 -20.5437 276.49 -20.8591 275.898 -21.0337C275.311 -21.2174 274.675 -21.2302 273.988 -21.0721C273.272 -20.9073 272.676 -20.595 272.198 -20.1353C271.727 -19.6847 271.4 -19.1468 271.217 -18.5218C271.033 -17.9041 271.014 -17.2584 271.162 -16.5849L271.802 -13.8054C271.995 -12.9637 272.318 -12.2723 272.769 -11.7309C273.227 -11.1912 273.783 -10.8216 274.435 -10.6219C275.088 -10.4223 275.809 -10.4134 276.599 -10.5953C277.123 -10.7159 277.586 -10.9002 277.987 -11.1482C278.389 -11.3961 278.711 -11.7034 278.953 -12.0701C279.195 -12.4368 279.348 -12.8529 279.412 -13.3185L283.841 -14.0351C283.861 -12.9358 283.618 -11.9158 283.111 -10.9752C282.61 -10.0436 281.871 -9.23601 280.894 -8.55228C279.922 -7.87763 278.735 -7.37883 277.332 -7.05589ZM295.969 -11.3468C294.22 -10.9439 292.632 -10.9516 291.206 -11.3697C289.786 -11.7968 288.586 -12.5856 287.606 -13.7359C286.625 -14.8937 285.927 -16.3695 285.514 -18.1635C285.111 -19.9132 285.098 -21.527 285.472 -23.0048C285.847 -24.4827 286.566 -25.7327 287.629 -26.7548C288.7 -27.7786 290.069 -28.4826 291.737 -28.8667C292.86 -29.125 293.946 -29.1847 294.996 -29.0456C296.052 -28.9156 297.025 -28.5758 297.913 -28.0263C298.809 -27.4784 299.585 -26.7086 300.24 -25.7168C300.895 -24.7325 301.388 -23.5168 301.721 -22.0698L302.02 -20.7741L287.657 -17.4674L286.984 -20.3909L296.906 -22.6753C296.75 -23.3545 296.464 -23.9222 296.048 -24.3784C295.632 -24.8345 295.127 -25.1499 294.535 -25.3246C293.949 -25.5083 293.312 -25.5211 292.626 -25.363C291.91 -25.1982 291.313 -24.8859 290.836 -24.4262C290.364 -23.9756 290.037 -23.4377 289.855 -22.8126C289.67 -22.1949 289.652 -21.5493 289.799 -20.8758L290.439 -18.0962C290.633 -17.2546 290.955 -16.5631 291.406 -16.0218C291.865 -15.4821 292.42 -15.1124 293.073 -14.9128C293.725 -14.7131 294.446 -14.7043 295.236 -14.8861C295.76 -15.0068 296.223 -15.1911 296.625 -15.439C297.026 -15.687 297.348 -15.9943 297.59 -16.361C297.832 -16.7277 297.985 -17.1438 298.049 -17.6094L302.478 -18.326C302.498 -17.2267 302.255 -16.2067 301.749 -15.2661C301.248 -14.3345 300.509 -13.5269 299.531 -12.8432C298.559 -12.1685 297.372 -11.6697 295.969 -11.3468ZM306.778 -14.1852L302.862 -31.1947L307.436 -32.2477L308.119 -29.2799L308.296 -29.3207C308.363 -30.4478 308.7 -31.3649 309.307 -32.0721C309.912 -32.7867 310.691 -33.2536 311.643 -33.4729C311.88 -33.5273 312.138 -33.5712 312.418 -33.6045C312.698 -33.6379 312.947 -33.6525 313.165 -33.6484L314.129 -29.4625C313.892 -29.4779 313.572 -29.4665 313.169 -29.4281C312.766 -29.3897 312.402 -29.3331 312.077 -29.2583C311.383 -29.0985 310.798 -28.8044 310.321 -28.3759C309.85 -27.9565 309.517 -27.4445 309.322 -26.8399C309.135 -26.237 309.121 -25.5885 309.28 -24.8945L311.496 -15.2713L306.778 -14.1852Z" fill="white" fill-opacity="0.43"/>
<path d="M191.242 19.429L190.958 18.1936L196.779 16.8534L197.063 18.0889L194.893 18.5884L196.241 24.4403L194.759 24.7813L193.412 18.9294L191.242 19.429ZM204.742 18.7515C204.92 19.5243 204.925 20.2156 204.757 20.8252C204.591 21.4343 204.29 21.9398 203.853 22.3416C203.417 22.7407 202.887 23.0121 202.262 23.1561C201.632 23.3011 201.034 23.2882 200.467 23.1174C199.901 22.9465 199.41 22.6235 198.994 22.1483C198.579 21.6731 198.282 21.0502 198.105 20.2796C197.927 19.5067 197.921 18.8157 198.087 18.2067C198.253 17.5976 198.553 17.0935 198.989 16.6945C199.423 16.2931 199.956 16.02 200.586 15.875C201.211 15.731 201.807 15.7445 202.373 15.9153C202.941 16.0833 203.433 16.4049 203.849 16.8801C204.267 17.3548 204.564 17.9786 204.742 18.7515ZM203.223 19.1012C203.108 18.6006 202.936 18.1957 202.707 17.8864C202.48 17.5767 202.211 17.364 201.9 17.2485C201.589 17.133 201.253 17.117 200.891 17.2004C200.528 17.2838 200.233 17.4454 200.004 17.6852C199.775 17.9249 199.625 18.234 199.554 18.6123C199.486 18.99 199.509 19.4292 199.624 19.9298C199.739 20.4305 199.91 20.8357 200.137 21.1454C200.366 21.4546 200.636 21.667 200.947 21.7825C201.258 21.898 201.595 21.9141 201.957 21.8307C202.319 21.7473 202.615 21.5857 202.844 21.3459C203.073 21.1061 203.221 20.7973 203.29 20.4196C203.361 20.0413 203.338 19.6019 203.223 19.1012ZM204.727 16.3243L204.443 15.0889L210.264 13.7488L210.548 14.9842L208.378 15.4838L209.726 21.3357L208.245 21.6767L206.897 15.8248L204.727 16.3243ZM213.21 20.5335L211.604 20.9032L212.419 13.2526L214.35 12.808L218.425 19.3329L216.819 19.7026L213.785 14.6435L213.73 14.6563L213.21 20.5335ZM212.468 17.7709L216.261 16.8976L216.53 18.0673L212.737 18.9406L212.468 17.7709ZM219.278 19.1365L217.646 12.0492L219.145 11.7042L220.492 17.5561L223.53 16.8565L223.815 18.092L219.278 19.1365ZM229.745 11.41C229.653 11.1373 229.484 10.9478 229.239 10.8415C228.993 10.7353 228.69 10.7236 228.33 10.8064C228.086 10.8627 227.887 10.9449 227.735 11.0529C227.582 11.1586 227.474 11.2817 227.412 11.4224C227.352 11.5626 227.339 11.7088 227.374 11.861C227.399 11.989 227.451 12.0936 227.53 12.1749C227.612 12.2557 227.713 12.3188 227.833 12.3641C227.952 12.4071 228.085 12.4383 228.233 12.4577C228.38 12.4748 228.535 12.4829 228.698 12.4819L229.37 12.4876C229.695 12.4856 230 12.5126 230.285 12.5684C230.57 12.6243 230.826 12.7146 231.054 12.8395C231.282 12.9644 231.474 13.1291 231.631 13.3336C231.789 13.5375 231.904 13.7869 231.974 14.0817C232.072 14.5159 232.048 14.9175 231.902 15.2863C231.758 15.6523 231.5 15.9702 231.13 16.2401C230.762 16.5072 230.289 16.7071 229.712 16.8399C229.14 16.9716 228.622 16.9987 228.157 16.9211C227.694 16.8429 227.304 16.6593 226.988 16.3703C226.673 16.0784 226.451 15.6789 226.322 15.1717L227.772 14.8378C227.843 15.0717 227.956 15.2545 228.113 15.386C228.271 15.5148 228.461 15.5961 228.683 15.6301C228.906 15.6613 229.147 15.6471 229.406 15.5877C229.659 15.5292 229.871 15.4416 230.041 15.3247C230.213 15.2074 230.336 15.071 230.41 14.9156C230.483 14.7602 230.5 14.5971 230.461 14.4264C230.424 14.2672 230.346 14.1443 230.227 14.0576C230.11 13.9704 229.952 13.9095 229.755 13.8748C229.56 13.8395 229.326 13.8205 229.053 13.8177L228.237 13.8016C227.606 13.7938 227.081 13.6752 226.664 13.4457C226.247 13.2162 225.979 12.8394 225.861 12.3152C225.76 11.8866 225.788 11.4854 225.945 11.1116C226.104 10.7373 226.366 10.4134 226.73 10.1399C227.095 9.8665 227.536 9.67029 228.052 9.55132C228.578 9.43021 229.058 9.41449 229.492 9.50414C229.928 9.59327 230.292 9.77294 230.585 10.0432C230.878 10.3134 231.077 10.6588 231.181 11.0794L229.745 11.41ZM231.401 8.88236L233.08 8.49594L235.398 11.1761L235.468 11.1602L236.381 7.73586L238.059 7.34944L236.529 12.5264L237.106 15.0319L235.618 15.3745L235.041 12.869L231.401 8.88236ZM243.192 8.31415C243.1 8.04137 242.931 7.85185 242.686 7.74562C242.44 7.63938 242.137 7.62769 241.777 7.71055C241.533 7.76685 241.334 7.84899 241.182 7.95698C241.029 8.06266 240.921 8.18584 240.859 8.32652C240.799 8.46668 240.786 8.61288 240.821 8.76515C240.846 8.8931 240.898 8.99773 240.977 9.07904C241.059 9.15982 241.16 9.22287 241.28 9.26818C241.399 9.31118 241.532 9.34239 241.68 9.36181C241.828 9.37892 241.982 9.38699 242.145 9.386L242.817 9.39167C243.142 9.38971 243.447 9.41666 243.732 9.47253C244.017 9.52839 244.273 9.61875 244.501 9.74361C244.729 9.86848 244.921 10.0332 245.078 10.2377C245.236 10.4416 245.351 10.691 245.421 10.9858C245.519 11.42 245.495 11.8216 245.349 12.1904C245.205 12.5564 244.947 12.8743 244.577 13.1442C244.209 13.4113 243.736 13.6112 243.159 13.744C242.587 13.8757 242.069 13.9028 241.604 13.8252C241.141 13.747 240.751 13.5634 240.435 13.2744C240.12 12.9825 239.898 12.583 239.769 12.0758L241.219 11.7419C241.29 11.9758 241.403 12.1586 241.56 12.2901C241.718 12.4189 241.908 12.5002 242.13 12.5342C242.353 12.5654 242.594 12.5513 242.853 12.4918C243.106 12.4333 243.318 12.3457 243.488 12.2288C243.66 12.1115 243.783 11.9751 243.857 11.8197C243.93 11.6643 243.947 11.5012 243.908 11.3305C243.871 11.1713 243.793 11.0484 243.674 10.9617C243.557 10.8745 243.399 10.8136 243.202 10.7789C243.007 10.7436 242.773 10.7246 242.5 10.7218L241.684 10.7057C241.053 10.6979 240.528 10.5793 240.111 10.3498C239.694 10.1203 239.426 9.74349 239.308 9.21926C239.207 8.79067 239.235 8.38948 239.392 8.01568C239.551 7.64136 239.813 7.31747 240.177 7.04404C240.542 6.7706 240.983 6.5744 241.499 6.45542C242.025 6.33432 242.505 6.31859 242.939 6.40825C243.375 6.49737 243.739 6.67705 244.032 6.94727C244.325 7.21749 244.524 7.5629 244.628 7.9835L243.192 8.31415ZM245.278 6.98843L244.994 5.753L250.814 4.41289L251.099 5.64833L248.929 6.14788L250.276 11.9998L248.795 12.3408L247.448 6.48888L245.278 6.98843ZM253.405 11.2795L251.773 4.1922L256.549 3.09271L256.833 4.32815L253.556 5.08265L253.945 6.77143L256.976 6.07349L257.261 7.30893L254.229 8.00686L254.619 9.6991L257.91 8.94141L258.194 10.1768L253.405 11.2795ZM257.74 2.81844L259.588 2.39298L262.636 6.70542L262.719 6.6863L263.574 1.47515L265.422 1.04969L267.054 8.13701L265.601 8.47164L264.539 3.85865L264.48 3.8722L263.7 8.87285L262.71 9.10071L259.818 4.92729L259.759 4.94084L260.825 9.57113L259.372 9.90576L257.74 2.81844ZM273.226 1.39932C273.134 1.12654 272.966 0.937027 272.72 0.830789C272.475 0.72455 272.172 0.71286 271.812 0.79572C271.567 0.852023 271.369 0.934167 271.216 1.04215C271.063 1.14783 270.956 1.27101 270.893 1.4117C270.833 1.55185 270.821 1.69806 270.856 1.85032C270.881 1.97828 270.933 2.08291 271.012 2.16422C271.094 2.245 271.195 2.30804 271.314 2.35335C271.434 2.39636 271.567 2.42757 271.715 2.44698C271.862 2.46409 272.017 2.47216 272.18 2.47118L272.851 2.47684C273.176 2.47488 273.481 2.50183 273.766 2.5577C274.051 2.61356 274.308 2.70392 274.536 2.82879C274.764 2.95365 274.956 3.11833 275.112 3.32283C275.271 3.52679 275.386 3.77616 275.456 4.07094C275.553 4.5052 275.529 4.90674 275.383 5.27558C275.239 5.64158 274.982 5.95952 274.612 6.2294C274.243 6.49644 273.771 6.69636 273.194 6.82915C272.622 6.96088 272.103 6.98794 271.638 6.91033C271.176 6.8322 270.786 6.6486 270.469 6.35956C270.154 6.06768 269.932 5.66813 269.803 5.16093L271.253 4.8271C271.324 5.06101 271.438 5.24374 271.595 5.37531C271.753 5.50404 271.943 5.58541 272.165 5.61942C272.388 5.65058 272.629 5.63642 272.887 5.57693C273.141 5.51851 273.353 5.43087 273.523 5.31402C273.695 5.19664 273.818 5.06024 273.891 4.90484C273.965 4.74943 273.982 4.58637 273.943 4.41565C273.906 4.25646 273.828 4.13354 273.708 4.04688C273.591 3.9597 273.434 3.89875 273.236 3.86405C273.041 3.82881 272.807 3.8098 272.534 3.80699L271.718 3.79087C271.087 3.7831 270.563 3.66447 270.146 3.435C269.729 3.20552 269.461 2.82867 269.343 2.30443C269.241 1.87585 269.269 1.47465 269.426 1.10086C269.585 0.726528 269.847 0.402646 270.212 0.129211C270.577 -0.144224 271.017 -0.34043 271.534 -0.459409C272.06 -0.580512 272.54 -0.596236 272.973 -0.50658C273.409 -0.417456 273.774 -0.237782 274.067 0.0324409C274.36 0.302664 274.558 0.648075 274.663 1.06868L273.226 1.39932ZM282.627 0.820235C282.805 1.5931 282.81 2.28435 282.641 2.89397C282.476 3.50305 282.174 4.00853 281.737 4.4104C281.302 4.80943 280.771 5.08091 280.146 5.22486C279.516 5.36986 278.918 5.35696 278.352 5.18614C277.785 5.01532 277.294 4.6923 276.879 4.21706C276.463 3.74183 276.167 3.11893 275.989 2.34837C275.811 1.5755 275.805 0.884519 275.971 0.275432C276.137 -0.333655 276.438 -0.837713 276.873 -1.23674C277.308 -1.63808 277.84 -1.91125 278.47 -2.05626C279.095 -2.2002 279.691 -2.18676 280.257 -2.01595C280.826 -1.84797 281.318 -1.52636 281.733 -1.05112C282.151 -0.57642 282.449 0.0473669 282.627 0.820235ZM281.108 1.17C280.992 0.669366 280.82 0.264435 280.591 -0.0447938C280.364 -0.354553 280.095 -0.567183 279.785 -0.682682C279.474 -0.798181 279.137 -0.814236 278.775 -0.730844C278.413 -0.647453 278.117 -0.485863 277.888 -0.246074C277.659 -0.00628413 277.509 0.30275 277.438 0.681028C277.37 1.05878 277.393 1.49797 277.509 1.9986C277.624 2.49923 277.795 2.90443 278.022 3.21419C278.251 3.52342 278.521 3.73578 278.832 3.85128C279.142 3.96678 279.479 3.98284 279.841 3.89945C280.203 3.81605 280.499 3.65446 280.728 3.41467C280.957 3.17489 281.106 2.86612 281.174 2.48837C281.245 2.11009 281.223 1.67063 281.108 1.17ZM284.553 4.10834L282.921 -2.97898L284.419 -3.32396L285.767 2.52792L288.805 1.82839L289.09 3.06383L284.553 4.10834ZM292.828 -5.25982L294.326 -5.6048L295.386 -1.0022C295.505 -0.485413 295.486 -0.00481026 295.328 0.439611C295.173 0.883501 294.9 1.2646 294.509 1.58292C294.118 1.89893 293.629 2.12439 293.043 2.2593C292.455 2.39474 291.916 2.40591 291.425 2.29281C290.935 2.17739 290.523 1.95404 290.189 1.62276C289.855 1.29147 289.629 0.867436 289.51 0.350653L288.45 -4.25195L289.949 -4.59694L290.979 -0.122374C291.041 0.147553 291.155 0.373944 291.321 0.556798C291.489 0.739122 291.696 0.865303 291.94 0.935342C292.185 1.00538 292.451 1.0072 292.739 0.94081C293.03 0.873884 293.269 0.755739 293.456 0.586374C293.645 0.416478 293.774 0.213014 293.844 -0.0240186C293.915 -0.261582 293.92 -0.515327 293.858 -0.785255L292.828 -5.25982ZM295.574 -4.59106L295.289 -5.82649L301.11 -7.16659L301.394 -5.93116L299.225 -5.43161L300.572 0.420277L299.091 0.761278L297.743 -5.09061L295.574 -4.59106ZM303.567 -7.73227L305.199 -0.644952L303.7 -0.299968L302.068 -7.38729L303.567 -7.73227ZM312.128 -5.9719C312.306 -5.19903 312.311 -4.50778 312.143 -3.89817C311.977 -3.28908 311.676 -2.7836 311.239 -2.38173C310.803 -1.9827 310.273 -1.71122 309.648 -1.56727C309.018 -1.42227 308.42 -1.43517 307.853 -1.60599C307.287 -1.77681 306.796 -2.09983 306.38 -2.57507C305.965 -3.05031 305.668 -3.6732 305.491 -4.44377C305.313 -5.21663 305.307 -5.90761 305.473 -6.5167C305.639 -7.12579 305.939 -7.62984 306.375 -8.02887C306.809 -8.43021 307.342 -8.70338 307.972 -8.84839C308.597 -8.99233 309.193 -8.97889 309.759 -8.80808C310.327 -8.6401 310.819 -8.31849 311.235 -7.84326C311.653 -7.36855 311.951 -6.74476 312.128 -5.9719ZM310.609 -5.62213C310.494 -6.12276 310.322 -6.5277 310.093 -6.83692C309.866 -7.14668 309.597 -7.35931 309.286 -7.47481C308.975 -7.59031 308.639 -7.60637 308.277 -7.52298C307.915 -7.43958 307.619 -7.27799 307.39 -7.0382C307.161 -6.79842 307.011 -6.48938 306.94 -6.1111C306.872 -5.73336 306.895 -5.29416 307.01 -4.79353C307.125 -4.2929 307.297 -3.8877 307.523 -3.57794C307.752 -3.26871 308.022 -3.05635 308.333 -2.94085C308.644 -2.82535 308.981 -2.80929 309.343 -2.89269C309.705 -2.97608 310.001 -3.13767 310.23 -3.37746C310.459 -3.61725 310.607 -3.92601 310.676 -4.30376C310.747 -4.68204 310.725 -5.1215 310.609 -5.62213ZM318.351 -11.1359L319.982 -4.04859L318.688 -3.75061L314.578 -7.50144L314.526 -7.48949L315.553 -3.02877L314.054 -2.68379L312.423 -9.77111L313.738 -10.0739L317.823 -6.32091L317.885 -6.33526L316.859 -10.7925L318.351 -11.1359Z" fill="white" fill-opacity="0.43"/>
<path d="M-19.4903 34.7281C-19.7846 33.8552 -20.3246 33.2488 -21.1103 32.9088C-21.896 32.5689 -22.8647 32.5315 -24.0163 32.7966C-24.7989 32.9768 -25.4341 33.2397 -25.9221 33.5852C-26.4117 33.9234 -26.7563 34.3176 -26.9559 34.7677C-27.148 35.2162 -27.188 35.6841 -27.0758 36.1714C-26.9971 36.5808 -26.8306 36.9156 -26.5764 37.1758C-26.3147 37.4343 -25.9923 37.6361 -25.6091 37.781C-25.2276 37.9187 -24.8004 38.0185 -24.3274 38.0807C-23.8561 38.1354 -23.3604 38.1612 -22.8403 38.1581L-20.6905 38.1762C-19.6502 38.1699 -18.6742 38.2562 -17.7623 38.435C-16.8505 38.6137 -16.0299 38.9029 -15.3004 39.3024C-14.571 39.702 -13.956 40.229 -13.4555 40.8834C-12.9476 41.5361 -12.5812 42.334 -12.3563 43.2773C-12.0441 44.6669 -12.1214 45.9519 -12.5882 47.1322C-13.0493 48.3034 -13.8724 49.3208 -15.0573 50.1844C-16.2365 51.0389 -17.749 51.6787 -19.5946 52.1036C-21.4255 52.5251 -23.0848 52.6117 -24.5723 52.3634C-26.0525 52.1133 -27.2995 51.5259 -28.3131 50.6009C-29.3211 49.6669 -30.0314 48.3883 -30.4439 46.7653L-25.804 45.697C-25.5772 46.4455 -25.2132 47.0303 -24.7121 47.4513C-24.2052 47.8633 -23.5972 48.1236 -22.888 48.2324C-22.1732 48.3322 -21.4023 48.2869 -20.5755 48.0965C-19.7634 47.9095 -19.0856 47.6291 -18.542 47.2552C-17.991 46.8796 -17.5978 46.4431 -17.3625 45.9458C-17.1271 45.4485 -17.0724 44.9267 -17.1981 44.3804C-17.3154 43.871 -17.5653 43.4776 -17.9479 43.2003C-18.3231 42.9213 -18.8267 42.7263 -19.4586 42.6153C-20.0832 42.5025 -20.8318 42.4417 -21.7046 42.4327L-24.3168 42.3811C-26.336 42.3562 -28.0132 41.9766 -29.3483 41.2423C-30.6835 40.508 -31.5403 39.302 -31.9187 37.6245C-32.2422 36.253 -32.153 34.9692 -31.651 33.7731C-31.1416 32.5752 -30.3035 31.5388 -29.1368 30.6638C-27.97 29.7888 -26.5598 29.1609 -24.9061 28.7802C-23.2228 28.3927 -21.6874 28.3424 -20.2998 28.6293C-18.9048 28.9145 -17.7384 29.4894 -16.8008 30.3541C-15.8632 31.2188 -15.2278 32.3242 -14.8946 33.6701L-19.4903 34.7281ZM1.51232 39.2798L-0.736369 29.5125L3.98113 28.4264L7.89722 45.436L3.36798 46.4788L2.65666 43.3891L2.47948 43.4299C2.32504 44.515 1.87086 45.463 1.11693 46.2741C0.370394 47.0834 -0.641473 47.6351 -1.91867 47.9291C-3.05559 48.1909 -4.11543 48.1628 -5.09817 47.8449C-6.08092 47.527 -6.92555 46.9479 -7.63206 46.1077C-8.33119 45.2659 -8.83742 44.1813 -9.15075 42.8542L-11.6442 32.0238L-6.9267 30.9377L-4.62702 40.9264C-4.38847 41.9288 -3.93629 42.6604 -3.27047 43.1212C-2.60464 43.5821 -1.82508 43.7097 -0.931784 43.504C-0.363321 43.3731 0.138483 43.1215 0.57363 42.7493C1.00708 42.3696 1.31565 41.8866 1.49936 41.3001C1.69046 40.7119 1.69478 40.0385 1.51232 39.2798ZM14.1242 33.6475L16.3882 43.4812L11.6707 44.5673L7.75457 27.5577L12.2506 26.5226L12.9415 29.5236L13.1408 29.4777C13.2896 28.4018 13.7406 27.4739 14.494 26.6941C15.2456 25.9069 16.2527 25.368 17.5151 25.0773C18.6963 24.8054 19.7857 24.8267 20.7832 25.1412C21.7807 25.4557 22.6336 26.0367 23.3418 26.8843C24.0483 27.7245 24.5537 28.8053 24.8579 30.1268L27.3514 40.9571L22.6339 42.0432L20.3342 32.0545C20.1019 31.0119 19.6492 30.261 18.976 29.8018C18.301 29.3353 17.4911 29.2108 16.5461 29.4284C15.9112 29.5745 15.3816 29.8403 14.9572 30.2256C14.5402 30.6093 14.2555 31.0946 14.103 31.6817C13.9562 32.2596 13.9633 32.9149 14.1242 33.6475ZM39.7414 21.0913C39.4471 20.2184 38.9072 19.612 38.1215 19.272C37.3358 18.932 36.3671 18.8946 35.2154 19.1598C34.4328 19.3399 33.7976 19.6028 33.3096 19.9484C32.82 20.2865 32.4754 20.6807 32.2759 21.1309C32.0837 21.5794 32.0437 22.0473 32.1559 22.5345C32.2346 22.944 32.4011 23.2788 32.6554 23.539C32.917 23.7975 33.2394 23.9992 33.6226 24.1442C34.0041 24.2818 34.4314 24.3817 34.9043 24.4438C35.3756 24.4986 35.8713 24.5244 36.3914 24.5212L38.5412 24.5394C39.5815 24.5331 40.5575 24.6193 41.4694 24.7981C42.3812 24.9769 43.2019 25.266 43.9313 25.6656C44.6608 26.0651 45.2757 26.5921 45.7762 27.2465C46.2841 27.8992 46.6505 28.6972 46.8754 29.6405C47.1876 31.0301 47.1103 32.3151 46.6435 33.4953C46.1824 34.6665 45.3594 35.6839 44.1744 36.5476C42.9952 37.4021 41.4827 38.0418 39.6371 38.4668C37.8062 38.8883 36.147 38.9749 34.6594 38.7265C33.1792 38.4765 31.9322 37.889 30.9186 36.9641C29.9106 36.03 29.2003 34.7515 28.7878 33.1284L33.4278 32.0602C33.6545 32.8087 34.0185 33.3935 34.5197 33.8145C35.0265 34.2264 35.6345 34.4868 36.3437 34.5956C37.0585 34.6953 37.8294 34.65 38.6562 34.4597C39.4683 34.2727 40.1462 33.9923 40.6898 33.6183C41.2408 33.2427 41.6339 32.8063 41.8692 32.309C42.1046 31.8117 42.1594 31.2899 42.0336 30.7435C41.9163 30.2341 41.6664 29.8408 41.2838 29.5635C40.9086 29.2845 40.4051 29.0895 39.7731 28.9784C39.1486 28.8657 38.3999 28.8048 37.5272 28.7959L34.9149 28.7443C32.8957 28.7194 31.2186 28.3398 29.8834 27.6055C28.5483 26.8711 27.6915 25.6652 27.313 23.9876C26.9895 22.6162 27.0787 21.3324 27.5807 20.1362C28.0901 18.9384 28.9282 17.9019 30.095 17.0269C31.2617 16.152 32.672 15.5241 34.3257 15.1434C36.0089 14.7558 37.5443 14.7055 38.932 14.9924C40.327 15.2776 41.4933 15.8526 42.4309 16.7173C43.3685 17.582 44.0039 18.6873 44.3371 20.0332L39.7414 21.0913ZM59.3319 33.9441C57.5822 34.3469 55.9945 34.3393 54.5689 33.9212C53.149 33.4941 51.949 32.7053 50.969 31.5549C49.9872 30.3972 49.2899 28.9213 48.8768 27.1274C48.474 25.3777 48.4601 23.7639 48.835 22.2861C49.21 20.8082 49.9289 19.5582 50.9919 18.5361C52.0622 17.5123 53.4316 16.8083 55.1 16.4242C56.2222 16.1658 57.3085 16.1062 58.3589 16.2453C59.415 16.3753 60.3872 16.7151 61.2756 17.2646C62.1713 17.8125 62.9472 18.5823 63.603 19.574C64.2572 20.5584 64.7509 21.7741 65.0841 23.2211L65.3824 24.5167L51.0195 27.8235L50.3464 24.9L60.2686 22.6156C60.1123 21.9364 59.8261 21.3687 59.4101 20.9125C58.9941 20.4563 58.49 20.1409 57.8979 19.9663C57.3114 19.7826 56.6749 19.7698 55.9883 19.9279C55.2722 20.0927 54.6755 20.405 54.1983 20.8647C53.7268 21.3153 53.3997 21.8532 53.2171 22.4782C53.0328 23.0959 53.0143 23.7416 53.1616 24.4151L53.8016 27.1946C53.9953 28.0363 54.3178 28.7277 54.7689 29.2691C55.2275 29.8088 55.7829 30.1784 56.4352 30.3781C57.0875 30.5777 57.8087 30.5866 58.5986 30.4047C59.1228 30.2841 59.5857 30.0998 59.9872 29.8518C60.3888 29.6039 60.7107 29.2966 60.9527 28.9299C61.1948 28.5632 61.3478 28.1471 61.4116 27.6815L65.841 26.9649C65.8609 28.0642 65.6176 29.0842 65.1112 30.0248C64.6105 30.9564 63.8713 31.764 62.8938 32.4477C61.9219 33.1224 60.7346 33.6212 59.3319 33.9441ZM77.9693 29.6532C76.2196 30.0561 74.632 30.0484 73.2064 29.6303C71.7865 29.2032 70.5865 28.4144 69.6064 27.2641C68.6247 26.1063 67.9273 24.6305 67.5143 22.8365C67.1114 21.0868 67.0975 19.473 67.4725 17.9952C67.8474 16.5173 68.5664 15.2673 69.6293 14.2452C70.6996 13.2214 72.069 12.5174 73.7375 12.1333C74.8596 11.875 75.9459 11.8153 76.9963 11.9544C78.0524 12.0844 79.0246 12.4242 79.913 12.9737C80.8088 13.5216 81.5846 14.2914 82.2405 15.2832C82.8947 16.2675 83.3884 17.4832 83.7215 18.9302L84.0198 20.2259L69.6569 23.5326L68.9838 20.6091L78.9061 18.3247C78.7497 17.6455 78.4635 17.0778 78.0475 16.6216C77.6315 16.1655 77.1275 15.8501 76.5353 15.6754C75.9489 15.4917 75.3123 15.4789 74.6257 15.637C73.9096 15.8018 73.313 16.1141 72.8358 16.5738C72.3642 17.0244 72.0372 17.5623 71.8546 18.1874C71.6703 18.8051 71.6518 19.4507 71.7991 20.1242L72.439 22.9038C72.6328 23.7454 72.9552 24.4369 73.4064 24.9782C73.8649 25.5179 74.4203 25.8876 75.0727 26.0872C75.725 26.2869 76.4461 26.2957 77.2361 26.1139C77.7602 25.9932 78.2231 25.8089 78.6247 25.561C79.0263 25.313 79.3481 25.0057 79.5902 24.639C79.8323 24.2723 79.9852 23.8562 80.0491 23.3906L84.4785 22.674C84.4984 23.7733 84.2551 24.7933 83.7487 25.7339C83.2479 26.6655 82.5088 27.4731 81.5312 28.1568C80.5593 28.8315 79.372 29.3303 77.9693 29.6532ZM88.7785 26.8148L84.8624 9.80525L89.4359 8.75229L90.1192 11.7201L90.2964 11.6793C90.3634 10.5522 90.7003 9.63506 91.3071 8.92786C91.9122 8.21327 92.691 7.74635 93.6433 7.52709C93.8796 7.4727 94.1377 7.42883 94.4176 7.39547C94.6976 7.36211 94.9469 7.34748 95.1655 7.35156L96.1292 11.5375C95.8924 11.5221 95.5724 11.5335 95.1693 11.5719C94.7661 11.6103 94.4021 11.6669 94.0772 11.7417C93.3833 11.9015 92.798 12.1956 92.3213 12.6241C91.8504 13.0435 91.5174 13.5555 91.3223 14.1601C91.1346 14.763 91.1207 15.4115 91.2804 16.1055L93.496 25.7287L88.7785 26.8148Z" fill="white" fill-opacity="0.43"/>
<path d="M-26.7576 60.429L-27.0421 59.1936L-21.2213 57.8534L-20.9369 59.0889L-23.1067 59.5884L-21.7594 65.4403L-23.2405 65.7813L-24.5878 59.9294L-26.7576 60.429ZM-13.2576 59.7515C-13.0796 60.5243 -13.0748 61.2156 -13.2429 61.8252C-13.4088 62.4343 -13.7103 62.9398 -14.1474 63.3416C-14.5827 63.7407 -15.1129 64.0121 -15.7381 64.1561C-16.368 64.3011 -16.9661 64.2882 -17.5326 64.1174C-18.0991 63.9465 -18.5901 63.6235 -19.0056 63.1483C-19.4212 62.6731 -19.7176 62.0502 -19.895 61.2796C-20.073 60.5067 -20.079 59.8157 -19.9131 59.2067C-19.7473 58.5976 -19.4467 58.0935 -19.0114 57.6945C-18.5766 57.2931 -18.0443 57.02 -17.4145 56.875C-16.7892 56.731 -16.1934 56.7445 -15.6269 56.9153C-15.0586 57.0833 -14.5667 57.4049 -14.1512 57.8801C-13.7334 58.3548 -13.4355 58.9786 -13.2576 59.7515ZM-14.7768 60.1012C-14.892 59.6006 -15.0642 59.1957 -15.2933 58.8864C-15.5201 58.5767 -15.7889 58.364 -16.0998 58.2485C-16.4106 58.133 -16.7471 58.117 -17.1093 58.2004C-17.4715 58.2838 -17.7671 58.4454 -17.9962 58.6852C-18.2252 58.9249 -18.3751 59.234 -18.4459 59.6123C-18.5144 59.99 -18.4911 60.4292 -18.3758 60.9298C-18.2606 61.4305 -18.0895 61.8357 -17.8627 62.1454C-17.6336 62.4546 -17.3637 62.667 -17.0528 62.7825C-16.742 62.898 -16.4055 62.9141 -16.0433 62.8307C-15.6811 62.7473 -15.3855 62.5857 -15.1564 62.3459C-14.9274 62.1061 -14.7786 61.7973 -14.7101 61.4196C-14.6393 61.0413 -14.6615 60.6019 -14.7768 60.1012ZM-13.2725 57.3243L-13.5569 56.0889L-7.7362 54.7488L-7.45176 55.9842L-9.62156 56.4838L-8.27429 62.3357L-9.75543 62.6767L-11.1027 56.8248L-13.2725 57.3243ZM-4.79033 61.5335L-6.39605 61.9032L-5.58111 54.2526L-3.65009 53.808L0.424805 60.3329L-1.18092 60.7026L-4.21504 55.6435L-4.27041 55.6563L-4.79033 61.5335ZM-5.53205 58.7709L-1.73923 57.8976L-1.46993 59.0673L-5.26276 59.9406L-5.53205 58.7709ZM1.27784 60.1365L-0.353861 53.0492L1.14458 52.7042L2.49185 58.5561L5.53027 57.8565L5.8147 59.092L1.27784 60.1365ZM11.7448 52.41C11.6528 52.1373 11.4841 51.9478 11.2386 51.8415C10.993 51.7353 10.6903 51.7236 10.3304 51.8064C10.0859 51.8627 9.88734 51.9449 9.73485 52.0529C9.58184 52.1586 9.47416 52.2817 9.4118 52.4224C9.35175 52.5626 9.33926 52.7088 9.37431 52.861C9.39891 52.989 9.45094 53.0936 9.53039 53.1749C9.61215 53.2557 9.71291 53.3188 9.83266 53.3641C9.95188 53.4071 10.0854 53.4383 10.2332 53.4577C10.3805 53.4748 10.5354 53.4829 10.6979 53.4819L11.3697 53.4876C11.6948 53.4856 11.9998 53.5126 12.2848 53.5684C12.5697 53.6243 12.8262 53.7146 13.0541 53.8395C13.2821 53.9644 13.4743 54.1291 13.6307 54.3336C13.7894 54.5375 13.9039 54.7869 13.9742 55.0817C14.0717 55.5159 14.0476 55.9175 13.9017 56.2863C13.7576 56.6523 13.5004 56.9702 13.1301 57.2401C12.7616 57.5072 12.2889 57.7071 11.7122 57.8399C11.14 57.9716 10.6215 57.9987 10.1566 57.9211C9.69409 57.8429 9.30442 57.6593 8.98765 57.3703C8.67266 57.0784 8.4507 56.6789 8.32178 56.1717L9.77177 55.8378C9.84263 56.0717 9.95637 56.2545 10.113 56.386C10.2714 56.5148 10.4614 56.5961 10.683 56.6301C10.9064 56.6613 11.1473 56.6471 11.4057 56.5877C11.6594 56.5292 11.8713 56.4416 12.0411 56.3247C12.2133 56.2074 12.3362 56.071 12.4097 55.9156C12.4833 55.7602 12.5004 55.5971 12.4611 55.4264C12.4244 55.2672 12.3463 55.1443 12.2268 55.0576C12.1095 54.9704 11.9522 54.9095 11.7547 54.8748C11.5595 54.8395 11.3256 54.8205 11.0528 54.8177L10.2365 54.8016C9.60551 54.7938 9.08139 54.6752 8.66416 54.4457C8.24692 54.2162 7.97917 53.8394 7.86091 53.3152C7.75981 52.8866 7.78769 52.4854 7.94457 52.1116C8.10375 51.7373 8.36565 51.4134 8.73027 51.1399C9.09488 50.8665 9.53558 50.6703 10.0524 50.5513C10.5784 50.4302 11.0582 50.4145 11.4918 50.5041C11.9278 50.5933 12.2922 50.7729 12.5852 51.0432C12.8782 51.3134 13.0768 51.6588 13.1809 52.0794L11.7448 52.41ZM13.4012 49.8824L15.0796 49.4959L17.3984 52.1761L17.4676 52.1602L18.381 48.7359L20.0594 48.3494L18.5292 53.5264L19.106 56.0319L17.618 56.3745L17.0411 53.869L13.4012 49.8824ZM25.1918 49.3141C25.0999 49.0414 24.9311 48.8519 24.6856 48.7456C24.4401 48.6394 24.1374 48.6277 23.7774 48.7105C23.5329 48.7669 23.3344 48.849 23.1819 48.957C23.0289 49.0627 22.9212 49.1858 22.8588 49.3265C22.7988 49.4667 22.7863 49.6129 22.8214 49.7652C22.846 49.8931 22.898 49.9977 22.9774 50.079C23.0592 50.1598 23.16 50.2229 23.2797 50.2682C23.3989 50.3112 23.5324 50.3424 23.6802 50.3618C23.8275 50.3789 23.9824 50.387 24.145 50.386L24.8168 50.3917C25.1419 50.3897 25.4469 50.4167 25.7318 50.4725C26.0168 50.5284 26.2732 50.6188 26.5012 50.7436C26.7291 50.8685 26.9213 51.0332 27.0777 51.2377C27.2364 51.4416 27.3509 51.691 27.4212 51.9858C27.5188 52.42 27.4946 52.8216 27.3487 53.1904C27.2046 53.5564 26.9474 53.8743 26.5772 54.1442C26.2086 54.4113 25.736 54.6112 25.1592 54.744C24.5871 54.8757 24.0686 54.9028 23.6037 54.8252C23.1411 54.747 22.7515 54.5634 22.4347 54.2744C22.1197 53.9825 21.8977 53.583 21.7688 53.0758L23.2188 52.7419C23.2897 52.9758 23.4034 53.1586 23.56 53.2901C23.7184 53.4189 23.9084 53.5002 24.13 53.5342C24.3534 53.5654 24.5943 53.5513 24.8527 53.4918C25.1065 53.4333 25.3183 53.3457 25.4882 53.2288C25.6604 53.1115 25.7832 52.9751 25.8568 52.8197C25.9303 52.6643 25.9474 52.5012 25.9081 52.3305C25.8715 52.1713 25.7934 52.0484 25.6738 51.9617C25.5566 51.8745 25.3992 51.8136 25.2017 51.7789C25.0066 51.7436 24.7726 51.7246 24.4999 51.7218L23.6835 51.7057C23.0526 51.6979 22.5284 51.5793 22.1112 51.3498C21.694 51.1203 21.4262 50.7435 21.308 50.2193C21.2069 49.7907 21.2347 49.3895 21.3916 49.0157C21.5508 48.6414 21.8127 48.3175 22.1773 48.044C22.5419 47.7706 22.9826 47.5744 23.4994 47.4554C24.0254 47.3343 24.5052 47.3186 24.9389 47.4082C25.3748 47.4974 25.7393 47.677 26.0323 47.9473C26.3253 48.2175 26.5239 48.5629 26.628 48.9835L25.1918 49.3141ZM27.278 47.9884L26.9936 46.753L32.8143 45.4129L33.0987 46.6483L30.9289 47.1479L32.2762 52.9998L30.7951 53.3408L29.4478 47.4889L27.278 47.9884ZM35.4046 52.2795L33.7729 45.1922L38.5485 44.0927L38.833 45.3281L35.5558 46.0827L35.9446 47.7714L38.9761 47.0735L39.2605 48.3089L36.229 49.0069L36.6186 50.6991L39.9096 49.9414L40.1941 51.1768L35.4046 52.2795ZM39.7398 43.8184L41.5878 43.393L44.6359 47.7054L44.719 47.6863L45.5744 42.4751L47.4224 42.0497L49.0541 49.137L47.6006 49.4716L46.5386 44.8587L46.4798 44.8722L45.6997 49.8728L44.71 50.1007L41.8178 45.9273L41.759 45.9408L42.825 50.5711L41.3716 50.9058L39.7398 43.8184ZM55.2264 42.3993C55.1345 42.1265 54.9657 41.937 54.7202 41.8308C54.4747 41.7245 54.1719 41.7129 53.812 41.7957C53.5675 41.852 53.369 41.9342 53.2165 42.0422C53.0635 42.1478 52.9558 42.271 52.8934 42.4117C52.8334 42.5518 52.8209 42.6981 52.856 42.8503C52.8806 42.9783 52.9326 43.0829 53.012 43.1642C53.0938 43.245 53.1946 43.308 53.3143 43.3534C53.4335 43.3964 53.567 43.4276 53.7148 43.447C53.8621 43.4641 54.017 43.4722 54.1796 43.4712L54.8514 43.4768C55.1765 43.4749 55.4815 43.5018 55.7664 43.5577C56.0514 43.6136 56.3078 43.7039 56.5358 43.8288C56.7637 43.9536 56.9559 44.1183 57.1123 44.3228C57.271 44.5268 57.3855 44.7762 57.4558 45.0709C57.5534 45.5052 57.5292 45.9067 57.3833 46.2756C57.2392 46.6416 56.982 46.9595 56.6117 47.2294C56.2432 47.4964 55.7706 47.6964 55.1938 47.8291C54.6217 47.9609 54.1032 47.9879 53.6383 47.9103C53.1757 47.8322 52.7861 47.6486 52.4693 47.3596C52.1543 47.0677 51.9323 46.6681 51.8034 46.1609L53.2534 45.8271C53.3243 46.061 53.438 46.2437 53.5946 46.3753C53.753 46.504 53.943 46.5854 54.1646 46.6194C54.388 46.6506 54.6289 46.6364 54.8873 46.5769C55.1411 46.5185 55.3529 46.4309 55.5228 46.314C55.695 46.1966 55.8178 46.0602 55.8914 45.9048C55.9649 45.7494 55.982 45.5864 55.9427 45.4156C55.9061 45.2565 55.828 45.1335 55.7084 45.0469C55.5912 44.9597 55.4338 44.8988 55.2363 44.864C55.0412 44.8288 54.8072 44.8098 54.5345 44.807L53.7181 44.7909C53.0872 44.7831 52.563 44.6645 52.1458 44.435C51.7286 44.2055 51.4608 43.8287 51.3426 43.3044C51.2414 42.8758 51.2693 42.4747 51.4262 42.1009C51.5854 41.7265 51.8473 41.4026 52.2119 41.1292C52.5765 40.8558 53.0172 40.6596 53.534 40.5406C54.06 40.4195 54.5398 40.4038 54.9735 40.4934C55.4094 40.5825 55.7739 40.7622 56.0669 41.0324C56.3599 41.3027 56.5584 41.6481 56.6626 42.0687L55.2264 42.3993ZM64.6268 41.8202C64.8047 42.5931 64.8096 43.2843 64.6414 43.894C64.4756 44.5031 64.1741 45.0085 63.737 45.4104C63.3017 45.8094 62.7715 46.0809 62.1462 46.2249C61.5164 46.3699 60.9183 46.357 60.3518 46.1861C59.7853 46.0153 59.2943 45.6923 58.8787 45.2171C58.4632 44.7418 58.1668 44.1189 57.9894 43.3484C57.8114 42.5755 57.8054 41.8845 57.9713 41.2754C58.1371 40.6663 58.4377 40.1623 58.873 39.7633C59.3078 39.3619 59.8401 39.0887 60.4699 38.9437C61.0951 38.7998 61.691 38.8132 62.2575 38.9841C62.8258 39.152 63.3177 39.4736 63.7332 39.9489C64.151 40.4236 64.4489 41.0474 64.6268 41.8202ZM63.1076 42.17C62.9923 41.6694 62.8202 41.2644 62.5911 40.9552C62.3643 40.6454 62.0955 40.4328 61.7846 40.3173C61.4738 40.2018 61.1373 40.1858 60.7751 40.2692C60.4129 40.3525 60.1172 40.5141 59.8882 40.7539C59.6592 40.9937 59.5093 41.3027 59.4384 41.681C59.3699 42.0588 59.3933 42.498 59.5086 42.9986C59.6238 43.4992 59.7949 43.9044 60.0217 44.2142C60.2508 44.5234 60.5207 44.7358 60.8315 44.8513C61.1424 44.9668 61.4789 44.9828 61.8411 44.8994C62.2033 44.8161 62.4989 44.6545 62.728 44.4147C62.957 44.1749 63.1058 43.8661 63.1743 43.4884C63.2451 43.1101 63.2229 42.6706 63.1076 42.17ZM66.5526 45.1083L64.9209 38.021L66.4194 37.676L67.7667 43.5279L70.8051 42.8284L71.0895 44.0638L66.5526 45.1083ZM74.8278 35.7402L76.3262 35.3952L77.3859 39.9978C77.5049 40.5146 77.4855 40.9952 77.3279 41.4396C77.1726 41.8835 76.8996 42.2646 76.5089 42.5829C76.1176 42.8989 75.629 43.1244 75.043 43.2593C74.4547 43.3947 73.9155 43.4059 73.4255 43.2928C72.9349 43.1774 72.5227 42.954 72.1889 42.6228C71.8551 42.2915 71.6288 41.8674 71.5098 41.3507L70.4501 36.748L71.9486 36.4031L72.9787 40.8776C73.0409 41.1476 73.155 41.3739 73.321 41.5568C73.4893 41.7391 73.6956 41.8653 73.9401 41.9353C74.1846 42.0054 74.4511 42.0072 74.7394 41.9408C75.0301 41.8739 75.2689 41.7557 75.4559 41.5864C75.6451 41.4165 75.7744 41.213 75.8437 40.976C75.9154 40.7384 75.9201 40.4847 75.858 40.2147L74.8278 35.7402ZM77.5736 36.4089L77.2891 35.1735L83.1099 33.8334L83.3943 35.0688L81.2245 35.5684L82.5718 41.4203L81.0907 41.7613L79.7434 35.9094L77.5736 36.4089ZM85.5669 33.2677L87.1986 40.355L85.7002 40.7L84.0685 33.6127L85.5669 33.2677ZM94.1285 35.0281C94.3064 35.801 94.3113 36.4922 94.1431 37.1018C93.9772 37.7109 93.6758 38.2164 93.2387 38.6183C92.8034 39.0173 92.2731 39.2888 91.6479 39.4327C91.0181 39.5777 90.4199 39.5648 89.8534 39.394C89.2869 39.2232 88.7959 38.9002 88.3804 38.4249C87.9649 37.9497 87.6684 37.3268 87.491 36.5562C87.3131 35.7834 87.3071 35.0924 87.4729 34.4833C87.6388 33.8742 87.9394 33.3702 88.3747 32.9711C88.8095 32.5698 89.3418 32.2966 89.9716 32.1516C90.5968 32.0077 91.1927 32.0211 91.7592 32.1919C92.3274 32.3599 92.8193 32.6815 93.2348 33.1567C93.6527 33.6314 93.9505 34.2552 94.1285 35.0281ZM92.6093 35.3779C92.494 34.8772 92.3218 34.4723 92.0927 34.1631C91.8659 33.8533 91.5971 33.6407 91.2863 33.5252C90.9755 33.4097 90.6389 33.3936 90.2767 33.477C89.9145 33.5604 89.6189 33.722 89.3899 33.9618C89.1608 34.2016 89.0109 34.5106 88.9401 34.8889C88.8716 35.2666 88.895 35.7058 89.0102 36.2065C89.1255 36.7071 89.2965 37.1123 89.5233 37.4221C89.7524 37.7313 90.0224 37.9437 90.3332 38.0592C90.644 38.1747 90.9806 38.1907 91.3428 38.1073C91.705 38.0239 92.0006 37.8623 92.2296 37.6225C92.4586 37.3828 92.6074 37.074 92.6759 36.6962C92.7467 36.318 92.7245 35.8785 92.6093 35.3779ZM100.351 29.8641L101.982 36.9514L100.688 37.2494L96.5777 33.4986L96.5258 33.5105L97.5528 37.9712L96.0543 38.3162L94.4226 31.2289L95.7376 30.9261L99.823 34.6791L99.8853 34.6647L98.8591 30.2075L100.351 29.8641Z" fill="white" fill-opacity="0.43"/>
<path d="M0.509671 102.728C0.215416 101.855 -0.32456 101.249 -1.11026 100.909C-1.89596 100.569 -2.86465 100.531 -4.01634 100.797C-4.7989 100.977 -5.43415 101.24 -5.92209 101.585C-6.41173 101.923 -6.75632 102.318 -6.95586 102.768C-7.14801 103.216 -7.188 103.684 -7.07582 104.171C-6.9971 104.581 -6.83062 104.916 -6.57636 105.176C-6.31473 105.434 -5.99231 105.636 -5.6091 105.781C-5.22759 105.919 -4.80035 106.019 -4.32738 106.081C-3.85611 106.135 -3.36041 106.161 -2.84028 106.158L-0.690498 106.176C0.349764 106.17 1.32581 106.256 2.23765 106.435C3.14949 106.614 3.97014 106.903 4.69959 107.302C5.42904 107.702 6.04401 108.229 6.5445 108.883C7.05237 109.536 7.41878 110.334 7.64372 111.277C7.95588 112.667 7.87857 113.952 7.41177 115.132C6.95067 116.303 6.12765 117.321 4.94271 118.184C3.76347 119.039 2.25102 119.679 0.405359 120.104C-1.42553 120.525 -3.08477 120.612 -4.57235 120.363C-6.05254 120.113 -7.29948 119.526 -8.31314 118.601C-9.32112 117.667 -10.0314 116.388 -10.4439 114.765L-5.80395 113.697C-5.5772 114.446 -5.21324 115.03 -4.71207 115.451C-4.20521 115.863 -3.5972 116.124 -2.88804 116.232C-2.1732 116.332 -1.40235 116.287 -0.575494 116.097C0.236594 115.91 0.91444 115.629 1.45804 115.255C2.00903 114.88 2.40219 114.443 2.63752 113.946C2.87286 113.449 2.92764 112.927 2.80186 112.38C2.68458 111.871 2.43466 111.478 2.05208 111.2C1.67689 110.921 1.17333 110.726 0.541396 110.615C-0.0831563 110.503 -0.831805 110.442 -1.70455 110.433L-4.31681 110.381C-6.33599 110.356 -8.01316 109.977 -9.34831 109.242C-10.6835 108.508 -11.5403 107.302 -11.9187 105.624C-12.2422 104.253 -12.153 102.969 -11.651 101.773C-11.1416 100.575 -10.3035 99.5388 -9.13676 98.6638C-7.97 97.7888 -6.55976 97.1609 -4.90605 96.7802C-3.22281 96.3927 -1.68738 96.3424 -0.29976 96.6293C1.09525 96.9145 2.26155 97.4894 3.19916 98.3541C4.13676 99.2188 4.77216 100.324 5.10535 101.67L0.509671 102.728ZM21.5123 107.28L19.2636 97.5125L23.9811 96.4264L27.8972 113.436L23.368 114.479L22.6567 111.389L22.4795 111.43C22.325 112.515 21.8709 113.463 21.1169 114.274C20.3704 115.083 19.3585 115.635 18.0813 115.929C16.9444 116.191 15.8846 116.163 14.9018 115.845C13.9191 115.527 13.0745 114.948 12.3679 114.108C11.6688 113.266 11.1626 112.181 10.8493 110.854L8.3558 100.024L13.0733 98.9377L15.373 108.926C15.6115 109.929 16.0637 110.66 16.7295 111.121C17.3954 111.582 18.1749 111.71 19.0682 111.504C19.6367 111.373 20.1385 111.122 20.5736 110.749C21.0071 110.37 21.3157 109.887 21.4994 109.3C21.6905 108.712 21.6948 108.038 21.5123 107.28ZM34.1242 101.647L36.3882 111.481L31.6707 112.567L27.7546 95.5577L32.2506 94.5226L32.9415 97.5236L33.1408 97.4777C33.2896 96.4018 33.7406 95.4739 34.494 94.6941C35.2456 93.9069 36.2527 93.368 37.5151 93.0773C38.6963 92.8054 39.7857 92.8267 40.7832 93.1412C41.7807 93.4557 42.6336 94.0367 43.3418 94.8843C44.0483 95.7245 44.5537 96.8053 44.8579 98.1268L47.3514 108.957L42.6339 110.043L40.3342 100.055C40.1019 99.0119 39.6492 98.261 38.976 97.8018C38.301 97.3353 37.4911 97.2108 36.5461 97.4284C35.9112 97.5745 35.3816 97.8403 34.9572 98.2256C34.5402 98.6093 34.2555 99.0946 34.103 99.6817C33.9562 100.26 33.9633 100.915 34.1242 101.647ZM59.7414 89.0913C59.4471 88.2184 58.9072 87.612 58.1215 87.272C57.3358 86.932 56.3671 86.8946 55.2154 87.1598C54.4328 87.3399 53.7976 87.6028 53.3096 87.9484C52.82 88.2865 52.4754 88.6807 52.2759 89.1309C52.0837 89.5794 52.0437 90.0473 52.1559 90.5345C52.2346 90.944 52.4011 91.2788 52.6554 91.539C52.917 91.7975 53.2394 91.9992 53.6226 92.1442C54.0041 92.2818 54.4314 92.3817 54.9043 92.4438C55.3756 92.4986 55.8713 92.5244 56.3914 92.5212L58.5412 92.5394C59.5815 92.5331 60.5575 92.6193 61.4694 92.7981C62.3812 92.9769 63.2019 93.266 63.9313 93.6656C64.6608 94.0651 65.2757 94.5921 65.7762 95.2465C66.2841 95.8992 66.6505 96.6972 66.8754 97.6405C67.1876 99.0301 67.1103 100.315 66.6435 101.495C66.1824 102.667 65.3594 103.684 64.1744 104.548C62.9952 105.402 61.4827 106.042 59.6371 106.467C57.8062 106.888 56.147 106.975 54.6594 106.727C53.1792 106.476 51.9322 105.889 50.9186 104.964C49.9106 104.03 49.2003 102.751 48.7878 101.128L53.4278 100.06C53.6545 100.809 54.0185 101.393 54.5197 101.814C55.0265 102.226 55.6345 102.487 56.3437 102.596C57.0585 102.695 57.8294 102.65 58.6562 102.46C59.4683 102.273 60.1462 101.992 60.6898 101.618C61.2408 101.243 61.6339 100.806 61.8692 100.309C62.1046 99.8117 62.1594 99.2899 62.0336 98.7435C61.9163 98.2341 61.6664 97.8408 61.2838 97.5635C60.9086 97.2845 60.4051 97.0895 59.7731 96.9784C59.1486 96.8657 58.3999 96.8048 57.5272 96.7959L54.9149 96.7443C52.8957 96.7194 51.2186 96.3398 49.8834 95.6055C48.5483 94.8711 47.6915 93.6652 47.313 91.9876C46.9895 90.6162 47.0787 89.3324 47.5807 88.1362C48.0901 86.9384 48.9282 85.9019 50.095 85.0269C51.2617 84.152 52.672 83.5241 54.3257 83.1434C56.0089 82.7558 57.5443 82.7055 58.932 82.9924C60.327 83.2776 61.4933 83.8526 62.4309 84.7173C63.3685 85.582 64.0039 86.6873 64.3371 88.0332L59.7414 89.0913ZM79.3319 101.944C77.5822 102.347 75.9945 102.339 74.5689 101.921C73.149 101.494 71.949 100.705 70.969 99.5549C69.9872 98.3972 69.2899 96.9213 68.8768 95.1274C68.474 93.3777 68.4601 91.7639 68.835 90.2861C69.21 88.8082 69.9289 87.5582 70.9919 86.5361C72.0622 85.5123 73.4316 84.8083 75.1 84.4242C76.2222 84.1658 77.3085 84.1062 78.3589 84.2453C79.415 84.3753 80.3872 84.7151 81.2756 85.2646C82.1713 85.8125 82.9472 86.5823 83.603 87.574C84.2572 88.5584 84.7509 89.7741 85.0841 91.2211L85.3824 92.5167L71.0195 95.8235L70.3464 92.9L80.2686 90.6156C80.1123 89.9364 79.8261 89.3687 79.4101 88.9125C78.9941 88.4563 78.49 88.1409 77.8979 87.9663C77.3114 87.7826 76.6749 87.7698 75.9883 87.9279C75.2722 88.0927 74.6755 88.405 74.1983 88.8647C73.7268 89.3153 73.3997 89.8532 73.2171 90.4782C73.0328 91.0959 73.0143 91.7416 73.1616 92.4151L73.8016 95.1946C73.9953 96.0363 74.3178 96.7277 74.7689 97.2691C75.2275 97.8088 75.7829 98.1784 76.4352 98.3781C77.0875 98.5777 77.8087 98.5866 78.5986 98.4047C79.1228 98.2841 79.5857 98.0998 79.9872 97.8518C80.3888 97.6039 80.7107 97.2966 80.9527 96.9299C81.1948 96.5632 81.3478 96.1471 81.4116 95.6815L85.841 94.9649C85.8609 96.0642 85.6176 97.0842 85.1112 98.0248C84.6105 98.9564 83.8713 99.764 82.8938 100.448C81.9219 101.122 80.7346 101.621 79.3319 101.944ZM97.9693 97.6532C96.2196 98.0561 94.632 98.0484 93.2064 97.6303C91.7865 97.2032 90.5865 96.4144 89.6064 95.2641C88.6247 94.1063 87.9273 92.6305 87.5143 90.8365C87.1114 89.0868 87.0975 87.473 87.4725 85.9952C87.8474 84.5173 88.5664 83.2673 89.6293 82.2452C90.6996 81.2214 92.069 80.5174 93.7375 80.1333C94.8596 79.875 95.9459 79.8153 96.9963 79.9544C98.0524 80.0844 99.0246 80.4242 99.913 80.9737C100.809 81.5216 101.585 82.2914 102.24 83.2832C102.895 84.2675 103.388 85.4832 103.721 86.9302L104.02 88.2259L89.6569 91.5326L88.9838 88.6091L98.9061 86.3247C98.7497 85.6455 98.4635 85.0778 98.0475 84.6216C97.6315 84.1655 97.1275 83.8501 96.5353 83.6754C95.9489 83.4917 95.3123 83.4789 94.6257 83.637C93.9096 83.8018 93.313 84.1141 92.8358 84.5738C92.3642 85.0244 92.0372 85.5623 91.8546 86.1874C91.6703 86.8051 91.6518 87.4507 91.7991 88.1242L92.439 90.9038C92.6328 91.7454 92.9552 92.4369 93.4064 92.9782C93.8649 93.5179 94.4203 93.8876 95.0727 94.0872C95.725 94.2869 96.4461 94.2957 97.2361 94.1139C97.7602 93.9932 98.2231 93.8089 98.6247 93.561C99.0263 93.313 99.3481 93.0057 99.5902 92.639C99.8323 92.2723 99.9852 91.8562 100.049 91.3906L104.478 90.674C104.498 91.7733 104.255 92.7933 103.749 93.7339C103.248 94.6655 102.509 95.4731 101.531 96.1568C100.559 96.8315 99.372 97.3303 97.9693 97.6532ZM108.778 94.8148L104.862 77.8053L109.436 76.7523L110.119 79.7201L110.296 79.6793C110.363 78.5522 110.7 77.6351 111.307 76.9279C111.912 76.2133 112.691 75.7464 113.643 75.5271C113.88 75.4727 114.138 75.4288 114.418 75.3955C114.698 75.3621 114.947 75.3475 115.165 75.3516L116.129 79.5375C115.892 79.5221 115.572 79.5335 115.169 79.5719C114.766 79.6103 114.402 79.6669 114.077 79.7417C113.383 79.9015 112.798 80.1956 112.321 80.6241C111.85 81.0435 111.517 81.5555 111.322 82.1601C111.135 82.763 111.121 83.4115 111.28 84.1055L113.496 93.7287L108.778 94.8148Z" fill="white" fill-opacity="0.43"/>
<path d="M347.51 119.728C347.215 118.855 346.675 118.249 345.89 117.909C345.104 117.569 344.135 117.531 342.984 117.797C342.201 117.977 341.566 118.24 341.078 118.585C340.588 118.923 340.244 119.318 340.044 119.768C339.852 120.216 339.812 120.684 339.924 121.171C340.003 121.581 340.169 121.916 340.424 122.176C340.685 122.434 341.008 122.636 341.391 122.781C341.772 122.919 342.2 123.019 342.673 123.081C343.144 123.135 343.64 123.161 344.16 123.158L346.31 123.176C347.35 123.17 348.326 123.256 349.238 123.435C350.149 123.614 350.97 123.903 351.7 124.302C352.429 124.702 353.044 125.229 353.545 125.883C354.052 126.536 354.419 127.334 354.644 128.277C354.956 129.667 354.879 130.952 354.412 132.132C353.951 133.303 353.128 134.321 351.943 135.184C350.763 136.039 349.251 136.679 347.405 137.104C345.574 137.525 343.915 137.612 342.428 137.363C340.947 137.113 339.701 136.526 338.687 135.601C337.679 134.667 336.969 133.388 336.556 131.765L341.196 130.697C341.423 131.446 341.787 132.03 342.288 132.451C342.795 132.863 343.403 133.124 344.112 133.232C344.827 133.332 345.598 133.287 346.425 133.097C347.237 132.91 347.914 132.629 348.458 132.255C349.009 131.88 349.402 131.443 349.638 130.946C349.873 130.449 349.928 129.927 349.802 129.38C349.685 128.871 349.435 128.478 349.052 128.2C348.677 127.921 348.173 127.726 347.541 127.615C346.917 127.503 346.168 127.442 345.295 127.433L342.683 127.381C340.664 127.356 338.987 126.977 337.652 126.242C336.317 125.508 335.46 124.302 335.081 122.624C334.758 121.253 334.847 119.969 335.349 118.773C335.858 117.575 336.696 116.539 337.863 115.664C339.03 114.789 340.44 114.161 342.094 113.78C343.777 113.393 345.313 113.342 346.7 113.629C348.095 113.914 349.262 114.489 350.199 115.354C351.137 116.219 351.772 117.324 352.105 118.67L347.51 119.728ZM368.512 124.28L366.264 114.513L370.981 113.426L374.897 130.436L370.368 131.479L369.657 128.389L369.479 128.43C369.325 129.515 368.871 130.463 368.117 131.274C367.37 132.083 366.359 132.635 365.081 132.929C363.944 133.191 362.885 133.163 361.902 132.845C360.919 132.527 360.074 131.948 359.368 131.108C358.669 130.266 358.163 129.181 357.849 127.854L355.356 117.024L360.073 115.938L362.373 125.926C362.612 126.929 363.064 127.66 363.73 128.121C364.395 128.582 365.175 128.71 366.068 128.504C366.637 128.373 367.138 128.122 367.574 127.749C368.007 127.37 368.316 126.887 368.499 126.3C368.69 125.712 368.695 125.038 368.512 124.28ZM381.124 118.647L383.388 128.481L378.671 129.567L374.755 112.558L379.251 111.523L379.942 114.524L380.141 114.478C380.29 113.402 380.741 112.474 381.494 111.694C382.246 110.907 383.253 110.368 384.515 110.077C385.696 109.805 386.786 109.827 387.783 110.141C388.781 110.456 389.634 111.037 390.342 111.884C391.048 112.724 391.554 113.805 391.858 115.127L394.351 125.957L389.634 127.043L387.334 117.055C387.102 116.012 386.649 115.261 385.976 114.802C385.301 114.335 384.491 114.211 383.546 114.428C382.911 114.575 382.382 114.84 381.957 115.226C381.54 115.609 381.256 116.095 381.103 116.682C380.956 117.26 380.963 117.915 381.124 118.647ZM406.741 106.091C406.447 105.218 405.907 104.612 405.121 104.272C404.336 103.932 403.367 103.895 402.215 104.16C401.433 104.34 400.798 104.603 400.31 104.948C399.82 105.287 399.475 105.681 399.276 106.131C399.084 106.579 399.044 107.047 399.156 107.535C399.235 107.944 399.401 108.279 399.655 108.539C399.917 108.797 400.239 108.999 400.623 109.144C401.004 109.282 401.431 109.382 401.904 109.444C402.376 109.499 402.871 109.524 403.391 109.521L405.541 109.539C406.581 109.533 407.558 109.619 408.469 109.798C409.381 109.977 410.202 110.266 410.931 110.666C411.661 111.065 412.276 111.592 412.776 112.247C413.284 112.899 413.651 113.697 413.875 114.64C414.188 116.03 414.11 117.315 413.643 118.495C413.182 119.667 412.359 120.684 411.174 121.548C409.995 122.402 408.483 123.042 406.637 123.467C404.806 123.888 403.147 123.975 401.659 123.727C400.179 123.476 398.932 122.889 397.919 121.964C396.911 121.03 396.2 119.751 395.788 118.128L400.428 117.06C400.655 117.809 401.018 118.393 401.52 118.814C402.027 119.226 402.635 119.487 403.344 119.596C404.059 119.695 404.829 119.65 405.656 119.46C406.468 119.273 407.146 118.992 407.69 118.618C408.241 118.243 408.634 117.806 408.869 117.309C409.105 116.812 409.159 116.29 409.034 115.744C408.916 115.234 408.666 114.841 408.284 114.563C407.909 114.285 407.405 114.089 406.773 113.978C406.149 113.866 405.4 113.805 404.527 113.796L401.915 113.744C399.896 113.719 398.219 113.34 396.883 112.605C395.548 111.871 394.691 110.665 394.313 108.988C393.989 107.616 394.079 106.332 394.581 105.136C395.09 103.938 395.928 102.902 397.095 102.027C398.262 101.152 399.672 100.524 401.326 100.143C403.009 99.7558 404.544 99.7055 405.932 99.9924C407.327 100.278 408.493 100.853 409.431 101.717C410.368 102.582 411.004 103.687 411.337 105.033L406.741 106.091ZM426.332 118.944C424.582 119.347 422.995 119.339 421.569 118.921C420.149 118.494 418.949 117.705 417.969 116.555C416.987 115.397 416.29 113.921 415.877 112.127C415.474 110.378 415.46 108.764 415.835 107.286C416.21 105.808 416.929 104.558 417.992 103.536C419.062 102.512 420.432 101.808 422.1 101.424C423.222 101.166 424.308 101.106 425.359 101.245C426.415 101.375 427.387 101.715 428.276 102.265C429.171 102.812 429.947 103.582 430.603 104.574C431.257 105.558 431.751 106.774 432.084 108.221L432.382 109.517L418.019 112.823L417.346 109.9L427.269 107.616C427.112 106.936 426.826 106.369 426.41 105.913C425.994 105.456 425.49 105.141 424.898 104.966C424.311 104.783 423.675 104.77 422.988 104.928C422.272 105.093 421.676 105.405 421.198 105.865C420.727 106.315 420.4 106.853 420.217 107.478C420.033 108.096 420.014 108.742 420.162 109.415L420.802 112.195C420.995 113.036 421.318 113.728 421.769 114.269C422.227 114.809 422.783 115.178 423.435 115.378C424.088 115.578 424.809 115.587 425.599 115.405C426.123 115.284 426.586 115.1 426.987 114.852C427.389 114.604 427.711 114.297 427.953 113.93C428.195 113.563 428.348 113.147 428.412 112.681L432.841 111.965C432.861 113.064 432.618 114.084 432.111 115.025C431.61 115.956 430.871 116.764 429.894 117.448C428.922 118.122 427.735 118.621 426.332 118.944ZM444.969 114.653C443.22 115.056 441.632 115.048 440.206 114.63C438.786 114.203 437.586 113.414 436.606 112.264C435.625 111.106 434.927 109.63 434.514 107.836C434.111 106.087 434.098 104.473 434.472 102.995C434.847 101.517 435.566 100.267 436.629 99.2452C437.7 98.2214 439.069 97.5174 440.737 97.1333C441.86 96.875 442.946 96.8153 443.996 96.9544C445.052 97.0844 446.025 97.4242 446.913 97.9737C447.809 98.5216 448.585 99.2914 449.24 100.283C449.895 101.268 450.388 102.483 450.721 103.93L451.02 105.226L436.657 108.533L435.984 105.609L445.906 103.325C445.75 102.646 445.464 102.078 445.048 101.622C444.632 101.165 444.127 100.85 443.535 100.675C442.949 100.492 442.312 100.479 441.626 100.637C440.91 100.802 440.313 101.114 439.836 101.574C439.364 102.024 439.037 102.562 438.855 103.187C438.67 103.805 438.652 104.451 438.799 105.124L439.439 107.904C439.633 108.745 439.955 109.437 440.406 109.978C440.865 110.518 441.42 110.888 442.073 111.087C442.725 111.287 443.446 111.296 444.236 111.114C444.76 110.993 445.223 110.809 445.625 110.561C446.026 110.313 446.348 110.006 446.59 109.639C446.832 109.272 446.985 108.856 447.049 108.391L451.478 107.674C451.498 108.773 451.255 109.793 450.749 110.734C450.248 111.665 449.509 112.473 448.531 113.157C447.559 113.831 446.372 114.33 444.969 114.653ZM455.778 111.815L451.862 94.8053L456.436 93.7523L457.119 96.7201L457.296 96.6793C457.363 95.5522 457.7 94.6351 458.307 93.9279C458.912 93.2133 459.691 92.7464 460.643 92.5271C460.88 92.4727 461.138 92.4288 461.418 92.3955C461.698 92.3621 461.947 92.3475 462.165 92.3516L463.129 96.5375C462.892 96.5221 462.572 96.5335 462.169 96.5719C461.766 96.6103 461.402 96.6669 461.077 96.7417C460.383 96.9015 459.798 97.1956 459.321 97.6241C458.85 98.0435 458.517 98.5555 458.322 99.1601C458.135 99.763 458.121 100.411 458.28 101.105L460.496 110.729L455.778 111.815Z" fill="white" fill-opacity="0.43"/>
<path d="M275.51 45.7281C275.215 44.8552 274.675 44.2488 273.89 43.9088C273.104 43.5689 272.135 43.5315 270.984 43.7966C270.201 43.9768 269.566 44.2397 269.078 44.5852C268.588 44.9234 268.244 45.3176 268.044 45.7677C267.852 46.2162 267.812 46.6841 267.924 47.1714C268.003 47.5808 268.169 47.9156 268.424 48.1758C268.685 48.4343 269.008 48.6361 269.391 48.781C269.772 48.9187 270.2 49.0185 270.673 49.0807C271.144 49.1354 271.64 49.1612 272.16 49.1581L274.31 49.1762C275.35 49.1699 276.326 49.2562 277.238 49.435C278.149 49.6137 278.97 49.9029 279.7 50.3024C280.429 50.702 281.044 51.229 281.545 51.8834C282.052 52.5361 282.419 53.334 282.644 54.2773C282.956 55.6669 282.879 56.9519 282.412 58.1322C281.951 59.3034 281.128 60.3208 279.943 61.1844C278.763 62.0389 277.251 62.6787 275.405 63.1036C273.574 63.5251 271.915 63.6117 270.428 63.3634C268.947 63.1133 267.701 62.5259 266.687 61.6009C265.679 60.6669 264.969 59.3883 264.556 57.7653L269.196 56.697C269.423 57.4455 269.787 58.0303 270.288 58.4513C270.795 58.8633 271.403 59.1236 272.112 59.2324C272.827 59.3322 273.598 59.2869 274.425 59.0965C275.237 58.9095 275.914 58.6291 276.458 58.2552C277.009 57.8796 277.402 57.4431 277.638 56.9458C277.873 56.4485 277.928 55.9267 277.802 55.3804C277.685 54.871 277.435 54.4776 277.052 54.2003C276.677 53.9213 276.173 53.7263 275.541 53.6153C274.917 53.5025 274.168 53.4417 273.295 53.4327L270.683 53.3811C268.664 53.3562 266.987 52.9766 265.652 52.2423C264.317 51.508 263.46 50.302 263.081 48.6245C262.758 47.253 262.847 45.9692 263.349 44.7731C263.858 43.5752 264.696 42.5388 265.863 41.6638C267.03 40.7888 268.44 40.1609 270.094 39.7802C271.777 39.3927 273.313 39.3424 274.7 39.6293C276.095 39.9145 277.262 40.4894 278.199 41.3541C279.137 42.2188 279.772 43.3242 280.105 44.6701L275.51 45.7281ZM296.512 50.2798L294.264 40.5125L298.981 39.4264L302.897 56.436L298.368 57.4788L297.657 54.3891L297.479 54.4299C297.325 55.515 296.871 56.463 296.117 57.2741C295.37 58.0834 294.359 58.6351 293.081 58.9291C291.944 59.1909 290.885 59.1628 289.902 58.8449C288.919 58.527 288.074 57.9479 287.368 57.1077C286.669 56.2659 286.163 55.1813 285.849 53.8542L283.356 43.0238L288.073 41.9377L290.373 51.9264C290.612 52.9288 291.064 53.6604 291.73 54.1212C292.395 54.5821 293.175 54.7097 294.068 54.504C294.637 54.3731 295.138 54.1215 295.574 53.7493C296.007 53.3696 296.316 52.8866 296.499 52.3001C296.69 51.7119 296.695 51.0385 296.512 50.2798ZM309.124 44.6475L311.388 54.4812L306.671 55.5673L302.755 38.5577L307.251 37.5226L307.942 40.5236L308.141 40.4777C308.29 39.4018 308.741 38.4739 309.494 37.6941C310.246 36.9069 311.253 36.368 312.515 36.0773C313.696 35.8054 314.786 35.8267 315.783 36.1412C316.781 36.4557 317.634 37.0367 318.342 37.8843C319.048 38.7245 319.554 39.8053 319.858 41.1268L322.351 51.9571L317.634 53.0432L315.334 43.0545C315.102 42.0119 314.649 41.261 313.976 40.8018C313.301 40.3353 312.491 40.2108 311.546 40.4284C310.911 40.5745 310.382 40.8403 309.957 41.2256C309.54 41.6093 309.256 42.0946 309.103 42.6817C308.956 43.2596 308.963 43.9149 309.124 44.6475ZM334.741 32.0913C334.447 31.2184 333.907 30.612 333.121 30.272C332.336 29.932 331.367 29.8946 330.215 30.1598C329.433 30.3399 328.798 30.6028 328.31 30.9484C327.82 31.2865 327.475 31.6807 327.276 32.1309C327.084 32.5794 327.044 33.0473 327.156 33.5345C327.235 33.944 327.401 34.2788 327.655 34.539C327.917 34.7975 328.239 34.9992 328.623 35.1442C329.004 35.2818 329.431 35.3817 329.904 35.4438C330.376 35.4986 330.871 35.5244 331.391 35.5212L333.541 35.5394C334.581 35.5331 335.558 35.6193 336.469 35.7981C337.381 35.9769 338.202 36.266 338.931 36.6656C339.661 37.0651 340.276 37.5921 340.776 38.2465C341.284 38.8992 341.651 39.6972 341.875 40.6405C342.188 42.0301 342.11 43.3151 341.643 44.4953C341.182 45.6665 340.359 46.6839 339.174 47.5476C337.995 48.4021 336.483 49.0418 334.637 49.4668C332.806 49.8883 331.147 49.9749 329.659 49.7265C328.179 49.4765 326.932 48.889 325.919 47.9641C324.911 47.03 324.2 45.7515 323.788 44.1284L328.428 43.0602C328.655 43.8087 329.018 44.3935 329.52 44.8145C330.027 45.2264 330.635 45.4868 331.344 45.5956C332.059 45.6953 332.829 45.65 333.656 45.4597C334.468 45.2727 335.146 44.9923 335.69 44.6183C336.241 44.2427 336.634 43.8063 336.869 43.309C337.105 42.8117 337.159 42.2899 337.034 41.7435C336.916 41.2341 336.666 40.8408 336.284 40.5635C335.909 40.2845 335.405 40.0895 334.773 39.9784C334.149 39.8657 333.4 39.8048 332.527 39.7959L329.915 39.7443C327.896 39.7194 326.219 39.3398 324.883 38.6055C323.548 37.8711 322.691 36.6652 322.313 34.9876C321.989 33.6162 322.079 32.3324 322.581 31.1362C323.09 29.9384 323.928 28.9019 325.095 28.0269C326.262 27.152 327.672 26.5241 329.326 26.1434C331.009 25.7558 332.544 25.7055 333.932 25.9924C335.327 26.2776 336.493 26.8526 337.431 27.7173C338.368 28.582 339.004 29.6873 339.337 31.0332L334.741 32.0913ZM354.332 44.9441C352.582 45.3469 350.995 45.3393 349.569 44.9212C348.149 44.4941 346.949 43.7053 345.969 42.5549C344.987 41.3972 344.29 39.9213 343.877 38.1274C343.474 36.3777 343.46 34.7639 343.835 33.2861C344.21 31.8082 344.929 30.5582 345.992 29.5361C347.062 28.5123 348.432 27.8083 350.1 27.4242C351.222 27.1658 352.308 27.1062 353.359 27.2453C354.415 27.3753 355.387 27.7151 356.276 28.2646C357.171 28.8125 357.947 29.5823 358.603 30.574C359.257 31.5584 359.751 32.7741 360.084 34.2211L360.382 35.5167L346.019 38.8235L345.346 35.9L355.269 33.6156C355.112 32.9364 354.826 32.3687 354.41 31.9125C353.994 31.4563 353.49 31.1409 352.898 30.9663C352.311 30.7826 351.675 30.7698 350.988 30.9279C350.272 31.0927 349.676 31.405 349.198 31.8647C348.727 32.3153 348.4 32.8532 348.217 33.4782C348.033 34.0959 348.014 34.7416 348.162 35.4151L348.802 38.1946C348.995 39.0363 349.318 39.7277 349.769 40.2691C350.227 40.8088 350.783 41.1784 351.435 41.3781C352.088 41.5777 352.809 41.5866 353.599 41.4047C354.123 41.2841 354.586 41.0998 354.987 40.8518C355.389 40.6039 355.711 40.2966 355.953 39.9299C356.195 39.5632 356.348 39.1471 356.412 38.6815L360.841 37.9649C360.861 39.0642 360.618 40.0842 360.111 41.0248C359.61 41.9564 358.871 42.764 357.894 43.4477C356.922 44.1224 355.735 44.6212 354.332 44.9441ZM372.969 40.6532C371.22 41.0561 369.632 41.0484 368.206 40.6303C366.786 40.2032 365.586 39.4144 364.606 38.2641C363.625 37.1063 362.927 35.6305 362.514 33.8365C362.111 32.0868 362.098 30.473 362.472 28.9952C362.847 27.5173 363.566 26.2673 364.629 25.2452C365.7 24.2214 367.069 23.5174 368.737 23.1333C369.86 22.875 370.946 22.8153 371.996 22.9544C373.052 23.0844 374.025 23.4242 374.913 23.9737C375.809 24.5216 376.585 25.2914 377.24 26.2832C377.895 27.2675 378.388 28.4832 378.721 29.9302L379.02 31.2259L364.657 34.5326L363.984 31.6091L373.906 29.3247C373.75 28.6455 373.464 28.0778 373.048 27.6216C372.632 27.1655 372.127 26.8501 371.535 26.6754C370.949 26.4917 370.312 26.4789 369.626 26.637C368.91 26.8018 368.313 27.1141 367.836 27.5738C367.364 28.0244 367.037 28.5623 366.855 29.1874C366.67 29.8051 366.652 30.4507 366.799 31.1242L367.439 33.9038C367.633 34.7454 367.955 35.4369 368.406 35.9782C368.865 36.5179 369.42 36.8876 370.073 37.0872C370.725 37.2869 371.446 37.2957 372.236 37.1139C372.76 36.9932 373.223 36.8089 373.625 36.561C374.026 36.313 374.348 36.0057 374.59 35.639C374.832 35.2723 374.985 34.8562 375.049 34.3906L379.478 33.674C379.498 34.7733 379.255 35.7933 378.749 36.7339C378.248 37.6655 377.509 38.4731 376.531 39.1568C375.559 39.8315 374.372 40.3303 372.969 40.6532ZM383.778 37.8148L379.862 20.8053L384.436 19.7523L385.119 22.7201L385.296 22.6793C385.363 21.5522 385.7 20.6351 386.307 19.9279C386.912 19.2133 387.691 18.7464 388.643 18.5271C388.88 18.4727 389.138 18.4288 389.418 18.3955C389.698 18.3621 389.947 18.3475 390.165 18.3516L391.129 22.5375C390.892 22.5221 390.572 22.5335 390.169 22.5719C389.766 22.6103 389.402 22.6669 389.077 22.7417C388.383 22.9015 387.798 23.1956 387.321 23.6241C386.85 24.0435 386.517 24.5555 386.322 25.1601C386.135 25.763 386.121 26.4115 386.28 27.1055L388.496 36.7287L383.778 37.8148Z" fill="white" fill-opacity="0.43"/>
<path d="M268.242 71.429L267.958 70.1936L273.779 68.8534L274.063 70.0889L271.893 70.5884L273.241 76.4403L271.759 76.7813L270.412 70.9294L268.242 71.429ZM281.742 70.7515C281.92 71.5243 281.925 72.2156 281.757 72.8252C281.591 73.4343 281.29 73.9398 280.853 74.3416C280.417 74.7407 279.887 75.0121 279.262 75.1561C278.632 75.3011 278.034 75.2882 277.467 75.1174C276.901 74.9465 276.41 74.6235 275.994 74.1483C275.579 73.6731 275.282 73.0502 275.105 72.2796C274.927 71.5067 274.921 70.8157 275.087 70.2067C275.253 69.5976 275.553 69.0935 275.989 68.6945C276.423 68.2931 276.956 68.02 277.586 67.875C278.211 67.731 278.807 67.7445 279.373 67.9153C279.941 68.0833 280.433 68.4049 280.849 68.8801C281.267 69.3548 281.564 69.9786 281.742 70.7515ZM280.223 71.1012C280.108 70.6006 279.936 70.1957 279.707 69.8864C279.48 69.5767 279.211 69.364 278.9 69.2485C278.589 69.133 278.253 69.117 277.891 69.2004C277.528 69.2838 277.233 69.4454 277.004 69.6852C276.775 69.9249 276.625 70.234 276.554 70.6123C276.486 70.99 276.509 71.4292 276.624 71.9298C276.739 72.4305 276.91 72.8357 277.137 73.1454C277.366 73.4546 277.636 73.667 277.947 73.7825C278.258 73.898 278.595 73.9141 278.957 73.8307C279.319 73.7473 279.615 73.5857 279.844 73.3459C280.073 73.1061 280.221 72.7973 280.29 72.4196C280.361 72.0413 280.338 71.6019 280.223 71.1012ZM281.727 68.3243L281.443 67.0889L287.264 65.7488L287.548 66.9842L285.378 67.4838L286.726 73.3357L285.245 73.6767L283.897 67.8248L281.727 68.3243ZM290.21 72.5335L288.604 72.9032L289.419 65.2526L291.35 64.808L295.425 71.3329L293.819 71.7026L290.785 66.6435L290.73 66.6563L290.21 72.5335ZM289.468 69.7709L293.261 68.8976L293.53 70.0673L289.737 70.9406L289.468 69.7709ZM296.278 71.1365L294.646 64.0492L296.145 63.7042L297.492 69.5561L300.53 68.8565L300.815 70.092L296.278 71.1365ZM306.745 63.41C306.653 63.1373 306.484 62.9478 306.239 62.8415C305.993 62.7353 305.69 62.7236 305.33 62.8064C305.086 62.8627 304.887 62.9449 304.735 63.0529C304.582 63.1586 304.474 63.2817 304.412 63.4224C304.352 63.5626 304.339 63.7088 304.374 63.861C304.399 63.989 304.451 64.0936 304.53 64.1749C304.612 64.2557 304.713 64.3188 304.833 64.3641C304.952 64.4071 305.085 64.4383 305.233 64.4577C305.38 64.4748 305.535 64.4829 305.698 64.4819L306.37 64.4876C306.695 64.4856 307 64.5126 307.285 64.5684C307.57 64.6243 307.826 64.7146 308.054 64.8395C308.282 64.9644 308.474 65.1291 308.631 65.3336C308.789 65.5375 308.904 65.7869 308.974 66.0817C309.072 66.5159 309.048 66.9175 308.902 67.2863C308.758 67.6523 308.5 67.9702 308.13 68.2401C307.762 68.5072 307.289 68.7071 306.712 68.8399C306.14 68.9716 305.622 68.9987 305.157 68.9211C304.694 68.8429 304.304 68.6593 303.988 68.3703C303.673 68.0784 303.451 67.6789 303.322 67.1717L304.772 66.8378C304.843 67.0717 304.956 67.2545 305.113 67.386C305.271 67.5148 305.461 67.5961 305.683 67.6301C305.906 67.6613 306.147 67.6471 306.406 67.5877C306.659 67.5292 306.871 67.4416 307.041 67.3247C307.213 67.2074 307.336 67.071 307.41 66.9156C307.483 66.7602 307.5 66.5971 307.461 66.4264C307.424 66.2672 307.346 66.1443 307.227 66.0576C307.11 65.9704 306.952 65.9095 306.755 65.8748C306.56 65.8395 306.326 65.8205 306.053 65.8177L305.237 65.8016C304.606 65.7938 304.081 65.6752 303.664 65.4457C303.247 65.2162 302.979 64.8394 302.861 64.3152C302.76 63.8866 302.788 63.4854 302.945 63.1116C303.104 62.7373 303.366 62.4134 303.73 62.1399C304.095 61.8665 304.536 61.6703 305.052 61.5513C305.578 61.4302 306.058 61.4145 306.492 61.5041C306.928 61.5933 307.292 61.7729 307.585 62.0432C307.878 62.3134 308.077 62.6588 308.181 63.0794L306.745 63.41ZM308.401 60.8824L310.08 60.4959L312.398 63.1761L312.468 63.1602L313.381 59.7359L315.059 59.3494L313.529 64.5264L314.106 67.0319L312.618 67.3745L312.041 64.869L308.401 60.8824ZM320.192 60.3141C320.1 60.0414 319.931 59.8519 319.686 59.7456C319.44 59.6394 319.137 59.6277 318.777 59.7105C318.533 59.7669 318.334 59.849 318.182 59.957C318.029 60.0627 317.921 60.1858 317.859 60.3265C317.799 60.4667 317.786 60.6129 317.821 60.7652C317.846 60.8931 317.898 60.9977 317.977 61.079C318.059 61.1598 318.16 61.2229 318.28 61.2682C318.399 61.3112 318.532 61.3424 318.68 61.3618C318.828 61.3789 318.982 61.387 319.145 61.386L319.817 61.3917C320.142 61.3897 320.447 61.4167 320.732 61.4725C321.017 61.5284 321.273 61.6188 321.501 61.7436C321.729 61.8685 321.921 62.0332 322.078 62.2377C322.236 62.4416 322.351 62.691 322.421 62.9858C322.519 63.42 322.495 63.8216 322.349 64.1904C322.205 64.5564 321.947 64.8743 321.577 65.1442C321.209 65.4113 320.736 65.6112 320.159 65.744C319.587 65.8757 319.069 65.9028 318.604 65.8252C318.141 65.747 317.751 65.5634 317.435 65.2744C317.12 64.9825 316.898 64.583 316.769 64.0758L318.219 63.7419C318.29 63.9758 318.403 64.1586 318.56 64.2901C318.718 64.4189 318.908 64.5002 319.13 64.5342C319.353 64.5654 319.594 64.5513 319.853 64.4918C320.106 64.4333 320.318 64.3457 320.488 64.2288C320.66 64.1115 320.783 63.9751 320.857 63.8197C320.93 63.6643 320.947 63.5012 320.908 63.3305C320.871 63.1713 320.793 63.0484 320.674 62.9617C320.557 62.8745 320.399 62.8136 320.202 62.7789C320.007 62.7436 319.773 62.7246 319.5 62.7218L318.684 62.7057C318.053 62.6979 317.528 62.5793 317.111 62.3498C316.694 62.1203 316.426 61.7435 316.308 61.2193C316.207 60.7907 316.235 60.3895 316.392 60.0157C316.551 59.6414 316.813 59.3175 317.177 59.044C317.542 58.7706 317.983 58.5744 318.499 58.4554C319.025 58.3343 319.505 58.3186 319.939 58.4082C320.375 58.4974 320.739 58.677 321.032 58.9473C321.325 59.2175 321.524 59.5629 321.628 59.9835L320.192 60.3141ZM322.278 58.9884L321.994 57.753L327.814 56.4129L328.099 57.6483L325.929 58.1479L327.276 63.9998L325.795 64.3408L324.448 58.4889L322.278 58.9884ZM330.405 63.2795L328.773 56.1922L333.549 55.0927L333.833 56.3281L330.556 57.0827L330.945 58.7714L333.976 58.0735L334.261 59.3089L331.229 60.0069L331.619 61.6991L334.91 60.9414L335.194 62.1768L330.405 63.2795ZM334.74 54.8184L336.588 54.393L339.636 58.7054L339.719 58.6863L340.574 53.4751L342.422 53.0497L344.054 60.137L342.601 60.4716L341.539 55.8587L341.48 55.8722L340.7 60.8728L339.71 61.1007L336.818 56.9273L336.759 56.9408L337.825 61.5711L336.372 61.9058L334.74 54.8184ZM350.226 53.3993C350.134 53.1265 349.966 52.937 349.72 52.8308C349.475 52.7245 349.172 52.7129 348.812 52.7957C348.567 52.852 348.369 52.9342 348.216 53.0422C348.063 53.1478 347.956 53.271 347.893 53.4117C347.833 53.5518 347.821 53.6981 347.856 53.8503C347.881 53.9783 347.933 54.0829 348.012 54.1642C348.094 54.245 348.195 54.308 348.314 54.3534C348.434 54.3964 348.567 54.4276 348.715 54.447C348.862 54.4641 349.017 54.4722 349.18 54.4712L349.851 54.4768C350.176 54.4749 350.481 54.5018 350.766 54.5577C351.051 54.6136 351.308 54.7039 351.536 54.8288C351.764 54.9536 351.956 55.1183 352.112 55.3228C352.271 55.5268 352.386 55.7762 352.456 56.0709C352.553 56.5052 352.529 56.9067 352.383 57.2756C352.239 57.6416 351.982 57.9595 351.612 58.2294C351.243 58.4964 350.771 58.6964 350.194 58.8291C349.622 58.9609 349.103 58.9879 348.638 58.9103C348.176 58.8322 347.786 58.6486 347.469 58.3596C347.154 58.0677 346.932 57.6681 346.803 57.1609L348.253 56.8271C348.324 57.061 348.438 57.2437 348.595 57.3753C348.753 57.504 348.943 57.5854 349.165 57.6194C349.388 57.6506 349.629 57.6364 349.887 57.5769C350.141 57.5185 350.353 57.4309 350.523 57.314C350.695 57.1966 350.818 57.0602 350.891 56.9048C350.965 56.7494 350.982 56.5864 350.943 56.4156C350.906 56.2565 350.828 56.1335 350.708 56.0469C350.591 55.9597 350.434 55.8988 350.236 55.864C350.041 55.8288 349.807 55.8098 349.534 55.807L348.718 55.7909C348.087 55.7831 347.563 55.6645 347.146 55.435C346.729 55.2055 346.461 54.8287 346.343 54.3044C346.241 53.8758 346.269 53.4747 346.426 53.1009C346.585 52.7265 346.847 52.4026 347.212 52.1292C347.577 51.8558 348.017 51.6596 348.534 51.5406C349.06 51.4195 349.54 51.4038 349.973 51.4934C350.409 51.5825 350.774 51.7622 351.067 52.0324C351.36 52.3027 351.558 52.6481 351.663 53.0687L350.226 53.3993ZM359.627 52.8202C359.805 53.5931 359.81 54.2843 359.641 54.894C359.476 55.5031 359.174 56.0085 358.737 56.4104C358.302 56.8094 357.771 57.0809 357.146 57.2249C356.516 57.3699 355.918 57.357 355.352 57.1861C354.785 57.0153 354.294 56.6923 353.879 56.2171C353.463 55.7418 353.167 55.1189 352.989 54.3484C352.811 53.5755 352.805 52.8845 352.971 52.2754C353.137 51.6663 353.438 51.1623 353.873 50.7633C354.308 50.3619 354.84 50.0887 355.47 49.9437C356.095 49.7998 356.691 49.8132 357.257 49.9841C357.826 50.152 358.318 50.4736 358.733 50.9489C359.151 51.4236 359.449 52.0474 359.627 52.8202ZM358.108 53.17C357.992 52.6694 357.82 52.2644 357.591 51.9552C357.364 51.6454 357.095 51.4328 356.785 51.3173C356.474 51.2018 356.137 51.1858 355.775 51.2692C355.413 51.3525 355.117 51.5141 354.888 51.7539C354.659 51.9937 354.509 52.3027 354.438 52.681C354.37 53.0588 354.393 53.498 354.509 53.9986C354.624 54.4992 354.795 54.9044 355.022 55.2142C355.251 55.5234 355.521 55.7358 355.832 55.8513C356.142 55.9668 356.479 55.9828 356.841 55.8994C357.203 55.8161 357.499 55.6545 357.728 55.4147C357.957 55.1749 358.106 54.8661 358.174 54.4884C358.245 54.1101 358.223 53.6706 358.108 53.17ZM361.553 56.1083L359.921 49.021L361.419 48.676L362.767 54.5279L365.805 53.8284L366.09 55.0638L361.553 56.1083ZM369.828 46.7402L371.326 46.3952L372.386 50.9978C372.505 51.5146 372.486 51.9952 372.328 52.4396C372.173 52.8835 371.9 53.2646 371.509 53.5829C371.118 53.8989 370.629 54.1244 370.043 54.2593C369.455 54.3947 368.916 54.4059 368.425 54.2928C367.935 54.1774 367.523 53.954 367.189 53.6228C366.855 53.2915 366.629 52.8674 366.51 52.3507L365.45 47.748L366.949 47.4031L367.979 51.8776C368.041 52.1476 368.155 52.3739 368.321 52.5568C368.489 52.7391 368.696 52.8653 368.94 52.9353C369.185 53.0054 369.451 53.0072 369.739 52.9408C370.03 52.8739 370.269 52.7557 370.456 52.5864C370.645 52.4165 370.774 52.213 370.844 51.976C370.915 51.7384 370.92 51.4847 370.858 51.2147L369.828 46.7402ZM372.574 47.4089L372.289 46.1735L378.11 44.8334L378.394 46.0688L376.225 46.5684L377.572 52.4203L376.091 52.7613L374.743 46.9094L372.574 47.4089ZM380.567 44.2677L382.199 51.355L380.7 51.7L379.068 44.6127L380.567 44.2677ZM389.128 46.0281C389.306 46.801 389.311 47.4922 389.143 48.1018C388.977 48.7109 388.676 49.2164 388.239 49.6183C387.803 50.0173 387.273 50.2888 386.648 50.4327C386.018 50.5777 385.42 50.5648 384.853 50.394C384.287 50.2232 383.796 49.9002 383.38 49.4249C382.965 48.9497 382.668 48.3268 382.491 47.5562C382.313 46.7834 382.307 46.0924 382.473 45.4833C382.639 44.8742 382.939 44.3702 383.375 43.9711C383.809 43.5698 384.342 43.2966 384.972 43.1516C385.597 43.0077 386.193 43.0211 386.759 43.1919C387.327 43.3599 387.819 43.6815 388.235 44.1567C388.653 44.6314 388.951 45.2552 389.128 46.0281ZM387.609 46.3779C387.494 45.8772 387.322 45.4723 387.093 45.1631C386.866 44.8533 386.597 44.6407 386.286 44.5252C385.975 44.4097 385.639 44.3936 385.277 44.477C384.915 44.5604 384.619 44.722 384.39 44.9618C384.161 45.2016 384.011 45.5106 383.94 45.8889C383.872 46.2666 383.895 46.7058 384.01 47.2065C384.125 47.7071 384.297 48.1123 384.523 48.4221C384.752 48.7313 385.022 48.9437 385.333 49.0592C385.644 49.1747 385.981 49.1907 386.343 49.1073C386.705 49.0239 387.001 48.8623 387.23 48.6225C387.459 48.3828 387.607 48.074 387.676 47.6962C387.747 47.318 387.725 46.8785 387.609 46.3779ZM395.351 40.8641L396.982 47.9514L395.688 48.2494L391.578 44.4986L391.526 44.5105L392.553 48.9712L391.054 49.3162L389.423 42.2289L390.738 41.9261L394.823 45.6791L394.885 45.6647L393.859 41.2075L395.351 40.8641Z" fill="white" fill-opacity="0.43"/>
</g>
<defs>
<clipPath id="clip0_414_3524">
<rect width="393" height="100" fill="white"/>
</clipPath>
</defs>
</svg>
