<svg width="294" height="50" viewBox="0 0 294 50" fill="none" xmlns="http://www.w3.org/2000/svg">
<rect width="294" height="50" rx="19" fill="white"/>
<path d="M16.456 15.506L16.61 13.896C17.254 14.148 17.646 14.232 19.074 14.428C19.13 13.924 19.256 12.986 19.326 12.468C18.5 12.356 18.276 12.328 17.324 12.118C17.128 12.076 17.058 12.062 16.848 12.02L16.988 10.48C17.576 10.704 18.57 10.9 19.522 10.984C19.718 9.808 19.802 9.08 19.802 8.66C19.802 8.618 19.802 8.59 19.788 8.52L21.65 8.688C21.496 9.122 21.454 9.332 21.202 11.054C22.784 11.026 23.596 10.956 24.394 10.76L24.338 12.398C24.156 12.412 24.086 12.426 23.778 12.454C22.77 12.538 22.322 12.566 21.818 12.566C21.678 12.566 21.552 12.566 20.95 12.552C20.81 13.574 20.768 13.854 20.684 14.526C21.104 14.54 21.216 14.54 21.37 14.54C22.364 14.54 23.372 14.442 24.044 14.26L24.002 15.87C23.862 15.87 23.82 15.87 23.582 15.912C22.966 15.982 22.14 16.038 21.482 16.038C21.258 16.038 21.132 16.038 20.586 16.01C20.544 16.388 20.516 16.752 20.516 17.004C20.516 17.69 20.67 18.124 21.034 18.446C21.44 18.796 22 18.964 22.77 18.964C24.548 18.964 25.57 18.18 25.57 16.808C25.57 15.996 25.15 15.212 24.31 14.442C25.094 14.386 25.388 14.33 26.046 14.092C26.396 14.498 26.55 14.708 26.704 14.974C27.068 15.59 27.306 16.388 27.306 17.032C27.306 18.026 26.816 18.992 25.962 19.65C25.164 20.266 24.114 20.574 22.798 20.574C20.25 20.574 18.864 19.356 18.864 17.102C18.864 16.738 18.878 16.388 18.934 15.912C18.094 15.8 17.548 15.716 16.988 15.59C16.694 15.52 16.652 15.52 16.456 15.506ZM33.018 9.99L33.83 8.576C34.796 9.108 37.47 9.906 39.052 10.13L38.478 11.74C36.084 11.194 34.614 10.732 33.018 9.99ZM31.898 11.222L33.648 11.32C33.438 12.09 33.2 13.392 33.018 14.764C32.99 14.96 32.99 14.96 32.948 15.17L32.976 15.198C33.788 14.414 35.524 13.868 37.218 13.868C39.598 13.868 41.166 15.044 41.166 16.836C41.166 17.858 40.62 18.894 39.724 19.538C38.814 20.196 37.652 20.49 36.028 20.49C34.824 20.49 34.054 20.392 32.458 20C32.444 19.132 32.416 18.852 32.248 18.194C33.62 18.67 34.824 18.894 36.014 18.894C37.988 18.894 39.36 18.068 39.36 16.878C39.36 15.94 38.478 15.38 36.994 15.38C35.748 15.38 34.446 15.758 33.508 16.402C33.256 16.584 33.172 16.668 32.878 17.004L31.114 16.948C31.156 16.696 31.156 16.64 31.226 16.108C31.338 15.24 31.562 13.686 31.814 12.034C31.87 11.698 31.884 11.53 31.898 11.222ZM45.366 15.31L45.016 13.63C45.408 13.602 45.408 13.602 46.472 13.364C48.376 12.944 49.636 12.776 50.798 12.776C52.394 12.776 53.472 13.238 54.102 14.204C54.452 14.736 54.62 15.324 54.62 16.01C54.62 17.872 53.304 19.384 51.078 20.084C50.21 20.35 49.86 20.406 48.04 20.616C47.9 19.916 47.788 19.65 47.438 19.02C47.536 19.02 47.592 19.02 47.648 19.02C48.166 19.02 48.95 18.936 49.636 18.81C50.728 18.6 51.344 18.348 51.974 17.858C52.646 17.354 52.968 16.738 52.968 15.968C52.968 14.876 52.156 14.288 50.672 14.288C49.706 14.288 48.628 14.442 46.99 14.834C46.094 15.044 45.842 15.114 45.366 15.31ZM57.2196 12.09L57.1216 10.27C57.4296 10.284 57.5836 10.284 57.6536 10.284C57.9056 10.284 57.9056 10.284 59.9636 10.144C60.7476 10.102 63.0716 9.976 66.9496 9.794C68.0976 9.738 68.3076 9.724 68.5596 9.654L68.6576 11.446C68.5036 11.432 68.5036 11.432 68.3636 11.432C67.5236 11.432 66.4876 11.712 65.5916 12.188C63.8136 13.112 62.7636 14.512 62.7636 15.926C62.7636 17.018 63.4496 17.858 64.6256 18.208C65.3116 18.418 66.2076 18.572 66.7116 18.572C66.7256 18.572 66.8516 18.572 66.9916 18.558L66.7396 20.462C66.5716 20.42 66.5016 20.406 66.2636 20.378C64.7236 20.182 63.8416 19.93 62.9876 19.454C61.6996 18.726 60.9856 17.536 60.9856 16.08C60.9856 14.89 61.4616 13.714 62.3156 12.776C62.8476 12.202 63.3516 11.838 64.2616 11.376C63.1276 11.544 62.5816 11.586 59.5436 11.81C58.6056 11.88 57.7656 11.978 57.2196 12.09ZM71.5136 9.71H73.4316C73.3616 10.228 73.3196 10.914 73.3196 11.838C73.3196 13.056 73.4316 14.736 73.5856 15.59C73.8236 17.046 74.2716 17.942 74.7196 17.942C74.9296 17.942 75.1256 17.732 75.2936 17.34C75.6296 16.584 75.8816 15.744 76.0356 14.806C76.5256 15.366 76.7496 15.576 77.4356 16.08C76.7076 18.81 75.8956 19.944 74.7056 19.944C73.7676 19.944 73.0116 19.258 72.4516 17.914C71.8776 16.514 71.6256 14.484 71.5696 10.606C71.5556 10.116 71.5556 10.018 71.5136 9.71ZM78.5836 11.04L80.0536 10.34C81.8176 12.454 82.7976 14.792 83.2036 17.872L81.4676 18.53C81.3836 17.214 81.0616 15.758 80.5716 14.484C80.0956 13.21 79.4236 12.076 78.5836 11.04ZM89.5316 14.19L89.5596 14.218C90.8336 13.714 91.4496 13.574 92.4996 13.574C94.8936 13.574 96.4336 14.806 96.4336 16.724C96.4336 18.054 95.7756 19.118 94.5296 19.818C93.6196 20.336 92.4296 20.616 91.1416 20.616C89.9656 20.616 88.9856 20.392 88.4256 19.972C87.8936 19.58 87.5856 18.992 87.5856 18.362C87.5856 17.2 88.5936 16.36 89.9936 16.36C90.9736 16.36 91.8276 16.766 92.4156 17.508C92.6956 17.858 92.8496 18.166 93.0596 18.768C94.2216 18.334 94.7256 17.732 94.7256 16.738C94.7256 15.646 93.6476 14.932 91.9536 14.932C89.9096 14.932 87.8656 15.758 86.1856 17.284L85.2336 15.772C85.7236 15.534 86.2836 15.156 87.2076 14.456C88.5096 13.462 90.3296 11.894 91.3936 10.816C91.4216 10.788 91.5616 10.648 91.6456 10.564L91.6316 10.55C91.0996 10.62 90.2036 10.676 87.6696 10.788C87.3616 10.802 87.2636 10.816 86.9976 10.858L86.9276 9.178C87.4036 9.234 87.8096 9.262 88.5796 9.262C89.7696 9.262 91.4776 9.192 92.8356 9.094C93.3256 9.052 93.4796 9.024 93.7036 8.912L94.5716 10.144C94.3336 10.27 94.2356 10.354 93.8436 10.718C93.1436 11.362 92.1216 12.272 91.6456 12.678C91.3936 12.888 90.3856 13.644 90.1056 13.826C89.7556 14.064 89.7556 14.064 89.5316 14.19ZM91.5476 19.174C91.2956 18.208 90.7636 17.704 89.9796 17.704C89.4756 17.704 89.1536 17.956 89.1536 18.348C89.1536 18.908 89.7836 19.23 90.8196 19.23C91.0856 19.23 91.1556 19.23 91.5476 19.174ZM101.866 12.622L103.028 11.796C103.938 12.44 103.966 12.454 104.778 13.196C105.758 12.398 106.262 11.88 107.172 10.774H103.49C102.398 11.95 101.264 12.818 99.7096 13.686C99.4716 13.21 99.2336 12.93 98.7576 12.51C101.054 11.39 102.902 9.71 103.728 7.988L105.38 8.394C105.016 8.926 104.89 9.094 104.652 9.416H107.522C108.054 9.416 108.39 9.402 108.754 9.346L109.58 10.228C109.412 10.438 109.398 10.452 109.076 10.872C107.858 12.468 106.514 13.756 104.862 14.918H109.398C109.958 14.918 110.238 14.904 110.574 14.862C110.518 15.24 110.504 15.604 110.504 16.15V19.748C110.504 20.308 110.532 20.77 110.588 21.134H108.992V20.378H103.644V21.134H102.02C102.076 20.714 102.104 20.252 102.104 19.748V16.71C101.25 17.186 100.704 17.438 99.4436 17.97C99.2056 17.368 99.0096 17.074 98.5476 16.57C99.7516 16.178 100.9 15.688 101.908 15.142C102.356 14.89 102.818 14.596 103.574 14.092C102.986 13.476 102.594 13.14 101.866 12.622ZM103.63 16.29V19.048H109.006V16.29H103.63ZM115.81 10.998H114.06C113.444 10.998 113.122 11.012 112.674 11.068V9.556C113.136 9.612 113.542 9.64 114.158 9.64H115.81V9.346C115.81 8.898 115.782 8.59 115.74 8.254H117.322C117.28 8.506 117.252 8.954 117.252 9.332V9.64H118.68C119.31 9.64 119.772 9.612 120.248 9.556V11.068C119.814 11.012 119.422 10.998 118.792 10.998H117.252V12.006H118.806C119.324 12.006 119.688 11.992 120.038 11.95C120.01 12.202 119.996 12.566 119.996 13.056V14.694C119.996 15.408 119.926 15.674 119.702 15.898C119.464 16.136 119.114 16.22 118.358 16.22C118.316 16.22 118.204 16.22 118.092 16.22C118.036 15.632 117.98 15.422 117.812 15.016C118.022 15.03 118.134 15.044 118.288 15.044C118.61 15.044 118.68 15.002 118.68 14.806V13.308H117.252V15.058C117.756 15.912 118.092 16.332 118.722 16.934C119.352 17.522 119.758 17.844 120.514 18.32C120.108 18.81 119.94 19.076 119.646 19.594C118.498 18.712 117.98 18.166 117.196 17.046C117.224 17.242 117.238 17.634 117.238 18.138V19.888C117.238 20.42 117.252 20.77 117.308 21.148H115.726C115.782 20.812 115.81 20.378 115.81 19.818V18.236C115.81 17.788 115.824 17.41 115.838 17.228C114.998 18.614 114.466 19.216 113.234 20.168C112.968 19.664 112.786 19.37 112.38 18.894C113.374 18.18 113.822 17.774 114.466 17.004C115.138 16.206 115.432 15.758 115.81 14.988V13.308H114.494V15.212C114.494 15.688 114.508 15.982 114.536 16.304H113.052C113.094 15.898 113.122 15.548 113.122 14.932V13.252C113.122 12.706 113.108 12.328 113.066 11.95C113.514 11.992 113.836 12.006 114.382 12.006H115.81V10.998ZM120.752 9.318H122.348C122.292 9.682 122.278 10.06 122.278 10.774V16.318C122.278 17.158 122.292 17.424 122.334 17.802H120.752C120.808 17.382 120.822 17.102 120.822 16.304V10.802C120.822 10.116 120.794 9.71 120.752 9.318ZM123.468 8.338H125.106C125.036 8.73 125.022 9.178 125.022 10.032V19.286C125.022 20.098 124.91 20.42 124.56 20.672C124.266 20.896 123.818 20.966 122.852 20.966C122.614 20.966 122.04 20.952 121.536 20.924C121.452 20.322 121.368 20.042 121.13 19.454C121.746 19.524 122.432 19.58 122.81 19.58C123.426 19.58 123.552 19.51 123.552 19.146V10.074C123.552 9.234 123.524 8.786 123.468 8.338ZM135.998 12.3L137.412 11.6C138.378 12.93 139.106 14.442 139.512 16.052L137.916 16.85C137.636 15.38 136.768 13.322 135.998 12.3ZM131.882 9.22L131.854 9.402C131.784 9.808 131.686 10.382 131.546 11.138C131.504 11.376 131.504 11.376 131.462 11.558C131.882 11.544 132.078 11.53 132.33 11.53C133.254 11.53 133.94 11.782 134.402 12.272C134.878 12.804 135.06 13.476 135.06 14.75C135.06 17.158 134.654 19.076 133.982 19.846C133.59 20.308 133.17 20.476 132.428 20.476C131.784 20.476 131.21 20.364 130.272 20.056C130.286 19.79 130.3 19.58 130.3 19.44C130.3 19.076 130.272 18.796 130.16 18.25C130.916 18.586 131.714 18.81 132.204 18.81C132.61 18.81 132.834 18.544 133.044 17.858C133.268 17.13 133.408 15.856 133.408 14.666C133.408 13.378 133.086 13 132.008 13C131.714 13 131.49 13.014 131.168 13.042C130.482 15.912 129.852 17.606 128.312 20.658L126.688 19.762C127.766 18.292 128.844 15.772 129.502 13.168C129.292 13.196 129.292 13.196 128.844 13.28L127.57 13.49C127.346 13.532 127.192 13.574 126.996 13.63L126.828 11.978C127.458 11.964 128.186 11.894 129.81 11.684C130.076 10.13 130.174 9.332 130.174 8.856C130.174 8.8 130.174 8.716 130.174 8.604L131.994 8.786C131.952 8.898 131.91 9.08 131.882 9.22ZM135.13 9.318L136.11 8.828C136.726 9.486 137.104 10.018 137.58 10.886L136.6 11.404C136.138 10.55 135.746 9.99 135.13 9.318ZM139.246 9.976L138.28 10.522C137.86 9.752 137.398 9.094 136.852 8.492L137.79 8.002C138.42 8.646 138.812 9.178 139.246 9.976ZM144.16 12.006L145.252 11.236C145.896 11.628 146.204 11.852 146.792 12.286C147.87 11.516 148.374 11.096 149.06 10.354H145.812C144.594 11.46 143.46 12.188 141.878 12.888C141.654 12.44 141.388 12.118 140.954 11.726C142.522 11.11 143.754 10.368 144.748 9.444C145.406 8.828 145.756 8.422 145.994 7.988L147.716 8.296C147.352 8.73 147.282 8.8 146.988 9.136H149.438C149.984 9.136 150.348 9.108 150.684 9.066L151.412 9.836C150.6 10.788 150.194 11.222 149.606 11.768C147.282 13.924 144.93 15.226 141.724 16.108C141.542 15.59 141.318 15.198 140.94 14.764C142.858 14.33 144.314 13.798 145.602 13.042C145.182 12.678 144.776 12.384 144.16 12.006ZM151.132 15.534H147.912C146.89 16.318 146.47 16.584 145.616 17.032C144.664 17.522 144.02 17.788 142.984 18.11C142.69 17.466 142.564 17.256 142.172 16.836C144.874 16.178 147.52 14.582 148.514 12.972L149.998 13.448C149.634 13.882 149.564 13.966 149.256 14.316H151.286C151.832 14.316 152.182 14.302 152.518 14.246L153.344 15.086C153.162 15.31 153.134 15.338 152.868 15.716C151.552 17.522 150.194 18.642 148.01 19.692C146.33 20.504 144.986 20.91 142.564 21.316C142.298 20.63 142.2 20.462 141.724 19.888C144.23 19.65 145.966 19.188 147.576 18.334C147.03 17.816 146.694 17.578 146.008 17.172L147.24 16.402C147.94 16.878 148.234 17.102 148.836 17.592C149.648 17.06 150.18 16.598 151.132 15.534ZM162.626 8.38L164.236 9.612C163.998 9.78 163.732 10.018 162.514 11.152C161.8 11.81 160.82 12.594 159.182 13.84C158.748 14.162 158.65 14.274 158.65 14.428C158.65 14.638 158.678 14.666 159.91 15.59C162.094 17.242 162.5 17.592 164.32 19.244C164.46 19.384 164.544 19.454 164.726 19.594L163.284 21.05C162.92 20.546 162.416 20.014 161.464 19.132C160.47 18.208 160.008 17.83 157.852 16.15C156.928 15.436 156.676 15.058 156.676 14.414C156.676 13.994 156.83 13.616 157.138 13.28C157.32 13.084 157.334 13.07 158.37 12.272C159.882 11.124 160.666 10.452 161.604 9.542C162.234 8.912 162.388 8.73 162.626 8.38ZM169.22 12.09L169.122 10.27C169.43 10.284 169.584 10.284 169.654 10.284C169.906 10.284 169.906 10.284 171.964 10.144C172.748 10.102 175.072 9.976 178.95 9.794C180.098 9.738 180.308 9.724 180.56 9.654L180.658 11.446C180.504 11.432 180.504 11.432 180.364 11.432C179.524 11.432 178.488 11.712 177.592 12.188C175.814 13.112 174.764 14.512 174.764 15.926C174.764 17.018 175.45 17.858 176.626 18.208C177.312 18.418 178.208 18.572 178.712 18.572C178.726 18.572 178.852 18.572 178.992 18.558L178.74 20.462C178.572 20.42 178.502 20.406 178.264 20.378C176.724 20.182 175.842 19.93 174.988 19.454C173.7 18.726 172.986 17.536 172.986 16.08C172.986 14.89 173.462 13.714 174.316 12.776C174.848 12.202 175.352 11.838 176.262 11.376C175.128 11.544 174.582 11.586 171.544 11.81C170.606 11.88 169.766 11.978 169.22 12.09ZM185.638 8.926L187.458 8.646C187.458 9.318 188.004 11.894 188.382 13.028C189.25 12.692 189.782 12.51 191.546 11.95C192.288 11.712 192.288 11.712 192.54 11.586L193.142 13.35C191.924 13.588 190.09 14.106 188.522 14.694C186.478 15.45 185.456 16.332 185.456 17.34C185.456 18.362 186.408 18.796 188.662 18.796C190.412 18.796 192.134 18.586 193.184 18.236L193.338 20.14C193.044 20.154 192.946 20.168 192.204 20.238C190.692 20.392 189.908 20.448 188.928 20.448C186.982 20.448 185.764 20.21 184.868 19.678C184.098 19.216 183.65 18.362 183.65 17.34C183.65 16.416 184.098 15.52 184.896 14.834C185.442 14.386 185.89 14.092 186.8 13.644C186.478 12.622 186.212 11.586 185.862 9.85C185.708 9.15 185.708 9.136 185.638 8.926ZM191.126 9.136L192.106 8.646C192.722 9.304 193.1 9.836 193.576 10.704L192.596 11.222C192.134 10.368 191.742 9.808 191.126 9.136ZM195.242 9.794L194.276 10.34C193.856 9.57 193.394 8.912 192.848 8.31L193.786 7.82C194.416 8.464 194.808 8.996 195.242 9.794ZM199.106 10.214L199.652 8.562C201.206 9.08 203.278 9.374 205.49 9.374C205.56 9.374 205.714 9.374 205.882 9.374L205.644 11.096C203.096 10.984 201.164 10.732 199.106 10.214ZM197.874 14.89L197.468 13.028C197.832 13.014 197.832 13.014 199.092 12.79C201.08 12.44 202.298 12.314 203.488 12.314C204.622 12.314 205.49 12.496 206.134 12.888C207.002 13.406 207.492 14.344 207.492 15.45C207.492 17.046 206.526 18.502 204.832 19.468C203.684 20.126 202.704 20.42 200.422 20.784C200.282 20.042 200.128 19.692 199.694 19.034C201.318 18.964 202.83 18.572 203.908 17.97C205.014 17.354 205.616 16.472 205.616 15.506C205.616 14.456 204.874 13.924 203.418 13.924C201.836 13.924 199.036 14.414 197.874 14.89ZM214.464 11.614L215.822 11.236C216.214 11.138 216.452 11.082 217.012 10.97C217.012 10.69 217.012 10.69 216.998 10.2C216.984 8.982 216.984 8.884 216.914 8.52H218.678C218.622 8.954 218.622 8.954 218.608 10.76C218.944 10.732 219.14 10.718 219.42 10.718C221.394 10.718 222.696 11.852 222.696 13.574C222.696 14.512 222.276 15.422 221.562 16.01C220.904 16.556 220.036 16.836 218.972 16.836C218.286 16.836 217.544 16.696 216.802 16.444C216.788 15.772 216.746 15.506 216.55 14.722C217.39 15.1 218.076 15.268 218.79 15.268C219.392 15.268 219.938 15.1 220.372 14.806C220.736 14.54 220.946 14.106 220.946 13.616C220.946 12.734 220.26 12.216 219.084 12.216C218.09 12.216 217.25 12.384 214.884 13.084C215.752 16.122 215.822 16.388 216.662 19.888C216.732 20.182 216.76 20.28 216.872 20.56L215.024 20.98C214.954 19.86 214.184 16.542 213.316 13.532C213.134 13.616 213.106 13.616 212.616 13.784C212.112 13.938 211.174 14.316 210.81 14.498L210.264 12.86C210.67 12.776 210.852 12.734 211.538 12.496C212.112 12.3 212.224 12.272 212.896 12.062C212.476 10.69 212.21 9.948 211.944 9.458L213.68 8.968C213.764 9.416 213.764 9.416 214.17 10.62C214.282 10.97 214.338 11.152 214.464 11.614ZM225.958 15.31L225.608 13.63C226 13.602 226 13.602 227.064 13.364C228.968 12.944 230.228 12.776 231.39 12.776C232.986 12.776 234.064 13.238 234.694 14.204C235.044 14.736 235.212 15.324 235.212 16.01C235.212 17.872 233.896 19.384 231.67 20.084C230.802 20.35 230.452 20.406 228.632 20.616C228.492 19.916 228.38 19.65 228.03 19.02C228.128 19.02 228.184 19.02 228.24 19.02C228.758 19.02 229.542 18.936 230.228 18.81C231.32 18.6 231.936 18.348 232.566 17.858C233.238 17.354 233.56 16.738 233.56 15.968C233.56 14.876 232.748 14.288 231.264 14.288C230.298 14.288 229.22 14.442 227.582 14.834C226.686 15.044 226.434 15.114 225.958 15.31ZM237.811 12.09L237.713 10.27C238.021 10.284 238.175 10.284 238.245 10.284C238.497 10.284 238.497 10.284 240.555 10.144C241.339 10.102 243.663 9.976 247.541 9.794C248.689 9.738 248.899 9.724 249.151 9.654L249.249 11.446C249.095 11.432 249.095 11.432 248.955 11.432C248.115 11.432 247.079 11.712 246.183 12.188C244.405 13.112 243.355 14.512 243.355 15.926C243.355 17.018 244.041 17.858 245.217 18.208C245.903 18.418 246.799 18.572 247.303 18.572C247.317 18.572 247.443 18.572 247.583 18.558L247.331 20.462C247.163 20.42 247.093 20.406 246.855 20.378C245.315 20.182 244.433 19.93 243.579 19.454C242.291 18.726 241.577 17.536 241.577 16.08C241.577 14.89 242.053 13.714 242.907 12.776C243.439 12.202 243.943 11.838 244.853 11.376C243.719 11.544 243.173 11.586 240.135 11.81C239.197 11.88 238.357 11.978 237.811 12.09ZM254.289 10.368H253.533C253.085 10.928 252.805 11.208 252.175 11.726C251.797 11.222 251.713 11.138 251.153 10.69C252.203 9.962 252.945 9.052 253.281 8.072L254.779 8.352C254.583 8.73 254.527 8.856 254.359 9.122H256.277C256.907 9.122 257.201 9.108 257.523 9.052V10.144C258.153 9.5 258.545 8.842 258.741 8.086L260.239 8.324C260.015 8.814 259.987 8.87 259.861 9.136H262.619C263.305 9.136 263.585 9.122 263.991 9.066V10.438C263.613 10.396 263.305 10.382 262.689 10.382H261.387C261.695 10.886 261.737 10.956 261.919 11.334L260.533 11.74C260.337 11.208 260.183 10.9 259.875 10.382H259.091C258.825 10.746 258.685 10.9 258.237 11.362V11.642L258.223 11.866H262.157C262.955 11.866 263.207 11.852 263.669 11.824C263.627 12.076 263.627 12.244 263.627 12.692V13.672C263.627 14.092 263.641 14.33 263.683 14.596H262.171V13.07H253.141V14.596H251.657C251.685 14.316 251.713 14.064 251.713 13.672V12.72C251.713 12.3 251.699 12.09 251.657 11.824C252.077 11.852 252.315 11.866 253.127 11.866H256.753V11.642C256.753 11.334 256.753 11.18 256.711 10.97H257.677C257.383 10.746 257.313 10.69 257.033 10.536L257.243 10.382C257.005 10.368 256.851 10.368 256.613 10.368H255.689C255.913 10.76 255.997 10.942 256.165 11.292L254.807 11.754C254.653 11.166 254.527 10.844 254.289 10.368ZM255.031 21.148H253.477C253.533 20.658 253.561 20.238 253.561 19.594V14.554C253.561 14.148 253.547 13.896 253.505 13.63C253.841 13.672 254.205 13.686 254.681 13.686H260.393C260.911 13.686 261.261 13.672 261.597 13.63C261.555 13.924 261.555 14.19 261.555 14.582V15.632C261.555 16.15 261.555 16.388 261.597 16.724C261.247 16.696 260.925 16.682 260.449 16.682H255.031V17.354H261.037C261.555 17.354 261.863 17.34 262.185 17.298C262.143 17.648 262.129 17.998 262.129 18.46V19.874C262.129 20.35 262.143 20.742 262.199 21.148H260.659V20.546H255.031V21.148ZM255.031 14.834V15.576H260.099V14.834H255.031ZM255.031 18.474V19.384H260.659V18.474H255.031ZM273.007 19.342V17.9H271.453C270.655 17.9 270.361 17.914 269.997 17.956V16.528C270.347 16.584 270.627 16.598 271.439 16.598H273.007V15.45H271.677C270.739 15.45 270.417 15.464 269.997 15.492C270.025 15.17 270.025 15.17 270.053 13.756V10.592C270.053 9.64 270.039 9.178 269.983 8.716C270.515 8.772 270.963 8.786 271.873 8.786H275.737C276.773 8.786 277.193 8.772 277.543 8.716C277.501 9.122 277.487 9.78 277.487 10.634V13.616C277.487 14.596 277.501 15.086 277.543 15.492C277.081 15.45 276.857 15.45 276.017 15.45H274.407V16.598H276.199C276.969 16.598 277.277 16.584 277.683 16.528V17.97C277.277 17.914 276.927 17.9 276.213 17.9H274.407V19.342H276.661C277.403 19.342 277.767 19.328 278.145 19.272V20.77C277.697 20.714 277.319 20.7 276.563 20.7H270.669C269.927 20.7 269.563 20.714 269.087 20.77V19.272C269.465 19.328 269.773 19.342 270.501 19.342H273.007ZM273.007 10.144H271.453V11.544H273.007V10.144ZM274.407 10.144V11.544H276.031V10.144H274.407ZM273.007 12.72H271.453V14.134H273.007V12.72ZM274.407 12.72V14.134H276.031V12.72H274.407ZM266.777 10.284H266.245C265.797 10.284 265.545 10.298 265.195 10.354V8.842C265.531 8.898 265.895 8.926 266.469 8.926H268.443C269.003 8.926 269.339 8.912 269.689 8.842V10.34C269.339 10.298 269.045 10.284 268.653 10.284H268.233V13.014H268.555C268.919 13.014 269.129 13 269.437 12.944V14.372C269.157 14.33 268.877 14.316 268.555 14.316H268.233V17.074C268.821 16.822 268.989 16.752 269.605 16.444L269.647 17.928C268.429 18.53 267.883 18.768 265.713 19.65C265.643 19.678 265.573 19.706 265.433 19.762L265.055 18.18C265.531 18.082 265.825 17.984 266.777 17.648V14.316H266.315C265.909 14.316 265.685 14.33 265.363 14.386V12.944C265.699 13 265.909 13.014 266.343 13.014H266.777V10.284ZM24.03 33.552L24.016 34.756C24.016 34.812 24.03 34.924 24.03 35.092C24.338 35.736 24.478 36.31 24.478 37.066C24.478 38.592 23.75 39.908 22.392 40.846C21.804 41.252 21.16 41.546 19.858 41.994C19.466 41.126 19.326 40.916 18.864 40.412C20.012 40.188 20.586 39.992 21.244 39.6C22.196 39.054 22.756 38.34 22.868 37.556C22.462 38.2 21.734 38.55 20.81 38.55C20.166 38.55 19.662 38.396 19.186 38.046C18.528 37.57 18.22 36.954 18.22 36.156C18.22 34.672 19.382 33.608 21.006 33.608C21.608 33.608 22.14 33.762 22.462 34.028C22.448 33.958 22.448 33.958 22.448 33.86C22.434 33.832 22.434 33.048 22.434 32.67C20.432 32.726 19.116 32.768 18.5 32.81C16.386 32.964 16.386 32.964 16.008 33.02L15.952 31.354C16.26 31.382 16.386 31.382 16.638 31.382C16.988 31.382 17.212 31.382 19.018 31.312C19.928 31.284 20.068 31.284 21.216 31.256C21.678 31.242 21.678 31.242 22.406 31.214C22.392 29.884 22.392 29.884 22.322 29.52L24.086 29.506C24.03 29.94 24.03 29.968 24.016 31.172C26.452 31.158 27.544 31.13 28.062 31.074L28.076 32.684C27.558 32.642 26.886 32.614 25.724 32.614C25.388 32.614 25.136 32.614 24.03 32.642V33.552ZM22.42 35.862C22.42 35.274 21.93 34.896 21.16 34.896C20.446 34.896 19.858 35.4 19.858 36.016C19.858 36.66 20.348 37.122 21.048 37.122C21.846 37.122 22.42 36.59 22.42 35.862ZM33.634 34.406H33.648C34.054 33.958 34.348 33.706 35.356 32.95C36.574 32.026 37.456 31.634 38.31 31.634C39.486 31.634 40.27 32.376 40.27 33.496C40.27 33.958 40.172 34.56 39.92 35.638C39.444 37.752 39.332 38.34 39.332 38.788C39.332 39.236 39.542 39.488 39.906 39.488C40.214 39.488 40.592 39.208 40.886 38.774C41.222 38.284 41.53 37.682 41.698 37.178C42.006 37.92 42.174 38.214 42.636 38.858C42.216 39.586 42.02 39.852 41.656 40.244C41.04 40.93 40.354 41.252 39.584 41.252C39.122 41.252 38.688 41.112 38.38 40.888C37.876 40.496 37.652 39.978 37.652 39.124C37.652 38.312 37.708 37.934 38.226 35.61C38.436 34.714 38.52 34.168 38.52 33.846C38.52 33.51 38.324 33.328 37.946 33.328C37.498 33.328 36.896 33.594 36.21 34.084C35.188 34.84 34.194 35.722 33.662 36.366C33.634 36.996 33.634 37.388 33.634 37.78C33.634 37.892 33.634 37.892 33.648 39.446C33.662 41.196 33.662 41.238 33.718 41.756H31.912C31.996 41.182 31.996 41.182 32.01 39.53C32.01 38.032 32.01 38.032 32.038 37.654L32.01 37.668C31.884 37.864 31.73 38.046 31.016 38.844C30.708 39.194 30.512 39.432 30.372 39.642L29.56 37.976C29.882 37.752 30.106 37.542 30.47 37.178C31.786 35.876 31.786 35.876 32.052 35.582C32.066 34.91 32.066 34.756 32.094 34.21C32.094 33.888 32.108 33.86 32.108 33.482C30.624 33.58 30.344 33.608 29.966 33.678L29.882 32.096C30.134 32.124 30.26 32.124 30.456 32.124C30.722 32.124 31.492 32.082 32.15 32.04C32.164 31.83 32.164 31.83 32.178 31.508C32.178 31.116 32.192 30.682 32.192 30.36C32.192 29.996 32.192 29.898 32.15 29.576L33.928 29.604C33.886 29.772 33.886 29.8 33.872 30.122C33.872 30.192 33.858 30.374 33.83 30.654C33.816 30.934 33.802 31.046 33.774 31.9C33.788 31.9 33.844 31.872 33.942 31.844L34.46 32.432C34.32 32.544 34.264 32.6 34.054 32.852C33.984 32.922 33.984 32.922 33.858 33.104C33.802 33.188 33.774 33.216 33.69 33.328L33.662 34.154C33.662 34.154 33.648 34.238 33.634 34.406ZM47.858 34.112L47.886 32.516C48.53 32.67 49.258 32.726 50.406 32.726C50.868 32.726 51.19 32.726 51.708 32.712C51.708 32.39 51.708 32.166 51.694 32.054C51.694 31.76 51.694 31.592 51.694 31.508V30.584C51.68 30.248 51.68 30.136 51.652 30.024L53.388 29.996C53.318 30.402 53.29 30.99 53.29 31.928V32.586C54.284 32.474 55.04 32.32 55.6 32.11L55.656 33.692C55.53 33.706 55.502 33.706 55.25 33.762C54.69 33.888 53.976 34 53.304 34.07V34.392C53.318 35.05 53.332 35.456 53.374 36.24L53.416 36.968L53.444 37.542C54.396 37.99 54.914 38.298 55.642 38.816C55.824 38.942 55.908 38.998 56.034 39.068L55.376 40.748C54.984 40.314 54.634 40.048 53.43 39.278C53.444 39.376 53.444 39.39 53.444 39.488C53.444 39.782 53.402 40.062 53.332 40.272C53.01 41.084 52.03 41.574 50.672 41.574C48.824 41.574 47.704 40.706 47.704 39.278C47.704 37.934 48.908 36.982 50.588 36.982C51.106 36.982 51.484 37.038 51.834 37.164C51.806 36.688 51.778 35.694 51.736 34.182C51.176 34.21 50.854 34.21 50.49 34.21C49.958 34.21 49.398 34.196 48.74 34.154C48.53 34.14 48.39 34.14 48.32 34.126C48.194 34.126 48.11 34.126 48.068 34.126C47.998 34.112 47.956 34.112 47.942 34.112C47.928 34.112 47.886 34.112 47.858 34.112ZM51.862 38.592C51.414 38.438 51.134 38.382 50.714 38.382C49.818 38.382 49.258 38.732 49.258 39.292C49.258 39.824 49.762 40.16 50.546 40.16C51.078 40.16 51.484 40.006 51.694 39.74C51.82 39.572 51.876 39.362 51.876 38.97C51.876 38.816 51.876 38.592 51.862 38.592ZM46.388 41.574L44.708 41.686C44.708 41.546 44.694 41.448 44.638 41.14C44.372 39.488 44.26 38.144 44.26 36.674C44.26 35.414 44.344 34.182 44.526 32.978C44.596 32.544 44.596 32.544 44.904 30.962C45.002 30.472 45.058 30.066 45.058 29.926C45.058 29.926 45.058 29.898 45.058 29.884L46.948 30.066C46.388 31.284 45.8 34.924 45.828 37.108C45.814 37.458 45.814 37.654 45.814 37.654V37.822C45.814 37.976 45.8 38.13 45.8 38.34H45.814L45.884 38.2L46.038 37.794C46.248 37.234 46.262 37.192 46.416 36.842C46.444 36.772 46.5 36.646 46.584 36.408L47.746 36.912C46.92 38.55 46.36 40.272 46.36 41.21C46.36 41.308 46.36 41.364 46.388 41.574ZM53.43 29.492L54.354 29.17C54.774 29.856 55.082 30.528 55.32 31.354L54.382 31.69C54.116 30.794 53.822 30.108 53.43 29.492ZM56.958 30.822L56.076 31.186C55.852 30.43 55.502 29.646 55.138 29.044L56.006 28.722C56.384 29.31 56.678 29.968 56.958 30.822ZM58.498 30.71H60.416C60.346 31.228 60.304 31.914 60.304 32.838C60.304 34.056 60.416 35.736 60.57 36.59C60.808 38.046 61.256 38.942 61.704 38.942C61.914 38.942 62.11 38.732 62.278 38.34C62.614 37.584 62.866 36.744 63.02 35.806C63.51 36.366 63.734 36.576 64.42 37.08C63.692 39.81 62.88 40.944 61.69 40.944C60.752 40.944 59.996 40.258 59.436 38.914C58.862 37.514 58.61 35.484 58.554 31.606C58.54 31.116 58.54 31.018 58.498 30.71ZM65.568 32.04L67.038 31.34C68.802 33.454 69.782 35.792 70.188 38.872L68.452 39.53C68.368 38.214 68.046 36.758 67.556 35.484C67.08 34.21 66.408 33.076 65.568 32.04ZM72.498 30.71H74.416C74.346 31.228 74.304 31.914 74.304 32.838C74.304 34.056 74.416 35.736 74.57 36.59C74.808 38.046 75.256 38.942 75.704 38.942C75.914 38.942 76.11 38.732 76.278 38.34C76.614 37.584 76.866 36.744 77.02 35.806C77.51 36.366 77.734 36.576 78.42 37.08C77.692 39.81 76.88 40.944 75.69 40.944C74.752 40.944 73.996 40.258 73.436 38.914C72.862 37.514 72.61 35.484 72.554 31.606C72.54 31.116 72.54 31.018 72.498 30.71ZM79.568 32.04L81.038 31.34C82.802 33.454 83.782 35.792 84.188 38.872L82.452 39.53C82.368 38.214 82.046 36.758 81.556 35.484C81.08 34.21 80.408 33.076 79.568 32.04ZM93.092 32.026C92.826 34.224 92.336 36.156 91.636 37.738C90.838 39.544 89.942 40.37 88.794 40.37C87.198 40.37 86.05 38.746 86.05 36.492C86.05 34.952 86.596 33.51 87.59 32.418C88.766 31.13 90.418 30.458 92.406 30.458C95.766 30.458 97.95 32.502 97.95 35.652C97.95 38.074 96.69 40.006 94.548 40.874C93.876 41.154 93.33 41.294 92.35 41.462C92.112 40.72 91.944 40.412 91.496 39.824C92.784 39.656 93.624 39.432 94.282 39.054C95.5 38.382 96.228 37.052 96.228 35.554C96.228 34.21 95.626 33.118 94.506 32.446C94.072 32.194 93.708 32.082 93.092 32.026ZM91.384 32.04C90.656 32.124 90.152 32.32 89.578 32.726C88.402 33.566 87.674 35.008 87.674 36.506C87.674 37.654 88.164 38.564 88.78 38.564C89.242 38.564 89.718 37.976 90.222 36.772C90.754 35.512 91.216 33.622 91.384 32.04ZM103.242 29.506L105.062 29.702C105.02 29.828 104.978 29.982 104.95 30.136C104.922 30.318 104.908 30.388 104.866 30.612C104.824 30.906 104.824 30.906 104.628 31.956C104.572 32.264 104.572 32.292 104.53 32.474C104.936 32.446 105.132 32.432 105.398 32.432C106.322 32.432 107.008 32.684 107.47 33.174C107.946 33.706 108.128 34.378 108.128 35.652C108.128 38.06 107.722 39.978 107.05 40.748C106.658 41.21 106.238 41.378 105.496 41.378C104.852 41.378 104.278 41.266 103.34 40.972C103.354 40.692 103.368 40.496 103.368 40.356C103.368 39.992 103.34 39.712 103.228 39.166C103.984 39.502 104.782 39.712 105.272 39.712C105.678 39.712 105.902 39.446 106.112 38.76C106.336 38.032 106.476 36.758 106.476 35.568C106.476 34.28 106.154 33.902 105.048 33.902C104.768 33.902 104.558 33.916 104.236 33.944C103.816 35.652 103.69 36.072 103.382 36.982C102.892 38.382 102.514 39.278 101.702 40.916C101.632 41.056 101.632 41.056 101.492 41.336C101.45 41.42 101.45 41.434 101.38 41.574L99.756 40.678C100.176 40.118 100.736 39.11 101.212 38.046C101.814 36.674 102.01 36.086 102.57 34.084C101.856 34.168 100.526 34.406 100.064 34.532L99.896 32.88C100.414 32.88 102.108 32.712 102.878 32.6C103.13 31.088 103.242 30.234 103.242 29.772C103.242 29.716 103.242 29.618 103.242 29.506ZM108.254 32.194L109.696 31.494C111.096 33.132 111.978 34.798 112.58 36.954L110.984 37.766C110.718 36.562 110.396 35.638 109.864 34.588C109.36 33.552 108.912 32.908 108.254 32.194ZM117.27 29.394L119.062 29.576C118.978 29.842 118.978 29.842 118.838 30.514C118.768 30.85 118.698 31.13 118.544 31.746C119.51 31.648 120.238 31.522 120.784 31.354L120.826 32.964C120.672 32.978 120.644 32.978 120.378 33.034C119.874 33.118 119.02 33.216 118.152 33.286C117.746 34.686 117.242 36.016 116.612 37.346C116.29 38.032 116.164 38.284 115.632 39.264C115.45 39.6 115.45 39.6 115.366 39.768L113.756 38.872C114.246 38.228 114.638 37.598 115.114 36.632C115.66 35.512 115.898 34.938 116.43 33.328C115.8 33.342 115.716 33.342 115.548 33.342C115.366 33.342 115.282 33.342 114.988 33.328L114.246 33.314V31.718C114.75 31.816 115.282 31.844 116.136 31.844C116.304 31.844 116.542 31.844 116.85 31.83C117.088 30.836 117.242 29.996 117.27 29.394ZM126.23 33.034L125.474 34.476C124.256 33.664 123.01 33.062 121.442 32.516L122.282 31.158C123.934 31.788 124.984 32.278 126.23 33.034ZM126.174 39.348L125.404 40.916C124.9 40.314 124.088 39.656 123.262 39.18C123.276 39.306 123.29 39.404 123.29 39.46C123.29 39.978 123.052 40.58 122.688 40.944C122.198 41.448 121.358 41.728 120.364 41.728C118.516 41.728 117.312 40.804 117.312 39.376C117.312 37.962 118.558 36.968 120.336 36.968C120.756 36.968 121.05 36.996 121.638 37.094C121.596 36.45 121.568 35.904 121.568 35.484C121.568 34.938 121.596 34.532 121.68 34.07L123.304 34.154C123.164 34.672 123.136 34.994 123.136 35.568C123.136 36.128 123.164 36.688 123.262 37.486C124.27 37.934 124.41 38.004 125.474 38.774C125.684 38.914 125.74 38.97 125.964 39.152C126.076 39.264 126.076 39.264 126.174 39.348ZM121.694 38.578C121.204 38.41 120.868 38.354 120.434 38.354C119.524 38.354 118.936 38.732 118.936 39.32C118.936 39.894 119.44 40.23 120.308 40.23C121.26 40.23 121.722 39.838 121.722 39.054C121.722 38.914 121.694 38.578 121.694 38.578ZM129.674 34.378L129.66 32.992C130.178 33.118 130.822 33.16 132.04 33.16C132.054 32.992 132.054 32.992 132.096 32.502C132.096 32.39 132.11 32.138 132.11 31.984C132.11 31.928 132.11 31.858 132.11 31.732L133.622 31.802C133.538 32.096 133.482 32.474 133.426 33.118C135.008 33.034 136.828 32.782 137.64 32.53L137.71 33.944C137.556 33.958 137.5 33.958 137.262 34C135.792 34.21 134.476 34.35 133.342 34.392C133.328 34.658 133.3 35.204 133.286 35.414C133.678 35.33 134.126 35.274 134.588 35.274C134.728 35.274 134.924 35.288 135.19 35.302C135.316 34.952 135.372 34.728 135.414 34.434L136.786 34.854C136.716 34.994 136.716 34.994 136.492 35.582C138.004 36.1 138.718 36.982 138.718 38.326C138.718 39.656 137.892 40.762 136.506 41.308C135.834 41.574 135.106 41.742 134.406 41.812C134.224 41.238 134.112 41.014 133.748 40.44C134.686 40.398 135.288 40.272 135.904 39.992C136.73 39.628 137.22 38.956 137.22 38.172C137.22 37.5 136.87 37.066 136.044 36.73C135.372 38.256 134.714 39.236 133.804 40.09C132.866 40.958 131.984 41.378 131.116 41.378C130.01 41.378 129.24 40.538 129.24 39.334C129.24 38.578 129.548 37.752 130.08 37.094C130.57 36.492 131.13 36.1 131.928 35.764C131.928 35.372 131.956 34.742 131.984 34.42C131.872 34.42 131.746 34.42 131.634 34.42C131.284 34.42 130.794 34.406 130.248 34.392C130.01 34.378 129.996 34.378 129.856 34.378C129.828 34.378 129.758 34.378 129.674 34.378ZM131.942 37.15C131.06 37.752 130.626 38.424 130.626 39.222C130.626 39.698 130.864 40.006 131.242 40.006C131.508 40.006 131.872 39.852 132.138 39.642C132.012 38.942 131.956 38.186 131.942 37.15ZM133.384 38.732H133.398C133.454 38.648 133.454 38.648 133.524 38.55C133.902 38.116 134.238 37.556 134.798 36.422C134.672 36.408 134.56 36.408 134.504 36.408C134.07 36.408 133.72 36.464 133.272 36.59C133.272 36.716 133.272 36.828 133.272 36.884C133.272 37.276 133.328 38.228 133.37 38.508C133.37 38.55 133.384 38.634 133.384 38.732ZM148.672 38.172H146.796C146.824 37.934 146.838 37.766 146.838 37.584L146.824 37.318C146.824 36.576 147.006 36.002 147.398 35.498C147.692 35.148 147.804 35.05 148.714 34.448C149.624 33.846 149.946 33.412 149.946 32.768C149.946 31.914 149.204 31.382 148.014 31.382C147.286 31.382 146.67 31.676 146.334 32.18C146.138 32.474 146.054 32.712 145.998 33.244L143.926 32.992C144.15 31.97 144.43 31.438 145.032 30.878C145.746 30.234 146.81 29.898 148.126 29.898C149.302 29.898 150.24 30.178 150.94 30.738C151.598 31.256 151.934 31.914 151.934 32.698C151.934 33.37 151.78 33.902 151.444 34.35C151.122 34.798 150.856 35.022 149.722 35.792C148.854 36.38 148.63 36.716 148.63 37.458C148.63 37.682 148.644 37.906 148.672 38.172ZM146.712 39.334H148.742V41.252H146.712V39.334Z" fill="#0054AC"/>
</svg>
