<svg width="303" height="58" viewBox="0 0 303 58" fill="none" xmlns="http://www.w3.org/2000/svg">
<g filter="url(#filter0_d_30_7784)">
<rect x="4" width="295" height="50" rx="20" fill="white"/>
<path d="M30.564 21.526L31.362 22.226C31.25 22.478 31.222 22.674 31.208 23.164C31.166 24.746 31.012 26.902 30.872 27.826C30.508 30.248 30.018 30.822 28.338 30.822C27.806 30.822 27.33 30.78 26.602 30.668C26.574 29.786 26.532 29.52 26.28 28.876C27.106 29.1 27.666 29.198 28.128 29.198C28.73 29.198 28.94 28.89 29.164 27.672C29.332 26.706 29.472 24.802 29.472 23.192L26.21 23.206C26.014 24.956 25.72 26.006 25.09 27.21C24.32 28.694 23.074 29.968 21.31 31.088C20.834 30.346 20.638 30.122 20.05 29.604C21.8 28.68 22.948 27.574 23.69 26.076C24.068 25.306 24.278 24.62 24.404 23.64C24.432 23.444 24.46 23.304 24.474 23.206L22.15 23.22C21.296 23.22 21.1 23.234 20.638 23.29L20.624 21.568C21.1 21.652 21.478 21.68 22.178 21.68L24.628 21.666C24.67 21.134 24.698 20.322 24.698 19.916V19.566C24.698 19.384 24.698 19.272 24.656 19.02L26.532 19.062C26.504 19.244 26.49 19.3 26.476 19.496C26.476 19.58 26.462 19.664 26.462 19.762C26.434 20.056 26.434 20.056 26.406 20.784C26.392 21.092 26.392 21.218 26.35 21.666L29.458 21.652C30.088 21.652 30.214 21.638 30.564 21.526ZM35.8 19.482L37.788 19.496C37.732 19.874 37.718 20.224 37.704 20.91L37.634 28.904C39.09 28.624 40.406 28.092 41.456 27.364C42.744 26.482 43.612 25.516 44.312 24.158C44.858 24.886 45.04 25.082 45.642 25.586C44.676 27.07 43.78 28.008 42.52 28.848C41.12 29.786 39.692 30.332 37.424 30.766C37.046 30.836 36.878 30.892 36.584 31.004L35.688 29.926C35.786 29.548 35.814 29.296 35.814 28.484L35.87 20.924C35.87 19.944 35.87 19.944 35.8 19.482ZM48.1475 21.512L49.3095 20.126C50.9755 21.162 51.8435 21.806 52.9215 22.828L51.7175 24.354C50.5975 23.164 49.4495 22.24 48.1475 21.512ZM48.6375 30.752L48.1195 28.82C49.3235 28.75 50.9895 28.344 52.2635 27.784C54.0135 27.028 55.3155 25.95 56.4215 24.354C57.0375 23.458 57.4295 22.688 57.8495 21.554C58.3955 22.212 58.6195 22.422 59.3335 22.926C58.1435 25.488 56.8135 27.14 54.8955 28.414C53.4675 29.366 51.7315 30.052 49.5615 30.514C49.0015 30.626 48.9595 30.64 48.6375 30.752ZM71.9755 21.036L72.4235 21.68C72.2555 21.904 72.1995 22.03 71.9895 22.618C70.3235 27.196 68.1535 29.604 63.9255 31.564C63.5055 30.85 63.2535 30.528 62.7635 30.108C64.8635 29.296 66.6695 28.092 67.7895 26.762C66.9355 26.02 65.8015 25.236 64.9195 24.774L65.9835 23.528C67.0895 24.144 67.8175 24.634 68.7975 25.404C69.3855 24.55 69.9735 23.304 70.3655 22.1L66.0115 22.142C65.2415 23.458 64.0095 24.858 62.7355 25.908C62.3015 25.404 62.0355 25.194 61.3355 24.788C62.7635 23.738 64.0235 22.31 64.8355 20.784C65.3115 19.902 65.5495 19.356 65.6615 18.838L67.4815 19.244C67.3275 19.51 67.3135 19.524 67.0615 20.042C66.8235 20.532 66.7955 20.588 66.7255 20.714C66.8655 20.7 66.9075 20.7 67.1175 20.686H67.4535L70.3655 20.658C70.6595 20.644 70.9815 20.63 71.1355 20.602C70.8135 19.972 70.5615 19.58 70.1275 19.02L71.2055 18.698C71.7795 19.426 72.1155 19.986 72.4935 20.868L71.9755 21.036ZM74.3835 20.336L73.3055 20.714C72.9695 19.944 72.5635 19.23 72.0595 18.572L73.0955 18.236C73.6695 18.922 74.0055 19.482 74.3835 20.336ZM74.5995 26.104V24.158C75.2155 24.242 75.4815 24.256 76.8675 24.256H84.3295C85.7155 24.256 85.9815 24.242 86.5975 24.158V26.104C86.0375 26.034 85.8835 26.034 84.3155 26.034H76.8815C75.3135 26.034 75.1595 26.034 74.5995 26.104ZM91.7775 19.286L93.5975 18.992C93.6535 19.93 94.0735 21.946 94.5215 23.374C95.4315 23.038 95.4315 23.038 98.1475 22.142C98.3995 22.058 98.4695 22.03 98.6795 21.932L99.2815 23.696C98.0635 23.934 96.2295 24.466 94.6615 25.04C92.6175 25.796 91.5955 26.692 91.5955 27.7C91.5955 28.722 92.5475 29.156 94.8015 29.156C96.5515 29.156 98.2735 28.946 99.3235 28.582L99.4775 30.5C99.1695 30.5 99.0995 30.514 98.3435 30.598C96.8315 30.752 96.0475 30.808 95.0675 30.808C93.1215 30.808 91.9035 30.57 91.0075 30.038C90.2375 29.576 89.7895 28.708 89.7895 27.7C89.7895 26.762 90.2375 25.866 91.0355 25.194C91.5815 24.732 92.0295 24.452 92.9395 23.99C92.5895 22.856 92.3515 21.918 92.0015 20.196C91.8615 19.524 91.8475 19.496 91.7775 19.286ZM109.557 21.022H106.995C106.379 21.022 106.099 21.036 105.847 21.092V19.706C106.253 19.762 106.687 19.776 107.429 19.776H109.543C109.529 19.3 109.515 19.104 109.459 18.726H111.027C110.971 19.076 110.957 19.314 110.943 19.776H113.253C113.925 19.776 114.443 19.748 114.849 19.706V21.092C114.513 21.036 114.149 21.022 113.435 21.022H110.943V21.694H113.113C113.617 21.694 113.869 21.68 114.275 21.638C114.233 21.988 114.219 22.24 114.219 22.716V25.6C114.219 26.048 114.233 26.3 114.275 26.622C113.883 26.594 113.575 26.58 113.113 26.58H110.943V27.252H113.505C114.219 27.252 114.569 27.238 114.905 27.196V28.554C114.555 28.498 114.191 28.484 113.505 28.484H110.943C110.943 28.946 110.971 29.268 111.027 29.66H109.459C109.529 29.254 109.543 29.016 109.557 28.484H107.331C106.827 28.484 106.253 28.498 105.945 28.54V27.196C106.239 27.238 106.575 27.252 107.331 27.252H109.557V26.58H107.569C107.149 26.58 106.757 26.594 106.407 26.622C106.449 26.272 106.463 26.034 106.463 25.6V22.632C106.463 22.212 106.449 22.016 106.407 21.638C106.757 21.68 107.079 21.694 107.555 21.694H109.557V21.022ZM109.557 22.814H107.835V23.598H109.557V22.814ZM110.943 22.814V23.598H112.805V22.814H110.943ZM109.557 24.634H107.835V25.446H109.557V24.634ZM110.943 24.634V25.446H112.805V24.634H110.943ZM102.263 19.888L103.383 18.852C104.349 19.678 104.867 20.224 105.819 21.372L104.643 22.506C103.789 21.344 103.327 20.84 102.263 19.888ZM102.235 25.572V24.06C102.599 24.116 102.823 24.13 103.355 24.13H104.405C104.811 24.13 105.119 24.116 105.469 24.06C105.427 24.494 105.413 24.83 105.413 25.586V28.582C105.637 28.96 105.791 29.128 106.057 29.31C106.743 29.758 107.555 29.912 109.305 29.912C112.119 29.912 113.785 29.842 115.297 29.632C115.031 30.388 115.003 30.486 114.877 31.284C113.701 31.34 111.671 31.368 110.005 31.368C107.583 31.368 106.799 31.27 105.917 30.836C105.413 30.612 105.105 30.346 104.685 29.828C103.999 30.458 103.719 30.696 103.047 31.172C102.893 31.298 102.767 31.382 102.641 31.494L101.955 29.898C102.459 29.688 103.229 29.17 103.943 28.54V25.502H103.173C102.795 25.502 102.599 25.516 102.235 25.572ZM125.979 24.368V24.928H127.673C128.317 24.928 128.639 24.914 128.947 24.858V26.09C128.597 26.034 128.233 26.02 127.687 26.02H122.213C121.863 26.02 121.639 26.034 121.163 26.062C121.177 25.698 121.191 25.46 121.191 24.998V23.822C121.191 23.346 121.191 23.248 121.219 22.772C121.065 23.024 120.841 23.29 120.533 23.57C120.337 23.15 120.197 22.968 119.903 22.632C119.777 22.632 119.707 22.632 119.581 22.632H119.385V24.816C119.819 24.662 120.029 24.592 120.785 24.298L120.771 25.67C120.099 25.936 119.945 25.992 119.385 26.188V30.248L119.371 30.472C121.037 30.038 121.919 29.226 122.213 27.868H121.345C120.953 27.868 120.701 27.882 120.351 27.938V26.482C120.715 26.538 120.995 26.552 121.457 26.552H126.063C126.595 26.552 126.917 26.538 127.225 26.51C127.155 26.762 127.155 26.762 127.043 27.154C126.987 27.322 126.875 27.672 126.791 27.91H127.911C128.401 27.91 128.681 27.896 128.933 27.84C128.863 28.274 128.863 28.302 128.807 28.652C128.611 29.828 128.387 30.612 128.107 30.976C127.785 31.424 127.365 31.578 126.483 31.578C126.063 31.578 125.489 31.55 124.859 31.494C124.789 30.892 124.719 30.584 124.509 30.122C125.251 30.248 125.699 30.304 126.175 30.304C126.623 30.304 126.749 30.262 126.889 30.038C127.015 29.828 127.043 29.73 127.197 29.128H125.769C125.433 29.128 125.111 29.142 124.887 29.17C125.069 28.778 125.195 28.428 125.363 27.868H123.683C123.487 28.862 123.123 29.632 122.535 30.29C121.933 30.948 121.233 31.382 120.099 31.788C119.861 31.312 119.651 30.976 119.357 30.598C119.287 31.116 119.133 31.312 118.685 31.452C118.279 31.578 117.943 31.62 117.355 31.62C117.173 31.62 116.991 31.606 116.641 31.592C116.599 31.004 116.529 30.682 116.333 30.122C116.767 30.192 117.131 30.22 117.453 30.22C117.817 30.22 117.901 30.136 117.901 29.814V26.692C117.551 26.804 117.439 26.846 117.145 26.93C116.921 27 116.697 27.084 116.459 27.182L116.193 25.614C116.669 25.572 117.047 25.488 117.901 25.25V22.632H117.369C116.991 22.632 116.683 22.646 116.347 22.688V21.176C116.697 21.246 116.977 21.274 117.383 21.274H117.901V20.196C117.901 19.538 117.887 19.23 117.817 18.782H119.469C119.413 19.244 119.385 19.58 119.385 20.182V21.274H119.581C119.931 21.274 120.099 21.26 120.351 21.204V21.764C121.247 20.77 121.863 19.65 122.129 18.628L123.599 18.936C123.333 19.594 123.249 19.762 123.025 20.112H124.747C125.041 19.678 125.209 19.328 125.405 18.768L126.875 19.034C126.581 19.58 126.441 19.804 126.231 20.112H127.603C128.233 20.112 128.541 20.098 128.863 20.056V21.316C128.541 21.26 128.233 21.246 127.771 21.246H125.979V21.806H127.141C127.855 21.806 128.135 21.792 128.429 21.75V22.856C128.107 22.828 127.799 22.814 127.141 22.814H125.979V23.36H127.141C127.855 23.36 128.135 23.346 128.429 23.304V24.41C128.135 24.382 127.813 24.368 127.141 24.368H125.979ZM124.635 24.368H122.563V24.928H124.635V24.368ZM124.635 23.36V22.814H122.563V23.36H124.635ZM124.635 21.806V21.246H122.563V21.806H124.635ZM130.739 22.562L130.641 20.728C130.949 20.742 131.103 20.742 131.173 20.742C131.425 20.742 131.425 20.742 133.483 20.602C134.505 20.546 136.899 20.42 140.637 20.238C141.785 20.182 141.855 20.182 142.079 20.126L142.177 21.904C142.023 21.89 142.023 21.89 141.883 21.89C141.043 21.89 140.007 22.17 139.111 22.646C137.333 23.57 136.283 24.97 136.283 26.384C136.283 27.476 136.969 28.316 138.145 28.666C138.831 28.876 139.727 29.03 140.231 29.03C140.245 29.03 140.371 29.03 140.511 29.016L140.259 30.92C140.077 30.878 140.049 30.878 139.783 30.836C138.243 30.64 137.361 30.388 136.507 29.912C135.219 29.184 134.505 27.994 134.505 26.538C134.505 25.348 134.981 24.172 135.835 23.248C136.367 22.674 136.871 22.296 137.781 21.834C136.647 22.002 135.779 22.086 133.063 22.282C131.817 22.38 131.173 22.464 130.739 22.562ZM139.307 23.906L140.287 23.416C140.903 24.074 141.281 24.606 141.757 25.474L140.777 25.992C140.315 25.138 139.923 24.578 139.307 23.906ZM143.423 24.564L142.457 25.11C142.037 24.34 141.575 23.682 141.029 23.08L141.967 22.59C142.597 23.234 142.989 23.766 143.423 24.564ZM145.551 22.436L145.481 20.952C145.887 20.994 146.209 21.008 146.825 21.008C147.889 21.008 148.645 20.966 149.709 20.854C149.667 20.742 149.667 20.742 149.555 20.49C149.205 19.678 149.009 19.244 148.995 19.216L150.745 18.978C150.801 19.328 150.941 19.748 151.319 20.672C152.509 20.518 154.133 20.154 155.099 19.832L155.239 21.316C155.099 21.344 155.099 21.344 154.763 21.414C153.825 21.638 152.271 21.946 151.837 22.002C152.061 22.52 152.145 22.702 152.383 23.15C153.587 22.898 154.231 22.758 154.315 22.744C155.113 22.548 155.281 22.492 155.645 22.338L155.785 23.864C155.519 23.906 155.225 23.962 154.903 24.046C154.329 24.186 153.867 24.284 153.531 24.354C153.181 24.424 153.181 24.424 153.013 24.466C153.741 25.67 153.965 25.964 154.889 27.028L153.657 27.91C152.649 27.49 151.809 27.336 150.437 27.336C149.373 27.336 148.561 27.476 148.085 27.728C147.693 27.952 147.483 28.246 147.483 28.582C147.483 28.918 147.721 29.24 148.085 29.394C148.533 29.59 149.275 29.702 150.087 29.702C151.543 29.702 153.517 29.282 154.399 28.792L154.651 30.514C154.385 30.556 154.385 30.556 153.741 30.724C152.551 31.046 151.389 31.2 150.157 31.2C148.547 31.2 147.525 30.99 146.741 30.514C146.069 30.094 145.663 29.38 145.663 28.596C145.663 27.84 146.083 27.14 146.839 26.65C147.567 26.188 148.687 25.95 150.101 25.95C150.955 25.95 151.767 26.048 152.523 26.244C152.299 26.034 152.033 25.642 151.445 24.676C149.961 24.9 149.065 24.956 146.027 25.054C145.789 25.068 145.691 25.068 145.453 25.096L145.397 23.57C145.803 23.626 145.887 23.626 146.839 23.626C148.309 23.626 149.471 23.542 150.801 23.36C150.717 23.192 150.661 23.108 150.549 22.842C150.409 22.548 150.367 22.464 150.255 22.212C149.135 22.338 148.127 22.394 146.503 22.408C145.915 22.408 145.845 22.422 145.551 22.436ZM163.121 24.69L163.149 24.718C164.423 24.214 165.039 24.074 166.089 24.074C168.483 24.074 170.023 25.306 170.023 27.224C170.023 28.554 169.365 29.618 168.119 30.318C167.209 30.836 166.019 31.116 164.731 31.116C163.555 31.116 162.575 30.892 162.015 30.472C161.483 30.08 161.175 29.492 161.175 28.862C161.175 27.7 162.183 26.86 163.583 26.86C164.563 26.86 165.417 27.266 166.005 28.008C166.285 28.358 166.439 28.666 166.649 29.268C167.811 28.834 168.315 28.232 168.315 27.238C168.315 26.146 167.237 25.432 165.543 25.432C163.499 25.432 161.455 26.258 159.775 27.784L158.823 26.272C159.313 26.034 159.873 25.656 160.797 24.956C162.099 23.962 163.919 22.394 164.983 21.316C165.011 21.288 165.151 21.148 165.235 21.064L165.221 21.05C164.689 21.12 163.793 21.176 161.259 21.288C160.951 21.302 160.853 21.316 160.587 21.358L160.517 19.678C160.993 19.734 161.399 19.762 162.169 19.762C163.359 19.762 165.067 19.692 166.425 19.594C166.915 19.552 167.069 19.524 167.293 19.412L168.161 20.644C167.923 20.77 167.825 20.854 167.433 21.218C166.733 21.862 165.711 22.772 165.235 23.178C164.983 23.388 163.975 24.144 163.695 24.326C163.345 24.564 163.345 24.564 163.121 24.69ZM165.137 29.674C164.885 28.708 164.353 28.204 163.569 28.204C163.065 28.204 162.743 28.456 162.743 28.848C162.743 29.408 163.373 29.73 164.409 29.73C164.675 29.73 164.745 29.73 165.137 29.674ZM183.771 19.79L184.709 20.854C184.513 21.092 184.513 21.106 184.149 21.834C183.659 22.87 182.847 23.92 181.993 24.648C181.433 25.138 180.971 25.446 180.313 25.81C179.893 25.222 179.683 25.012 179.053 24.536C179.991 24.116 180.523 23.794 181.097 23.248C181.671 22.716 182.105 22.142 182.427 21.47H175.077C174.097 21.47 173.747 21.484 173.173 21.554V19.804C173.705 19.888 174.139 19.916 175.105 19.916H182.413C183.253 19.916 183.379 19.902 183.771 19.79ZM177.121 22.618H179.025C178.983 22.884 178.983 22.898 178.969 23.752C178.913 26.146 178.535 27.49 177.583 28.708C176.743 29.786 175.721 30.5 173.971 31.228C173.607 30.472 173.425 30.22 172.865 29.632C173.999 29.296 174.629 28.988 175.315 28.442C176.743 27.308 177.191 26.104 177.191 23.458C177.191 23.038 177.177 22.912 177.121 22.618ZM188.923 20.322H195.349C195.769 20.322 195.937 20.308 196.175 20.294C196.189 19.384 196.889 18.67 197.785 18.67C198.681 18.67 199.409 19.398 199.409 20.28C199.409 21.176 198.681 21.904 197.785 21.904C197.701 21.904 197.617 21.89 197.519 21.876C196.385 26.454 193.907 29.31 189.483 31.158C189.119 30.43 188.881 30.108 188.251 29.492C192.129 28.288 194.663 25.684 195.559 21.96H188.895C187.859 21.96 187.593 21.974 187.131 22.044V20.224C187.635 20.308 187.971 20.322 188.923 20.322ZM197.785 19.37C197.281 19.37 196.875 19.776 196.875 20.28C196.875 20.784 197.281 21.204 197.785 21.204C198.303 21.204 198.709 20.784 198.709 20.28C198.709 19.776 198.303 19.37 197.785 19.37ZM202.461 19.454L204.365 19.468C204.309 19.86 204.309 19.986 204.309 20.728V24.592C204.309 25.292 204.309 25.474 204.365 25.824H202.447C202.489 25.502 202.517 25.068 202.517 24.564V20.714C202.517 20 202.503 19.818 202.461 19.454ZM208.775 19.482H210.721C210.665 19.832 210.651 19.986 210.651 20.784V22.674C210.637 24.858 210.539 26.034 210.287 26.916C209.881 28.316 208.985 29.366 207.529 30.178C206.787 30.598 206.087 30.878 204.799 31.256C204.547 30.57 204.407 30.332 203.819 29.59C205.191 29.324 206.003 29.03 206.843 28.47C208.159 27.602 208.621 26.748 208.775 24.9C208.831 24.298 208.845 23.682 208.845 22.562V20.812C208.845 20.098 208.831 19.804 208.775 19.482ZM223.587 22.8L225.001 22.1C225.967 23.43 226.695 24.942 227.101 26.552L225.505 27.35C225.225 25.88 224.357 23.822 223.587 22.8ZM219.471 19.72L219.443 19.902C219.373 20.308 219.275 20.882 219.135 21.638C219.093 21.876 219.093 21.876 219.051 22.058C219.471 22.044 219.667 22.03 219.919 22.03C220.843 22.03 221.529 22.282 221.991 22.772C222.467 23.304 222.649 23.976 222.649 25.25C222.649 27.658 222.243 29.576 221.571 30.346C221.179 30.808 220.759 30.976 220.017 30.976C219.373 30.976 218.799 30.864 217.861 30.556C217.875 30.29 217.889 30.08 217.889 29.94C217.889 29.576 217.861 29.296 217.749 28.75C218.505 29.086 219.303 29.31 219.793 29.31C220.199 29.31 220.423 29.044 220.633 28.358C220.857 27.63 220.997 26.356 220.997 25.166C220.997 23.878 220.675 23.5 219.597 23.5C219.303 23.5 219.079 23.514 218.757 23.542C218.071 26.412 217.441 28.106 215.901 31.158L214.277 30.262C215.355 28.792 216.433 26.272 217.091 23.668C216.881 23.696 216.881 23.696 216.433 23.78L215.159 23.99C214.935 24.032 214.781 24.074 214.585 24.13L214.417 22.478C215.047 22.464 215.775 22.394 217.399 22.184C217.665 20.63 217.763 19.832 217.763 19.356C217.763 19.3 217.763 19.216 217.763 19.104L219.583 19.286C219.541 19.398 219.499 19.58 219.471 19.72ZM222.719 19.818L223.699 19.328C224.315 19.986 224.693 20.518 225.169 21.386L224.189 21.904C223.727 21.05 223.335 20.49 222.719 19.818ZM226.835 20.476L225.869 21.022C225.449 20.252 224.987 19.594 224.441 18.992L225.379 18.502C226.009 19.146 226.401 19.678 226.835 20.476ZM236.537 22.772H238.049C238.021 22.982 238.021 23.108 238.021 23.346C238.021 25.18 238.553 26.944 239.533 28.344C240.009 29.044 240.485 29.492 241.423 30.164C241.143 30.598 240.905 30.99 240.527 31.676C239.799 31.074 239.295 30.556 238.847 29.94C238.119 28.96 237.783 28.204 237.419 26.804C237.209 28.008 236.971 28.708 236.439 29.562C235.865 30.472 235.333 31.046 234.465 31.69C234.045 31.06 234.045 31.06 233.709 30.696C233.485 30.682 233.429 30.682 233.065 30.682H230.783V31.41H229.229C229.299 30.934 229.327 30.458 229.327 29.884V26.678C229.187 26.804 228.949 27 228.557 27.336C228.361 26.748 228.165 26.3 227.857 25.796C228.375 25.446 228.907 24.984 229.327 24.55C229.999 23.822 230.489 23.01 230.979 21.82H232.421C233.107 23.262 233.961 24.242 235.403 25.208C234.983 25.74 234.843 25.964 234.535 26.608C234.283 26.398 234.199 26.328 234.073 26.216C234.073 26.426 234.073 26.482 234.073 26.58V29.618C234.073 29.744 234.073 29.772 234.073 29.898C235.011 29.086 235.487 28.428 235.893 27.42C236.313 26.37 236.579 24.844 236.579 23.374C236.579 23.206 236.565 23.024 236.537 22.772ZM230.433 25.488H233.163C233.275 25.488 233.275 25.488 233.303 25.488C232.687 24.83 232.239 24.186 231.763 23.262C231.399 24.144 231.077 24.69 230.433 25.488ZM230.783 26.832V29.338H232.645V26.832H230.783ZM237.223 20.616H239.365C240.023 20.616 240.331 20.602 240.583 20.546L241.241 21.302C241.143 21.554 241.129 21.624 241.003 22.086C240.597 23.64 240.247 24.522 239.687 25.404C239.267 25.026 238.945 24.802 238.469 24.536C239.057 23.654 239.295 23.108 239.617 21.96H236.761C236.243 23.22 235.851 23.962 235.305 24.746C234.913 24.326 234.661 24.116 234.143 23.766C234.885 22.744 235.403 21.652 235.795 20.336C236.005 19.58 236.117 19.062 236.145 18.572L237.713 18.838C237.573 19.328 237.489 19.664 237.433 19.86C237.321 20.266 237.265 20.476 237.223 20.616ZM230.167 18.866L231.441 19.566C230.699 20.98 230.083 21.764 228.809 22.898C228.599 22.45 228.361 22.072 227.955 21.582C229.075 20.672 229.537 20.084 230.167 18.866ZM231.973 19.566L233.191 18.866C233.751 19.832 234.269 20.42 235.109 21.092C234.801 21.512 234.535 21.918 234.283 22.394C233.191 21.428 232.701 20.812 231.973 19.566ZM244.461 19.314L246.421 19.342C246.337 19.748 246.309 20.154 246.253 21.232C246.197 22.534 246.113 25.376 246.113 26.37C246.113 27.7 246.197 28.204 246.477 28.624C246.799 29.086 247.471 29.352 248.353 29.352C249.865 29.352 251.083 28.498 251.741 26.958C252.049 26.23 252.231 25.572 252.385 24.606C253.141 25.222 253.393 25.376 254.079 25.684C253.519 27.574 253.099 28.484 252.413 29.254C251.363 30.444 249.977 31.032 248.213 31.032C247.247 31.032 246.351 30.808 245.763 30.416C244.797 29.772 244.391 28.694 244.391 26.818C244.391 26.09 244.419 24.69 244.503 21.176C244.517 20.756 244.517 20.462 244.517 20.266C244.517 19.874 244.503 19.678 244.461 19.314ZM257.103 20.21H259.021C258.951 20.728 258.909 21.414 258.909 22.338C258.909 23.556 259.021 25.236 259.175 26.09C259.413 27.546 259.861 28.442 260.309 28.442C260.519 28.442 260.715 28.232 260.883 27.84C261.219 27.084 261.471 26.244 261.625 25.306C262.115 25.866 262.339 26.076 263.025 26.58C262.297 29.31 261.485 30.444 260.295 30.444C259.357 30.444 258.601 29.758 258.041 28.414C257.467 27.014 257.215 24.984 257.159 21.106C257.145 20.616 257.145 20.518 257.103 20.21ZM264.173 21.54L265.643 20.84C267.407 22.954 268.387 25.292 268.793 28.372L267.057 29.03C266.973 27.714 266.651 26.258 266.161 24.984C265.685 23.71 265.013 22.576 264.173 21.54ZM277.431 27.686H275.793C275.807 27.392 275.821 27.252 275.821 27.084C275.821 26.93 275.821 26.93 275.779 26.09L275.583 21.33C275.555 20.714 275.513 20.014 275.457 19.622H277.753C277.711 20 277.655 20.728 277.627 21.33L277.431 26.09C277.403 26.902 277.403 26.902 277.403 27.098C277.403 27.266 277.403 27.406 277.431 27.686ZM277.627 30.752H275.597V28.834H277.627V30.752Z" fill="#0054AC"/>
</g>
<defs>
<filter id="filter0_d_30_7784" x="0" y="0" width="303" height="58" filterUnits="userSpaceOnUse" color-interpolation-filters="sRGB">
<feFlood flood-opacity="0" result="BackgroundImageFix"/>
<feColorMatrix in="SourceAlpha" type="matrix" values="0 0 0 0 0 0 0 0 0 0 0 0 0 0 0 0 0 0 127 0" result="hardAlpha"/>
<feOffset dy="4"/>
<feGaussianBlur stdDeviation="2"/>
<feComposite in2="hardAlpha" operator="out"/>
<feColorMatrix type="matrix" values="0 0 0 0 0 0 0 0 0 0 0 0 0 0 0 0 0 0 0.25 0"/>
<feBlend mode="normal" in2="BackgroundImageFix" result="effect1_dropShadow_30_7784"/>
<feBlend mode="normal" in="SourceGraphic" in2="effect1_dropShadow_30_7784" result="shape"/>
</filter>
</defs>
</svg>
