<svg width="289" height="58" viewBox="0 0 289 58" fill="none" xmlns="http://www.w3.org/2000/svg">
<g filter="url(#filter0_d_30_7782)">
<rect x="4" width="281" height="50" rx="20" fill="white"/>
<path d="M24.782 26.216L24.796 28.974C24.796 29.548 24.768 29.884 24.684 30.164C24.558 30.654 24.054 30.976 23.396 30.976C22.514 30.976 21.45 30.584 20.75 29.982C20.246 29.548 19.98 29.002 19.98 28.4C19.98 27.742 20.414 27 21.184 26.328C21.688 25.894 22.304 25.53 23.228 25.138L23.214 22.982C23.102 22.982 23.102 22.982 22.64 23.01C22.43 23.024 22.234 23.024 21.884 23.024C21.674 23.024 21.282 23.01 21.114 23.01C20.932 22.996 20.806 22.996 20.764 22.996C20.708 22.996 20.596 22.996 20.47 23.01L20.456 21.442C20.848 21.526 21.408 21.568 22.15 21.568C22.29 21.568 22.444 21.568 22.64 21.554C22.976 21.54 23.046 21.54 23.2 21.54V20.616C23.2 19.818 23.186 19.454 23.116 19.006H24.866C24.796 19.454 24.782 19.748 24.782 20.532V21.428C25.832 21.302 26.77 21.12 27.484 20.896L27.54 22.464C27.288 22.506 27.022 22.548 26.056 22.716C25.594 22.8 25.314 22.842 24.782 22.898V24.718C25.734 24.438 26.616 24.326 27.638 24.326C29.976 24.326 31.642 25.754 31.642 27.742C31.642 29.562 30.284 30.934 28.464 30.934C27.33 30.934 26.532 30.388 26.168 29.38C25.986 28.904 25.93 28.442 25.93 27.588C26.644 27.392 26.882 27.294 27.484 26.972C27.456 27.238 27.456 27.364 27.456 27.588C27.456 28.176 27.512 28.554 27.652 28.82C27.806 29.114 28.142 29.296 28.534 29.296C29.36 29.296 29.948 28.638 29.948 27.742C29.948 26.538 28.968 25.754 27.47 25.754C26.63 25.754 25.776 25.908 24.782 26.216ZM23.214 28.764V26.72C22.164 27.28 21.548 27.896 21.548 28.4C21.548 28.638 21.688 28.848 22.01 29.044C22.29 29.24 22.64 29.352 22.906 29.352C23.144 29.352 23.214 29.226 23.214 28.764ZM32.258 22.856L30.97 23.892C30.27 22.786 29.248 21.68 28.17 20.868L29.486 19.986C30.704 20.924 31.516 21.764 32.258 22.856ZM39.132 23.892H37.844C37.284 23.892 36.878 23.906 36.472 23.962V23.29C35.674 23.766 35.114 24.06 34.19 24.438C33.854 23.696 33.756 23.514 33.378 22.996C35.982 22.086 38.082 20.574 39.09 18.894H40.826C41.386 19.72 41.988 20.322 42.982 21.05C44.13 21.918 45.18 22.45 46.692 22.94C46.356 23.458 46.146 23.906 45.936 24.48C44.83 24.018 44.368 23.794 43.486 23.248V23.962C43.08 23.906 42.702 23.892 42.114 23.892H40.686V25.25H44.228C44.956 25.25 45.39 25.222 45.754 25.166V26.72C45.362 26.664 44.872 26.636 44.214 26.636H40.686V29.772H44.494C45.208 29.772 45.684 29.744 46.146 29.688V31.298C45.628 31.228 45.04 31.2 44.466 31.2H35.618C34.974 31.2 34.47 31.228 33.882 31.298V29.688C34.386 29.744 34.904 29.772 35.618 29.772H39.132V26.636H35.814C35.212 26.636 34.722 26.664 34.302 26.72V25.166C34.68 25.222 35.128 25.25 35.828 25.25H39.132V23.892ZM37.508 22.576H37.802L42.142 22.59C42.268 22.59 42.268 22.59 42.478 22.576C41.372 21.792 40.686 21.148 39.958 20.224C39.244 21.176 38.67 21.736 37.508 22.576ZM35.464 27.322L36.85 26.762C37.326 27.602 37.592 28.134 37.97 29.086L36.57 29.646C36.276 28.764 35.912 28.022 35.464 27.322ZM43.01 26.776L44.494 27.336C44.312 27.658 44.312 27.658 43.794 28.68C43.752 28.764 43.696 28.862 43.22 29.674L41.904 29.184C42.338 28.484 42.674 27.742 43.01 26.776ZM48.456 26.006L48.61 24.396C49.254 24.648 49.646 24.732 51.074 24.928C51.13 24.424 51.256 23.486 51.326 22.968C50.5 22.856 50.276 22.828 49.324 22.618C49.128 22.576 49.058 22.562 48.848 22.52L48.988 20.98C49.576 21.204 50.57 21.4 51.522 21.484C51.718 20.308 51.802 19.58 51.802 19.16C51.802 19.118 51.802 19.09 51.788 19.02L53.65 19.188C53.496 19.622 53.454 19.832 53.202 21.554C54.784 21.526 55.596 21.456 56.394 21.26L56.338 22.898C56.156 22.912 56.086 22.926 55.778 22.954C54.77 23.038 54.322 23.066 53.818 23.066C53.678 23.066 53.552 23.066 52.95 23.052C52.81 24.074 52.768 24.354 52.684 25.026C53.104 25.04 53.216 25.04 53.37 25.04C54.364 25.04 55.372 24.942 56.044 24.76L56.002 26.37C55.862 26.37 55.82 26.37 55.582 26.412C54.966 26.482 54.14 26.538 53.482 26.538C53.258 26.538 53.132 26.538 52.586 26.51C52.544 26.888 52.516 27.252 52.516 27.504C52.516 28.19 52.67 28.624 53.034 28.946C53.44 29.296 54 29.464 54.77 29.464C56.548 29.464 57.57 28.68 57.57 27.308C57.57 26.496 57.15 25.712 56.31 24.942C57.094 24.886 57.388 24.83 58.046 24.592C58.396 24.998 58.55 25.208 58.704 25.474C59.068 26.09 59.306 26.888 59.306 27.532C59.306 28.526 58.816 29.492 57.962 30.15C57.164 30.766 56.114 31.074 54.798 31.074C52.25 31.074 50.864 29.856 50.864 27.602C50.864 27.238 50.878 26.888 50.934 26.412C50.094 26.3 49.548 26.216 48.988 26.09C48.694 26.02 48.652 26.02 48.456 26.006ZM69.75 22.282L71.332 22.73C71.276 22.842 71.276 22.842 71.164 23.136C71.024 23.528 71.01 23.542 70.968 23.668C71.542 23.808 71.948 24.004 72.424 24.354C73.32 25.026 73.754 25.894 73.754 27C73.754 28.526 72.928 29.716 71.346 30.5C70.52 30.906 69.722 31.116 68.49 31.242C68.336 30.64 68.21 30.388 67.748 29.66C68.882 29.646 69.596 29.492 70.422 29.1C71.542 28.568 72.06 27.882 72.06 26.916C72.06 26.034 71.486 25.32 70.492 24.984C69.722 26.65 69.064 27.658 68.056 28.708C66.796 30.038 65.55 30.724 64.388 30.724C63.086 30.724 62.204 29.73 62.204 28.274C62.204 27.126 62.694 26.02 63.59 25.138C64.15 24.592 64.668 24.242 65.508 23.878C65.508 23.43 65.536 22.87 65.564 22.198C65.41 22.198 64.654 22.184 63.296 22.142C63.156 22.142 63.058 22.142 63.03 22.142C62.988 22.142 62.862 22.142 62.708 22.156V20.588C63.338 20.728 64.164 20.798 65.326 20.798C65.34 20.798 65.354 20.798 65.634 20.798C65.648 20.518 65.648 20.518 65.69 19.958C65.704 19.776 65.718 19.426 65.718 19.16C65.718 19.104 65.718 19.048 65.69 18.936L67.426 19.02C67.314 19.398 67.258 19.762 67.174 20.742C69.414 20.616 71.402 20.336 72.48 20L72.55 21.61C72.354 21.624 72.298 21.624 72.004 21.666C70.464 21.918 68.196 22.128 67.076 22.156C67.034 22.758 67.02 23.206 67.006 23.5C67.762 23.346 68.084 23.318 68.938 23.318C69.106 23.318 69.218 23.318 69.47 23.346C69.624 22.898 69.708 22.604 69.75 22.282ZM65.536 25.474C64.92 25.88 64.682 26.09 64.402 26.44C63.982 26.986 63.772 27.56 63.772 28.148C63.772 28.778 64.08 29.17 64.57 29.17C64.962 29.17 65.34 29.002 65.788 28.638C65.606 27.728 65.536 26.832 65.536 25.474ZM67.118 27.588L67.146 27.602C67.202 27.518 67.202 27.518 67.3 27.406C67.958 26.664 68.518 25.768 69.036 24.606C68.882 24.592 68.812 24.592 68.672 24.592C68.056 24.592 67.552 24.662 66.992 24.844C67.006 26.132 67.006 26.272 67.09 27.252C67.104 27.336 67.104 27.336 67.104 27.434C67.104 27.504 67.104 27.518 67.118 27.588ZM87.586 29.016L86.634 30.654C86.018 29.968 85.052 29.254 84.044 28.736C83.736 28.568 83.624 28.526 83.288 28.386C83.288 28.456 83.288 28.512 83.288 28.54C83.288 29.422 83.036 30.024 82.504 30.43C81.972 30.836 81.216 31.032 80.194 31.032C78.15 31.032 76.974 30.234 76.974 28.848C76.974 27.322 78.36 26.426 80.712 26.426C81.048 26.426 81.286 26.44 81.65 26.482C81.65 26.314 81.65 26.314 81.636 26.146C81.636 26.076 81.636 25.978 81.636 25.838C81.622 25.642 81.622 25.642 81.608 25.082C80.936 25.096 80.502 25.11 80.208 25.11C79.354 25.11 78.836 25.096 77.674 25.012C77.492 24.998 77.352 24.998 77.142 24.998L77.17 23.486C77.772 23.626 79.102 23.724 80.432 23.724C80.712 23.724 81.188 23.71 81.58 23.696C81.58 23.57 81.58 23.094 81.566 22.296C81.118 22.31 80.894 22.31 80.684 22.31C79.998 22.31 78.192 22.24 77.254 22.17C77.1 22.156 76.988 22.156 76.946 22.156C76.89 22.156 76.82 22.156 76.722 22.156L76.736 20.602C77.45 20.784 78.892 20.896 80.502 20.896C80.726 20.896 81.202 20.882 81.552 20.868C81.538 19.468 81.538 19.454 81.482 19.104H83.26C83.19 19.482 83.176 19.664 83.162 20.812C85.066 20.7 86.284 20.546 87.194 20.28L87.264 21.834C86.956 21.848 86.956 21.848 86.158 21.96C84.926 22.128 84.38 22.17 83.148 22.24C83.162 22.59 83.162 22.758 83.176 23.626C83.876 23.584 83.876 23.584 85.164 23.444C86.046 23.332 86.27 23.304 86.9 23.136L86.942 24.676C86.704 24.69 86.354 24.732 86.032 24.774C85.822 24.802 85.192 24.872 84.142 24.97C83.946 24.984 83.736 24.998 83.19 25.026C83.232 26.384 83.232 26.384 83.246 26.72C84.478 27.084 85.57 27.63 87.082 28.694C87.32 28.848 87.39 28.904 87.586 29.016ZM81.678 27.938C81.216 27.84 80.936 27.812 80.516 27.812C79.382 27.812 78.696 28.176 78.696 28.778C78.696 29.296 79.298 29.618 80.292 29.618C80.88 29.618 81.314 29.45 81.51 29.17C81.622 28.988 81.678 28.694 81.678 28.274C81.678 28.218 81.678 27.938 81.678 27.938ZM92.192 18.964L93.97 19.062C93.802 19.538 93.732 19.902 93.466 21.764C93.368 22.352 93.312 22.828 93.284 23.164H93.326C93.354 23.08 93.354 23.08 93.41 22.856C93.55 22.366 93.914 21.68 94.292 21.19C95.062 20.238 95.93 19.762 96.952 19.762C97.904 19.762 98.744 20.21 99.346 21.022C100.046 21.96 100.354 23.094 100.354 24.746C100.354 27.448 99.094 29.464 96.742 30.5C96.028 30.822 95.048 31.102 93.998 31.284C93.718 30.486 93.564 30.178 93.172 29.632C94.572 29.478 95.384 29.268 96.238 28.834C97.862 28.008 98.604 26.678 98.604 24.55C98.604 22.534 97.932 21.414 96.728 21.414C96.196 21.414 95.706 21.652 95.216 22.156C94.124 23.29 93.452 25.012 93.452 26.678C93.452 26.748 93.452 26.846 93.452 26.972L91.772 27C91.786 26.916 91.786 26.846 91.786 26.818C91.786 26.762 91.786 26.678 91.786 26.552C91.772 26.146 91.744 25.11 91.744 24.83C91.744 23.696 91.828 22.142 91.94 21.176L92.15 19.44C92.178 19.202 92.192 19.146 92.192 18.964ZM114.424 26.636H112.128C111.974 27.518 111.75 28.106 111.344 28.778C112.828 29.59 114.256 29.912 116.594 30.01C116.342 30.514 116.118 31.046 115.992 31.564C113.626 31.312 112.016 30.808 110.476 29.828C109.664 30.612 108.782 31.116 107.354 31.62C107.102 31.116 106.808 30.682 106.486 30.304C107.774 29.954 108.6 29.562 109.328 28.96C108.964 28.624 108.782 28.414 108.46 27.994C108.278 27.756 108.166 27.63 108.026 27.476L109.244 26.832C109.412 27.168 109.692 27.518 110.168 27.952C110.42 27.49 110.546 27.154 110.658 26.636H108.6C108.152 26.636 107.816 26.65 107.466 26.692C107.508 26.286 107.522 26.02 107.522 25.516V23.57C107.522 22.968 107.508 22.73 107.466 22.394C107.886 22.422 108.096 22.436 108.768 22.436H110.938L110.924 21.428H108.614C108.054 21.428 107.69 21.442 107.27 21.498V19.986C107.69 20.042 108.222 20.07 108.782 20.07H110.924C110.91 19.342 110.896 19.09 110.84 18.656H112.45C112.408 19.048 112.408 19.048 112.408 20.07H114.844C115.488 20.07 115.95 20.042 116.426 19.986V21.498C116.006 21.442 115.586 21.428 115.026 21.428H112.408C112.408 21.624 112.408 21.764 112.408 21.848V22.436H114.466C115.096 22.436 115.39 22.422 115.782 22.394C115.754 22.744 115.74 23.094 115.74 23.612V25.418C115.74 26.09 115.754 26.356 115.782 26.692C115.376 26.65 115.054 26.636 114.424 26.636ZM110.924 23.78H108.978V25.306H110.84C110.896 24.676 110.896 24.564 110.924 23.78ZM114.27 23.78H112.38C112.352 24.508 112.338 24.774 112.282 25.306H114.27V23.78ZM104.848 30.038V25.922C104.848 25.488 104.848 25.264 104.89 24.368C104.582 24.914 104.358 25.25 103.91 25.838C103.714 25.166 103.56 24.76 103.266 24.172C104.554 22.772 105.632 20.462 105.884 18.6L107.48 18.978C106.92 20.714 106.836 20.966 106.332 22.086V30.052C106.332 30.654 106.346 31.116 106.402 31.676H104.764C104.82 31.144 104.848 30.724 104.848 30.038ZM118.498 20.21H120.416C120.346 20.728 120.304 21.414 120.304 22.338C120.304 23.556 120.416 25.236 120.57 26.09C120.808 27.546 121.256 28.442 121.704 28.442C121.914 28.442 122.11 28.232 122.278 27.84C122.614 27.084 122.866 26.244 123.02 25.306C123.51 25.866 123.734 26.076 124.42 26.58C123.692 29.31 122.88 30.444 121.69 30.444C120.752 30.444 119.996 29.758 119.436 28.414C118.862 27.014 118.61 24.984 118.554 21.106C118.54 20.616 118.54 20.518 118.498 20.21ZM125.568 21.54L127.038 20.84C128.802 22.954 129.782 25.292 130.188 28.372L128.452 29.03C128.368 27.714 128.046 26.258 127.556 24.984C127.08 23.71 126.408 22.576 125.568 21.54ZM132.302 22.828L132.33 21.204C132.834 21.288 133.394 21.33 134.206 21.33C134.374 21.33 134.528 21.33 134.85 21.316C134.976 20.644 135.116 19.566 135.116 19.174C135.116 19.118 135.116 19.034 135.102 18.922L136.95 19.09C136.852 19.412 136.852 19.412 136.684 20.434C136.614 20.826 136.6 20.91 136.544 21.232C137.58 21.134 138.238 21.022 138.938 20.812L139.008 22.422C138.896 22.436 138.896 22.436 138.56 22.492C137.846 22.632 136.726 22.772 136.264 22.786C136.11 23.654 135.76 25.138 135.396 26.412C134.99 27.868 134.752 28.568 133.828 31.046L132.064 30.36C133.03 28.582 134.108 25.32 134.57 22.828C134.472 22.842 134.416 22.842 134.388 22.842H133.576C133.506 22.842 133.366 22.842 133.128 22.828C132.876 22.814 132.68 22.814 132.568 22.814C132.498 22.814 132.428 22.814 132.302 22.828ZM143.404 23.136L143.432 24.802C142.76 24.732 142.368 24.704 141.668 24.704C140.282 24.704 139.358 24.802 137.972 25.11L137.846 23.57C139.834 23.192 140.506 23.122 142.018 23.122C142.396 23.122 142.522 23.122 143.404 23.136ZM137.888 26.076L139.274 26.636C138.714 27.336 138.546 27.686 138.546 28.176C138.546 28.89 139.246 29.254 140.646 29.254C141.668 29.254 143.012 29.03 143.824 28.736L143.95 30.458C143.698 30.486 143.586 30.5 143.264 30.556C142.102 30.724 141.486 30.78 140.66 30.78C139.414 30.78 138.518 30.598 137.846 30.22C137.244 29.87 136.852 29.198 136.852 28.498C136.852 27.756 137.118 27.126 137.888 26.076ZM153.61 18.88L155.22 20.112C154.982 20.28 154.716 20.518 153.498 21.652C152.784 22.31 151.804 23.094 150.166 24.34C149.732 24.662 149.634 24.774 149.634 24.928C149.634 25.138 149.662 25.166 150.894 26.09C153.078 27.742 153.484 28.092 155.304 29.744C155.444 29.884 155.528 29.954 155.71 30.094L154.268 31.55C153.904 31.046 153.4 30.514 152.448 29.632C151.454 28.708 150.992 28.33 148.836 26.65C147.912 25.936 147.66 25.558 147.66 24.914C147.66 24.494 147.814 24.116 148.122 23.78C148.304 23.584 148.318 23.57 149.354 22.772C150.866 21.624 151.65 20.952 152.588 20.042C153.218 19.412 153.372 19.23 153.61 18.88ZM163.27 18.894L165.062 19.076C164.978 19.342 164.978 19.342 164.838 20.014C164.768 20.35 164.698 20.63 164.544 21.246C165.51 21.148 166.238 21.022 166.784 20.854L166.826 22.464C166.672 22.478 166.644 22.478 166.378 22.534C165.874 22.618 165.02 22.716 164.152 22.786C163.746 24.186 163.242 25.516 162.612 26.846C162.29 27.532 162.164 27.784 161.632 28.764C161.45 29.1 161.45 29.1 161.366 29.268L159.756 28.372C160.246 27.728 160.638 27.098 161.114 26.132C161.66 25.012 161.898 24.438 162.43 22.828C161.8 22.842 161.716 22.842 161.548 22.842C161.366 22.842 161.282 22.842 160.988 22.828L160.246 22.814V21.218C160.75 21.316 161.282 21.344 162.136 21.344C162.304 21.344 162.542 21.344 162.85 21.33C163.088 20.336 163.242 19.496 163.27 18.894ZM172.23 22.534L171.474 23.976C170.256 23.164 169.01 22.562 167.442 22.016L168.282 20.658C169.934 21.288 170.984 21.778 172.23 22.534ZM172.174 28.848L171.404 30.416C170.9 29.814 170.088 29.156 169.262 28.68C169.276 28.806 169.29 28.904 169.29 28.96C169.29 29.478 169.052 30.08 168.688 30.444C168.198 30.948 167.358 31.228 166.364 31.228C164.516 31.228 163.312 30.304 163.312 28.876C163.312 27.462 164.558 26.468 166.336 26.468C166.756 26.468 167.05 26.496 167.638 26.594C167.596 25.95 167.568 25.404 167.568 24.984C167.568 24.438 167.596 24.032 167.68 23.57L169.304 23.654C169.164 24.172 169.136 24.494 169.136 25.068C169.136 25.628 169.164 26.188 169.262 26.986C170.27 27.434 170.41 27.504 171.474 28.274C171.684 28.414 171.74 28.47 171.964 28.652C172.076 28.764 172.076 28.764 172.174 28.848ZM167.694 28.078C167.204 27.91 166.868 27.854 166.434 27.854C165.524 27.854 164.936 28.232 164.936 28.82C164.936 29.394 165.44 29.73 166.308 29.73C167.26 29.73 167.722 29.338 167.722 28.554C167.722 28.414 167.694 28.078 167.694 28.078ZM174.498 20.21H176.416C176.346 20.728 176.304 21.414 176.304 22.338C176.304 23.556 176.416 25.236 176.57 26.09C176.808 27.546 177.256 28.442 177.704 28.442C177.914 28.442 178.11 28.232 178.278 27.84C178.614 27.084 178.866 26.244 179.02 25.306C179.51 25.866 179.734 26.076 180.42 26.58C179.692 29.31 178.88 30.444 177.69 30.444C176.752 30.444 175.996 29.758 175.436 28.414C174.862 27.014 174.61 24.984 174.554 21.106C174.54 20.616 174.54 20.518 174.498 20.21ZM181.568 21.54L183.038 20.84C184.802 22.954 185.782 25.292 186.188 28.372L184.452 29.03C184.368 27.714 184.046 26.258 183.556 24.984C183.08 23.71 182.408 22.576 181.568 21.54ZM189.94 26.86C191.256 26.86 192.306 27.924 192.306 29.226C192.306 30.542 191.242 31.606 189.94 31.606C188.638 31.606 187.574 30.542 187.574 29.226C187.574 27.924 188.638 26.86 189.94 26.86ZM189.94 27.952C189.24 27.952 188.666 28.526 188.666 29.226C188.666 29.94 189.24 30.514 189.94 30.514C190.64 30.514 191.214 29.94 191.214 29.226C191.214 28.526 190.64 27.952 189.94 27.952ZM203.94 26.86C205.256 26.86 206.306 27.924 206.306 29.226C206.306 30.542 205.242 31.606 203.94 31.606C202.638 31.606 201.574 30.542 201.574 29.226C201.574 27.924 202.638 26.86 203.94 26.86ZM203.94 27.952C203.24 27.952 202.666 28.526 202.666 29.226C202.666 29.94 203.24 30.514 203.94 30.514C204.64 30.514 205.214 29.94 205.214 29.226C205.214 28.526 204.64 27.952 203.94 27.952Z" fill="#0054AC"/>
</g>
<defs>
<filter id="filter0_d_30_7782" x="0" y="0" width="289" height="58" filterUnits="userSpaceOnUse" color-interpolation-filters="sRGB">
<feFlood flood-opacity="0" result="BackgroundImageFix"/>
<feColorMatrix in="SourceAlpha" type="matrix" values="0 0 0 0 0 0 0 0 0 0 0 0 0 0 0 0 0 0 127 0" result="hardAlpha"/>
<feOffset dy="4"/>
<feGaussianBlur stdDeviation="2"/>
<feComposite in2="hardAlpha" operator="out"/>
<feColorMatrix type="matrix" values="0 0 0 0 0 0 0 0 0 0 0 0 0 0 0 0 0 0 0.25 0"/>
<feBlend mode="normal" in2="BackgroundImageFix" result="effect1_dropShadow_30_7782"/>
<feBlend mode="normal" in="SourceGraphic" in2="effect1_dropShadow_30_7782" result="shape"/>
</filter>
</defs>
</svg>
