<svg width="305" height="58" viewBox="0 0 305 58" fill="none" xmlns="http://www.w3.org/2000/svg">
<g filter="url(#filter0_d_30_7780)">
<rect x="4" width="297" height="50" rx="20" fill="white"/>
<path d="M23.004 19.426V19.272C21.996 19.972 21.562 20.252 20.47 20.812C20.134 20.224 19.91 19.944 19.42 19.482C20.778 18.88 21.828 18.264 23.004 17.396V12.692C23.004 12.146 22.99 11.88 22.92 11.264H24.614C24.558 11.698 24.53 12.146 24.53 12.65V16.108C25.58 15.114 26.672 13.784 27.526 12.44C28.268 11.264 28.898 9.906 29.094 9.038L30.704 9.682C30.536 9.976 30.536 9.976 30.158 10.76C29.164 12.79 28.058 14.456 26.644 16.08C26 16.822 25.426 17.368 24.53 18.096V19.076C24.53 19.426 24.894 19.524 26.224 19.524C27.47 19.524 27.946 19.426 28.114 19.132C28.31 18.782 28.422 17.9 28.45 16.486C29.052 16.78 29.36 16.892 29.934 17.018C29.626 20.7 29.402 20.924 26.14 20.924C23.578 20.924 23.004 20.644 23.004 19.426ZM22.864 9.332L23.802 8.128C25.678 8.87 26.406 9.22 27.89 10.13L26.966 11.474C25.902 10.676 24.726 10.06 22.864 9.332ZM20.736 12.524L22.22 12.804C21.87 15.142 21.604 16.164 20.848 18.11L19.392 17.382C20.148 15.66 20.428 14.652 20.736 12.524ZM29.094 13.35L30.466 12.678C31.39 14.442 31.922 15.73 32.622 17.942L31.138 18.74C30.48 16.262 30.102 15.254 29.094 13.35ZM35.422 15.492H37.928C38.152 15.156 38.25 14.988 38.446 14.61H36.318C35.59 14.61 35.128 14.624 34.694 14.666C34.736 14.26 34.75 13.938 34.75 13.308V12.342C34.75 11.698 34.736 11.334 34.694 10.914C35.142 10.97 35.59 10.984 36.248 10.984H37.774V10.102H35.45C34.792 10.102 34.274 10.13 33.84 10.172V8.688C34.26 8.744 34.778 8.772 35.562 8.772H44.466C45.278 8.772 45.824 8.744 46.202 8.688V10.172C45.754 10.13 45.25 10.102 44.578 10.102H42.072V10.984H43.696C44.41 10.984 44.858 10.97 45.264 10.914C45.222 11.306 45.208 11.656 45.208 12.342V13.294C45.208 13.994 45.222 14.316 45.25 14.666C44.9 14.624 44.466 14.61 43.668 14.61H40.126C39.832 15.128 39.79 15.212 39.622 15.492H44.564C45.376 15.492 45.796 15.478 46.188 15.408V16.864C45.726 16.822 45.25 16.794 44.564 16.794H43.304C42.94 17.522 42.562 18.068 42.03 18.614C43.808 19.16 44.312 19.342 45.866 19.972L44.886 21.26C44.536 21.106 44.256 20.98 44.074 20.896C42.884 20.35 42.884 20.35 40.742 19.58C39.104 20.504 37.214 20.966 34.428 21.106C34.26 20.532 34.162 20.294 33.798 19.678C33.938 19.678 34.036 19.678 34.106 19.678C36.038 19.678 37.564 19.454 38.81 18.992C37.186 18.558 36.948 18.502 35.534 18.166C36.164 17.62 36.43 17.368 36.92 16.794H35.422C34.736 16.794 34.274 16.822 33.812 16.864V15.408C34.204 15.464 34.652 15.492 35.422 15.492ZM41.638 16.794H38.67C38.46 17.046 38.348 17.172 37.998 17.522C38.488 17.662 38.488 17.662 39.58 17.914C39.734 17.942 39.93 17.998 40.42 18.138C40.924 17.774 41.316 17.354 41.638 16.794ZM39.16 10.102V10.984H40.686V10.102H39.16ZM37.774 12.118H36.234V13.448H37.774V12.118ZM39.16 12.118V13.448H40.686V12.118H39.16ZM42.072 12.118V13.448H43.71V12.118H42.072ZM51.27 8.394L53.062 8.576C52.978 8.842 52.978 8.842 52.838 9.514C52.768 9.85 52.698 10.13 52.544 10.746C53.51 10.648 54.238 10.522 54.784 10.354L54.826 11.964C54.672 11.978 54.644 11.978 54.378 12.034C53.874 12.118 53.02 12.216 52.152 12.286C51.746 13.686 51.242 15.016 50.612 16.346C50.29 17.032 50.164 17.284 49.632 18.264C49.45 18.6 49.45 18.6 49.366 18.768L47.756 17.872C48.246 17.228 48.638 16.598 49.114 15.632C49.66 14.512 49.898 13.938 50.43 12.328C49.8 12.342 49.716 12.342 49.548 12.342C49.366 12.342 49.282 12.342 48.988 12.328L48.246 12.314V10.718C48.75 10.816 49.282 10.844 50.136 10.844C50.304 10.844 50.542 10.844 50.85 10.83C51.088 9.836 51.242 8.996 51.27 8.394ZM60.23 12.034L59.474 13.476C58.256 12.664 57.01 12.062 55.442 11.516L56.282 10.158C57.934 10.788 58.984 11.278 60.23 12.034ZM60.174 18.348L59.404 19.916C58.9 19.314 58.088 18.656 57.262 18.18C57.276 18.306 57.29 18.404 57.29 18.46C57.29 18.978 57.052 19.58 56.688 19.944C56.198 20.448 55.358 20.728 54.364 20.728C52.516 20.728 51.312 19.804 51.312 18.376C51.312 16.962 52.558 15.968 54.336 15.968C54.756 15.968 55.05 15.996 55.638 16.094C55.596 15.45 55.568 14.904 55.568 14.484C55.568 13.938 55.596 13.532 55.68 13.07L57.304 13.154C57.164 13.672 57.136 13.994 57.136 14.568C57.136 15.128 57.164 15.688 57.262 16.486C58.27 16.934 58.41 17.004 59.474 17.774C59.684 17.914 59.74 17.97 59.964 18.152C60.076 18.264 60.076 18.264 60.174 18.348ZM55.694 17.578C55.204 17.41 54.868 17.354 54.434 17.354C53.524 17.354 52.936 17.732 52.936 18.32C52.936 18.894 53.44 19.23 54.308 19.23C55.26 19.23 55.722 18.838 55.722 18.054C55.722 17.914 55.694 17.578 55.694 17.578ZM64.85 12.622L66.012 11.796C66.922 12.44 66.95 12.454 67.762 13.196C68.742 12.398 69.246 11.88 70.156 10.774H66.474C65.382 11.95 64.248 12.818 62.694 13.686C62.456 13.21 62.218 12.93 61.742 12.51C64.038 11.39 65.886 9.71 66.712 7.988L68.364 8.394C68 8.926 67.874 9.094 67.636 9.416H70.506C71.038 9.416 71.374 9.402 71.738 9.346L72.564 10.228C72.396 10.438 72.382 10.452 72.06 10.872C70.842 12.468 69.498 13.756 67.846 14.918H72.382C72.942 14.918 73.222 14.904 73.558 14.862C73.502 15.24 73.488 15.604 73.488 16.15V19.748C73.488 20.308 73.516 20.77 73.572 21.134H71.976V20.378H66.628V21.134H65.004C65.06 20.714 65.088 20.252 65.088 19.748V16.71C64.234 17.186 63.688 17.438 62.428 17.97C62.19 17.368 61.994 17.074 61.532 16.57C62.736 16.178 63.884 15.688 64.892 15.142C65.34 14.89 65.802 14.596 66.558 14.092C65.97 13.476 65.578 13.14 64.85 12.622ZM66.614 16.29V19.048H71.99V16.29H66.614ZM78.794 10.998H77.044C76.428 10.998 76.106 11.012 75.658 11.068V9.556C76.12 9.612 76.526 9.64 77.142 9.64H78.794V9.346C78.794 8.898 78.766 8.59 78.724 8.254H80.306C80.264 8.506 80.236 8.954 80.236 9.332V9.64H81.664C82.294 9.64 82.756 9.612 83.232 9.556V11.068C82.798 11.012 82.406 10.998 81.776 10.998H80.236V12.006H81.79C82.308 12.006 82.672 11.992 83.022 11.95C82.994 12.202 82.98 12.566 82.98 13.056V14.694C82.98 15.408 82.91 15.674 82.686 15.898C82.448 16.136 82.098 16.22 81.342 16.22C81.3 16.22 81.188 16.22 81.076 16.22C81.02 15.632 80.964 15.422 80.796 15.016C81.006 15.03 81.118 15.044 81.272 15.044C81.594 15.044 81.664 15.002 81.664 14.806V13.308H80.236V15.058C80.74 15.912 81.076 16.332 81.706 16.934C82.336 17.522 82.742 17.844 83.498 18.32C83.092 18.81 82.924 19.076 82.63 19.594C81.482 18.712 80.964 18.166 80.18 17.046C80.208 17.242 80.222 17.634 80.222 18.138V19.888C80.222 20.42 80.236 20.77 80.292 21.148H78.71C78.766 20.812 78.794 20.378 78.794 19.818V18.236C78.794 17.788 78.808 17.41 78.822 17.228C77.982 18.614 77.45 19.216 76.218 20.168C75.952 19.664 75.77 19.37 75.364 18.894C76.358 18.18 76.806 17.774 77.45 17.004C78.122 16.206 78.416 15.758 78.794 14.988V13.308H77.478V15.212C77.478 15.688 77.492 15.982 77.52 16.304H76.036C76.078 15.898 76.106 15.548 76.106 14.932V13.252C76.106 12.706 76.092 12.328 76.05 11.95C76.498 11.992 76.82 12.006 77.366 12.006H78.794V10.998ZM83.736 9.318H85.332C85.276 9.682 85.262 10.06 85.262 10.774V16.318C85.262 17.158 85.276 17.424 85.318 17.802H83.736C83.792 17.382 83.806 17.102 83.806 16.304V10.802C83.806 10.116 83.778 9.71 83.736 9.318ZM86.452 8.338H88.09C88.02 8.73 88.006 9.178 88.006 10.032V19.286C88.006 20.098 87.894 20.42 87.544 20.672C87.25 20.896 86.802 20.966 85.836 20.966C85.598 20.966 85.024 20.952 84.52 20.924C84.436 20.322 84.352 20.042 84.114 19.454C84.73 19.524 85.416 19.58 85.794 19.58C86.41 19.58 86.536 19.51 86.536 19.146V10.074C86.536 9.234 86.508 8.786 86.452 8.338ZM90.54 11.53L90.568 9.934C91.142 10.06 92.038 10.116 93.816 10.116C94.194 9.276 94.32 8.856 94.376 8.38L96.21 8.576C96.126 8.716 96.126 8.716 95.65 9.836C95.58 9.99 95.552 10.032 95.524 10.088C95.636 10.074 95.636 10.074 96.406 10.032C98.03 9.934 99.304 9.78 100.074 9.556L100.172 11.152C99.78 11.18 99.78 11.18 99.066 11.264C98.044 11.39 96.266 11.502 94.852 11.544C94.446 12.342 94.054 12.902 93.564 13.406L93.578 13.434C93.676 13.364 93.676 13.364 93.858 13.224C94.376 12.832 95.118 12.594 95.832 12.594C96.924 12.594 97.61 13.112 97.834 14.078C98.912 13.686 99.626 13.434 99.976 13.322C100.732 13.056 100.788 13.042 101.012 12.902L101.67 14.512C101.278 14.568 100.858 14.68 100.116 14.89C99.92 14.946 99.22 15.184 98.016 15.604V15.758C98.03 16.122 98.03 16.122 98.03 16.318C98.03 16.458 98.03 16.696 98.03 16.878C98.016 17.116 98.016 17.242 98.016 17.34C98.016 17.648 98.03 17.844 98.058 18.082L96.434 18.124C96.49 17.872 96.518 17.158 96.518 16.5C96.518 16.304 96.518 16.304 96.518 16.164C95.832 16.486 95.468 16.682 95.174 16.892C94.684 17.256 94.446 17.634 94.446 18.04C94.446 18.768 95.118 19.062 96.812 19.062C98.492 19.062 99.934 18.852 100.928 18.474L101.068 20.28C100.83 20.28 100.76 20.294 100.424 20.336C99.416 20.49 98.072 20.588 96.84 20.588C95.356 20.588 94.432 20.42 93.718 20C93.074 19.636 92.696 18.964 92.696 18.194C92.696 17.62 92.864 17.172 93.312 16.64C93.942 15.856 94.74 15.324 96.322 14.666C96.252 14.148 95.972 13.91 95.468 13.91C94.656 13.91 93.676 14.4 92.598 15.352C92.01 15.842 91.688 16.192 91.38 16.626L90.106 15.366C90.47 15.086 90.876 14.694 91.366 14.12C91.912 13.476 92.766 12.258 93.046 11.726C93.102 11.614 93.102 11.614 93.158 11.544C93.102 11.544 92.92 11.558 92.92 11.558C92.696 11.558 91.464 11.53 91.156 11.53C90.89 11.516 90.89 11.516 90.764 11.516C90.722 11.516 90.638 11.516 90.54 11.53ZM107.592 16.416V15.296C107.088 15.506 107.088 15.506 106.598 15.688V19.748C106.598 20.462 106.416 20.784 105.926 20.952C105.618 21.05 105.142 21.12 104.666 21.12C104.47 21.12 104.316 21.12 103.952 21.092C103.882 20.476 103.826 20.21 103.63 19.622C104.064 19.678 104.344 19.706 104.666 19.706C105.03 19.706 105.114 19.622 105.114 19.286V16.22C104.708 16.36 104.68 16.374 104.33 16.486C104.12 16.556 103.952 16.626 103.742 16.71L103.434 15.156C103.854 15.114 104.162 15.03 105.114 14.75V12.23H104.568C104.204 12.23 103.896 12.244 103.56 12.286V10.788C103.896 10.844 104.176 10.872 104.596 10.872H105.114V9.724C105.114 9.066 105.1 8.73 105.03 8.296H106.682C106.612 8.73 106.598 9.066 106.598 9.71V10.872H107.046C107.312 10.872 107.48 10.858 107.662 10.844V9.696C107.662 9.304 107.648 9.024 107.62 8.73C107.97 8.772 108.32 8.786 108.964 8.786H114.788C115.46 8.786 115.81 8.772 116.16 8.73C116.132 9.01 116.118 9.22 116.118 9.668V10.396C116.118 10.83 116.132 11.068 116.174 11.348H114.69V10.13H113.5V12.244C113.5 12.496 113.598 12.538 114.228 12.538C115.152 12.538 115.18 12.51 115.222 11.572C115.698 11.754 115.894 11.81 116.398 11.88C116.258 13.602 115.992 13.812 114.018 13.812C113.178 13.812 112.814 13.756 112.492 13.602C112.45 13.812 112.436 14.05 112.436 14.386V14.974H114.872C115.446 14.974 115.866 14.946 116.3 14.89V16.416C115.81 16.36 115.404 16.346 114.9 16.346H113.206C113.598 16.864 114.172 17.438 114.76 17.886C115.334 18.334 115.908 18.656 116.678 18.978C116.384 19.412 116.23 19.72 115.936 20.434C114.438 19.636 113.43 18.74 112.408 17.298C112.408 17.494 112.422 17.648 112.422 17.746C112.436 18.082 112.436 18.152 112.436 18.516V20.014C112.436 20.49 112.464 20.798 112.52 21.176H110.896C110.952 20.756 110.98 20.42 110.98 19.986V18.404C110.98 18.096 110.994 17.55 111.008 17.312C110.154 18.628 109.16 19.552 107.648 20.434C107.326 19.832 107.144 19.58 106.738 19.16C108.152 18.516 109.426 17.494 110.182 16.346H109.006C108.39 16.346 107.998 16.36 107.592 16.416ZM107.802 13.826L107.844 14.932C108.194 14.96 108.544 14.974 109.076 14.974H110.98V14.61C110.98 14.12 110.952 13.826 110.896 13.504H112.366C112.212 13.35 112.17 13.182 112.17 12.846V10.13H111.4C111.358 10.942 111.33 11.138 111.232 11.544C110.896 12.762 110.042 13.658 108.53 14.33C108.236 13.84 108.04 13.588 107.634 13.196C108.558 12.916 109.188 12.51 109.58 11.978C109.93 11.516 110.07 10.984 110.098 10.13H109.02V11.516H107.83V12.272C107.578 12.244 107.368 12.23 107.06 12.23H106.598V14.288C107.06 14.12 107.214 14.064 107.802 13.826ZM126.03 12.552L126.016 13.756C126.016 13.812 126.03 13.924 126.03 14.092C126.338 14.736 126.478 15.31 126.478 16.066C126.478 17.592 125.75 18.908 124.392 19.846C123.804 20.252 123.16 20.546 121.858 20.994C121.466 20.126 121.326 19.916 120.864 19.412C122.012 19.188 122.586 18.992 123.244 18.6C124.196 18.054 124.756 17.34 124.868 16.556C124.462 17.2 123.734 17.55 122.81 17.55C122.166 17.55 121.662 17.396 121.186 17.046C120.528 16.57 120.22 15.954 120.22 15.156C120.22 13.672 121.382 12.608 123.006 12.608C123.608 12.608 124.14 12.762 124.462 13.028C124.448 12.958 124.448 12.958 124.448 12.86C124.434 12.832 124.434 12.048 124.434 11.67C122.432 11.726 121.116 11.768 120.5 11.81C118.386 11.964 118.386 11.964 118.008 12.02L117.952 10.354C118.26 10.382 118.386 10.382 118.638 10.382C118.988 10.382 119.212 10.382 121.018 10.312C121.928 10.284 122.068 10.284 123.216 10.256C123.678 10.242 123.678 10.242 124.406 10.214C124.392 8.884 124.392 8.884 124.322 8.52L126.086 8.506C126.03 8.94 126.03 8.968 126.016 10.172C128.452 10.158 129.544 10.13 130.062 10.074L130.076 11.684C129.558 11.642 128.886 11.614 127.724 11.614C127.388 11.614 127.136 11.614 126.03 11.642V12.552ZM124.42 14.862C124.42 14.274 123.93 13.896 123.16 13.896C122.446 13.896 121.858 14.4 121.858 15.016C121.858 15.66 122.348 16.122 123.048 16.122C123.846 16.122 124.42 15.59 124.42 14.862ZM139.092 11.026C138.826 13.224 138.336 15.156 137.636 16.738C136.838 18.544 135.942 19.37 134.794 19.37C133.198 19.37 132.05 17.746 132.05 15.492C132.05 13.952 132.596 12.51 133.59 11.418C134.766 10.13 136.418 9.458 138.406 9.458C141.766 9.458 143.95 11.502 143.95 14.652C143.95 17.074 142.69 19.006 140.548 19.874C139.876 20.154 139.33 20.294 138.35 20.462C138.112 19.72 137.944 19.412 137.496 18.824C138.784 18.656 139.624 18.432 140.282 18.054C141.5 17.382 142.228 16.052 142.228 14.554C142.228 13.21 141.626 12.118 140.506 11.446C140.072 11.194 139.708 11.082 139.092 11.026ZM137.384 11.04C136.656 11.124 136.152 11.32 135.578 11.726C134.402 12.566 133.674 14.008 133.674 15.506C133.674 16.654 134.164 17.564 134.78 17.564C135.242 17.564 135.718 16.976 136.222 15.772C136.754 14.512 137.216 12.622 137.384 11.04ZM148.696 20.336L147.002 20.434C146.988 20.182 146.974 20.098 146.932 19.776C146.666 18.082 146.568 17.004 146.568 15.59C146.568 13.784 146.736 12.188 147.142 10.116C147.296 9.332 147.324 9.192 147.352 8.814L149.2 9.01C148.864 9.836 148.542 11.404 148.318 13.196C148.178 14.246 148.122 15.072 148.108 16.29C148.108 16.598 148.094 16.71 148.08 17.06C148.234 16.57 148.262 16.472 148.808 15.212L149.928 15.716C149.158 17.34 148.682 18.964 148.682 19.958C148.682 20.042 148.682 20.154 148.696 20.336ZM150.628 11.95L150.656 10.27C151.286 10.438 152.028 10.494 153.246 10.494C154.8 10.494 156.13 10.368 157.054 10.116L157.138 11.81C157.026 11.824 156.816 11.852 156.144 11.936C155.248 12.048 154.184 12.104 153.148 12.104C152.126 12.104 152.112 12.104 150.628 11.95ZM151.594 14.26L152.966 14.904C152.266 15.716 151.972 16.318 151.972 16.92C151.972 17.718 152.742 18.138 154.198 18.138C155.43 18.138 156.648 17.942 157.53 17.606L157.67 19.384C157.474 19.398 157.418 19.412 157.096 19.468C155.976 19.65 155.122 19.734 154.198 19.734C152.462 19.734 151.342 19.342 150.726 18.516C150.46 18.166 150.306 17.648 150.306 17.144C150.306 16.234 150.726 15.296 151.594 14.26ZM167.526 11.096H166.336C165.174 11.124 165.174 11.124 164.838 11.166V9.682C165.23 9.738 165.678 9.766 166.294 9.766H167.526V9.388C167.526 8.996 167.498 8.688 167.442 8.338H169.052C169.01 8.66 168.982 8.954 168.982 9.388V9.766H170.508C171.11 9.766 171.572 9.738 171.964 9.682V11.166C171.572 11.11 171.152 11.096 170.522 11.096H168.982V12.426H170.914C171.586 12.426 172.09 12.398 172.44 12.342V13.826C172.062 13.77 171.684 13.756 171.068 13.756H170.83V14.946H171.012C171.684 14.946 172.062 14.932 172.398 14.876V16.402C171.992 16.332 171.642 16.318 171.012 16.318H170.83V19.482C170.83 20.294 170.69 20.63 170.27 20.826C169.92 20.98 169.43 21.05 168.73 21.05C168.604 21.05 168.604 21.05 167.638 21.036C167.61 20.434 167.512 20.014 167.302 19.566C167.652 19.622 168.38 19.678 168.87 19.678C169.304 19.678 169.388 19.608 169.388 19.3V16.318H166.042C165.524 16.318 164.992 16.346 164.544 16.402V14.876C164.908 14.932 165.342 14.946 166.07 14.946H169.388V13.756H166.07C165.482 13.756 164.964 13.784 164.53 13.826V12.342C164.88 12.398 165.412 12.426 166.084 12.426H167.526V11.096ZM160.12 18.586V10.396C160.12 9.766 160.106 9.402 160.064 8.982C160.372 9.01 160.638 9.024 161.296 9.024H162.99C163.62 9.024 163.872 9.01 164.208 8.982C164.166 9.304 164.166 9.556 164.166 10.368V18.376C164.166 19.118 164.18 19.426 164.208 19.776H162.78V19.076H161.506V20.252H160.036C160.092 19.818 160.12 19.328 160.12 18.586ZM161.52 10.354V13.28H162.78V10.354H161.52ZM161.52 14.568V17.718H162.78V14.568H161.52ZM168.114 18.628L166.882 19.566C166.322 18.628 165.79 17.956 165.09 17.27L166.28 16.486C166.966 17.102 167.526 17.746 168.114 18.628ZM182.786 15.436V18.278C182.786 18.81 182.8 19.132 182.828 19.496C183.136 19.524 183.64 19.566 183.892 19.566C184.284 19.566 184.41 19.468 184.41 19.188V13.336H181.652C181.162 13.336 180.714 13.35 180.364 13.378C180.392 12.972 180.406 12.706 180.406 12.104V9.962C180.406 9.486 180.392 9.094 180.364 8.66C180.742 8.702 181.078 8.716 181.792 8.716H184.48C185.18 8.716 185.53 8.702 185.922 8.66C185.88 9.164 185.866 9.514 185.866 10.214V19.384C185.866 20.224 185.698 20.588 185.194 20.798C184.9 20.924 184.48 20.966 183.612 20.966C183.416 20.966 183.36 20.966 182.646 20.924C182.562 20.294 182.492 20.042 182.282 19.482C181.876 19.468 181.61 19.468 181.498 19.468H178.53V20.252H177.046C177.102 19.916 177.144 19.356 177.144 18.852V15.436C177.144 14.946 177.13 14.554 177.102 14.176C177.508 14.218 177.83 14.232 178.404 14.232H181.526C182.114 14.232 182.422 14.218 182.828 14.176C182.8 14.54 182.786 14.89 182.786 15.436ZM181.792 9.85V10.55H184.41V9.85H181.792ZM181.792 11.544V12.258H184.41V11.544H181.792ZM178.53 15.408V16.248H181.386V15.408H178.53ZM178.53 17.382V18.292H181.386V17.382H178.53ZM175.604 13.336V19.384C175.604 20.224 175.632 20.728 175.688 21.106H174.05C174.106 20.686 174.134 20.238 174.134 19.37V10.228C174.134 9.5 174.12 9.108 174.078 8.66C174.47 8.702 174.834 8.716 175.52 8.716H177.998C178.726 8.716 179.048 8.702 179.426 8.66C179.398 9.108 179.384 9.416 179.384 9.962V12.104C179.384 12.748 179.398 13.07 179.426 13.378C179.062 13.35 178.628 13.336 178.138 13.336H175.604ZM175.604 9.85V10.55H178.012V9.85H175.604ZM175.604 11.544V12.258H178.012V11.544H175.604ZM196.982 12.3L198.396 11.6C199.362 12.93 200.09 14.442 200.496 16.052L198.9 16.85C198.62 15.38 197.752 13.322 196.982 12.3ZM192.866 9.22L192.838 9.402C192.768 9.808 192.67 10.382 192.53 11.138C192.488 11.376 192.488 11.376 192.446 11.558C192.866 11.544 193.062 11.53 193.314 11.53C194.238 11.53 194.924 11.782 195.386 12.272C195.862 12.804 196.044 13.476 196.044 14.75C196.044 17.158 195.638 19.076 194.966 19.846C194.574 20.308 194.154 20.476 193.412 20.476C192.768 20.476 192.194 20.364 191.256 20.056C191.27 19.79 191.284 19.58 191.284 19.44C191.284 19.076 191.256 18.796 191.144 18.25C191.9 18.586 192.698 18.81 193.188 18.81C193.594 18.81 193.818 18.544 194.028 17.858C194.252 17.13 194.392 15.856 194.392 14.666C194.392 13.378 194.07 13 192.992 13C192.698 13 192.474 13.014 192.152 13.042C191.466 15.912 190.836 17.606 189.296 20.658L187.672 19.762C188.75 18.292 189.828 15.772 190.486 13.168C190.276 13.196 190.276 13.196 189.828 13.28L188.554 13.49C188.33 13.532 188.176 13.574 187.98 13.63L187.812 11.978C188.442 11.964 189.17 11.894 190.794 11.684C191.06 10.13 191.158 9.332 191.158 8.856C191.158 8.8 191.158 8.716 191.158 8.604L192.978 8.786C192.936 8.898 192.894 9.08 192.866 9.22ZM196.114 9.318L197.094 8.828C197.71 9.486 198.088 10.018 198.564 10.886L197.584 11.404C197.122 10.55 196.73 9.99 196.114 9.318ZM200.23 9.976L199.264 10.522C198.844 9.752 198.382 9.094 197.836 8.492L198.774 8.002C199.404 8.646 199.796 9.178 200.23 9.976ZM205.242 8.506L207.062 8.702C207.02 8.828 206.978 8.982 206.95 9.136C206.922 9.318 206.908 9.388 206.866 9.612C206.824 9.906 206.824 9.906 206.628 10.956C206.572 11.264 206.572 11.292 206.53 11.474C206.936 11.446 207.132 11.432 207.398 11.432C208.322 11.432 209.008 11.684 209.47 12.174C209.946 12.706 210.128 13.378 210.128 14.652C210.128 17.06 209.722 18.978 209.05 19.748C208.658 20.21 208.238 20.378 207.496 20.378C206.852 20.378 206.278 20.266 205.34 19.972C205.354 19.692 205.368 19.496 205.368 19.356C205.368 18.992 205.34 18.712 205.228 18.166C205.984 18.502 206.782 18.712 207.272 18.712C207.678 18.712 207.902 18.446 208.112 17.76C208.336 17.032 208.476 15.758 208.476 14.568C208.476 13.28 208.154 12.902 207.048 12.902C206.768 12.902 206.558 12.916 206.236 12.944C205.816 14.652 205.69 15.072 205.382 15.982C204.892 17.382 204.514 18.278 203.702 19.916C203.632 20.056 203.632 20.056 203.492 20.336C203.45 20.42 203.45 20.434 203.38 20.574L201.756 19.678C202.176 19.118 202.736 18.11 203.212 17.046C203.814 15.674 204.01 15.086 204.57 13.084C203.856 13.168 202.526 13.406 202.064 13.532L201.896 11.88C202.414 11.88 204.108 11.712 204.878 11.6C205.13 10.088 205.242 9.234 205.242 8.772C205.242 8.716 205.242 8.618 205.242 8.506ZM210.254 11.194L211.696 10.494C213.096 12.132 213.978 13.798 214.58 15.954L212.984 16.766C212.718 15.562 212.396 14.638 211.864 13.588C211.36 12.552 210.912 11.908 210.254 11.194ZM219.242 8.506L221.062 8.702C221.02 8.828 220.978 8.982 220.95 9.136C220.922 9.318 220.908 9.388 220.866 9.612C220.824 9.906 220.824 9.906 220.628 10.956C220.572 11.264 220.572 11.292 220.53 11.474C220.936 11.446 221.132 11.432 221.398 11.432C222.322 11.432 223.008 11.684 223.47 12.174C223.946 12.706 224.128 13.378 224.128 14.652C224.128 17.06 223.722 18.978 223.05 19.748C222.658 20.21 222.238 20.378 221.496 20.378C220.852 20.378 220.278 20.266 219.34 19.972C219.354 19.692 219.368 19.496 219.368 19.356C219.368 18.992 219.34 18.712 219.228 18.166C219.984 18.502 220.782 18.712 221.272 18.712C221.678 18.712 221.902 18.446 222.112 17.76C222.336 17.032 222.476 15.758 222.476 14.568C222.476 13.28 222.154 12.902 221.048 12.902C220.768 12.902 220.558 12.916 220.236 12.944C219.816 14.652 219.69 15.072 219.382 15.982C218.892 17.382 218.514 18.278 217.702 19.916C217.632 20.056 217.632 20.056 217.492 20.336C217.45 20.42 217.45 20.434 217.38 20.574L215.756 19.678C216.176 19.118 216.736 18.11 217.212 17.046C217.814 15.674 218.01 15.086 218.57 13.084C217.856 13.168 216.526 13.406 216.064 13.532L215.896 11.88C216.414 11.88 218.108 11.712 218.878 11.6C219.13 10.088 219.242 9.234 219.242 8.772C219.242 8.716 219.242 8.618 219.242 8.506ZM224.254 11.194L225.696 10.494C227.096 12.132 227.978 13.798 228.58 15.954L226.984 16.766C226.718 15.562 226.396 14.638 225.864 13.588C225.36 12.552 224.912 11.908 224.254 11.194ZM232.192 8.464L233.97 8.562C233.802 9.038 233.732 9.402 233.466 11.264C233.368 11.852 233.312 12.328 233.284 12.664H233.326C233.354 12.58 233.354 12.58 233.41 12.356C233.55 11.866 233.914 11.18 234.292 10.69C235.062 9.738 235.93 9.262 236.952 9.262C237.904 9.262 238.744 9.71 239.346 10.522C240.046 11.46 240.354 12.594 240.354 14.246C240.354 16.948 239.094 18.964 236.742 20C236.028 20.322 235.048 20.602 233.998 20.784C233.718 19.986 233.564 19.678 233.172 19.132C234.572 18.978 235.384 18.768 236.238 18.334C237.862 17.508 238.604 16.178 238.604 14.05C238.604 12.034 237.932 10.914 236.728 10.914C236.196 10.914 235.706 11.152 235.216 11.656C234.124 12.79 233.452 14.512 233.452 16.178C233.452 16.248 233.452 16.346 233.452 16.472L231.772 16.5C231.786 16.416 231.786 16.346 231.786 16.318C231.786 16.262 231.786 16.178 231.786 16.052C231.772 15.646 231.744 14.61 231.744 14.33C231.744 13.196 231.828 11.642 231.94 10.676L232.15 8.94C232.178 8.702 232.192 8.646 232.192 8.464ZM243.49 17.9L244.68 16.794C245.968 17.774 246.752 18.544 247.83 19.874L246.528 21.092C245.506 19.706 244.708 18.866 243.49 17.9ZM265.75 12.482H265.526C264.91 12.482 264.672 12.496 264.378 12.538V11.362C264.154 11.348 263.776 11.334 263.258 11.334H259.1C258.582 11.334 258.246 11.348 257.784 11.404V9.906C258.204 9.962 258.498 9.976 259.156 9.976H260.458V9.374C260.458 8.856 260.444 8.548 260.388 8.212H262.012C261.956 8.59 261.942 8.884 261.942 9.374V9.976H263.104C263.762 9.976 264.126 9.962 264.49 9.906V11.068C264.742 11.096 265.022 11.11 265.54 11.11H265.806C265.834 10.48 265.834 10.06 265.834 9.612C265.834 9.052 265.82 8.744 265.75 8.338H267.402C267.346 8.828 267.346 8.926 267.332 9.57C267.318 10.508 267.318 10.83 267.304 11.11H268.746C269.558 11.11 269.852 11.096 270.174 11.054C270.132 11.446 270.118 11.824 270.104 12.706C270.034 16.444 269.88 18.446 269.544 19.664C269.278 20.588 268.816 20.91 267.71 20.91C267.22 20.91 266.772 20.896 266.366 20.854C266.324 20.252 266.254 19.916 266.058 19.342C266.534 19.426 267.122 19.496 267.402 19.496C267.962 19.496 268.06 19.384 268.2 18.53C268.48 17.018 268.578 15.534 268.606 12.482H267.248C267.066 14.904 266.632 16.71 265.918 18.096C265.246 19.398 264.672 20.098 263.468 21.12C263.132 20.63 262.838 20.336 262.32 20C263.524 19.104 264.098 18.39 264.77 17.004C265.288 15.94 265.596 14.526 265.75 12.482ZM259.03 15.408L260.024 14.54C260.57 15.016 260.724 15.156 261.172 15.59C261.466 14.932 261.564 14.638 261.732 13.854L263.062 14.554C262.768 15.464 262.614 15.856 262.208 16.668C262.684 17.214 262.894 17.452 263.482 18.194L262.418 19.3C261.956 18.628 261.788 18.432 261.438 17.998C260.598 19.23 259.674 20.154 258.358 21.05C258.092 20.56 257.784 20.14 257.406 19.776C257.98 19.454 258.358 19.202 258.764 18.852C259.394 18.32 260.024 17.606 260.486 16.878C259.912 16.234 259.674 15.996 259.03 15.408ZM259.408 11.544L260.71 12.076C259.982 13.714 259.562 14.344 258.4 15.534C258.148 14.974 257.952 14.694 257.546 14.288C258.092 13.798 258.33 13.546 258.694 13C259.03 12.496 259.17 12.202 259.408 11.544ZM261.886 12.132L263.062 11.572C263.664 12.818 264.084 13.42 264.966 14.288C264.546 14.61 264.406 14.75 263.944 15.31C262.978 14.204 262.67 13.728 261.886 12.132ZM274.906 11.95L275.816 10.984C276.068 11.166 276.138 11.222 276.348 11.39C276.6 11.054 276.698 10.9 276.866 10.578H273.198C272.596 10.578 272.204 10.592 271.756 10.648V9.122C272.218 9.178 272.68 9.206 273.408 9.206H277.146V9.066C277.146 8.73 277.118 8.478 277.062 8.184H278.77C278.714 8.492 278.686 8.716 278.686 9.052V9.206H282.676C283.418 9.206 283.894 9.178 284.342 9.122V10.648C283.894 10.592 283.502 10.578 282.886 10.578H278.392C277.986 11.25 277.734 11.6 277.258 12.174C277.538 12.426 277.594 12.496 277.832 12.748C278.448 12.076 278.7 11.754 279.232 11.012L280.352 11.754C279.512 12.762 278.7 13.56 277.426 14.638C278.448 14.596 278.728 14.582 279.372 14.498C279.176 14.204 279.078 14.064 278.77 13.672L279.792 13.238C280.562 14.204 280.66 14.33 281.514 15.8L280.31 16.29C280.128 15.87 280.058 15.73 279.946 15.492C278.56 15.716 277.678 15.814 275.424 15.996C275.102 16.01 274.864 16.038 274.738 16.052L274.598 15.086C273.912 15.576 273.352 15.898 272.204 16.472L271.644 15.016C272.736 14.722 273.814 14.148 274.738 13.364L275.438 14.456L275.102 14.722C275.186 14.722 275.214 14.722 275.256 14.722C275.284 14.722 275.662 14.708 275.76 14.708C276.278 14.274 276.502 14.078 276.922 13.672C276.348 13.042 275.732 12.51 274.906 11.95ZM277.118 18.348H273.226C272.596 18.348 272.204 18.362 271.588 18.432V16.892C271.938 16.948 272.498 16.976 273.086 16.976H277.118V16.864C277.118 16.514 277.104 16.234 277.062 16.038H278.728C278.686 16.248 278.672 16.528 278.672 16.864V16.976H282.998C283.572 16.976 284.034 16.948 284.44 16.892V18.432C283.964 18.376 283.418 18.348 282.802 18.348H278.672V19.902C278.672 20.448 278.7 20.812 278.77 21.26H277.02C277.09 20.798 277.118 20.42 277.118 19.902V18.348ZM272.05 11.698L273.114 10.774C273.912 11.39 274.458 11.866 275.06 12.524L274.01 13.56C273.338 12.748 272.918 12.342 272.05 11.698ZM282.592 10.774L283.698 11.712C282.914 12.496 282.228 13.056 281.248 13.728L280.282 12.706C281.318 12.034 281.864 11.572 282.592 10.774ZM280.954 14.554L281.808 13.588C282.956 14.288 283.264 14.512 284.3 15.366L283.306 16.528C282.536 15.716 281.906 15.184 280.954 14.554ZM28.982 33.3L30.396 32.6C31.362 33.93 32.09 35.442 32.496 37.052L30.9 37.85C30.62 36.38 29.752 34.322 28.982 33.3ZM24.866 30.22L24.838 30.402C24.768 30.808 24.67 31.382 24.53 32.138C24.488 32.376 24.488 32.376 24.446 32.558C24.866 32.544 25.062 32.53 25.314 32.53C26.238 32.53 26.924 32.782 27.386 33.272C27.862 33.804 28.044 34.476 28.044 35.75C28.044 38.158 27.638 40.076 26.966 40.846C26.574 41.308 26.154 41.476 25.412 41.476C24.768 41.476 24.194 41.364 23.256 41.056C23.27 40.79 23.284 40.58 23.284 40.44C23.284 40.076 23.256 39.796 23.144 39.25C23.9 39.586 24.698 39.81 25.188 39.81C25.594 39.81 25.818 39.544 26.028 38.858C26.252 38.13 26.392 36.856 26.392 35.666C26.392 34.378 26.07 34 24.992 34C24.698 34 24.474 34.014 24.152 34.042C23.466 36.912 22.836 38.606 21.296 41.658L19.672 40.762C20.75 39.292 21.828 36.772 22.486 34.168C22.276 34.196 22.276 34.196 21.828 34.28L20.554 34.49C20.33 34.532 20.176 34.574 19.98 34.63L19.812 32.978C20.442 32.964 21.17 32.894 22.794 32.684C23.06 31.13 23.158 30.332 23.158 29.856C23.158 29.8 23.158 29.716 23.158 29.604L24.978 29.786C24.936 29.898 24.894 30.08 24.866 30.22ZM28.114 30.318L29.094 29.828C29.71 30.486 30.088 31.018 30.564 31.886L29.584 32.404C29.122 31.55 28.73 30.99 28.114 30.318ZM32.23 30.976L31.264 31.522C30.844 30.752 30.382 30.094 29.836 29.492L30.774 29.002C31.404 29.646 31.796 30.178 32.23 30.976ZM37.774 30.92H35.52C34.932 30.92 34.456 30.948 33.98 31.004V29.562C34.414 29.618 34.904 29.646 35.576 29.646H44.438C45.138 29.646 45.6 29.618 46.034 29.562V31.004C45.6 30.948 45.082 30.92 44.494 30.92H42.1V31.774H43.808C44.592 31.774 44.928 31.76 45.278 31.732C45.236 32.082 45.222 32.348 45.222 32.852V34.21C45.222 34.644 45.236 34.98 45.278 35.33C44.914 35.288 44.508 35.274 43.85 35.274H42.1V36.142H44.732C45.404 36.142 45.852 36.114 46.272 36.058V37.5C45.81 37.444 45.376 37.416 44.732 37.416H35.24C34.61 37.416 34.134 37.444 33.7 37.5V36.058C34.134 36.114 34.582 36.142 35.24 36.142H37.774V35.274H36.136C35.408 35.274 35.072 35.288 34.68 35.33C34.722 34.966 34.736 34.658 34.736 34.21V32.852C34.736 32.418 34.722 32.082 34.68 31.732C35.044 31.76 35.338 31.774 36.136 31.774H37.774V30.92ZM39.16 30.92V31.774H40.714V30.92H39.16ZM39.16 35.274V36.142H40.714V35.274H39.16ZM37.774 32.936H36.178V34.112H37.774V32.936ZM39.16 32.936V34.112H40.714V32.936H39.16ZM42.1 32.936V34.112H43.808V32.936H42.1ZM34.736 41.784L33.49 40.874C34.316 39.852 34.694 39.152 35.142 37.836L36.444 38.424C35.87 40.048 35.534 40.692 34.736 41.784ZM38.544 39.082V40.23C38.544 40.482 38.586 40.58 38.726 40.636C38.908 40.72 39.23 40.748 39.748 40.748C41.358 40.748 41.722 40.72 41.946 40.566C42.17 40.398 42.268 40.006 42.352 38.984C42.87 39.25 43.178 39.348 43.794 39.46C43.612 40.72 43.472 41.21 43.164 41.518C42.758 41.924 42.156 42.022 39.86 42.022C38.628 42.022 37.942 41.952 37.55 41.77C37.2 41.616 37.06 41.308 37.06 40.706V39.096C37.06 38.55 37.046 38.298 36.976 37.906H38.614C38.558 38.256 38.544 38.508 38.544 39.082ZM41.974 39.292L40.7 40.034C40.196 39.194 39.93 38.844 39.258 38.144L40.406 37.528C41.022 38.088 41.498 38.62 41.974 39.292ZM46.524 40.86L45.236 41.686C44.55 40.09 44.186 39.474 43.332 38.41L44.522 37.752C45.376 38.774 45.782 39.404 46.524 40.86ZM48.498 30.71H50.416C50.346 31.228 50.304 31.914 50.304 32.838C50.304 34.056 50.416 35.736 50.57 36.59C50.808 38.046 51.256 38.942 51.704 38.942C51.914 38.942 52.11 38.732 52.278 38.34C52.614 37.584 52.866 36.744 53.02 35.806C53.51 36.366 53.734 36.576 54.42 37.08C53.692 39.81 52.88 40.944 51.69 40.944C50.752 40.944 49.996 40.258 49.436 38.914C48.862 37.514 48.61 35.484 48.554 31.606C48.54 31.116 48.54 31.018 48.498 30.71ZM55.568 32.04L57.038 31.34C58.802 33.454 59.782 35.792 60.188 38.872L58.452 39.53C58.368 38.214 58.046 36.758 57.556 35.484C57.08 34.21 56.408 33.076 55.568 32.04ZM68.826 38.186H67.188C67.202 37.892 67.216 37.752 67.216 37.584C67.216 37.43 67.216 37.43 67.174 36.59L66.978 31.83C66.95 31.214 66.908 30.514 66.852 30.122H69.148C69.106 30.5 69.05 31.228 69.022 31.83L68.826 36.59C68.798 37.402 68.798 37.402 68.798 37.598C68.798 37.766 68.798 37.906 68.826 38.186ZM69.022 41.252H66.992V39.334H69.022V41.252Z" fill="#0054AC"/>
</g>
<defs>
<filter id="filter0_d_30_7780" x="0" y="0" width="305" height="58" filterUnits="userSpaceOnUse" color-interpolation-filters="sRGB">
<feFlood flood-opacity="0" result="BackgroundImageFix"/>
<feColorMatrix in="SourceAlpha" type="matrix" values="0 0 0 0 0 0 0 0 0 0 0 0 0 0 0 0 0 0 127 0" result="hardAlpha"/>
<feOffset dy="4"/>
<feGaussianBlur stdDeviation="2"/>
<feComposite in2="hardAlpha" operator="out"/>
<feColorMatrix type="matrix" values="0 0 0 0 0 0 0 0 0 0 0 0 0 0 0 0 0 0 0.25 0"/>
<feBlend mode="normal" in2="BackgroundImageFix" result="effect1_dropShadow_30_7780"/>
<feBlend mode="normal" in="SourceGraphic" in2="effect1_dropShadow_30_7780" result="shape"/>
</filter>
</defs>
</svg>
