<svg width="295" height="50" viewBox="0 0 295 50" fill="none" xmlns="http://www.w3.org/2000/svg">
<rect width="295" height="50" rx="20" fill="white"/>
<path d="M26.564 21.526L27.362 22.226C27.25 22.478 27.222 22.674 27.208 23.164C27.166 24.746 27.012 26.902 26.872 27.826C26.508 30.248 26.018 30.822 24.338 30.822C23.806 30.822 23.33 30.78 22.602 30.668C22.574 29.786 22.532 29.52 22.28 28.876C23.106 29.1 23.666 29.198 24.128 29.198C24.73 29.198 24.94 28.89 25.164 27.672C25.332 26.706 25.472 24.802 25.472 23.192L22.21 23.206C22.014 24.956 21.72 26.006 21.09 27.21C20.32 28.694 19.074 29.968 17.31 31.088C16.834 30.346 16.638 30.122 16.05 29.604C17.8 28.68 18.948 27.574 19.69 26.076C20.068 25.306 20.278 24.62 20.404 23.64C20.432 23.444 20.46 23.304 20.474 23.206L18.15 23.22C17.296 23.22 17.1 23.234 16.638 23.29L16.624 21.568C17.1 21.652 17.478 21.68 18.178 21.68L20.628 21.666C20.67 21.134 20.698 20.322 20.698 19.916V19.566C20.698 19.384 20.698 19.272 20.656 19.02L22.532 19.062C22.504 19.244 22.49 19.3 22.476 19.496C22.476 19.58 22.462 19.664 22.462 19.762C22.434 20.056 22.434 20.056 22.406 20.784C22.392 21.092 22.392 21.218 22.35 21.666L25.458 21.652C26.088 21.652 26.214 21.638 26.564 21.526ZM31.8 19.482L33.788 19.496C33.732 19.874 33.718 20.224 33.704 20.91L33.634 28.904C35.09 28.624 36.406 28.092 37.456 27.364C38.744 26.482 39.612 25.516 40.312 24.158C40.858 24.886 41.04 25.082 41.642 25.586C40.676 27.07 39.78 28.008 38.52 28.848C37.12 29.786 35.692 30.332 33.424 30.766C33.046 30.836 32.878 30.892 32.584 31.004L31.688 29.926C31.786 29.548 31.814 29.296 31.814 28.484L31.87 20.924C31.87 19.944 31.87 19.944 31.8 19.482ZM44.1475 21.512L45.3095 20.126C46.9755 21.162 47.8435 21.806 48.9215 22.828L47.7175 24.354C46.5975 23.164 45.4495 22.24 44.1475 21.512ZM44.6375 30.752L44.1195 28.82C45.3235 28.75 46.9895 28.344 48.2635 27.784C50.0135 27.028 51.3155 25.95 52.4215 24.354C53.0375 23.458 53.4295 22.688 53.8495 21.554C54.3955 22.212 54.6195 22.422 55.3335 22.926C54.1435 25.488 52.8135 27.14 50.8955 28.414C49.4675 29.366 47.7315 30.052 45.5615 30.514C45.0015 30.626 44.9595 30.64 44.6375 30.752ZM67.9755 21.036L68.4235 21.68C68.2555 21.904 68.1995 22.03 67.9895 22.618C66.3235 27.196 64.1535 29.604 59.9255 31.564C59.5055 30.85 59.2535 30.528 58.7635 30.108C60.8635 29.296 62.6695 28.092 63.7895 26.762C62.9355 26.02 61.8015 25.236 60.9195 24.774L61.9835 23.528C63.0895 24.144 63.8175 24.634 64.7975 25.404C65.3855 24.55 65.9735 23.304 66.3655 22.1L62.0115 22.142C61.2415 23.458 60.0095 24.858 58.7355 25.908C58.3015 25.404 58.0355 25.194 57.3355 24.788C58.7635 23.738 60.0235 22.31 60.8355 20.784C61.3115 19.902 61.5495 19.356 61.6615 18.838L63.4815 19.244C63.3275 19.51 63.3135 19.524 63.0615 20.042C62.8235 20.532 62.7955 20.588 62.7255 20.714C62.8655 20.7 62.9075 20.7 63.1175 20.686H63.4535L66.3655 20.658C66.6595 20.644 66.9815 20.63 67.1355 20.602C66.8135 19.972 66.5615 19.58 66.1275 19.02L67.2055 18.698C67.7795 19.426 68.1155 19.986 68.4935 20.868L67.9755 21.036ZM70.3835 20.336L69.3055 20.714C68.9695 19.944 68.5635 19.23 68.0595 18.572L69.0955 18.236C69.6695 18.922 70.0055 19.482 70.3835 20.336ZM70.5995 26.104V24.158C71.2155 24.242 71.4815 24.256 72.8675 24.256H80.3295C81.7155 24.256 81.9815 24.242 82.5975 24.158V26.104C82.0375 26.034 81.8835 26.034 80.3155 26.034H72.8815C71.3135 26.034 71.1595 26.034 70.5995 26.104ZM87.7775 19.286L89.5975 18.992C89.6535 19.93 90.0735 21.946 90.5215 23.374C91.4315 23.038 91.4315 23.038 94.1475 22.142C94.3995 22.058 94.4695 22.03 94.6795 21.932L95.2815 23.696C94.0635 23.934 92.2295 24.466 90.6615 25.04C88.6175 25.796 87.5955 26.692 87.5955 27.7C87.5955 28.722 88.5475 29.156 90.8015 29.156C92.5515 29.156 94.2735 28.946 95.3235 28.582L95.4775 30.5C95.1695 30.5 95.0995 30.514 94.3435 30.598C92.8315 30.752 92.0475 30.808 91.0675 30.808C89.1215 30.808 87.9035 30.57 87.0075 30.038C86.2375 29.576 85.7895 28.708 85.7895 27.7C85.7895 26.762 86.2375 25.866 87.0355 25.194C87.5815 24.732 88.0295 24.452 88.9395 23.99C88.5895 22.856 88.3515 21.918 88.0015 20.196C87.8615 19.524 87.8475 19.496 87.7775 19.286ZM105.557 21.022H102.995C102.379 21.022 102.099 21.036 101.847 21.092V19.706C102.253 19.762 102.687 19.776 103.429 19.776H105.543C105.529 19.3 105.515 19.104 105.459 18.726H107.027C106.971 19.076 106.957 19.314 106.943 19.776H109.253C109.925 19.776 110.443 19.748 110.849 19.706V21.092C110.513 21.036 110.149 21.022 109.435 21.022H106.943V21.694H109.113C109.617 21.694 109.869 21.68 110.275 21.638C110.233 21.988 110.219 22.24 110.219 22.716V25.6C110.219 26.048 110.233 26.3 110.275 26.622C109.883 26.594 109.575 26.58 109.113 26.58H106.943V27.252H109.505C110.219 27.252 110.569 27.238 110.905 27.196V28.554C110.555 28.498 110.191 28.484 109.505 28.484H106.943C106.943 28.946 106.971 29.268 107.027 29.66H105.459C105.529 29.254 105.543 29.016 105.557 28.484H103.331C102.827 28.484 102.253 28.498 101.945 28.54V27.196C102.239 27.238 102.575 27.252 103.331 27.252H105.557V26.58H103.569C103.149 26.58 102.757 26.594 102.407 26.622C102.449 26.272 102.463 26.034 102.463 25.6V22.632C102.463 22.212 102.449 22.016 102.407 21.638C102.757 21.68 103.079 21.694 103.555 21.694H105.557V21.022ZM105.557 22.814H103.835V23.598H105.557V22.814ZM106.943 22.814V23.598H108.805V22.814H106.943ZM105.557 24.634H103.835V25.446H105.557V24.634ZM106.943 24.634V25.446H108.805V24.634H106.943ZM98.2635 19.888L99.3835 18.852C100.349 19.678 100.867 20.224 101.819 21.372L100.643 22.506C99.7895 21.344 99.3275 20.84 98.2635 19.888ZM98.2355 25.572V24.06C98.5995 24.116 98.8235 24.13 99.3555 24.13H100.405C100.811 24.13 101.119 24.116 101.469 24.06C101.427 24.494 101.413 24.83 101.413 25.586V28.582C101.637 28.96 101.791 29.128 102.057 29.31C102.743 29.758 103.555 29.912 105.305 29.912C108.119 29.912 109.785 29.842 111.297 29.632C111.031 30.388 111.003 30.486 110.877 31.284C109.701 31.34 107.671 31.368 106.005 31.368C103.583 31.368 102.799 31.27 101.917 30.836C101.413 30.612 101.105 30.346 100.685 29.828C99.9995 30.458 99.7195 30.696 99.0475 31.172C98.8935 31.298 98.7675 31.382 98.6415 31.494L97.9555 29.898C98.4595 29.688 99.2295 29.17 99.9435 28.54V25.502H99.1735C98.7955 25.502 98.5995 25.516 98.2355 25.572ZM121.979 24.368V24.928H123.673C124.317 24.928 124.639 24.914 124.947 24.858V26.09C124.597 26.034 124.233 26.02 123.687 26.02H118.213C117.863 26.02 117.639 26.034 117.163 26.062C117.177 25.698 117.191 25.46 117.191 24.998V23.822C117.191 23.346 117.191 23.248 117.219 22.772C117.065 23.024 116.841 23.29 116.533 23.57C116.337 23.15 116.197 22.968 115.903 22.632C115.777 22.632 115.707 22.632 115.581 22.632H115.385V24.816C115.819 24.662 116.029 24.592 116.785 24.298L116.771 25.67C116.099 25.936 115.945 25.992 115.385 26.188V30.248L115.371 30.472C117.037 30.038 117.919 29.226 118.213 27.868H117.345C116.953 27.868 116.701 27.882 116.351 27.938V26.482C116.715 26.538 116.995 26.552 117.457 26.552H122.063C122.595 26.552 122.917 26.538 123.225 26.51C123.155 26.762 123.155 26.762 123.043 27.154C122.987 27.322 122.875 27.672 122.791 27.91H123.911C124.401 27.91 124.681 27.896 124.933 27.84C124.863 28.274 124.863 28.302 124.807 28.652C124.611 29.828 124.387 30.612 124.107 30.976C123.785 31.424 123.365 31.578 122.483 31.578C122.063 31.578 121.489 31.55 120.859 31.494C120.789 30.892 120.719 30.584 120.509 30.122C121.251 30.248 121.699 30.304 122.175 30.304C122.623 30.304 122.749 30.262 122.889 30.038C123.015 29.828 123.043 29.73 123.197 29.128H121.769C121.433 29.128 121.111 29.142 120.887 29.17C121.069 28.778 121.195 28.428 121.363 27.868H119.683C119.487 28.862 119.123 29.632 118.535 30.29C117.933 30.948 117.233 31.382 116.099 31.788C115.861 31.312 115.651 30.976 115.357 30.598C115.287 31.116 115.133 31.312 114.685 31.452C114.279 31.578 113.943 31.62 113.355 31.62C113.173 31.62 112.991 31.606 112.641 31.592C112.599 31.004 112.529 30.682 112.333 30.122C112.767 30.192 113.131 30.22 113.453 30.22C113.817 30.22 113.901 30.136 113.901 29.814V26.692C113.551 26.804 113.439 26.846 113.145 26.93C112.921 27 112.697 27.084 112.459 27.182L112.193 25.614C112.669 25.572 113.047 25.488 113.901 25.25V22.632H113.369C112.991 22.632 112.683 22.646 112.347 22.688V21.176C112.697 21.246 112.977 21.274 113.383 21.274H113.901V20.196C113.901 19.538 113.887 19.23 113.817 18.782H115.469C115.413 19.244 115.385 19.58 115.385 20.182V21.274H115.581C115.931 21.274 116.099 21.26 116.351 21.204V21.764C117.247 20.77 117.863 19.65 118.129 18.628L119.599 18.936C119.333 19.594 119.249 19.762 119.025 20.112H120.747C121.041 19.678 121.209 19.328 121.405 18.768L122.875 19.034C122.581 19.58 122.441 19.804 122.231 20.112H123.603C124.233 20.112 124.541 20.098 124.863 20.056V21.316C124.541 21.26 124.233 21.246 123.771 21.246H121.979V21.806H123.141C123.855 21.806 124.135 21.792 124.429 21.75V22.856C124.107 22.828 123.799 22.814 123.141 22.814H121.979V23.36H123.141C123.855 23.36 124.135 23.346 124.429 23.304V24.41C124.135 24.382 123.813 24.368 123.141 24.368H121.979ZM120.635 24.368H118.563V24.928H120.635V24.368ZM120.635 23.36V22.814H118.563V23.36H120.635ZM120.635 21.806V21.246H118.563V21.806H120.635ZM126.739 22.562L126.641 20.728C126.949 20.742 127.103 20.742 127.173 20.742C127.425 20.742 127.425 20.742 129.483 20.602C130.505 20.546 132.899 20.42 136.637 20.238C137.785 20.182 137.855 20.182 138.079 20.126L138.177 21.904C138.023 21.89 138.023 21.89 137.883 21.89C137.043 21.89 136.007 22.17 135.111 22.646C133.333 23.57 132.283 24.97 132.283 26.384C132.283 27.476 132.969 28.316 134.145 28.666C134.831 28.876 135.727 29.03 136.231 29.03C136.245 29.03 136.371 29.03 136.511 29.016L136.259 30.92C136.077 30.878 136.049 30.878 135.783 30.836C134.243 30.64 133.361 30.388 132.507 29.912C131.219 29.184 130.505 27.994 130.505 26.538C130.505 25.348 130.981 24.172 131.835 23.248C132.367 22.674 132.871 22.296 133.781 21.834C132.647 22.002 131.779 22.086 129.063 22.282C127.817 22.38 127.173 22.464 126.739 22.562ZM135.307 23.906L136.287 23.416C136.903 24.074 137.281 24.606 137.757 25.474L136.777 25.992C136.315 25.138 135.923 24.578 135.307 23.906ZM139.423 24.564L138.457 25.11C138.037 24.34 137.575 23.682 137.029 23.08L137.967 22.59C138.597 23.234 138.989 23.766 139.423 24.564ZM141.551 22.436L141.481 20.952C141.887 20.994 142.209 21.008 142.825 21.008C143.889 21.008 144.645 20.966 145.709 20.854C145.667 20.742 145.667 20.742 145.555 20.49C145.205 19.678 145.009 19.244 144.995 19.216L146.745 18.978C146.801 19.328 146.941 19.748 147.319 20.672C148.509 20.518 150.133 20.154 151.099 19.832L151.239 21.316C151.099 21.344 151.099 21.344 150.763 21.414C149.825 21.638 148.271 21.946 147.837 22.002C148.061 22.52 148.145 22.702 148.383 23.15C149.587 22.898 150.231 22.758 150.315 22.744C151.113 22.548 151.281 22.492 151.645 22.338L151.785 23.864C151.519 23.906 151.225 23.962 150.903 24.046C150.329 24.186 149.867 24.284 149.531 24.354C149.181 24.424 149.181 24.424 149.013 24.466C149.741 25.67 149.965 25.964 150.889 27.028L149.657 27.91C148.649 27.49 147.809 27.336 146.437 27.336C145.373 27.336 144.561 27.476 144.085 27.728C143.693 27.952 143.483 28.246 143.483 28.582C143.483 28.918 143.721 29.24 144.085 29.394C144.533 29.59 145.275 29.702 146.087 29.702C147.543 29.702 149.517 29.282 150.399 28.792L150.651 30.514C150.385 30.556 150.385 30.556 149.741 30.724C148.551 31.046 147.389 31.2 146.157 31.2C144.547 31.2 143.525 30.99 142.741 30.514C142.069 30.094 141.663 29.38 141.663 28.596C141.663 27.84 142.083 27.14 142.839 26.65C143.567 26.188 144.687 25.95 146.101 25.95C146.955 25.95 147.767 26.048 148.523 26.244C148.299 26.034 148.033 25.642 147.445 24.676C145.961 24.9 145.065 24.956 142.027 25.054C141.789 25.068 141.691 25.068 141.453 25.096L141.397 23.57C141.803 23.626 141.887 23.626 142.839 23.626C144.309 23.626 145.471 23.542 146.801 23.36C146.717 23.192 146.661 23.108 146.549 22.842C146.409 22.548 146.367 22.464 146.255 22.212C145.135 22.338 144.127 22.394 142.503 22.408C141.915 22.408 141.845 22.422 141.551 22.436ZM159.121 24.69L159.149 24.718C160.423 24.214 161.039 24.074 162.089 24.074C164.483 24.074 166.023 25.306 166.023 27.224C166.023 28.554 165.365 29.618 164.119 30.318C163.209 30.836 162.019 31.116 160.731 31.116C159.555 31.116 158.575 30.892 158.015 30.472C157.483 30.08 157.175 29.492 157.175 28.862C157.175 27.7 158.183 26.86 159.583 26.86C160.563 26.86 161.417 27.266 162.005 28.008C162.285 28.358 162.439 28.666 162.649 29.268C163.811 28.834 164.315 28.232 164.315 27.238C164.315 26.146 163.237 25.432 161.543 25.432C159.499 25.432 157.455 26.258 155.775 27.784L154.823 26.272C155.313 26.034 155.873 25.656 156.797 24.956C158.099 23.962 159.919 22.394 160.983 21.316C161.011 21.288 161.151 21.148 161.235 21.064L161.221 21.05C160.689 21.12 159.793 21.176 157.259 21.288C156.951 21.302 156.853 21.316 156.587 21.358L156.517 19.678C156.993 19.734 157.399 19.762 158.169 19.762C159.359 19.762 161.067 19.692 162.425 19.594C162.915 19.552 163.069 19.524 163.293 19.412L164.161 20.644C163.923 20.77 163.825 20.854 163.433 21.218C162.733 21.862 161.711 22.772 161.235 23.178C160.983 23.388 159.975 24.144 159.695 24.326C159.345 24.564 159.345 24.564 159.121 24.69ZM161.137 29.674C160.885 28.708 160.353 28.204 159.569 28.204C159.065 28.204 158.743 28.456 158.743 28.848C158.743 29.408 159.373 29.73 160.409 29.73C160.675 29.73 160.745 29.73 161.137 29.674ZM179.771 19.79L180.709 20.854C180.513 21.092 180.513 21.106 180.149 21.834C179.659 22.87 178.847 23.92 177.993 24.648C177.433 25.138 176.971 25.446 176.313 25.81C175.893 25.222 175.683 25.012 175.053 24.536C175.991 24.116 176.523 23.794 177.097 23.248C177.671 22.716 178.105 22.142 178.427 21.47H171.077C170.097 21.47 169.747 21.484 169.173 21.554V19.804C169.705 19.888 170.139 19.916 171.105 19.916H178.413C179.253 19.916 179.379 19.902 179.771 19.79ZM173.121 22.618H175.025C174.983 22.884 174.983 22.898 174.969 23.752C174.913 26.146 174.535 27.49 173.583 28.708C172.743 29.786 171.721 30.5 169.971 31.228C169.607 30.472 169.425 30.22 168.865 29.632C169.999 29.296 170.629 28.988 171.315 28.442C172.743 27.308 173.191 26.104 173.191 23.458C173.191 23.038 173.177 22.912 173.121 22.618ZM184.923 20.322H191.349C191.769 20.322 191.937 20.308 192.175 20.294C192.189 19.384 192.889 18.67 193.785 18.67C194.681 18.67 195.409 19.398 195.409 20.28C195.409 21.176 194.681 21.904 193.785 21.904C193.701 21.904 193.617 21.89 193.519 21.876C192.385 26.454 189.907 29.31 185.483 31.158C185.119 30.43 184.881 30.108 184.251 29.492C188.129 28.288 190.663 25.684 191.559 21.96H184.895C183.859 21.96 183.593 21.974 183.131 22.044V20.224C183.635 20.308 183.971 20.322 184.923 20.322ZM193.785 19.37C193.281 19.37 192.875 19.776 192.875 20.28C192.875 20.784 193.281 21.204 193.785 21.204C194.303 21.204 194.709 20.784 194.709 20.28C194.709 19.776 194.303 19.37 193.785 19.37ZM198.461 19.454L200.365 19.468C200.309 19.86 200.309 19.986 200.309 20.728V24.592C200.309 25.292 200.309 25.474 200.365 25.824H198.447C198.489 25.502 198.517 25.068 198.517 24.564V20.714C198.517 20 198.503 19.818 198.461 19.454ZM204.775 19.482H206.721C206.665 19.832 206.651 19.986 206.651 20.784V22.674C206.637 24.858 206.539 26.034 206.287 26.916C205.881 28.316 204.985 29.366 203.529 30.178C202.787 30.598 202.087 30.878 200.799 31.256C200.547 30.57 200.407 30.332 199.819 29.59C201.191 29.324 202.003 29.03 202.843 28.47C204.159 27.602 204.621 26.748 204.775 24.9C204.831 24.298 204.845 23.682 204.845 22.562V20.812C204.845 20.098 204.831 19.804 204.775 19.482ZM219.587 22.8L221.001 22.1C221.967 23.43 222.695 24.942 223.101 26.552L221.505 27.35C221.225 25.88 220.357 23.822 219.587 22.8ZM215.471 19.72L215.443 19.902C215.373 20.308 215.275 20.882 215.135 21.638C215.093 21.876 215.093 21.876 215.051 22.058C215.471 22.044 215.667 22.03 215.919 22.03C216.843 22.03 217.529 22.282 217.991 22.772C218.467 23.304 218.649 23.976 218.649 25.25C218.649 27.658 218.243 29.576 217.571 30.346C217.179 30.808 216.759 30.976 216.017 30.976C215.373 30.976 214.799 30.864 213.861 30.556C213.875 30.29 213.889 30.08 213.889 29.94C213.889 29.576 213.861 29.296 213.749 28.75C214.505 29.086 215.303 29.31 215.793 29.31C216.199 29.31 216.423 29.044 216.633 28.358C216.857 27.63 216.997 26.356 216.997 25.166C216.997 23.878 216.675 23.5 215.597 23.5C215.303 23.5 215.079 23.514 214.757 23.542C214.071 26.412 213.441 28.106 211.901 31.158L210.277 30.262C211.355 28.792 212.433 26.272 213.091 23.668C212.881 23.696 212.881 23.696 212.433 23.78L211.159 23.99C210.935 24.032 210.781 24.074 210.585 24.13L210.417 22.478C211.047 22.464 211.775 22.394 213.399 22.184C213.665 20.63 213.763 19.832 213.763 19.356C213.763 19.3 213.763 19.216 213.763 19.104L215.583 19.286C215.541 19.398 215.499 19.58 215.471 19.72ZM218.719 19.818L219.699 19.328C220.315 19.986 220.693 20.518 221.169 21.386L220.189 21.904C219.727 21.05 219.335 20.49 218.719 19.818ZM222.835 20.476L221.869 21.022C221.449 20.252 220.987 19.594 220.441 18.992L221.379 18.502C222.009 19.146 222.401 19.678 222.835 20.476ZM232.537 22.772H234.049C234.021 22.982 234.021 23.108 234.021 23.346C234.021 25.18 234.553 26.944 235.533 28.344C236.009 29.044 236.485 29.492 237.423 30.164C237.143 30.598 236.905 30.99 236.527 31.676C235.799 31.074 235.295 30.556 234.847 29.94C234.119 28.96 233.783 28.204 233.419 26.804C233.209 28.008 232.971 28.708 232.439 29.562C231.865 30.472 231.333 31.046 230.465 31.69C230.045 31.06 230.045 31.06 229.709 30.696C229.485 30.682 229.429 30.682 229.065 30.682H226.783V31.41H225.229C225.299 30.934 225.327 30.458 225.327 29.884V26.678C225.187 26.804 224.949 27 224.557 27.336C224.361 26.748 224.165 26.3 223.857 25.796C224.375 25.446 224.907 24.984 225.327 24.55C225.999 23.822 226.489 23.01 226.979 21.82H228.421C229.107 23.262 229.961 24.242 231.403 25.208C230.983 25.74 230.843 25.964 230.535 26.608C230.283 26.398 230.199 26.328 230.073 26.216C230.073 26.426 230.073 26.482 230.073 26.58V29.618C230.073 29.744 230.073 29.772 230.073 29.898C231.011 29.086 231.487 28.428 231.893 27.42C232.313 26.37 232.579 24.844 232.579 23.374C232.579 23.206 232.565 23.024 232.537 22.772ZM226.433 25.488H229.163C229.275 25.488 229.275 25.488 229.303 25.488C228.687 24.83 228.239 24.186 227.763 23.262C227.399 24.144 227.077 24.69 226.433 25.488ZM226.783 26.832V29.338H228.645V26.832H226.783ZM233.223 20.616H235.365C236.023 20.616 236.331 20.602 236.583 20.546L237.241 21.302C237.143 21.554 237.129 21.624 237.003 22.086C236.597 23.64 236.247 24.522 235.687 25.404C235.267 25.026 234.945 24.802 234.469 24.536C235.057 23.654 235.295 23.108 235.617 21.96H232.761C232.243 23.22 231.851 23.962 231.305 24.746C230.913 24.326 230.661 24.116 230.143 23.766C230.885 22.744 231.403 21.652 231.795 20.336C232.005 19.58 232.117 19.062 232.145 18.572L233.713 18.838C233.573 19.328 233.489 19.664 233.433 19.86C233.321 20.266 233.265 20.476 233.223 20.616ZM226.167 18.866L227.441 19.566C226.699 20.98 226.083 21.764 224.809 22.898C224.599 22.45 224.361 22.072 223.955 21.582C225.075 20.672 225.537 20.084 226.167 18.866ZM227.973 19.566L229.191 18.866C229.751 19.832 230.269 20.42 231.109 21.092C230.801 21.512 230.535 21.918 230.283 22.394C229.191 21.428 228.701 20.812 227.973 19.566ZM240.461 19.314L242.421 19.342C242.337 19.748 242.309 20.154 242.253 21.232C242.197 22.534 242.113 25.376 242.113 26.37C242.113 27.7 242.197 28.204 242.477 28.624C242.799 29.086 243.471 29.352 244.353 29.352C245.865 29.352 247.083 28.498 247.741 26.958C248.049 26.23 248.231 25.572 248.385 24.606C249.141 25.222 249.393 25.376 250.079 25.684C249.519 27.574 249.099 28.484 248.413 29.254C247.363 30.444 245.977 31.032 244.213 31.032C243.247 31.032 242.351 30.808 241.763 30.416C240.797 29.772 240.391 28.694 240.391 26.818C240.391 26.09 240.419 24.69 240.503 21.176C240.517 20.756 240.517 20.462 240.517 20.266C240.517 19.874 240.503 19.678 240.461 19.314ZM253.103 20.21H255.021C254.951 20.728 254.909 21.414 254.909 22.338C254.909 23.556 255.021 25.236 255.175 26.09C255.413 27.546 255.861 28.442 256.309 28.442C256.519 28.442 256.715 28.232 256.883 27.84C257.219 27.084 257.471 26.244 257.625 25.306C258.115 25.866 258.339 26.076 259.025 26.58C258.297 29.31 257.485 30.444 256.295 30.444C255.357 30.444 254.601 29.758 254.041 28.414C253.467 27.014 253.215 24.984 253.159 21.106C253.145 20.616 253.145 20.518 253.103 20.21ZM260.173 21.54L261.643 20.84C263.407 22.954 264.387 25.292 264.793 28.372L263.057 29.03C262.973 27.714 262.651 26.258 262.161 24.984C261.685 23.71 261.013 22.576 260.173 21.54ZM273.431 27.686H271.793C271.807 27.392 271.821 27.252 271.821 27.084C271.821 26.93 271.821 26.93 271.779 26.09L271.583 21.33C271.555 20.714 271.513 20.014 271.457 19.622H273.753C273.711 20 273.655 20.728 273.627 21.33L273.431 26.09C273.403 26.902 273.403 26.902 273.403 27.098C273.403 27.266 273.403 27.406 273.431 27.686ZM273.627 30.752H271.597V28.834H273.627V30.752Z" fill="#0054AC"/>
</svg>
