<svg width="281" height="50" viewBox="0 0 281 50" fill="none" xmlns="http://www.w3.org/2000/svg">
<rect width="281" height="50" rx="20" fill="white"/>
<path d="M20.782 26.216L20.796 28.974C20.796 29.548 20.768 29.884 20.684 30.164C20.558 30.654 20.054 30.976 19.396 30.976C18.514 30.976 17.45 30.584 16.75 29.982C16.246 29.548 15.98 29.002 15.98 28.4C15.98 27.742 16.414 27 17.184 26.328C17.688 25.894 18.304 25.53 19.228 25.138L19.214 22.982C19.102 22.982 19.102 22.982 18.64 23.01C18.43 23.024 18.234 23.024 17.884 23.024C17.674 23.024 17.282 23.01 17.114 23.01C16.932 22.996 16.806 22.996 16.764 22.996C16.708 22.996 16.596 22.996 16.47 23.01L16.456 21.442C16.848 21.526 17.408 21.568 18.15 21.568C18.29 21.568 18.444 21.568 18.64 21.554C18.976 21.54 19.046 21.54 19.2 21.54V20.616C19.2 19.818 19.186 19.454 19.116 19.006H20.866C20.796 19.454 20.782 19.748 20.782 20.532V21.428C21.832 21.302 22.77 21.12 23.484 20.896L23.54 22.464C23.288 22.506 23.022 22.548 22.056 22.716C21.594 22.8 21.314 22.842 20.782 22.898V24.718C21.734 24.438 22.616 24.326 23.638 24.326C25.976 24.326 27.642 25.754 27.642 27.742C27.642 29.562 26.284 30.934 24.464 30.934C23.33 30.934 22.532 30.388 22.168 29.38C21.986 28.904 21.93 28.442 21.93 27.588C22.644 27.392 22.882 27.294 23.484 26.972C23.456 27.238 23.456 27.364 23.456 27.588C23.456 28.176 23.512 28.554 23.652 28.82C23.806 29.114 24.142 29.296 24.534 29.296C25.36 29.296 25.948 28.638 25.948 27.742C25.948 26.538 24.968 25.754 23.47 25.754C22.63 25.754 21.776 25.908 20.782 26.216ZM19.214 28.764V26.72C18.164 27.28 17.548 27.896 17.548 28.4C17.548 28.638 17.688 28.848 18.01 29.044C18.29 29.24 18.64 29.352 18.906 29.352C19.144 29.352 19.214 29.226 19.214 28.764ZM28.258 22.856L26.97 23.892C26.27 22.786 25.248 21.68 24.17 20.868L25.486 19.986C26.704 20.924 27.516 21.764 28.258 22.856ZM35.132 23.892H33.844C33.284 23.892 32.878 23.906 32.472 23.962V23.29C31.674 23.766 31.114 24.06 30.19 24.438C29.854 23.696 29.756 23.514 29.378 22.996C31.982 22.086 34.082 20.574 35.09 18.894H36.826C37.386 19.72 37.988 20.322 38.982 21.05C40.13 21.918 41.18 22.45 42.692 22.94C42.356 23.458 42.146 23.906 41.936 24.48C40.83 24.018 40.368 23.794 39.486 23.248V23.962C39.08 23.906 38.702 23.892 38.114 23.892H36.686V25.25H40.228C40.956 25.25 41.39 25.222 41.754 25.166V26.72C41.362 26.664 40.872 26.636 40.214 26.636H36.686V29.772H40.494C41.208 29.772 41.684 29.744 42.146 29.688V31.298C41.628 31.228 41.04 31.2 40.466 31.2H31.618C30.974 31.2 30.47 31.228 29.882 31.298V29.688C30.386 29.744 30.904 29.772 31.618 29.772H35.132V26.636H31.814C31.212 26.636 30.722 26.664 30.302 26.72V25.166C30.68 25.222 31.128 25.25 31.828 25.25H35.132V23.892ZM33.508 22.576H33.802L38.142 22.59C38.268 22.59 38.268 22.59 38.478 22.576C37.372 21.792 36.686 21.148 35.958 20.224C35.244 21.176 34.67 21.736 33.508 22.576ZM31.464 27.322L32.85 26.762C33.326 27.602 33.592 28.134 33.97 29.086L32.57 29.646C32.276 28.764 31.912 28.022 31.464 27.322ZM39.01 26.776L40.494 27.336C40.312 27.658 40.312 27.658 39.794 28.68C39.752 28.764 39.696 28.862 39.22 29.674L37.904 29.184C38.338 28.484 38.674 27.742 39.01 26.776ZM44.456 26.006L44.61 24.396C45.254 24.648 45.646 24.732 47.074 24.928C47.13 24.424 47.256 23.486 47.326 22.968C46.5 22.856 46.276 22.828 45.324 22.618C45.128 22.576 45.058 22.562 44.848 22.52L44.988 20.98C45.576 21.204 46.57 21.4 47.522 21.484C47.718 20.308 47.802 19.58 47.802 19.16C47.802 19.118 47.802 19.09 47.788 19.02L49.65 19.188C49.496 19.622 49.454 19.832 49.202 21.554C50.784 21.526 51.596 21.456 52.394 21.26L52.338 22.898C52.156 22.912 52.086 22.926 51.778 22.954C50.77 23.038 50.322 23.066 49.818 23.066C49.678 23.066 49.552 23.066 48.95 23.052C48.81 24.074 48.768 24.354 48.684 25.026C49.104 25.04 49.216 25.04 49.37 25.04C50.364 25.04 51.372 24.942 52.044 24.76L52.002 26.37C51.862 26.37 51.82 26.37 51.582 26.412C50.966 26.482 50.14 26.538 49.482 26.538C49.258 26.538 49.132 26.538 48.586 26.51C48.544 26.888 48.516 27.252 48.516 27.504C48.516 28.19 48.67 28.624 49.034 28.946C49.44 29.296 50 29.464 50.77 29.464C52.548 29.464 53.57 28.68 53.57 27.308C53.57 26.496 53.15 25.712 52.31 24.942C53.094 24.886 53.388 24.83 54.046 24.592C54.396 24.998 54.55 25.208 54.704 25.474C55.068 26.09 55.306 26.888 55.306 27.532C55.306 28.526 54.816 29.492 53.962 30.15C53.164 30.766 52.114 31.074 50.798 31.074C48.25 31.074 46.864 29.856 46.864 27.602C46.864 27.238 46.878 26.888 46.934 26.412C46.094 26.3 45.548 26.216 44.988 26.09C44.694 26.02 44.652 26.02 44.456 26.006ZM65.75 22.282L67.332 22.73C67.276 22.842 67.276 22.842 67.164 23.136C67.024 23.528 67.01 23.542 66.968 23.668C67.542 23.808 67.948 24.004 68.424 24.354C69.32 25.026 69.754 25.894 69.754 27C69.754 28.526 68.928 29.716 67.346 30.5C66.52 30.906 65.722 31.116 64.49 31.242C64.336 30.64 64.21 30.388 63.748 29.66C64.882 29.646 65.596 29.492 66.422 29.1C67.542 28.568 68.06 27.882 68.06 26.916C68.06 26.034 67.486 25.32 66.492 24.984C65.722 26.65 65.064 27.658 64.056 28.708C62.796 30.038 61.55 30.724 60.388 30.724C59.086 30.724 58.204 29.73 58.204 28.274C58.204 27.126 58.694 26.02 59.59 25.138C60.15 24.592 60.668 24.242 61.508 23.878C61.508 23.43 61.536 22.87 61.564 22.198C61.41 22.198 60.654 22.184 59.296 22.142C59.156 22.142 59.058 22.142 59.03 22.142C58.988 22.142 58.862 22.142 58.708 22.156V20.588C59.338 20.728 60.164 20.798 61.326 20.798C61.34 20.798 61.354 20.798 61.634 20.798C61.648 20.518 61.648 20.518 61.69 19.958C61.704 19.776 61.718 19.426 61.718 19.16C61.718 19.104 61.718 19.048 61.69 18.936L63.426 19.02C63.314 19.398 63.258 19.762 63.174 20.742C65.414 20.616 67.402 20.336 68.48 20L68.55 21.61C68.354 21.624 68.298 21.624 68.004 21.666C66.464 21.918 64.196 22.128 63.076 22.156C63.034 22.758 63.02 23.206 63.006 23.5C63.762 23.346 64.084 23.318 64.938 23.318C65.106 23.318 65.218 23.318 65.47 23.346C65.624 22.898 65.708 22.604 65.75 22.282ZM61.536 25.474C60.92 25.88 60.682 26.09 60.402 26.44C59.982 26.986 59.772 27.56 59.772 28.148C59.772 28.778 60.08 29.17 60.57 29.17C60.962 29.17 61.34 29.002 61.788 28.638C61.606 27.728 61.536 26.832 61.536 25.474ZM63.118 27.588L63.146 27.602C63.202 27.518 63.202 27.518 63.3 27.406C63.958 26.664 64.518 25.768 65.036 24.606C64.882 24.592 64.812 24.592 64.672 24.592C64.056 24.592 63.552 24.662 62.992 24.844C63.006 26.132 63.006 26.272 63.09 27.252C63.104 27.336 63.104 27.336 63.104 27.434C63.104 27.504 63.104 27.518 63.118 27.588ZM83.586 29.016L82.634 30.654C82.018 29.968 81.052 29.254 80.044 28.736C79.736 28.568 79.624 28.526 79.288 28.386C79.288 28.456 79.288 28.512 79.288 28.54C79.288 29.422 79.036 30.024 78.504 30.43C77.972 30.836 77.216 31.032 76.194 31.032C74.15 31.032 72.974 30.234 72.974 28.848C72.974 27.322 74.36 26.426 76.712 26.426C77.048 26.426 77.286 26.44 77.65 26.482C77.65 26.314 77.65 26.314 77.636 26.146C77.636 26.076 77.636 25.978 77.636 25.838C77.622 25.642 77.622 25.642 77.608 25.082C76.936 25.096 76.502 25.11 76.208 25.11C75.354 25.11 74.836 25.096 73.674 25.012C73.492 24.998 73.352 24.998 73.142 24.998L73.17 23.486C73.772 23.626 75.102 23.724 76.432 23.724C76.712 23.724 77.188 23.71 77.58 23.696C77.58 23.57 77.58 23.094 77.566 22.296C77.118 22.31 76.894 22.31 76.684 22.31C75.998 22.31 74.192 22.24 73.254 22.17C73.1 22.156 72.988 22.156 72.946 22.156C72.89 22.156 72.82 22.156 72.722 22.156L72.736 20.602C73.45 20.784 74.892 20.896 76.502 20.896C76.726 20.896 77.202 20.882 77.552 20.868C77.538 19.468 77.538 19.454 77.482 19.104H79.26C79.19 19.482 79.176 19.664 79.162 20.812C81.066 20.7 82.284 20.546 83.194 20.28L83.264 21.834C82.956 21.848 82.956 21.848 82.158 21.96C80.926 22.128 80.38 22.17 79.148 22.24C79.162 22.59 79.162 22.758 79.176 23.626C79.876 23.584 79.876 23.584 81.164 23.444C82.046 23.332 82.27 23.304 82.9 23.136L82.942 24.676C82.704 24.69 82.354 24.732 82.032 24.774C81.822 24.802 81.192 24.872 80.142 24.97C79.946 24.984 79.736 24.998 79.19 25.026C79.232 26.384 79.232 26.384 79.246 26.72C80.478 27.084 81.57 27.63 83.082 28.694C83.32 28.848 83.39 28.904 83.586 29.016ZM77.678 27.938C77.216 27.84 76.936 27.812 76.516 27.812C75.382 27.812 74.696 28.176 74.696 28.778C74.696 29.296 75.298 29.618 76.292 29.618C76.88 29.618 77.314 29.45 77.51 29.17C77.622 28.988 77.678 28.694 77.678 28.274C77.678 28.218 77.678 27.938 77.678 27.938ZM88.192 18.964L89.97 19.062C89.802 19.538 89.732 19.902 89.466 21.764C89.368 22.352 89.312 22.828 89.284 23.164H89.326C89.354 23.08 89.354 23.08 89.41 22.856C89.55 22.366 89.914 21.68 90.292 21.19C91.062 20.238 91.93 19.762 92.952 19.762C93.904 19.762 94.744 20.21 95.346 21.022C96.046 21.96 96.354 23.094 96.354 24.746C96.354 27.448 95.094 29.464 92.742 30.5C92.028 30.822 91.048 31.102 89.998 31.284C89.718 30.486 89.564 30.178 89.172 29.632C90.572 29.478 91.384 29.268 92.238 28.834C93.862 28.008 94.604 26.678 94.604 24.55C94.604 22.534 93.932 21.414 92.728 21.414C92.196 21.414 91.706 21.652 91.216 22.156C90.124 23.29 89.452 25.012 89.452 26.678C89.452 26.748 89.452 26.846 89.452 26.972L87.772 27C87.786 26.916 87.786 26.846 87.786 26.818C87.786 26.762 87.786 26.678 87.786 26.552C87.772 26.146 87.744 25.11 87.744 24.83C87.744 23.696 87.828 22.142 87.94 21.176L88.15 19.44C88.178 19.202 88.192 19.146 88.192 18.964ZM110.424 26.636H108.128C107.974 27.518 107.75 28.106 107.344 28.778C108.828 29.59 110.256 29.912 112.594 30.01C112.342 30.514 112.118 31.046 111.992 31.564C109.626 31.312 108.016 30.808 106.476 29.828C105.664 30.612 104.782 31.116 103.354 31.62C103.102 31.116 102.808 30.682 102.486 30.304C103.774 29.954 104.6 29.562 105.328 28.96C104.964 28.624 104.782 28.414 104.46 27.994C104.278 27.756 104.166 27.63 104.026 27.476L105.244 26.832C105.412 27.168 105.692 27.518 106.168 27.952C106.42 27.49 106.546 27.154 106.658 26.636H104.6C104.152 26.636 103.816 26.65 103.466 26.692C103.508 26.286 103.522 26.02 103.522 25.516V23.57C103.522 22.968 103.508 22.73 103.466 22.394C103.886 22.422 104.096 22.436 104.768 22.436H106.938L106.924 21.428H104.614C104.054 21.428 103.69 21.442 103.27 21.498V19.986C103.69 20.042 104.222 20.07 104.782 20.07H106.924C106.91 19.342 106.896 19.09 106.84 18.656H108.45C108.408 19.048 108.408 19.048 108.408 20.07H110.844C111.488 20.07 111.95 20.042 112.426 19.986V21.498C112.006 21.442 111.586 21.428 111.026 21.428H108.408C108.408 21.624 108.408 21.764 108.408 21.848V22.436H110.466C111.096 22.436 111.39 22.422 111.782 22.394C111.754 22.744 111.74 23.094 111.74 23.612V25.418C111.74 26.09 111.754 26.356 111.782 26.692C111.376 26.65 111.054 26.636 110.424 26.636ZM106.924 23.78H104.978V25.306H106.84C106.896 24.676 106.896 24.564 106.924 23.78ZM110.27 23.78H108.38C108.352 24.508 108.338 24.774 108.282 25.306H110.27V23.78ZM100.848 30.038V25.922C100.848 25.488 100.848 25.264 100.89 24.368C100.582 24.914 100.358 25.25 99.91 25.838C99.714 25.166 99.56 24.76 99.266 24.172C100.554 22.772 101.632 20.462 101.884 18.6L103.48 18.978C102.92 20.714 102.836 20.966 102.332 22.086V30.052C102.332 30.654 102.346 31.116 102.402 31.676H100.764C100.82 31.144 100.848 30.724 100.848 30.038ZM114.498 20.21H116.416C116.346 20.728 116.304 21.414 116.304 22.338C116.304 23.556 116.416 25.236 116.57 26.09C116.808 27.546 117.256 28.442 117.704 28.442C117.914 28.442 118.11 28.232 118.278 27.84C118.614 27.084 118.866 26.244 119.02 25.306C119.51 25.866 119.734 26.076 120.42 26.58C119.692 29.31 118.88 30.444 117.69 30.444C116.752 30.444 115.996 29.758 115.436 28.414C114.862 27.014 114.61 24.984 114.554 21.106C114.54 20.616 114.54 20.518 114.498 20.21ZM121.568 21.54L123.038 20.84C124.802 22.954 125.782 25.292 126.188 28.372L124.452 29.03C124.368 27.714 124.046 26.258 123.556 24.984C123.08 23.71 122.408 22.576 121.568 21.54ZM128.302 22.828L128.33 21.204C128.834 21.288 129.394 21.33 130.206 21.33C130.374 21.33 130.528 21.33 130.85 21.316C130.976 20.644 131.116 19.566 131.116 19.174C131.116 19.118 131.116 19.034 131.102 18.922L132.95 19.09C132.852 19.412 132.852 19.412 132.684 20.434C132.614 20.826 132.6 20.91 132.544 21.232C133.58 21.134 134.238 21.022 134.938 20.812L135.008 22.422C134.896 22.436 134.896 22.436 134.56 22.492C133.846 22.632 132.726 22.772 132.264 22.786C132.11 23.654 131.76 25.138 131.396 26.412C130.99 27.868 130.752 28.568 129.828 31.046L128.064 30.36C129.03 28.582 130.108 25.32 130.57 22.828C130.472 22.842 130.416 22.842 130.388 22.842H129.576C129.506 22.842 129.366 22.842 129.128 22.828C128.876 22.814 128.68 22.814 128.568 22.814C128.498 22.814 128.428 22.814 128.302 22.828ZM139.404 23.136L139.432 24.802C138.76 24.732 138.368 24.704 137.668 24.704C136.282 24.704 135.358 24.802 133.972 25.11L133.846 23.57C135.834 23.192 136.506 23.122 138.018 23.122C138.396 23.122 138.522 23.122 139.404 23.136ZM133.888 26.076L135.274 26.636C134.714 27.336 134.546 27.686 134.546 28.176C134.546 28.89 135.246 29.254 136.646 29.254C137.668 29.254 139.012 29.03 139.824 28.736L139.95 30.458C139.698 30.486 139.586 30.5 139.264 30.556C138.102 30.724 137.486 30.78 136.66 30.78C135.414 30.78 134.518 30.598 133.846 30.22C133.244 29.87 132.852 29.198 132.852 28.498C132.852 27.756 133.118 27.126 133.888 26.076ZM149.61 18.88L151.22 20.112C150.982 20.28 150.716 20.518 149.498 21.652C148.784 22.31 147.804 23.094 146.166 24.34C145.732 24.662 145.634 24.774 145.634 24.928C145.634 25.138 145.662 25.166 146.894 26.09C149.078 27.742 149.484 28.092 151.304 29.744C151.444 29.884 151.528 29.954 151.71 30.094L150.268 31.55C149.904 31.046 149.4 30.514 148.448 29.632C147.454 28.708 146.992 28.33 144.836 26.65C143.912 25.936 143.66 25.558 143.66 24.914C143.66 24.494 143.814 24.116 144.122 23.78C144.304 23.584 144.318 23.57 145.354 22.772C146.866 21.624 147.65 20.952 148.588 20.042C149.218 19.412 149.372 19.23 149.61 18.88ZM159.27 18.894L161.062 19.076C160.978 19.342 160.978 19.342 160.838 20.014C160.768 20.35 160.698 20.63 160.544 21.246C161.51 21.148 162.238 21.022 162.784 20.854L162.826 22.464C162.672 22.478 162.644 22.478 162.378 22.534C161.874 22.618 161.02 22.716 160.152 22.786C159.746 24.186 159.242 25.516 158.612 26.846C158.29 27.532 158.164 27.784 157.632 28.764C157.45 29.1 157.45 29.1 157.366 29.268L155.756 28.372C156.246 27.728 156.638 27.098 157.114 26.132C157.66 25.012 157.898 24.438 158.43 22.828C157.8 22.842 157.716 22.842 157.548 22.842C157.366 22.842 157.282 22.842 156.988 22.828L156.246 22.814V21.218C156.75 21.316 157.282 21.344 158.136 21.344C158.304 21.344 158.542 21.344 158.85 21.33C159.088 20.336 159.242 19.496 159.27 18.894ZM168.23 22.534L167.474 23.976C166.256 23.164 165.01 22.562 163.442 22.016L164.282 20.658C165.934 21.288 166.984 21.778 168.23 22.534ZM168.174 28.848L167.404 30.416C166.9 29.814 166.088 29.156 165.262 28.68C165.276 28.806 165.29 28.904 165.29 28.96C165.29 29.478 165.052 30.08 164.688 30.444C164.198 30.948 163.358 31.228 162.364 31.228C160.516 31.228 159.312 30.304 159.312 28.876C159.312 27.462 160.558 26.468 162.336 26.468C162.756 26.468 163.05 26.496 163.638 26.594C163.596 25.95 163.568 25.404 163.568 24.984C163.568 24.438 163.596 24.032 163.68 23.57L165.304 23.654C165.164 24.172 165.136 24.494 165.136 25.068C165.136 25.628 165.164 26.188 165.262 26.986C166.27 27.434 166.41 27.504 167.474 28.274C167.684 28.414 167.74 28.47 167.964 28.652C168.076 28.764 168.076 28.764 168.174 28.848ZM163.694 28.078C163.204 27.91 162.868 27.854 162.434 27.854C161.524 27.854 160.936 28.232 160.936 28.82C160.936 29.394 161.44 29.73 162.308 29.73C163.26 29.73 163.722 29.338 163.722 28.554C163.722 28.414 163.694 28.078 163.694 28.078ZM170.498 20.21H172.416C172.346 20.728 172.304 21.414 172.304 22.338C172.304 23.556 172.416 25.236 172.57 26.09C172.808 27.546 173.256 28.442 173.704 28.442C173.914 28.442 174.11 28.232 174.278 27.84C174.614 27.084 174.866 26.244 175.02 25.306C175.51 25.866 175.734 26.076 176.42 26.58C175.692 29.31 174.88 30.444 173.69 30.444C172.752 30.444 171.996 29.758 171.436 28.414C170.862 27.014 170.61 24.984 170.554 21.106C170.54 20.616 170.54 20.518 170.498 20.21ZM177.568 21.54L179.038 20.84C180.802 22.954 181.782 25.292 182.188 28.372L180.452 29.03C180.368 27.714 180.046 26.258 179.556 24.984C179.08 23.71 178.408 22.576 177.568 21.54ZM185.94 26.86C187.256 26.86 188.306 27.924 188.306 29.226C188.306 30.542 187.242 31.606 185.94 31.606C184.638 31.606 183.574 30.542 183.574 29.226C183.574 27.924 184.638 26.86 185.94 26.86ZM185.94 27.952C185.24 27.952 184.666 28.526 184.666 29.226C184.666 29.94 185.24 30.514 185.94 30.514C186.64 30.514 187.214 29.94 187.214 29.226C187.214 28.526 186.64 27.952 185.94 27.952ZM199.94 26.86C201.256 26.86 202.306 27.924 202.306 29.226C202.306 30.542 201.242 31.606 199.94 31.606C198.638 31.606 197.574 30.542 197.574 29.226C197.574 27.924 198.638 26.86 199.94 26.86ZM199.94 27.952C199.24 27.952 198.666 28.526 198.666 29.226C198.666 29.94 199.24 30.514 199.94 30.514C200.64 30.514 201.214 29.94 201.214 29.226C201.214 28.526 200.64 27.952 199.94 27.952Z" fill="#0054AC"/>
</svg>
