<svg width="302" height="58" viewBox="0 0 302 58" fill="none" xmlns="http://www.w3.org/2000/svg">
<g filter="url(#filter0_d_30_7778)">
<rect x="4" width="294" height="50" rx="19" fill="white"/>
<path d="M20.456 15.506L20.61 13.896C21.254 14.148 21.646 14.232 23.074 14.428C23.13 13.924 23.256 12.986 23.326 12.468C22.5 12.356 22.276 12.328 21.324 12.118C21.128 12.076 21.058 12.062 20.848 12.02L20.988 10.48C21.576 10.704 22.57 10.9 23.522 10.984C23.718 9.808 23.802 9.08 23.802 8.66C23.802 8.618 23.802 8.59 23.788 8.52L25.65 8.688C25.496 9.122 25.454 9.332 25.202 11.054C26.784 11.026 27.596 10.956 28.394 10.76L28.338 12.398C28.156 12.412 28.086 12.426 27.778 12.454C26.77 12.538 26.322 12.566 25.818 12.566C25.678 12.566 25.552 12.566 24.95 12.552C24.81 13.574 24.768 13.854 24.684 14.526C25.104 14.54 25.216 14.54 25.37 14.54C26.364 14.54 27.372 14.442 28.044 14.26L28.002 15.87C27.862 15.87 27.82 15.87 27.582 15.912C26.966 15.982 26.14 16.038 25.482 16.038C25.258 16.038 25.132 16.038 24.586 16.01C24.544 16.388 24.516 16.752 24.516 17.004C24.516 17.69 24.67 18.124 25.034 18.446C25.44 18.796 26 18.964 26.77 18.964C28.548 18.964 29.57 18.18 29.57 16.808C29.57 15.996 29.15 15.212 28.31 14.442C29.094 14.386 29.388 14.33 30.046 14.092C30.396 14.498 30.55 14.708 30.704 14.974C31.068 15.59 31.306 16.388 31.306 17.032C31.306 18.026 30.816 18.992 29.962 19.65C29.164 20.266 28.114 20.574 26.798 20.574C24.25 20.574 22.864 19.356 22.864 17.102C22.864 16.738 22.878 16.388 22.934 15.912C22.094 15.8 21.548 15.716 20.988 15.59C20.694 15.52 20.652 15.52 20.456 15.506ZM37.018 9.99L37.83 8.576C38.796 9.108 41.47 9.906 43.052 10.13L42.478 11.74C40.084 11.194 38.614 10.732 37.018 9.99ZM35.898 11.222L37.648 11.32C37.438 12.09 37.2 13.392 37.018 14.764C36.99 14.96 36.99 14.96 36.948 15.17L36.976 15.198C37.788 14.414 39.524 13.868 41.218 13.868C43.598 13.868 45.166 15.044 45.166 16.836C45.166 17.858 44.62 18.894 43.724 19.538C42.814 20.196 41.652 20.49 40.028 20.49C38.824 20.49 38.054 20.392 36.458 20C36.444 19.132 36.416 18.852 36.248 18.194C37.62 18.67 38.824 18.894 40.014 18.894C41.988 18.894 43.36 18.068 43.36 16.878C43.36 15.94 42.478 15.38 40.994 15.38C39.748 15.38 38.446 15.758 37.508 16.402C37.256 16.584 37.172 16.668 36.878 17.004L35.114 16.948C35.156 16.696 35.156 16.64 35.226 16.108C35.338 15.24 35.562 13.686 35.814 12.034C35.87 11.698 35.884 11.53 35.898 11.222ZM49.366 15.31L49.016 13.63C49.408 13.602 49.408 13.602 50.472 13.364C52.376 12.944 53.636 12.776 54.798 12.776C56.394 12.776 57.472 13.238 58.102 14.204C58.452 14.736 58.62 15.324 58.62 16.01C58.62 17.872 57.304 19.384 55.078 20.084C54.21 20.35 53.86 20.406 52.04 20.616C51.9 19.916 51.788 19.65 51.438 19.02C51.536 19.02 51.592 19.02 51.648 19.02C52.166 19.02 52.95 18.936 53.636 18.81C54.728 18.6 55.344 18.348 55.974 17.858C56.646 17.354 56.968 16.738 56.968 15.968C56.968 14.876 56.156 14.288 54.672 14.288C53.706 14.288 52.628 14.442 50.99 14.834C50.094 15.044 49.842 15.114 49.366 15.31ZM61.2196 12.09L61.1216 10.27C61.4296 10.284 61.5836 10.284 61.6536 10.284C61.9056 10.284 61.9056 10.284 63.9636 10.144C64.7476 10.102 67.0716 9.976 70.9496 9.794C72.0976 9.738 72.3076 9.724 72.5596 9.654L72.6576 11.446C72.5036 11.432 72.5036 11.432 72.3636 11.432C71.5236 11.432 70.4876 11.712 69.5916 12.188C67.8136 13.112 66.7636 14.512 66.7636 15.926C66.7636 17.018 67.4496 17.858 68.6256 18.208C69.3116 18.418 70.2076 18.572 70.7116 18.572C70.7256 18.572 70.8516 18.572 70.9916 18.558L70.7396 20.462C70.5716 20.42 70.5016 20.406 70.2636 20.378C68.7236 20.182 67.8416 19.93 66.9876 19.454C65.6996 18.726 64.9856 17.536 64.9856 16.08C64.9856 14.89 65.4616 13.714 66.3156 12.776C66.8476 12.202 67.3516 11.838 68.2616 11.376C67.1276 11.544 66.5816 11.586 63.5436 11.81C62.6056 11.88 61.7656 11.978 61.2196 12.09ZM75.5136 9.71H77.4316C77.3616 10.228 77.3196 10.914 77.3196 11.838C77.3196 13.056 77.4316 14.736 77.5856 15.59C77.8236 17.046 78.2716 17.942 78.7196 17.942C78.9296 17.942 79.1256 17.732 79.2936 17.34C79.6296 16.584 79.8816 15.744 80.0356 14.806C80.5256 15.366 80.7496 15.576 81.4356 16.08C80.7076 18.81 79.8956 19.944 78.7056 19.944C77.7676 19.944 77.0116 19.258 76.4516 17.914C75.8776 16.514 75.6256 14.484 75.5696 10.606C75.5556 10.116 75.5556 10.018 75.5136 9.71ZM82.5836 11.04L84.0536 10.34C85.8176 12.454 86.7976 14.792 87.2036 17.872L85.4676 18.53C85.3836 17.214 85.0616 15.758 84.5716 14.484C84.0956 13.21 83.4236 12.076 82.5836 11.04ZM93.5316 14.19L93.5596 14.218C94.8336 13.714 95.4496 13.574 96.4996 13.574C98.8936 13.574 100.434 14.806 100.434 16.724C100.434 18.054 99.7756 19.118 98.5296 19.818C97.6196 20.336 96.4296 20.616 95.1416 20.616C93.9656 20.616 92.9856 20.392 92.4256 19.972C91.8936 19.58 91.5856 18.992 91.5856 18.362C91.5856 17.2 92.5936 16.36 93.9936 16.36C94.9736 16.36 95.8276 16.766 96.4156 17.508C96.6956 17.858 96.8496 18.166 97.0596 18.768C98.2216 18.334 98.7256 17.732 98.7256 16.738C98.7256 15.646 97.6476 14.932 95.9536 14.932C93.9096 14.932 91.8656 15.758 90.1856 17.284L89.2336 15.772C89.7236 15.534 90.2836 15.156 91.2076 14.456C92.5096 13.462 94.3296 11.894 95.3936 10.816C95.4216 10.788 95.5616 10.648 95.6456 10.564L95.6316 10.55C95.0996 10.62 94.2036 10.676 91.6696 10.788C91.3616 10.802 91.2636 10.816 90.9976 10.858L90.9276 9.178C91.4036 9.234 91.8096 9.262 92.5796 9.262C93.7696 9.262 95.4776 9.192 96.8356 9.094C97.3256 9.052 97.4796 9.024 97.7036 8.912L98.5716 10.144C98.3336 10.27 98.2356 10.354 97.8436 10.718C97.1436 11.362 96.1216 12.272 95.6456 12.678C95.3936 12.888 94.3856 13.644 94.1056 13.826C93.7556 14.064 93.7556 14.064 93.5316 14.19ZM95.5476 19.174C95.2956 18.208 94.7636 17.704 93.9796 17.704C93.4756 17.704 93.1536 17.956 93.1536 18.348C93.1536 18.908 93.7836 19.23 94.8196 19.23C95.0856 19.23 95.1556 19.23 95.5476 19.174ZM105.866 12.622L107.028 11.796C107.938 12.44 107.966 12.454 108.778 13.196C109.758 12.398 110.262 11.88 111.172 10.774H107.49C106.398 11.95 105.264 12.818 103.71 13.686C103.472 13.21 103.234 12.93 102.758 12.51C105.054 11.39 106.902 9.71 107.728 7.988L109.38 8.394C109.016 8.926 108.89 9.094 108.652 9.416H111.522C112.054 9.416 112.39 9.402 112.754 9.346L113.58 10.228C113.412 10.438 113.398 10.452 113.076 10.872C111.858 12.468 110.514 13.756 108.862 14.918H113.398C113.958 14.918 114.238 14.904 114.574 14.862C114.518 15.24 114.504 15.604 114.504 16.15V19.748C114.504 20.308 114.532 20.77 114.588 21.134H112.992V20.378H107.644V21.134H106.02C106.076 20.714 106.104 20.252 106.104 19.748V16.71C105.25 17.186 104.704 17.438 103.444 17.97C103.206 17.368 103.01 17.074 102.548 16.57C103.752 16.178 104.9 15.688 105.908 15.142C106.356 14.89 106.818 14.596 107.574 14.092C106.986 13.476 106.594 13.14 105.866 12.622ZM107.63 16.29V19.048H113.006V16.29H107.63ZM119.81 10.998H118.06C117.444 10.998 117.122 11.012 116.674 11.068V9.556C117.136 9.612 117.542 9.64 118.158 9.64H119.81V9.346C119.81 8.898 119.782 8.59 119.74 8.254H121.322C121.28 8.506 121.252 8.954 121.252 9.332V9.64H122.68C123.31 9.64 123.772 9.612 124.248 9.556V11.068C123.814 11.012 123.422 10.998 122.792 10.998H121.252V12.006H122.806C123.324 12.006 123.688 11.992 124.038 11.95C124.01 12.202 123.996 12.566 123.996 13.056V14.694C123.996 15.408 123.926 15.674 123.702 15.898C123.464 16.136 123.114 16.22 122.358 16.22C122.316 16.22 122.204 16.22 122.092 16.22C122.036 15.632 121.98 15.422 121.812 15.016C122.022 15.03 122.134 15.044 122.288 15.044C122.61 15.044 122.68 15.002 122.68 14.806V13.308H121.252V15.058C121.756 15.912 122.092 16.332 122.722 16.934C123.352 17.522 123.758 17.844 124.514 18.32C124.108 18.81 123.94 19.076 123.646 19.594C122.498 18.712 121.98 18.166 121.196 17.046C121.224 17.242 121.238 17.634 121.238 18.138V19.888C121.238 20.42 121.252 20.77 121.308 21.148H119.726C119.782 20.812 119.81 20.378 119.81 19.818V18.236C119.81 17.788 119.824 17.41 119.838 17.228C118.998 18.614 118.466 19.216 117.234 20.168C116.968 19.664 116.786 19.37 116.38 18.894C117.374 18.18 117.822 17.774 118.466 17.004C119.138 16.206 119.432 15.758 119.81 14.988V13.308H118.494V15.212C118.494 15.688 118.508 15.982 118.536 16.304H117.052C117.094 15.898 117.122 15.548 117.122 14.932V13.252C117.122 12.706 117.108 12.328 117.066 11.95C117.514 11.992 117.836 12.006 118.382 12.006H119.81V10.998ZM124.752 9.318H126.348C126.292 9.682 126.278 10.06 126.278 10.774V16.318C126.278 17.158 126.292 17.424 126.334 17.802H124.752C124.808 17.382 124.822 17.102 124.822 16.304V10.802C124.822 10.116 124.794 9.71 124.752 9.318ZM127.468 8.338H129.106C129.036 8.73 129.022 9.178 129.022 10.032V19.286C129.022 20.098 128.91 20.42 128.56 20.672C128.266 20.896 127.818 20.966 126.852 20.966C126.614 20.966 126.04 20.952 125.536 20.924C125.452 20.322 125.368 20.042 125.13 19.454C125.746 19.524 126.432 19.58 126.81 19.58C127.426 19.58 127.552 19.51 127.552 19.146V10.074C127.552 9.234 127.524 8.786 127.468 8.338ZM139.998 12.3L141.412 11.6C142.378 12.93 143.106 14.442 143.512 16.052L141.916 16.85C141.636 15.38 140.768 13.322 139.998 12.3ZM135.882 9.22L135.854 9.402C135.784 9.808 135.686 10.382 135.546 11.138C135.504 11.376 135.504 11.376 135.462 11.558C135.882 11.544 136.078 11.53 136.33 11.53C137.254 11.53 137.94 11.782 138.402 12.272C138.878 12.804 139.06 13.476 139.06 14.75C139.06 17.158 138.654 19.076 137.982 19.846C137.59 20.308 137.17 20.476 136.428 20.476C135.784 20.476 135.21 20.364 134.272 20.056C134.286 19.79 134.3 19.58 134.3 19.44C134.3 19.076 134.272 18.796 134.16 18.25C134.916 18.586 135.714 18.81 136.204 18.81C136.61 18.81 136.834 18.544 137.044 17.858C137.268 17.13 137.408 15.856 137.408 14.666C137.408 13.378 137.086 13 136.008 13C135.714 13 135.49 13.014 135.168 13.042C134.482 15.912 133.852 17.606 132.312 20.658L130.688 19.762C131.766 18.292 132.844 15.772 133.502 13.168C133.292 13.196 133.292 13.196 132.844 13.28L131.57 13.49C131.346 13.532 131.192 13.574 130.996 13.63L130.828 11.978C131.458 11.964 132.186 11.894 133.81 11.684C134.076 10.13 134.174 9.332 134.174 8.856C134.174 8.8 134.174 8.716 134.174 8.604L135.994 8.786C135.952 8.898 135.91 9.08 135.882 9.22ZM139.13 9.318L140.11 8.828C140.726 9.486 141.104 10.018 141.58 10.886L140.6 11.404C140.138 10.55 139.746 9.99 139.13 9.318ZM143.246 9.976L142.28 10.522C141.86 9.752 141.398 9.094 140.852 8.492L141.79 8.002C142.42 8.646 142.812 9.178 143.246 9.976ZM148.16 12.006L149.252 11.236C149.896 11.628 150.204 11.852 150.792 12.286C151.87 11.516 152.374 11.096 153.06 10.354H149.812C148.594 11.46 147.46 12.188 145.878 12.888C145.654 12.44 145.388 12.118 144.954 11.726C146.522 11.11 147.754 10.368 148.748 9.444C149.406 8.828 149.756 8.422 149.994 7.988L151.716 8.296C151.352 8.73 151.282 8.8 150.988 9.136H153.438C153.984 9.136 154.348 9.108 154.684 9.066L155.412 9.836C154.6 10.788 154.194 11.222 153.606 11.768C151.282 13.924 148.93 15.226 145.724 16.108C145.542 15.59 145.318 15.198 144.94 14.764C146.858 14.33 148.314 13.798 149.602 13.042C149.182 12.678 148.776 12.384 148.16 12.006ZM155.132 15.534H151.912C150.89 16.318 150.47 16.584 149.616 17.032C148.664 17.522 148.02 17.788 146.984 18.11C146.69 17.466 146.564 17.256 146.172 16.836C148.874 16.178 151.52 14.582 152.514 12.972L153.998 13.448C153.634 13.882 153.564 13.966 153.256 14.316H155.286C155.832 14.316 156.182 14.302 156.518 14.246L157.344 15.086C157.162 15.31 157.134 15.338 156.868 15.716C155.552 17.522 154.194 18.642 152.01 19.692C150.33 20.504 148.986 20.91 146.564 21.316C146.298 20.63 146.2 20.462 145.724 19.888C148.23 19.65 149.966 19.188 151.576 18.334C151.03 17.816 150.694 17.578 150.008 17.172L151.24 16.402C151.94 16.878 152.234 17.102 152.836 17.592C153.648 17.06 154.18 16.598 155.132 15.534ZM166.626 8.38L168.236 9.612C167.998 9.78 167.732 10.018 166.514 11.152C165.8 11.81 164.82 12.594 163.182 13.84C162.748 14.162 162.65 14.274 162.65 14.428C162.65 14.638 162.678 14.666 163.91 15.59C166.094 17.242 166.5 17.592 168.32 19.244C168.46 19.384 168.544 19.454 168.726 19.594L167.284 21.05C166.92 20.546 166.416 20.014 165.464 19.132C164.47 18.208 164.008 17.83 161.852 16.15C160.928 15.436 160.676 15.058 160.676 14.414C160.676 13.994 160.83 13.616 161.138 13.28C161.32 13.084 161.334 13.07 162.37 12.272C163.882 11.124 164.666 10.452 165.604 9.542C166.234 8.912 166.388 8.73 166.626 8.38ZM173.22 12.09L173.122 10.27C173.43 10.284 173.584 10.284 173.654 10.284C173.906 10.284 173.906 10.284 175.964 10.144C176.748 10.102 179.072 9.976 182.95 9.794C184.098 9.738 184.308 9.724 184.56 9.654L184.658 11.446C184.504 11.432 184.504 11.432 184.364 11.432C183.524 11.432 182.488 11.712 181.592 12.188C179.814 13.112 178.764 14.512 178.764 15.926C178.764 17.018 179.45 17.858 180.626 18.208C181.312 18.418 182.208 18.572 182.712 18.572C182.726 18.572 182.852 18.572 182.992 18.558L182.74 20.462C182.572 20.42 182.502 20.406 182.264 20.378C180.724 20.182 179.842 19.93 178.988 19.454C177.7 18.726 176.986 17.536 176.986 16.08C176.986 14.89 177.462 13.714 178.316 12.776C178.848 12.202 179.352 11.838 180.262 11.376C179.128 11.544 178.582 11.586 175.544 11.81C174.606 11.88 173.766 11.978 173.22 12.09ZM189.638 8.926L191.458 8.646C191.458 9.318 192.004 11.894 192.382 13.028C193.25 12.692 193.782 12.51 195.546 11.95C196.288 11.712 196.288 11.712 196.54 11.586L197.142 13.35C195.924 13.588 194.09 14.106 192.522 14.694C190.478 15.45 189.456 16.332 189.456 17.34C189.456 18.362 190.408 18.796 192.662 18.796C194.412 18.796 196.134 18.586 197.184 18.236L197.338 20.14C197.044 20.154 196.946 20.168 196.204 20.238C194.692 20.392 193.908 20.448 192.928 20.448C190.982 20.448 189.764 20.21 188.868 19.678C188.098 19.216 187.65 18.362 187.65 17.34C187.65 16.416 188.098 15.52 188.896 14.834C189.442 14.386 189.89 14.092 190.8 13.644C190.478 12.622 190.212 11.586 189.862 9.85C189.708 9.15 189.708 9.136 189.638 8.926ZM195.126 9.136L196.106 8.646C196.722 9.304 197.1 9.836 197.576 10.704L196.596 11.222C196.134 10.368 195.742 9.808 195.126 9.136ZM199.242 9.794L198.276 10.34C197.856 9.57 197.394 8.912 196.848 8.31L197.786 7.82C198.416 8.464 198.808 8.996 199.242 9.794ZM203.106 10.214L203.652 8.562C205.206 9.08 207.278 9.374 209.49 9.374C209.56 9.374 209.714 9.374 209.882 9.374L209.644 11.096C207.096 10.984 205.164 10.732 203.106 10.214ZM201.874 14.89L201.468 13.028C201.832 13.014 201.832 13.014 203.092 12.79C205.08 12.44 206.298 12.314 207.488 12.314C208.622 12.314 209.49 12.496 210.134 12.888C211.002 13.406 211.492 14.344 211.492 15.45C211.492 17.046 210.526 18.502 208.832 19.468C207.684 20.126 206.704 20.42 204.422 20.784C204.282 20.042 204.128 19.692 203.694 19.034C205.318 18.964 206.83 18.572 207.908 17.97C209.014 17.354 209.616 16.472 209.616 15.506C209.616 14.456 208.874 13.924 207.418 13.924C205.836 13.924 203.036 14.414 201.874 14.89ZM218.464 11.614L219.822 11.236C220.214 11.138 220.452 11.082 221.012 10.97C221.012 10.69 221.012 10.69 220.998 10.2C220.984 8.982 220.984 8.884 220.914 8.52H222.678C222.622 8.954 222.622 8.954 222.608 10.76C222.944 10.732 223.14 10.718 223.42 10.718C225.394 10.718 226.696 11.852 226.696 13.574C226.696 14.512 226.276 15.422 225.562 16.01C224.904 16.556 224.036 16.836 222.972 16.836C222.286 16.836 221.544 16.696 220.802 16.444C220.788 15.772 220.746 15.506 220.55 14.722C221.39 15.1 222.076 15.268 222.79 15.268C223.392 15.268 223.938 15.1 224.372 14.806C224.736 14.54 224.946 14.106 224.946 13.616C224.946 12.734 224.26 12.216 223.084 12.216C222.09 12.216 221.25 12.384 218.884 13.084C219.752 16.122 219.822 16.388 220.662 19.888C220.732 20.182 220.76 20.28 220.872 20.56L219.024 20.98C218.954 19.86 218.184 16.542 217.316 13.532C217.134 13.616 217.106 13.616 216.616 13.784C216.112 13.938 215.174 14.316 214.81 14.498L214.264 12.86C214.67 12.776 214.852 12.734 215.538 12.496C216.112 12.3 216.224 12.272 216.896 12.062C216.476 10.69 216.21 9.948 215.944 9.458L217.68 8.968C217.764 9.416 217.764 9.416 218.17 10.62C218.282 10.97 218.338 11.152 218.464 11.614ZM229.958 15.31L229.608 13.63C230 13.602 230 13.602 231.064 13.364C232.968 12.944 234.228 12.776 235.39 12.776C236.986 12.776 238.064 13.238 238.694 14.204C239.044 14.736 239.212 15.324 239.212 16.01C239.212 17.872 237.896 19.384 235.67 20.084C234.802 20.35 234.452 20.406 232.632 20.616C232.492 19.916 232.38 19.65 232.03 19.02C232.128 19.02 232.184 19.02 232.24 19.02C232.758 19.02 233.542 18.936 234.228 18.81C235.32 18.6 235.936 18.348 236.566 17.858C237.238 17.354 237.56 16.738 237.56 15.968C237.56 14.876 236.748 14.288 235.264 14.288C234.298 14.288 233.22 14.442 231.582 14.834C230.686 15.044 230.434 15.114 229.958 15.31ZM241.811 12.09L241.713 10.27C242.021 10.284 242.175 10.284 242.245 10.284C242.497 10.284 242.497 10.284 244.555 10.144C245.339 10.102 247.663 9.976 251.541 9.794C252.689 9.738 252.899 9.724 253.151 9.654L253.249 11.446C253.095 11.432 253.095 11.432 252.955 11.432C252.115 11.432 251.079 11.712 250.183 12.188C248.405 13.112 247.355 14.512 247.355 15.926C247.355 17.018 248.041 17.858 249.217 18.208C249.903 18.418 250.799 18.572 251.303 18.572C251.317 18.572 251.443 18.572 251.583 18.558L251.331 20.462C251.163 20.42 251.093 20.406 250.855 20.378C249.315 20.182 248.433 19.93 247.579 19.454C246.291 18.726 245.577 17.536 245.577 16.08C245.577 14.89 246.053 13.714 246.907 12.776C247.439 12.202 247.943 11.838 248.853 11.376C247.719 11.544 247.173 11.586 244.135 11.81C243.197 11.88 242.357 11.978 241.811 12.09ZM258.289 10.368H257.533C257.085 10.928 256.805 11.208 256.175 11.726C255.797 11.222 255.713 11.138 255.153 10.69C256.203 9.962 256.945 9.052 257.281 8.072L258.779 8.352C258.583 8.73 258.527 8.856 258.359 9.122H260.277C260.907 9.122 261.201 9.108 261.523 9.052V10.144C262.153 9.5 262.545 8.842 262.741 8.086L264.239 8.324C264.015 8.814 263.987 8.87 263.861 9.136H266.619C267.305 9.136 267.585 9.122 267.991 9.066V10.438C267.613 10.396 267.305 10.382 266.689 10.382H265.387C265.695 10.886 265.737 10.956 265.919 11.334L264.533 11.74C264.337 11.208 264.183 10.9 263.875 10.382H263.091C262.825 10.746 262.685 10.9 262.237 11.362V11.642L262.223 11.866H266.157C266.955 11.866 267.207 11.852 267.669 11.824C267.627 12.076 267.627 12.244 267.627 12.692V13.672C267.627 14.092 267.641 14.33 267.683 14.596H266.171V13.07H257.141V14.596H255.657C255.685 14.316 255.713 14.064 255.713 13.672V12.72C255.713 12.3 255.699 12.09 255.657 11.824C256.077 11.852 256.315 11.866 257.127 11.866H260.753V11.642C260.753 11.334 260.753 11.18 260.711 10.97H261.677C261.383 10.746 261.313 10.69 261.033 10.536L261.243 10.382C261.005 10.368 260.851 10.368 260.613 10.368H259.689C259.913 10.76 259.997 10.942 260.165 11.292L258.807 11.754C258.653 11.166 258.527 10.844 258.289 10.368ZM259.031 21.148H257.477C257.533 20.658 257.561 20.238 257.561 19.594V14.554C257.561 14.148 257.547 13.896 257.505 13.63C257.841 13.672 258.205 13.686 258.681 13.686H264.393C264.911 13.686 265.261 13.672 265.597 13.63C265.555 13.924 265.555 14.19 265.555 14.582V15.632C265.555 16.15 265.555 16.388 265.597 16.724C265.247 16.696 264.925 16.682 264.449 16.682H259.031V17.354H265.037C265.555 17.354 265.863 17.34 266.185 17.298C266.143 17.648 266.129 17.998 266.129 18.46V19.874C266.129 20.35 266.143 20.742 266.199 21.148H264.659V20.546H259.031V21.148ZM259.031 14.834V15.576H264.099V14.834H259.031ZM259.031 18.474V19.384H264.659V18.474H259.031ZM277.007 19.342V17.9H275.453C274.655 17.9 274.361 17.914 273.997 17.956V16.528C274.347 16.584 274.627 16.598 275.439 16.598H277.007V15.45H275.677C274.739 15.45 274.417 15.464 273.997 15.492C274.025 15.17 274.025 15.17 274.053 13.756V10.592C274.053 9.64 274.039 9.178 273.983 8.716C274.515 8.772 274.963 8.786 275.873 8.786H279.737C280.773 8.786 281.193 8.772 281.543 8.716C281.501 9.122 281.487 9.78 281.487 10.634V13.616C281.487 14.596 281.501 15.086 281.543 15.492C281.081 15.45 280.857 15.45 280.017 15.45H278.407V16.598H280.199C280.969 16.598 281.277 16.584 281.683 16.528V17.97C281.277 17.914 280.927 17.9 280.213 17.9H278.407V19.342H280.661C281.403 19.342 281.767 19.328 282.145 19.272V20.77C281.697 20.714 281.319 20.7 280.563 20.7H274.669C273.927 20.7 273.563 20.714 273.087 20.77V19.272C273.465 19.328 273.773 19.342 274.501 19.342H277.007ZM277.007 10.144H275.453V11.544H277.007V10.144ZM278.407 10.144V11.544H280.031V10.144H278.407ZM277.007 12.72H275.453V14.134H277.007V12.72ZM278.407 12.72V14.134H280.031V12.72H278.407ZM270.777 10.284H270.245C269.797 10.284 269.545 10.298 269.195 10.354V8.842C269.531 8.898 269.895 8.926 270.469 8.926H272.443C273.003 8.926 273.339 8.912 273.689 8.842V10.34C273.339 10.298 273.045 10.284 272.653 10.284H272.233V13.014H272.555C272.919 13.014 273.129 13 273.437 12.944V14.372C273.157 14.33 272.877 14.316 272.555 14.316H272.233V17.074C272.821 16.822 272.989 16.752 273.605 16.444L273.647 17.928C272.429 18.53 271.883 18.768 269.713 19.65C269.643 19.678 269.573 19.706 269.433 19.762L269.055 18.18C269.531 18.082 269.825 17.984 270.777 17.648V14.316H270.315C269.909 14.316 269.685 14.33 269.363 14.386V12.944C269.699 13 269.909 13.014 270.343 13.014H270.777V10.284ZM28.03 33.552L28.016 34.756C28.016 34.812 28.03 34.924 28.03 35.092C28.338 35.736 28.478 36.31 28.478 37.066C28.478 38.592 27.75 39.908 26.392 40.846C25.804 41.252 25.16 41.546 23.858 41.994C23.466 41.126 23.326 40.916 22.864 40.412C24.012 40.188 24.586 39.992 25.244 39.6C26.196 39.054 26.756 38.34 26.868 37.556C26.462 38.2 25.734 38.55 24.81 38.55C24.166 38.55 23.662 38.396 23.186 38.046C22.528 37.57 22.22 36.954 22.22 36.156C22.22 34.672 23.382 33.608 25.006 33.608C25.608 33.608 26.14 33.762 26.462 34.028C26.448 33.958 26.448 33.958 26.448 33.86C26.434 33.832 26.434 33.048 26.434 32.67C24.432 32.726 23.116 32.768 22.5 32.81C20.386 32.964 20.386 32.964 20.008 33.02L19.952 31.354C20.26 31.382 20.386 31.382 20.638 31.382C20.988 31.382 21.212 31.382 23.018 31.312C23.928 31.284 24.068 31.284 25.216 31.256C25.678 31.242 25.678 31.242 26.406 31.214C26.392 29.884 26.392 29.884 26.322 29.52L28.086 29.506C28.03 29.94 28.03 29.968 28.016 31.172C30.452 31.158 31.544 31.13 32.062 31.074L32.076 32.684C31.558 32.642 30.886 32.614 29.724 32.614C29.388 32.614 29.136 32.614 28.03 32.642V33.552ZM26.42 35.862C26.42 35.274 25.93 34.896 25.16 34.896C24.446 34.896 23.858 35.4 23.858 36.016C23.858 36.66 24.348 37.122 25.048 37.122C25.846 37.122 26.42 36.59 26.42 35.862ZM37.634 34.406H37.648C38.054 33.958 38.348 33.706 39.356 32.95C40.574 32.026 41.456 31.634 42.31 31.634C43.486 31.634 44.27 32.376 44.27 33.496C44.27 33.958 44.172 34.56 43.92 35.638C43.444 37.752 43.332 38.34 43.332 38.788C43.332 39.236 43.542 39.488 43.906 39.488C44.214 39.488 44.592 39.208 44.886 38.774C45.222 38.284 45.53 37.682 45.698 37.178C46.006 37.92 46.174 38.214 46.636 38.858C46.216 39.586 46.02 39.852 45.656 40.244C45.04 40.93 44.354 41.252 43.584 41.252C43.122 41.252 42.688 41.112 42.38 40.888C41.876 40.496 41.652 39.978 41.652 39.124C41.652 38.312 41.708 37.934 42.226 35.61C42.436 34.714 42.52 34.168 42.52 33.846C42.52 33.51 42.324 33.328 41.946 33.328C41.498 33.328 40.896 33.594 40.21 34.084C39.188 34.84 38.194 35.722 37.662 36.366C37.634 36.996 37.634 37.388 37.634 37.78C37.634 37.892 37.634 37.892 37.648 39.446C37.662 41.196 37.662 41.238 37.718 41.756H35.912C35.996 41.182 35.996 41.182 36.01 39.53C36.01 38.032 36.01 38.032 36.038 37.654L36.01 37.668C35.884 37.864 35.73 38.046 35.016 38.844C34.708 39.194 34.512 39.432 34.372 39.642L33.56 37.976C33.882 37.752 34.106 37.542 34.47 37.178C35.786 35.876 35.786 35.876 36.052 35.582C36.066 34.91 36.066 34.756 36.094 34.21C36.094 33.888 36.108 33.86 36.108 33.482C34.624 33.58 34.344 33.608 33.966 33.678L33.882 32.096C34.134 32.124 34.26 32.124 34.456 32.124C34.722 32.124 35.492 32.082 36.15 32.04C36.164 31.83 36.164 31.83 36.178 31.508C36.178 31.116 36.192 30.682 36.192 30.36C36.192 29.996 36.192 29.898 36.15 29.576L37.928 29.604C37.886 29.772 37.886 29.8 37.872 30.122C37.872 30.192 37.858 30.374 37.83 30.654C37.816 30.934 37.802 31.046 37.774 31.9C37.788 31.9 37.844 31.872 37.942 31.844L38.46 32.432C38.32 32.544 38.264 32.6 38.054 32.852C37.984 32.922 37.984 32.922 37.858 33.104C37.802 33.188 37.774 33.216 37.69 33.328L37.662 34.154C37.662 34.154 37.648 34.238 37.634 34.406ZM51.858 34.112L51.886 32.516C52.53 32.67 53.258 32.726 54.406 32.726C54.868 32.726 55.19 32.726 55.708 32.712C55.708 32.39 55.708 32.166 55.694 32.054C55.694 31.76 55.694 31.592 55.694 31.508V30.584C55.68 30.248 55.68 30.136 55.652 30.024L57.388 29.996C57.318 30.402 57.29 30.99 57.29 31.928V32.586C58.284 32.474 59.04 32.32 59.6 32.11L59.656 33.692C59.53 33.706 59.502 33.706 59.25 33.762C58.69 33.888 57.976 34 57.304 34.07V34.392C57.318 35.05 57.332 35.456 57.374 36.24L57.416 36.968L57.444 37.542C58.396 37.99 58.914 38.298 59.642 38.816C59.824 38.942 59.908 38.998 60.034 39.068L59.376 40.748C58.984 40.314 58.634 40.048 57.43 39.278C57.444 39.376 57.444 39.39 57.444 39.488C57.444 39.782 57.402 40.062 57.332 40.272C57.01 41.084 56.03 41.574 54.672 41.574C52.824 41.574 51.704 40.706 51.704 39.278C51.704 37.934 52.908 36.982 54.588 36.982C55.106 36.982 55.484 37.038 55.834 37.164C55.806 36.688 55.778 35.694 55.736 34.182C55.176 34.21 54.854 34.21 54.49 34.21C53.958 34.21 53.398 34.196 52.74 34.154C52.53 34.14 52.39 34.14 52.32 34.126C52.194 34.126 52.11 34.126 52.068 34.126C51.998 34.112 51.956 34.112 51.942 34.112C51.928 34.112 51.886 34.112 51.858 34.112ZM55.862 38.592C55.414 38.438 55.134 38.382 54.714 38.382C53.818 38.382 53.258 38.732 53.258 39.292C53.258 39.824 53.762 40.16 54.546 40.16C55.078 40.16 55.484 40.006 55.694 39.74C55.82 39.572 55.876 39.362 55.876 38.97C55.876 38.816 55.876 38.592 55.862 38.592ZM50.388 41.574L48.708 41.686C48.708 41.546 48.694 41.448 48.638 41.14C48.372 39.488 48.26 38.144 48.26 36.674C48.26 35.414 48.344 34.182 48.526 32.978C48.596 32.544 48.596 32.544 48.904 30.962C49.002 30.472 49.058 30.066 49.058 29.926C49.058 29.926 49.058 29.898 49.058 29.884L50.948 30.066C50.388 31.284 49.8 34.924 49.828 37.108C49.814 37.458 49.814 37.654 49.814 37.654V37.822C49.814 37.976 49.8 38.13 49.8 38.34H49.814L49.884 38.2L50.038 37.794C50.248 37.234 50.262 37.192 50.416 36.842C50.444 36.772 50.5 36.646 50.584 36.408L51.746 36.912C50.92 38.55 50.36 40.272 50.36 41.21C50.36 41.308 50.36 41.364 50.388 41.574ZM57.43 29.492L58.354 29.17C58.774 29.856 59.082 30.528 59.32 31.354L58.382 31.69C58.116 30.794 57.822 30.108 57.43 29.492ZM60.958 30.822L60.076 31.186C59.852 30.43 59.502 29.646 59.138 29.044L60.006 28.722C60.384 29.31 60.678 29.968 60.958 30.822ZM62.498 30.71H64.416C64.346 31.228 64.304 31.914 64.304 32.838C64.304 34.056 64.416 35.736 64.57 36.59C64.808 38.046 65.256 38.942 65.704 38.942C65.914 38.942 66.11 38.732 66.278 38.34C66.614 37.584 66.866 36.744 67.02 35.806C67.51 36.366 67.734 36.576 68.42 37.08C67.692 39.81 66.88 40.944 65.69 40.944C64.752 40.944 63.996 40.258 63.436 38.914C62.862 37.514 62.61 35.484 62.554 31.606C62.54 31.116 62.54 31.018 62.498 30.71ZM69.568 32.04L71.038 31.34C72.802 33.454 73.782 35.792 74.188 38.872L72.452 39.53C72.368 38.214 72.046 36.758 71.556 35.484C71.08 34.21 70.408 33.076 69.568 32.04ZM76.498 30.71H78.416C78.346 31.228 78.304 31.914 78.304 32.838C78.304 34.056 78.416 35.736 78.57 36.59C78.808 38.046 79.256 38.942 79.704 38.942C79.914 38.942 80.11 38.732 80.278 38.34C80.614 37.584 80.866 36.744 81.02 35.806C81.51 36.366 81.734 36.576 82.42 37.08C81.692 39.81 80.88 40.944 79.69 40.944C78.752 40.944 77.996 40.258 77.436 38.914C76.862 37.514 76.61 35.484 76.554 31.606C76.54 31.116 76.54 31.018 76.498 30.71ZM83.568 32.04L85.038 31.34C86.802 33.454 87.782 35.792 88.188 38.872L86.452 39.53C86.368 38.214 86.046 36.758 85.556 35.484C85.08 34.21 84.408 33.076 83.568 32.04ZM97.092 32.026C96.826 34.224 96.336 36.156 95.636 37.738C94.838 39.544 93.942 40.37 92.794 40.37C91.198 40.37 90.05 38.746 90.05 36.492C90.05 34.952 90.596 33.51 91.59 32.418C92.766 31.13 94.418 30.458 96.406 30.458C99.766 30.458 101.95 32.502 101.95 35.652C101.95 38.074 100.69 40.006 98.548 40.874C97.876 41.154 97.33 41.294 96.35 41.462C96.112 40.72 95.944 40.412 95.496 39.824C96.784 39.656 97.624 39.432 98.282 39.054C99.5 38.382 100.228 37.052 100.228 35.554C100.228 34.21 99.626 33.118 98.506 32.446C98.072 32.194 97.708 32.082 97.092 32.026ZM95.384 32.04C94.656 32.124 94.152 32.32 93.578 32.726C92.402 33.566 91.674 35.008 91.674 36.506C91.674 37.654 92.164 38.564 92.78 38.564C93.242 38.564 93.718 37.976 94.222 36.772C94.754 35.512 95.216 33.622 95.384 32.04ZM107.242 29.506L109.062 29.702C109.02 29.828 108.978 29.982 108.95 30.136C108.922 30.318 108.908 30.388 108.866 30.612C108.824 30.906 108.824 30.906 108.628 31.956C108.572 32.264 108.572 32.292 108.53 32.474C108.936 32.446 109.132 32.432 109.398 32.432C110.322 32.432 111.008 32.684 111.47 33.174C111.946 33.706 112.128 34.378 112.128 35.652C112.128 38.06 111.722 39.978 111.05 40.748C110.658 41.21 110.238 41.378 109.496 41.378C108.852 41.378 108.278 41.266 107.34 40.972C107.354 40.692 107.368 40.496 107.368 40.356C107.368 39.992 107.34 39.712 107.228 39.166C107.984 39.502 108.782 39.712 109.272 39.712C109.678 39.712 109.902 39.446 110.112 38.76C110.336 38.032 110.476 36.758 110.476 35.568C110.476 34.28 110.154 33.902 109.048 33.902C108.768 33.902 108.558 33.916 108.236 33.944C107.816 35.652 107.69 36.072 107.382 36.982C106.892 38.382 106.514 39.278 105.702 40.916C105.632 41.056 105.632 41.056 105.492 41.336C105.45 41.42 105.45 41.434 105.38 41.574L103.756 40.678C104.176 40.118 104.736 39.11 105.212 38.046C105.814 36.674 106.01 36.086 106.57 34.084C105.856 34.168 104.526 34.406 104.064 34.532L103.896 32.88C104.414 32.88 106.108 32.712 106.878 32.6C107.13 31.088 107.242 30.234 107.242 29.772C107.242 29.716 107.242 29.618 107.242 29.506ZM112.254 32.194L113.696 31.494C115.096 33.132 115.978 34.798 116.58 36.954L114.984 37.766C114.718 36.562 114.396 35.638 113.864 34.588C113.36 33.552 112.912 32.908 112.254 32.194ZM121.27 29.394L123.062 29.576C122.978 29.842 122.978 29.842 122.838 30.514C122.768 30.85 122.698 31.13 122.544 31.746C123.51 31.648 124.238 31.522 124.784 31.354L124.826 32.964C124.672 32.978 124.644 32.978 124.378 33.034C123.874 33.118 123.02 33.216 122.152 33.286C121.746 34.686 121.242 36.016 120.612 37.346C120.29 38.032 120.164 38.284 119.632 39.264C119.45 39.6 119.45 39.6 119.366 39.768L117.756 38.872C118.246 38.228 118.638 37.598 119.114 36.632C119.66 35.512 119.898 34.938 120.43 33.328C119.8 33.342 119.716 33.342 119.548 33.342C119.366 33.342 119.282 33.342 118.988 33.328L118.246 33.314V31.718C118.75 31.816 119.282 31.844 120.136 31.844C120.304 31.844 120.542 31.844 120.85 31.83C121.088 30.836 121.242 29.996 121.27 29.394ZM130.23 33.034L129.474 34.476C128.256 33.664 127.01 33.062 125.442 32.516L126.282 31.158C127.934 31.788 128.984 32.278 130.23 33.034ZM130.174 39.348L129.404 40.916C128.9 40.314 128.088 39.656 127.262 39.18C127.276 39.306 127.29 39.404 127.29 39.46C127.29 39.978 127.052 40.58 126.688 40.944C126.198 41.448 125.358 41.728 124.364 41.728C122.516 41.728 121.312 40.804 121.312 39.376C121.312 37.962 122.558 36.968 124.336 36.968C124.756 36.968 125.05 36.996 125.638 37.094C125.596 36.45 125.568 35.904 125.568 35.484C125.568 34.938 125.596 34.532 125.68 34.07L127.304 34.154C127.164 34.672 127.136 34.994 127.136 35.568C127.136 36.128 127.164 36.688 127.262 37.486C128.27 37.934 128.41 38.004 129.474 38.774C129.684 38.914 129.74 38.97 129.964 39.152C130.076 39.264 130.076 39.264 130.174 39.348ZM125.694 38.578C125.204 38.41 124.868 38.354 124.434 38.354C123.524 38.354 122.936 38.732 122.936 39.32C122.936 39.894 123.44 40.23 124.308 40.23C125.26 40.23 125.722 39.838 125.722 39.054C125.722 38.914 125.694 38.578 125.694 38.578ZM133.674 34.378L133.66 32.992C134.178 33.118 134.822 33.16 136.04 33.16C136.054 32.992 136.054 32.992 136.096 32.502C136.096 32.39 136.11 32.138 136.11 31.984C136.11 31.928 136.11 31.858 136.11 31.732L137.622 31.802C137.538 32.096 137.482 32.474 137.426 33.118C139.008 33.034 140.828 32.782 141.64 32.53L141.71 33.944C141.556 33.958 141.5 33.958 141.262 34C139.792 34.21 138.476 34.35 137.342 34.392C137.328 34.658 137.3 35.204 137.286 35.414C137.678 35.33 138.126 35.274 138.588 35.274C138.728 35.274 138.924 35.288 139.19 35.302C139.316 34.952 139.372 34.728 139.414 34.434L140.786 34.854C140.716 34.994 140.716 34.994 140.492 35.582C142.004 36.1 142.718 36.982 142.718 38.326C142.718 39.656 141.892 40.762 140.506 41.308C139.834 41.574 139.106 41.742 138.406 41.812C138.224 41.238 138.112 41.014 137.748 40.44C138.686 40.398 139.288 40.272 139.904 39.992C140.73 39.628 141.22 38.956 141.22 38.172C141.22 37.5 140.87 37.066 140.044 36.73C139.372 38.256 138.714 39.236 137.804 40.09C136.866 40.958 135.984 41.378 135.116 41.378C134.01 41.378 133.24 40.538 133.24 39.334C133.24 38.578 133.548 37.752 134.08 37.094C134.57 36.492 135.13 36.1 135.928 35.764C135.928 35.372 135.956 34.742 135.984 34.42C135.872 34.42 135.746 34.42 135.634 34.42C135.284 34.42 134.794 34.406 134.248 34.392C134.01 34.378 133.996 34.378 133.856 34.378C133.828 34.378 133.758 34.378 133.674 34.378ZM135.942 37.15C135.06 37.752 134.626 38.424 134.626 39.222C134.626 39.698 134.864 40.006 135.242 40.006C135.508 40.006 135.872 39.852 136.138 39.642C136.012 38.942 135.956 38.186 135.942 37.15ZM137.384 38.732H137.398C137.454 38.648 137.454 38.648 137.524 38.55C137.902 38.116 138.238 37.556 138.798 36.422C138.672 36.408 138.56 36.408 138.504 36.408C138.07 36.408 137.72 36.464 137.272 36.59C137.272 36.716 137.272 36.828 137.272 36.884C137.272 37.276 137.328 38.228 137.37 38.508C137.37 38.55 137.384 38.634 137.384 38.732ZM152.672 38.172H150.796C150.824 37.934 150.838 37.766 150.838 37.584L150.824 37.318C150.824 36.576 151.006 36.002 151.398 35.498C151.692 35.148 151.804 35.05 152.714 34.448C153.624 33.846 153.946 33.412 153.946 32.768C153.946 31.914 153.204 31.382 152.014 31.382C151.286 31.382 150.67 31.676 150.334 32.18C150.138 32.474 150.054 32.712 149.998 33.244L147.926 32.992C148.15 31.97 148.43 31.438 149.032 30.878C149.746 30.234 150.81 29.898 152.126 29.898C153.302 29.898 154.24 30.178 154.94 30.738C155.598 31.256 155.934 31.914 155.934 32.698C155.934 33.37 155.78 33.902 155.444 34.35C155.122 34.798 154.856 35.022 153.722 35.792C152.854 36.38 152.63 36.716 152.63 37.458C152.63 37.682 152.644 37.906 152.672 38.172ZM150.712 39.334H152.742V41.252H150.712V39.334Z" fill="#0054AC"/>
</g>
<defs>
<filter id="filter0_d_30_7778" x="0" y="0" width="302" height="58" filterUnits="userSpaceOnUse" color-interpolation-filters="sRGB">
<feFlood flood-opacity="0" result="BackgroundImageFix"/>
<feColorMatrix in="SourceAlpha" type="matrix" values="0 0 0 0 0 0 0 0 0 0 0 0 0 0 0 0 0 0 127 0" result="hardAlpha"/>
<feOffset dy="4"/>
<feGaussianBlur stdDeviation="2"/>
<feComposite in2="hardAlpha" operator="out"/>
<feColorMatrix type="matrix" values="0 0 0 0 0 0 0 0 0 0 0 0 0 0 0 0 0 0 0.25 0"/>
<feBlend mode="normal" in2="BackgroundImageFix" result="effect1_dropShadow_30_7778"/>
<feBlend mode="normal" in="SourceGraphic" in2="effect1_dropShadow_30_7778" result="shape"/>
</filter>
</defs>
</svg>
