<svg width="297" height="50" viewBox="0 0 297 50" fill="none" xmlns="http://www.w3.org/2000/svg">
<rect width="297" height="50" rx="20" fill="white"/>
<path d="M19.004 19.426V19.272C17.996 19.972 17.562 20.252 16.47 20.812C16.134 20.224 15.91 19.944 15.42 19.482C16.778 18.88 17.828 18.264 19.004 17.396V12.692C19.004 12.146 18.99 11.88 18.92 11.264H20.614C20.558 11.698 20.53 12.146 20.53 12.65V16.108C21.58 15.114 22.672 13.784 23.526 12.44C24.268 11.264 24.898 9.906 25.094 9.038L26.704 9.682C26.536 9.976 26.536 9.976 26.158 10.76C25.164 12.79 24.058 14.456 22.644 16.08C22 16.822 21.426 17.368 20.53 18.096V19.076C20.53 19.426 20.894 19.524 22.224 19.524C23.47 19.524 23.946 19.426 24.114 19.132C24.31 18.782 24.422 17.9 24.45 16.486C25.052 16.78 25.36 16.892 25.934 17.018C25.626 20.7 25.402 20.924 22.14 20.924C19.578 20.924 19.004 20.644 19.004 19.426ZM18.864 9.332L19.802 8.128C21.678 8.87 22.406 9.22 23.89 10.13L22.966 11.474C21.902 10.676 20.726 10.06 18.864 9.332ZM16.736 12.524L18.22 12.804C17.87 15.142 17.604 16.164 16.848 18.11L15.392 17.382C16.148 15.66 16.428 14.652 16.736 12.524ZM25.094 13.35L26.466 12.678C27.39 14.442 27.922 15.73 28.622 17.942L27.138 18.74C26.48 16.262 26.102 15.254 25.094 13.35ZM31.422 15.492H33.928C34.152 15.156 34.25 14.988 34.446 14.61H32.318C31.59 14.61 31.128 14.624 30.694 14.666C30.736 14.26 30.75 13.938 30.75 13.308V12.342C30.75 11.698 30.736 11.334 30.694 10.914C31.142 10.97 31.59 10.984 32.248 10.984H33.774V10.102H31.45C30.792 10.102 30.274 10.13 29.84 10.172V8.688C30.26 8.744 30.778 8.772 31.562 8.772H40.466C41.278 8.772 41.824 8.744 42.202 8.688V10.172C41.754 10.13 41.25 10.102 40.578 10.102H38.072V10.984H39.696C40.41 10.984 40.858 10.97 41.264 10.914C41.222 11.306 41.208 11.656 41.208 12.342V13.294C41.208 13.994 41.222 14.316 41.25 14.666C40.9 14.624 40.466 14.61 39.668 14.61H36.126C35.832 15.128 35.79 15.212 35.622 15.492H40.564C41.376 15.492 41.796 15.478 42.188 15.408V16.864C41.726 16.822 41.25 16.794 40.564 16.794H39.304C38.94 17.522 38.562 18.068 38.03 18.614C39.808 19.16 40.312 19.342 41.866 19.972L40.886 21.26C40.536 21.106 40.256 20.98 40.074 20.896C38.884 20.35 38.884 20.35 36.742 19.58C35.104 20.504 33.214 20.966 30.428 21.106C30.26 20.532 30.162 20.294 29.798 19.678C29.938 19.678 30.036 19.678 30.106 19.678C32.038 19.678 33.564 19.454 34.81 18.992C33.186 18.558 32.948 18.502 31.534 18.166C32.164 17.62 32.43 17.368 32.92 16.794H31.422C30.736 16.794 30.274 16.822 29.812 16.864V15.408C30.204 15.464 30.652 15.492 31.422 15.492ZM37.638 16.794H34.67C34.46 17.046 34.348 17.172 33.998 17.522C34.488 17.662 34.488 17.662 35.58 17.914C35.734 17.942 35.93 17.998 36.42 18.138C36.924 17.774 37.316 17.354 37.638 16.794ZM35.16 10.102V10.984H36.686V10.102H35.16ZM33.774 12.118H32.234V13.448H33.774V12.118ZM35.16 12.118V13.448H36.686V12.118H35.16ZM38.072 12.118V13.448H39.71V12.118H38.072ZM47.27 8.394L49.062 8.576C48.978 8.842 48.978 8.842 48.838 9.514C48.768 9.85 48.698 10.13 48.544 10.746C49.51 10.648 50.238 10.522 50.784 10.354L50.826 11.964C50.672 11.978 50.644 11.978 50.378 12.034C49.874 12.118 49.02 12.216 48.152 12.286C47.746 13.686 47.242 15.016 46.612 16.346C46.29 17.032 46.164 17.284 45.632 18.264C45.45 18.6 45.45 18.6 45.366 18.768L43.756 17.872C44.246 17.228 44.638 16.598 45.114 15.632C45.66 14.512 45.898 13.938 46.43 12.328C45.8 12.342 45.716 12.342 45.548 12.342C45.366 12.342 45.282 12.342 44.988 12.328L44.246 12.314V10.718C44.75 10.816 45.282 10.844 46.136 10.844C46.304 10.844 46.542 10.844 46.85 10.83C47.088 9.836 47.242 8.996 47.27 8.394ZM56.23 12.034L55.474 13.476C54.256 12.664 53.01 12.062 51.442 11.516L52.282 10.158C53.934 10.788 54.984 11.278 56.23 12.034ZM56.174 18.348L55.404 19.916C54.9 19.314 54.088 18.656 53.262 18.18C53.276 18.306 53.29 18.404 53.29 18.46C53.29 18.978 53.052 19.58 52.688 19.944C52.198 20.448 51.358 20.728 50.364 20.728C48.516 20.728 47.312 19.804 47.312 18.376C47.312 16.962 48.558 15.968 50.336 15.968C50.756 15.968 51.05 15.996 51.638 16.094C51.596 15.45 51.568 14.904 51.568 14.484C51.568 13.938 51.596 13.532 51.68 13.07L53.304 13.154C53.164 13.672 53.136 13.994 53.136 14.568C53.136 15.128 53.164 15.688 53.262 16.486C54.27 16.934 54.41 17.004 55.474 17.774C55.684 17.914 55.74 17.97 55.964 18.152C56.076 18.264 56.076 18.264 56.174 18.348ZM51.694 17.578C51.204 17.41 50.868 17.354 50.434 17.354C49.524 17.354 48.936 17.732 48.936 18.32C48.936 18.894 49.44 19.23 50.308 19.23C51.26 19.23 51.722 18.838 51.722 18.054C51.722 17.914 51.694 17.578 51.694 17.578ZM60.85 12.622L62.012 11.796C62.922 12.44 62.95 12.454 63.762 13.196C64.742 12.398 65.246 11.88 66.156 10.774H62.474C61.382 11.95 60.248 12.818 58.694 13.686C58.456 13.21 58.218 12.93 57.742 12.51C60.038 11.39 61.886 9.71 62.712 7.988L64.364 8.394C64 8.926 63.874 9.094 63.636 9.416H66.506C67.038 9.416 67.374 9.402 67.738 9.346L68.564 10.228C68.396 10.438 68.382 10.452 68.06 10.872C66.842 12.468 65.498 13.756 63.846 14.918H68.382C68.942 14.918 69.222 14.904 69.558 14.862C69.502 15.24 69.488 15.604 69.488 16.15V19.748C69.488 20.308 69.516 20.77 69.572 21.134H67.976V20.378H62.628V21.134H61.004C61.06 20.714 61.088 20.252 61.088 19.748V16.71C60.234 17.186 59.688 17.438 58.428 17.97C58.19 17.368 57.994 17.074 57.532 16.57C58.736 16.178 59.884 15.688 60.892 15.142C61.34 14.89 61.802 14.596 62.558 14.092C61.97 13.476 61.578 13.14 60.85 12.622ZM62.614 16.29V19.048H67.99V16.29H62.614ZM74.794 10.998H73.044C72.428 10.998 72.106 11.012 71.658 11.068V9.556C72.12 9.612 72.526 9.64 73.142 9.64H74.794V9.346C74.794 8.898 74.766 8.59 74.724 8.254H76.306C76.264 8.506 76.236 8.954 76.236 9.332V9.64H77.664C78.294 9.64 78.756 9.612 79.232 9.556V11.068C78.798 11.012 78.406 10.998 77.776 10.998H76.236V12.006H77.79C78.308 12.006 78.672 11.992 79.022 11.95C78.994 12.202 78.98 12.566 78.98 13.056V14.694C78.98 15.408 78.91 15.674 78.686 15.898C78.448 16.136 78.098 16.22 77.342 16.22C77.3 16.22 77.188 16.22 77.076 16.22C77.02 15.632 76.964 15.422 76.796 15.016C77.006 15.03 77.118 15.044 77.272 15.044C77.594 15.044 77.664 15.002 77.664 14.806V13.308H76.236V15.058C76.74 15.912 77.076 16.332 77.706 16.934C78.336 17.522 78.742 17.844 79.498 18.32C79.092 18.81 78.924 19.076 78.63 19.594C77.482 18.712 76.964 18.166 76.18 17.046C76.208 17.242 76.222 17.634 76.222 18.138V19.888C76.222 20.42 76.236 20.77 76.292 21.148H74.71C74.766 20.812 74.794 20.378 74.794 19.818V18.236C74.794 17.788 74.808 17.41 74.822 17.228C73.982 18.614 73.45 19.216 72.218 20.168C71.952 19.664 71.77 19.37 71.364 18.894C72.358 18.18 72.806 17.774 73.45 17.004C74.122 16.206 74.416 15.758 74.794 14.988V13.308H73.478V15.212C73.478 15.688 73.492 15.982 73.52 16.304H72.036C72.078 15.898 72.106 15.548 72.106 14.932V13.252C72.106 12.706 72.092 12.328 72.05 11.95C72.498 11.992 72.82 12.006 73.366 12.006H74.794V10.998ZM79.736 9.318H81.332C81.276 9.682 81.262 10.06 81.262 10.774V16.318C81.262 17.158 81.276 17.424 81.318 17.802H79.736C79.792 17.382 79.806 17.102 79.806 16.304V10.802C79.806 10.116 79.778 9.71 79.736 9.318ZM82.452 8.338H84.09C84.02 8.73 84.006 9.178 84.006 10.032V19.286C84.006 20.098 83.894 20.42 83.544 20.672C83.25 20.896 82.802 20.966 81.836 20.966C81.598 20.966 81.024 20.952 80.52 20.924C80.436 20.322 80.352 20.042 80.114 19.454C80.73 19.524 81.416 19.58 81.794 19.58C82.41 19.58 82.536 19.51 82.536 19.146V10.074C82.536 9.234 82.508 8.786 82.452 8.338ZM86.54 11.53L86.568 9.934C87.142 10.06 88.038 10.116 89.816 10.116C90.194 9.276 90.32 8.856 90.376 8.38L92.21 8.576C92.126 8.716 92.126 8.716 91.65 9.836C91.58 9.99 91.552 10.032 91.524 10.088C91.636 10.074 91.636 10.074 92.406 10.032C94.03 9.934 95.304 9.78 96.074 9.556L96.172 11.152C95.78 11.18 95.78 11.18 95.066 11.264C94.044 11.39 92.266 11.502 90.852 11.544C90.446 12.342 90.054 12.902 89.564 13.406L89.578 13.434C89.676 13.364 89.676 13.364 89.858 13.224C90.376 12.832 91.118 12.594 91.832 12.594C92.924 12.594 93.61 13.112 93.834 14.078C94.912 13.686 95.626 13.434 95.976 13.322C96.732 13.056 96.788 13.042 97.012 12.902L97.67 14.512C97.278 14.568 96.858 14.68 96.116 14.89C95.92 14.946 95.22 15.184 94.016 15.604V15.758C94.03 16.122 94.03 16.122 94.03 16.318C94.03 16.458 94.03 16.696 94.03 16.878C94.016 17.116 94.016 17.242 94.016 17.34C94.016 17.648 94.03 17.844 94.058 18.082L92.434 18.124C92.49 17.872 92.518 17.158 92.518 16.5C92.518 16.304 92.518 16.304 92.518 16.164C91.832 16.486 91.468 16.682 91.174 16.892C90.684 17.256 90.446 17.634 90.446 18.04C90.446 18.768 91.118 19.062 92.812 19.062C94.492 19.062 95.934 18.852 96.928 18.474L97.068 20.28C96.83 20.28 96.76 20.294 96.424 20.336C95.416 20.49 94.072 20.588 92.84 20.588C91.356 20.588 90.432 20.42 89.718 20C89.074 19.636 88.696 18.964 88.696 18.194C88.696 17.62 88.864 17.172 89.312 16.64C89.942 15.856 90.74 15.324 92.322 14.666C92.252 14.148 91.972 13.91 91.468 13.91C90.656 13.91 89.676 14.4 88.598 15.352C88.01 15.842 87.688 16.192 87.38 16.626L86.106 15.366C86.47 15.086 86.876 14.694 87.366 14.12C87.912 13.476 88.766 12.258 89.046 11.726C89.102 11.614 89.102 11.614 89.158 11.544C89.102 11.544 88.92 11.558 88.92 11.558C88.696 11.558 87.464 11.53 87.156 11.53C86.89 11.516 86.89 11.516 86.764 11.516C86.722 11.516 86.638 11.516 86.54 11.53ZM103.592 16.416V15.296C103.088 15.506 103.088 15.506 102.598 15.688V19.748C102.598 20.462 102.416 20.784 101.926 20.952C101.618 21.05 101.142 21.12 100.666 21.12C100.47 21.12 100.316 21.12 99.952 21.092C99.882 20.476 99.826 20.21 99.63 19.622C100.064 19.678 100.344 19.706 100.666 19.706C101.03 19.706 101.114 19.622 101.114 19.286V16.22C100.708 16.36 100.68 16.374 100.33 16.486C100.12 16.556 99.952 16.626 99.742 16.71L99.434 15.156C99.854 15.114 100.162 15.03 101.114 14.75V12.23H100.568C100.204 12.23 99.896 12.244 99.56 12.286V10.788C99.896 10.844 100.176 10.872 100.596 10.872H101.114V9.724C101.114 9.066 101.1 8.73 101.03 8.296H102.682C102.612 8.73 102.598 9.066 102.598 9.71V10.872H103.046C103.312 10.872 103.48 10.858 103.662 10.844V9.696C103.662 9.304 103.648 9.024 103.62 8.73C103.97 8.772 104.32 8.786 104.964 8.786H110.788C111.46 8.786 111.81 8.772 112.16 8.73C112.132 9.01 112.118 9.22 112.118 9.668V10.396C112.118 10.83 112.132 11.068 112.174 11.348H110.69V10.13H109.5V12.244C109.5 12.496 109.598 12.538 110.228 12.538C111.152 12.538 111.18 12.51 111.222 11.572C111.698 11.754 111.894 11.81 112.398 11.88C112.258 13.602 111.992 13.812 110.018 13.812C109.178 13.812 108.814 13.756 108.492 13.602C108.45 13.812 108.436 14.05 108.436 14.386V14.974H110.872C111.446 14.974 111.866 14.946 112.3 14.89V16.416C111.81 16.36 111.404 16.346 110.9 16.346H109.206C109.598 16.864 110.172 17.438 110.76 17.886C111.334 18.334 111.908 18.656 112.678 18.978C112.384 19.412 112.23 19.72 111.936 20.434C110.438 19.636 109.43 18.74 108.408 17.298C108.408 17.494 108.422 17.648 108.422 17.746C108.436 18.082 108.436 18.152 108.436 18.516V20.014C108.436 20.49 108.464 20.798 108.52 21.176H106.896C106.952 20.756 106.98 20.42 106.98 19.986V18.404C106.98 18.096 106.994 17.55 107.008 17.312C106.154 18.628 105.16 19.552 103.648 20.434C103.326 19.832 103.144 19.58 102.738 19.16C104.152 18.516 105.426 17.494 106.182 16.346H105.006C104.39 16.346 103.998 16.36 103.592 16.416ZM103.802 13.826L103.844 14.932C104.194 14.96 104.544 14.974 105.076 14.974H106.98V14.61C106.98 14.12 106.952 13.826 106.896 13.504H108.366C108.212 13.35 108.17 13.182 108.17 12.846V10.13H107.4C107.358 10.942 107.33 11.138 107.232 11.544C106.896 12.762 106.042 13.658 104.53 14.33C104.236 13.84 104.04 13.588 103.634 13.196C104.558 12.916 105.188 12.51 105.58 11.978C105.93 11.516 106.07 10.984 106.098 10.13H105.02V11.516H103.83V12.272C103.578 12.244 103.368 12.23 103.06 12.23H102.598V14.288C103.06 14.12 103.214 14.064 103.802 13.826ZM122.03 12.552L122.016 13.756C122.016 13.812 122.03 13.924 122.03 14.092C122.338 14.736 122.478 15.31 122.478 16.066C122.478 17.592 121.75 18.908 120.392 19.846C119.804 20.252 119.16 20.546 117.858 20.994C117.466 20.126 117.326 19.916 116.864 19.412C118.012 19.188 118.586 18.992 119.244 18.6C120.196 18.054 120.756 17.34 120.868 16.556C120.462 17.2 119.734 17.55 118.81 17.55C118.166 17.55 117.662 17.396 117.186 17.046C116.528 16.57 116.22 15.954 116.22 15.156C116.22 13.672 117.382 12.608 119.006 12.608C119.608 12.608 120.14 12.762 120.462 13.028C120.448 12.958 120.448 12.958 120.448 12.86C120.434 12.832 120.434 12.048 120.434 11.67C118.432 11.726 117.116 11.768 116.5 11.81C114.386 11.964 114.386 11.964 114.008 12.02L113.952 10.354C114.26 10.382 114.386 10.382 114.638 10.382C114.988 10.382 115.212 10.382 117.018 10.312C117.928 10.284 118.068 10.284 119.216 10.256C119.678 10.242 119.678 10.242 120.406 10.214C120.392 8.884 120.392 8.884 120.322 8.52L122.086 8.506C122.03 8.94 122.03 8.968 122.016 10.172C124.452 10.158 125.544 10.13 126.062 10.074L126.076 11.684C125.558 11.642 124.886 11.614 123.724 11.614C123.388 11.614 123.136 11.614 122.03 11.642V12.552ZM120.42 14.862C120.42 14.274 119.93 13.896 119.16 13.896C118.446 13.896 117.858 14.4 117.858 15.016C117.858 15.66 118.348 16.122 119.048 16.122C119.846 16.122 120.42 15.59 120.42 14.862ZM135.092 11.026C134.826 13.224 134.336 15.156 133.636 16.738C132.838 18.544 131.942 19.37 130.794 19.37C129.198 19.37 128.05 17.746 128.05 15.492C128.05 13.952 128.596 12.51 129.59 11.418C130.766 10.13 132.418 9.458 134.406 9.458C137.766 9.458 139.95 11.502 139.95 14.652C139.95 17.074 138.69 19.006 136.548 19.874C135.876 20.154 135.33 20.294 134.35 20.462C134.112 19.72 133.944 19.412 133.496 18.824C134.784 18.656 135.624 18.432 136.282 18.054C137.5 17.382 138.228 16.052 138.228 14.554C138.228 13.21 137.626 12.118 136.506 11.446C136.072 11.194 135.708 11.082 135.092 11.026ZM133.384 11.04C132.656 11.124 132.152 11.32 131.578 11.726C130.402 12.566 129.674 14.008 129.674 15.506C129.674 16.654 130.164 17.564 130.78 17.564C131.242 17.564 131.718 16.976 132.222 15.772C132.754 14.512 133.216 12.622 133.384 11.04ZM144.696 20.336L143.002 20.434C142.988 20.182 142.974 20.098 142.932 19.776C142.666 18.082 142.568 17.004 142.568 15.59C142.568 13.784 142.736 12.188 143.142 10.116C143.296 9.332 143.324 9.192 143.352 8.814L145.2 9.01C144.864 9.836 144.542 11.404 144.318 13.196C144.178 14.246 144.122 15.072 144.108 16.29C144.108 16.598 144.094 16.71 144.08 17.06C144.234 16.57 144.262 16.472 144.808 15.212L145.928 15.716C145.158 17.34 144.682 18.964 144.682 19.958C144.682 20.042 144.682 20.154 144.696 20.336ZM146.628 11.95L146.656 10.27C147.286 10.438 148.028 10.494 149.246 10.494C150.8 10.494 152.13 10.368 153.054 10.116L153.138 11.81C153.026 11.824 152.816 11.852 152.144 11.936C151.248 12.048 150.184 12.104 149.148 12.104C148.126 12.104 148.112 12.104 146.628 11.95ZM147.594 14.26L148.966 14.904C148.266 15.716 147.972 16.318 147.972 16.92C147.972 17.718 148.742 18.138 150.198 18.138C151.43 18.138 152.648 17.942 153.53 17.606L153.67 19.384C153.474 19.398 153.418 19.412 153.096 19.468C151.976 19.65 151.122 19.734 150.198 19.734C148.462 19.734 147.342 19.342 146.726 18.516C146.46 18.166 146.306 17.648 146.306 17.144C146.306 16.234 146.726 15.296 147.594 14.26ZM163.526 11.096H162.336C161.174 11.124 161.174 11.124 160.838 11.166V9.682C161.23 9.738 161.678 9.766 162.294 9.766H163.526V9.388C163.526 8.996 163.498 8.688 163.442 8.338H165.052C165.01 8.66 164.982 8.954 164.982 9.388V9.766H166.508C167.11 9.766 167.572 9.738 167.964 9.682V11.166C167.572 11.11 167.152 11.096 166.522 11.096H164.982V12.426H166.914C167.586 12.426 168.09 12.398 168.44 12.342V13.826C168.062 13.77 167.684 13.756 167.068 13.756H166.83V14.946H167.012C167.684 14.946 168.062 14.932 168.398 14.876V16.402C167.992 16.332 167.642 16.318 167.012 16.318H166.83V19.482C166.83 20.294 166.69 20.63 166.27 20.826C165.92 20.98 165.43 21.05 164.73 21.05C164.604 21.05 164.604 21.05 163.638 21.036C163.61 20.434 163.512 20.014 163.302 19.566C163.652 19.622 164.38 19.678 164.87 19.678C165.304 19.678 165.388 19.608 165.388 19.3V16.318H162.042C161.524 16.318 160.992 16.346 160.544 16.402V14.876C160.908 14.932 161.342 14.946 162.07 14.946H165.388V13.756H162.07C161.482 13.756 160.964 13.784 160.53 13.826V12.342C160.88 12.398 161.412 12.426 162.084 12.426H163.526V11.096ZM156.12 18.586V10.396C156.12 9.766 156.106 9.402 156.064 8.982C156.372 9.01 156.638 9.024 157.296 9.024H158.99C159.62 9.024 159.872 9.01 160.208 8.982C160.166 9.304 160.166 9.556 160.166 10.368V18.376C160.166 19.118 160.18 19.426 160.208 19.776H158.78V19.076H157.506V20.252H156.036C156.092 19.818 156.12 19.328 156.12 18.586ZM157.52 10.354V13.28H158.78V10.354H157.52ZM157.52 14.568V17.718H158.78V14.568H157.52ZM164.114 18.628L162.882 19.566C162.322 18.628 161.79 17.956 161.09 17.27L162.28 16.486C162.966 17.102 163.526 17.746 164.114 18.628ZM178.786 15.436V18.278C178.786 18.81 178.8 19.132 178.828 19.496C179.136 19.524 179.64 19.566 179.892 19.566C180.284 19.566 180.41 19.468 180.41 19.188V13.336H177.652C177.162 13.336 176.714 13.35 176.364 13.378C176.392 12.972 176.406 12.706 176.406 12.104V9.962C176.406 9.486 176.392 9.094 176.364 8.66C176.742 8.702 177.078 8.716 177.792 8.716H180.48C181.18 8.716 181.53 8.702 181.922 8.66C181.88 9.164 181.866 9.514 181.866 10.214V19.384C181.866 20.224 181.698 20.588 181.194 20.798C180.9 20.924 180.48 20.966 179.612 20.966C179.416 20.966 179.36 20.966 178.646 20.924C178.562 20.294 178.492 20.042 178.282 19.482C177.876 19.468 177.61 19.468 177.498 19.468H174.53V20.252H173.046C173.102 19.916 173.144 19.356 173.144 18.852V15.436C173.144 14.946 173.13 14.554 173.102 14.176C173.508 14.218 173.83 14.232 174.404 14.232H177.526C178.114 14.232 178.422 14.218 178.828 14.176C178.8 14.54 178.786 14.89 178.786 15.436ZM177.792 9.85V10.55H180.41V9.85H177.792ZM177.792 11.544V12.258H180.41V11.544H177.792ZM174.53 15.408V16.248H177.386V15.408H174.53ZM174.53 17.382V18.292H177.386V17.382H174.53ZM171.604 13.336V19.384C171.604 20.224 171.632 20.728 171.688 21.106H170.05C170.106 20.686 170.134 20.238 170.134 19.37V10.228C170.134 9.5 170.12 9.108 170.078 8.66C170.47 8.702 170.834 8.716 171.52 8.716H173.998C174.726 8.716 175.048 8.702 175.426 8.66C175.398 9.108 175.384 9.416 175.384 9.962V12.104C175.384 12.748 175.398 13.07 175.426 13.378C175.062 13.35 174.628 13.336 174.138 13.336H171.604ZM171.604 9.85V10.55H174.012V9.85H171.604ZM171.604 11.544V12.258H174.012V11.544H171.604ZM192.982 12.3L194.396 11.6C195.362 12.93 196.09 14.442 196.496 16.052L194.9 16.85C194.62 15.38 193.752 13.322 192.982 12.3ZM188.866 9.22L188.838 9.402C188.768 9.808 188.67 10.382 188.53 11.138C188.488 11.376 188.488 11.376 188.446 11.558C188.866 11.544 189.062 11.53 189.314 11.53C190.238 11.53 190.924 11.782 191.386 12.272C191.862 12.804 192.044 13.476 192.044 14.75C192.044 17.158 191.638 19.076 190.966 19.846C190.574 20.308 190.154 20.476 189.412 20.476C188.768 20.476 188.194 20.364 187.256 20.056C187.27 19.79 187.284 19.58 187.284 19.44C187.284 19.076 187.256 18.796 187.144 18.25C187.9 18.586 188.698 18.81 189.188 18.81C189.594 18.81 189.818 18.544 190.028 17.858C190.252 17.13 190.392 15.856 190.392 14.666C190.392 13.378 190.07 13 188.992 13C188.698 13 188.474 13.014 188.152 13.042C187.466 15.912 186.836 17.606 185.296 20.658L183.672 19.762C184.75 18.292 185.828 15.772 186.486 13.168C186.276 13.196 186.276 13.196 185.828 13.28L184.554 13.49C184.33 13.532 184.176 13.574 183.98 13.63L183.812 11.978C184.442 11.964 185.17 11.894 186.794 11.684C187.06 10.13 187.158 9.332 187.158 8.856C187.158 8.8 187.158 8.716 187.158 8.604L188.978 8.786C188.936 8.898 188.894 9.08 188.866 9.22ZM192.114 9.318L193.094 8.828C193.71 9.486 194.088 10.018 194.564 10.886L193.584 11.404C193.122 10.55 192.73 9.99 192.114 9.318ZM196.23 9.976L195.264 10.522C194.844 9.752 194.382 9.094 193.836 8.492L194.774 8.002C195.404 8.646 195.796 9.178 196.23 9.976ZM201.242 8.506L203.062 8.702C203.02 8.828 202.978 8.982 202.95 9.136C202.922 9.318 202.908 9.388 202.866 9.612C202.824 9.906 202.824 9.906 202.628 10.956C202.572 11.264 202.572 11.292 202.53 11.474C202.936 11.446 203.132 11.432 203.398 11.432C204.322 11.432 205.008 11.684 205.47 12.174C205.946 12.706 206.128 13.378 206.128 14.652C206.128 17.06 205.722 18.978 205.05 19.748C204.658 20.21 204.238 20.378 203.496 20.378C202.852 20.378 202.278 20.266 201.34 19.972C201.354 19.692 201.368 19.496 201.368 19.356C201.368 18.992 201.34 18.712 201.228 18.166C201.984 18.502 202.782 18.712 203.272 18.712C203.678 18.712 203.902 18.446 204.112 17.76C204.336 17.032 204.476 15.758 204.476 14.568C204.476 13.28 204.154 12.902 203.048 12.902C202.768 12.902 202.558 12.916 202.236 12.944C201.816 14.652 201.69 15.072 201.382 15.982C200.892 17.382 200.514 18.278 199.702 19.916C199.632 20.056 199.632 20.056 199.492 20.336C199.45 20.42 199.45 20.434 199.38 20.574L197.756 19.678C198.176 19.118 198.736 18.11 199.212 17.046C199.814 15.674 200.01 15.086 200.57 13.084C199.856 13.168 198.526 13.406 198.064 13.532L197.896 11.88C198.414 11.88 200.108 11.712 200.878 11.6C201.13 10.088 201.242 9.234 201.242 8.772C201.242 8.716 201.242 8.618 201.242 8.506ZM206.254 11.194L207.696 10.494C209.096 12.132 209.978 13.798 210.58 15.954L208.984 16.766C208.718 15.562 208.396 14.638 207.864 13.588C207.36 12.552 206.912 11.908 206.254 11.194ZM215.242 8.506L217.062 8.702C217.02 8.828 216.978 8.982 216.95 9.136C216.922 9.318 216.908 9.388 216.866 9.612C216.824 9.906 216.824 9.906 216.628 10.956C216.572 11.264 216.572 11.292 216.53 11.474C216.936 11.446 217.132 11.432 217.398 11.432C218.322 11.432 219.008 11.684 219.47 12.174C219.946 12.706 220.128 13.378 220.128 14.652C220.128 17.06 219.722 18.978 219.05 19.748C218.658 20.21 218.238 20.378 217.496 20.378C216.852 20.378 216.278 20.266 215.34 19.972C215.354 19.692 215.368 19.496 215.368 19.356C215.368 18.992 215.34 18.712 215.228 18.166C215.984 18.502 216.782 18.712 217.272 18.712C217.678 18.712 217.902 18.446 218.112 17.76C218.336 17.032 218.476 15.758 218.476 14.568C218.476 13.28 218.154 12.902 217.048 12.902C216.768 12.902 216.558 12.916 216.236 12.944C215.816 14.652 215.69 15.072 215.382 15.982C214.892 17.382 214.514 18.278 213.702 19.916C213.632 20.056 213.632 20.056 213.492 20.336C213.45 20.42 213.45 20.434 213.38 20.574L211.756 19.678C212.176 19.118 212.736 18.11 213.212 17.046C213.814 15.674 214.01 15.086 214.57 13.084C213.856 13.168 212.526 13.406 212.064 13.532L211.896 11.88C212.414 11.88 214.108 11.712 214.878 11.6C215.13 10.088 215.242 9.234 215.242 8.772C215.242 8.716 215.242 8.618 215.242 8.506ZM220.254 11.194L221.696 10.494C223.096 12.132 223.978 13.798 224.58 15.954L222.984 16.766C222.718 15.562 222.396 14.638 221.864 13.588C221.36 12.552 220.912 11.908 220.254 11.194ZM228.192 8.464L229.97 8.562C229.802 9.038 229.732 9.402 229.466 11.264C229.368 11.852 229.312 12.328 229.284 12.664H229.326C229.354 12.58 229.354 12.58 229.41 12.356C229.55 11.866 229.914 11.18 230.292 10.69C231.062 9.738 231.93 9.262 232.952 9.262C233.904 9.262 234.744 9.71 235.346 10.522C236.046 11.46 236.354 12.594 236.354 14.246C236.354 16.948 235.094 18.964 232.742 20C232.028 20.322 231.048 20.602 229.998 20.784C229.718 19.986 229.564 19.678 229.172 19.132C230.572 18.978 231.384 18.768 232.238 18.334C233.862 17.508 234.604 16.178 234.604 14.05C234.604 12.034 233.932 10.914 232.728 10.914C232.196 10.914 231.706 11.152 231.216 11.656C230.124 12.79 229.452 14.512 229.452 16.178C229.452 16.248 229.452 16.346 229.452 16.472L227.772 16.5C227.786 16.416 227.786 16.346 227.786 16.318C227.786 16.262 227.786 16.178 227.786 16.052C227.772 15.646 227.744 14.61 227.744 14.33C227.744 13.196 227.828 11.642 227.94 10.676L228.15 8.94C228.178 8.702 228.192 8.646 228.192 8.464ZM239.49 17.9L240.68 16.794C241.968 17.774 242.752 18.544 243.83 19.874L242.528 21.092C241.506 19.706 240.708 18.866 239.49 17.9ZM261.75 12.482H261.526C260.91 12.482 260.672 12.496 260.378 12.538V11.362C260.154 11.348 259.776 11.334 259.258 11.334H255.1C254.582 11.334 254.246 11.348 253.784 11.404V9.906C254.204 9.962 254.498 9.976 255.156 9.976H256.458V9.374C256.458 8.856 256.444 8.548 256.388 8.212H258.012C257.956 8.59 257.942 8.884 257.942 9.374V9.976H259.104C259.762 9.976 260.126 9.962 260.49 9.906V11.068C260.742 11.096 261.022 11.11 261.54 11.11H261.806C261.834 10.48 261.834 10.06 261.834 9.612C261.834 9.052 261.82 8.744 261.75 8.338H263.402C263.346 8.828 263.346 8.926 263.332 9.57C263.318 10.508 263.318 10.83 263.304 11.11H264.746C265.558 11.11 265.852 11.096 266.174 11.054C266.132 11.446 266.118 11.824 266.104 12.706C266.034 16.444 265.88 18.446 265.544 19.664C265.278 20.588 264.816 20.91 263.71 20.91C263.22 20.91 262.772 20.896 262.366 20.854C262.324 20.252 262.254 19.916 262.058 19.342C262.534 19.426 263.122 19.496 263.402 19.496C263.962 19.496 264.06 19.384 264.2 18.53C264.48 17.018 264.578 15.534 264.606 12.482H263.248C263.066 14.904 262.632 16.71 261.918 18.096C261.246 19.398 260.672 20.098 259.468 21.12C259.132 20.63 258.838 20.336 258.32 20C259.524 19.104 260.098 18.39 260.77 17.004C261.288 15.94 261.596 14.526 261.75 12.482ZM255.03 15.408L256.024 14.54C256.57 15.016 256.724 15.156 257.172 15.59C257.466 14.932 257.564 14.638 257.732 13.854L259.062 14.554C258.768 15.464 258.614 15.856 258.208 16.668C258.684 17.214 258.894 17.452 259.482 18.194L258.418 19.3C257.956 18.628 257.788 18.432 257.438 17.998C256.598 19.23 255.674 20.154 254.358 21.05C254.092 20.56 253.784 20.14 253.406 19.776C253.98 19.454 254.358 19.202 254.764 18.852C255.394 18.32 256.024 17.606 256.486 16.878C255.912 16.234 255.674 15.996 255.03 15.408ZM255.408 11.544L256.71 12.076C255.982 13.714 255.562 14.344 254.4 15.534C254.148 14.974 253.952 14.694 253.546 14.288C254.092 13.798 254.33 13.546 254.694 13C255.03 12.496 255.17 12.202 255.408 11.544ZM257.886 12.132L259.062 11.572C259.664 12.818 260.084 13.42 260.966 14.288C260.546 14.61 260.406 14.75 259.944 15.31C258.978 14.204 258.67 13.728 257.886 12.132ZM270.906 11.95L271.816 10.984C272.068 11.166 272.138 11.222 272.348 11.39C272.6 11.054 272.698 10.9 272.866 10.578H269.198C268.596 10.578 268.204 10.592 267.756 10.648V9.122C268.218 9.178 268.68 9.206 269.408 9.206H273.146V9.066C273.146 8.73 273.118 8.478 273.062 8.184H274.77C274.714 8.492 274.686 8.716 274.686 9.052V9.206H278.676C279.418 9.206 279.894 9.178 280.342 9.122V10.648C279.894 10.592 279.502 10.578 278.886 10.578H274.392C273.986 11.25 273.734 11.6 273.258 12.174C273.538 12.426 273.594 12.496 273.832 12.748C274.448 12.076 274.7 11.754 275.232 11.012L276.352 11.754C275.512 12.762 274.7 13.56 273.426 14.638C274.448 14.596 274.728 14.582 275.372 14.498C275.176 14.204 275.078 14.064 274.77 13.672L275.792 13.238C276.562 14.204 276.66 14.33 277.514 15.8L276.31 16.29C276.128 15.87 276.058 15.73 275.946 15.492C274.56 15.716 273.678 15.814 271.424 15.996C271.102 16.01 270.864 16.038 270.738 16.052L270.598 15.086C269.912 15.576 269.352 15.898 268.204 16.472L267.644 15.016C268.736 14.722 269.814 14.148 270.738 13.364L271.438 14.456L271.102 14.722C271.186 14.722 271.214 14.722 271.256 14.722C271.284 14.722 271.662 14.708 271.76 14.708C272.278 14.274 272.502 14.078 272.922 13.672C272.348 13.042 271.732 12.51 270.906 11.95ZM273.118 18.348H269.226C268.596 18.348 268.204 18.362 267.588 18.432V16.892C267.938 16.948 268.498 16.976 269.086 16.976H273.118V16.864C273.118 16.514 273.104 16.234 273.062 16.038H274.728C274.686 16.248 274.672 16.528 274.672 16.864V16.976H278.998C279.572 16.976 280.034 16.948 280.44 16.892V18.432C279.964 18.376 279.418 18.348 278.802 18.348H274.672V19.902C274.672 20.448 274.7 20.812 274.77 21.26H273.02C273.09 20.798 273.118 20.42 273.118 19.902V18.348ZM268.05 11.698L269.114 10.774C269.912 11.39 270.458 11.866 271.06 12.524L270.01 13.56C269.338 12.748 268.918 12.342 268.05 11.698ZM278.592 10.774L279.698 11.712C278.914 12.496 278.228 13.056 277.248 13.728L276.282 12.706C277.318 12.034 277.864 11.572 278.592 10.774ZM276.954 14.554L277.808 13.588C278.956 14.288 279.264 14.512 280.3 15.366L279.306 16.528C278.536 15.716 277.906 15.184 276.954 14.554ZM24.982 33.3L26.396 32.6C27.362 33.93 28.09 35.442 28.496 37.052L26.9 37.85C26.62 36.38 25.752 34.322 24.982 33.3ZM20.866 30.22L20.838 30.402C20.768 30.808 20.67 31.382 20.53 32.138C20.488 32.376 20.488 32.376 20.446 32.558C20.866 32.544 21.062 32.53 21.314 32.53C22.238 32.53 22.924 32.782 23.386 33.272C23.862 33.804 24.044 34.476 24.044 35.75C24.044 38.158 23.638 40.076 22.966 40.846C22.574 41.308 22.154 41.476 21.412 41.476C20.768 41.476 20.194 41.364 19.256 41.056C19.27 40.79 19.284 40.58 19.284 40.44C19.284 40.076 19.256 39.796 19.144 39.25C19.9 39.586 20.698 39.81 21.188 39.81C21.594 39.81 21.818 39.544 22.028 38.858C22.252 38.13 22.392 36.856 22.392 35.666C22.392 34.378 22.07 34 20.992 34C20.698 34 20.474 34.014 20.152 34.042C19.466 36.912 18.836 38.606 17.296 41.658L15.672 40.762C16.75 39.292 17.828 36.772 18.486 34.168C18.276 34.196 18.276 34.196 17.828 34.28L16.554 34.49C16.33 34.532 16.176 34.574 15.98 34.63L15.812 32.978C16.442 32.964 17.17 32.894 18.794 32.684C19.06 31.13 19.158 30.332 19.158 29.856C19.158 29.8 19.158 29.716 19.158 29.604L20.978 29.786C20.936 29.898 20.894 30.08 20.866 30.22ZM24.114 30.318L25.094 29.828C25.71 30.486 26.088 31.018 26.564 31.886L25.584 32.404C25.122 31.55 24.73 30.99 24.114 30.318ZM28.23 30.976L27.264 31.522C26.844 30.752 26.382 30.094 25.836 29.492L26.774 29.002C27.404 29.646 27.796 30.178 28.23 30.976ZM33.774 30.92H31.52C30.932 30.92 30.456 30.948 29.98 31.004V29.562C30.414 29.618 30.904 29.646 31.576 29.646H40.438C41.138 29.646 41.6 29.618 42.034 29.562V31.004C41.6 30.948 41.082 30.92 40.494 30.92H38.1V31.774H39.808C40.592 31.774 40.928 31.76 41.278 31.732C41.236 32.082 41.222 32.348 41.222 32.852V34.21C41.222 34.644 41.236 34.98 41.278 35.33C40.914 35.288 40.508 35.274 39.85 35.274H38.1V36.142H40.732C41.404 36.142 41.852 36.114 42.272 36.058V37.5C41.81 37.444 41.376 37.416 40.732 37.416H31.24C30.61 37.416 30.134 37.444 29.7 37.5V36.058C30.134 36.114 30.582 36.142 31.24 36.142H33.774V35.274H32.136C31.408 35.274 31.072 35.288 30.68 35.33C30.722 34.966 30.736 34.658 30.736 34.21V32.852C30.736 32.418 30.722 32.082 30.68 31.732C31.044 31.76 31.338 31.774 32.136 31.774H33.774V30.92ZM35.16 30.92V31.774H36.714V30.92H35.16ZM35.16 35.274V36.142H36.714V35.274H35.16ZM33.774 32.936H32.178V34.112H33.774V32.936ZM35.16 32.936V34.112H36.714V32.936H35.16ZM38.1 32.936V34.112H39.808V32.936H38.1ZM30.736 41.784L29.49 40.874C30.316 39.852 30.694 39.152 31.142 37.836L32.444 38.424C31.87 40.048 31.534 40.692 30.736 41.784ZM34.544 39.082V40.23C34.544 40.482 34.586 40.58 34.726 40.636C34.908 40.72 35.23 40.748 35.748 40.748C37.358 40.748 37.722 40.72 37.946 40.566C38.17 40.398 38.268 40.006 38.352 38.984C38.87 39.25 39.178 39.348 39.794 39.46C39.612 40.72 39.472 41.21 39.164 41.518C38.758 41.924 38.156 42.022 35.86 42.022C34.628 42.022 33.942 41.952 33.55 41.77C33.2 41.616 33.06 41.308 33.06 40.706V39.096C33.06 38.55 33.046 38.298 32.976 37.906H34.614C34.558 38.256 34.544 38.508 34.544 39.082ZM37.974 39.292L36.7 40.034C36.196 39.194 35.93 38.844 35.258 38.144L36.406 37.528C37.022 38.088 37.498 38.62 37.974 39.292ZM42.524 40.86L41.236 41.686C40.55 40.09 40.186 39.474 39.332 38.41L40.522 37.752C41.376 38.774 41.782 39.404 42.524 40.86ZM44.498 30.71H46.416C46.346 31.228 46.304 31.914 46.304 32.838C46.304 34.056 46.416 35.736 46.57 36.59C46.808 38.046 47.256 38.942 47.704 38.942C47.914 38.942 48.11 38.732 48.278 38.34C48.614 37.584 48.866 36.744 49.02 35.806C49.51 36.366 49.734 36.576 50.42 37.08C49.692 39.81 48.88 40.944 47.69 40.944C46.752 40.944 45.996 40.258 45.436 38.914C44.862 37.514 44.61 35.484 44.554 31.606C44.54 31.116 44.54 31.018 44.498 30.71ZM51.568 32.04L53.038 31.34C54.802 33.454 55.782 35.792 56.188 38.872L54.452 39.53C54.368 38.214 54.046 36.758 53.556 35.484C53.08 34.21 52.408 33.076 51.568 32.04ZM64.826 38.186H63.188C63.202 37.892 63.216 37.752 63.216 37.584C63.216 37.43 63.216 37.43 63.174 36.59L62.978 31.83C62.95 31.214 62.908 30.514 62.852 30.122H65.148C65.106 30.5 65.05 31.228 65.022 31.83L64.826 36.59C64.798 37.402 64.798 37.402 64.798 37.598C64.798 37.766 64.798 37.906 64.826 38.186ZM65.022 41.252H62.992V39.334H65.022V41.252Z" fill="#0054AC"/>
</svg>
