<svg width="59" height="181" viewBox="0 0 59 181" fill="none" xmlns="http://www.w3.org/2000/svg">
<path d="M20.38 30.66H57.16V36.24H20.38V30.66ZM25.24 42.06L28.9 37.74C31.72 39.48 35.5 42.18 37.3 44.04L33.46 48.9C31.78 46.92 28.12 43.98 25.24 42.06ZM44.8 28.44L48.28 25.26C50.2 26.46 52.6 28.26 53.74 29.58L50.02 33C48.94 31.68 46.66 29.7 44.8 28.44ZM24.34 33.54H30.7C29.98 42.72 28.3 51.06 20.8 56.34C19.96 54.84 18.22 52.62 16.72 51.54C22.84 47.46 23.92 40.56 24.34 33.54ZM34.66 0.119997H40.9C40.36 27.54 44.38 50.4 51.58 50.4C53.08 50.4 53.62 49.32 53.92 44.52C55.18 45.9 57.16 47.1 58.6 47.76C57.52 54.66 55.78 56.46 51.1 56.46C37.9 56.4 34.66 29.88 34.66 0.119997ZM48.4 36.12L54.34 38.34C50.2 46.74 42.82 52.8 33.76 56.34C32.98 55.08 31.18 52.92 29.98 51.72C38.56 48.72 45.1 43.2 48.4 36.12ZM40 11.34L42.64 7.44C45.16 9.24 48.16 11.94 49.54 13.74L46.78 18.24C45.4 16.26 42.4 13.38 40 11.34ZM51.22 18.3L55.24 16.8C56.68 19.68 58.06 23.4 58.42 25.74L54.1 27.54C53.74 25.14 52.54 21.24 51.22 18.3ZM41.08 21.54C44.68 21.3 49.42 20.94 54.46 20.52L54.58 25.08C50.2 25.68 45.94 26.22 42.1 26.7L41.08 21.54ZM46.6 0.419997L52 2.4C50.08 5.82 48.04 9.6 46.36 12.06L42.52 10.32C43.96 7.62 45.7 3.42 46.6 0.419997ZM51.64 6.84L56.62 9.24C53.38 14.28 49.3 20.4 46 24.24L42.28 22.14C45.46 18.12 49.42 11.58 51.64 6.84ZM19 11.34L21.7 7.44C24.16 9.24 27.22 11.94 28.54 13.74L25.78 18.24C24.46 16.26 21.46 13.38 19 11.34ZM29.26 19.02L33.28 17.7C34.6 20.58 35.74 24.36 35.98 26.7L31.66 28.32C31.42 25.86 30.4 22.02 29.26 19.02ZM19.42 22.5C23.08 22.26 27.88 21.9 32.98 21.48L33.1 26.34C28.66 26.88 24.28 27.36 20.38 27.78L19.42 22.5ZM25.66 0.419997L31 2.46C29.02 5.82 27.04 9.78 25.42 12.24L21.58 10.56C22.96 7.8 24.7 3.42 25.66 0.419997ZM30.7 6.84L35.62 9.24C32.26 14.58 28 21 24.52 25.02L20.8 22.98C24.16 18.78 28.3 11.88 30.7 6.84ZM2.14 12.48H20.44V19.08H2.14V12.48ZM8.56 0.0599978H14.98V56.4H8.56V0.0599978ZM8.44 17.04L12.16 18.3C10.72 27.72 7.66 39.3 3.76 45.42C3.16 43.62 1.72 40.92 0.7 39.3C4.18 34.14 7.18 24.66 8.44 17.04ZM14.68 21.06C15.88 22.68 20.5 30.36 21.4 32.1L17.98 37.08C16.78 33.54 13.54 26.52 12.04 23.7L14.68 21.06ZM10.36 72.76L17.86 74.38C15.7 79.9 13 85.78 10.72 89.62L4.48 88C6.64 83.92 9.1 77.56 10.36 72.76ZM1.3 85.06C7.78 84.88 17.5 84.46 26.8 84.04L26.74 90.28C17.92 90.94 8.68 91.48 1.84 91.9L1.3 85.06ZM4.84 94.72H23.92V100.66H11.5V129.34H4.84V94.72ZM20.5 94.72H27.64V122.14C27.64 125.2 27.04 127 25 128.08C22.9 129.16 20.2 129.28 16.54 129.28C16.18 127.36 15.16 124.6 14.26 122.86C16.36 122.98 18.76 122.98 19.54 122.92C20.26 122.92 20.5 122.74 20.5 121.96V94.72ZM7.9 103.78H24.52V109.12H7.9V103.78ZM7.9 112.6H24.52V117.94H7.9V112.6ZM32.32 73.3H39.52V91.3C39.52 93.4 39.88 93.7 42.16 93.7C43.12 93.7 47.44 93.7 48.7 93.7C50.68 93.7 51.04 92.8 51.28 87.52C52.78 88.66 55.72 89.74 57.7 90.16C56.92 97.96 55 100.12 49.42 100.12C47.92 100.12 42.52 100.12 41.14 100.12C34.06 100.12 32.32 98.08 32.32 91.42V73.3ZM50.32 76.84L54.88 82.06C49.54 84.64 42.58 86.92 36.64 88.54C36.34 87.1 35.38 84.94 34.6 83.56C40.18 81.82 46.36 79.12 50.32 76.84ZM32.32 101.32H39.46V120.22C39.46 122.44 39.88 122.68 42.22 122.68C43.24 122.68 47.74 122.68 49.06 122.68C51.16 122.68 51.52 121.6 51.82 115.48C53.32 116.56 56.2 117.7 58.18 118.12C57.4 126.58 55.48 128.98 49.72 128.98C48.22 128.98 42.64 128.98 41.2 128.98C34.12 128.98 32.32 126.94 32.32 120.28V101.32ZM50.8 103.84L55.48 109.12C50.02 112.06 42.76 114.58 36.58 116.32C36.22 114.94 35.2 112.66 34.48 111.28C40.3 109.42 46.72 106.48 50.8 103.84ZM18.52 79.36L24.64 77.08C27.58 81.4 30.7 87.1 31.84 91.06L25.3 93.7C24.28 89.86 21.4 83.86 18.52 79.36ZM14.3327 180.735C11.5231 180.724 9.10547 180.033 7.0799 178.661C5.06522 177.288 3.51338 175.301 2.42436 172.698C1.34624 170.095 0.812618 166.964 0.823509 163.305C0.823509 159.657 1.36257 156.548 2.4407 153.978C3.52971 151.408 5.08156 149.453 7.09624 148.114C9.1218 146.763 11.534 146.088 14.3327 146.088C17.1315 146.088 19.5382 146.763 21.5529 148.114C23.5785 149.464 25.1358 151.424 26.2248 153.994C27.3138 156.554 27.8529 159.657 27.842 163.305C27.842 166.975 27.2975 170.112 26.2085 172.714C25.1303 175.317 23.5839 177.305 21.5692 178.677C19.5546 180.049 17.1424 180.735 14.3327 180.735ZM14.3327 174.871C16.2494 174.871 17.7795 173.907 18.9229 171.979C20.0664 170.052 20.6327 167.161 20.6218 163.305C20.6218 160.768 20.3604 158.655 19.8377 156.967C19.3259 155.279 18.5962 154.011 17.6488 153.161C16.7122 152.312 15.6069 151.887 14.3327 151.887C12.427 151.887 10.9023 152.84 9.75888 154.746C8.61541 156.652 8.03823 159.505 8.02734 163.305C8.02734 165.875 8.28326 168.021 8.7951 169.741C9.31783 171.451 10.0529 172.736 11.0004 173.597C11.9478 174.446 13.0586 174.871 14.3327 174.871ZM45.2512 180.457C42.8118 180.457 40.6393 180.038 38.7335 179.2C36.8386 178.35 35.3412 177.185 34.2413 175.704C33.1523 174.212 32.5914 172.491 32.5588 170.542H39.6809C39.7245 171.359 39.9913 172.077 40.4814 172.698C40.9823 173.308 41.6466 173.782 42.4743 174.119C43.3019 174.457 44.233 174.626 45.2676 174.626C46.3457 174.626 47.2986 174.435 48.1262 174.054C48.9539 173.673 49.6019 173.145 50.0701 172.469C50.5384 171.794 50.7726 171.016 50.7726 170.134C50.7726 169.241 50.5221 168.451 50.0211 167.765C49.5311 167.068 48.8232 166.523 47.8976 166.131C46.9828 165.739 45.8938 165.543 44.6305 165.543H41.5105V160.349H44.6305C45.6977 160.349 46.6397 160.164 47.4565 159.793C48.2842 159.423 48.9267 158.911 49.3841 158.258C49.8414 157.594 50.0701 156.82 50.0701 155.938C50.0701 155.1 49.8687 154.365 49.4657 153.733C49.0737 153.09 48.5183 152.589 47.7995 152.23C47.0917 151.871 46.264 151.691 45.3166 151.691C44.3583 151.691 43.4816 151.865 42.6866 152.214C41.8916 152.551 41.2546 153.036 40.7754 153.668C40.2962 154.299 40.0403 155.04 40.0076 155.889H33.2285C33.2612 153.962 33.8111 152.263 34.8784 150.793C35.9456 149.322 37.3831 148.174 39.1909 147.346C41.0095 146.507 43.0623 146.088 45.3493 146.088C47.658 146.088 49.6781 146.507 51.4096 147.346C53.1412 148.184 54.4861 149.317 55.4444 150.744C56.4136 152.159 56.8928 153.749 56.8819 155.513C56.8928 157.387 56.3102 158.949 55.1341 160.202C53.9688 161.454 52.4496 162.249 50.5765 162.587V162.848C53.0377 163.164 54.9108 164.019 56.1958 165.413C57.4918 166.796 58.1343 168.527 58.1234 170.607C58.1343 172.513 57.5843 174.206 56.4735 175.688C55.3736 177.169 53.8545 178.334 51.916 179.183C49.9776 180.033 47.756 180.457 45.2512 180.457Z" fill="white"/>
</svg>
