<svg width="59" height="190" viewBox="0 0 59 190" fill="none" xmlns="http://www.w3.org/2000/svg">
<path d="M19.88 30.66H56.66V36.24H19.88V30.66ZM24.74 42.06L28.4 37.74C31.22 39.48 35 42.18 36.8 44.04L32.96 48.9C31.28 46.92 27.62 43.98 24.74 42.06ZM44.3 28.44L47.78 25.26C49.7 26.46 52.1 28.26 53.24 29.58L49.52 33C48.44 31.68 46.16 29.7 44.3 28.44ZM23.84 33.54H30.2C29.48 42.72 27.8 51.06 20.3 56.34C19.46 54.84 17.72 52.62 16.22 51.54C22.34 47.46 23.42 40.56 23.84 33.54ZM34.16 0.119997H40.4C39.86 27.54 43.88 50.4 51.08 50.4C52.58 50.4 53.12 49.32 53.42 44.52C54.68 45.9 56.66 47.1 58.1 47.76C57.02 54.66 55.28 56.46 50.6 56.46C37.4 56.4 34.16 29.88 34.16 0.119997ZM47.9 36.12L53.84 38.34C49.7 46.74 42.32 52.8 33.26 56.34C32.48 55.08 30.68 52.92 29.48 51.72C38.06 48.72 44.6 43.2 47.9 36.12ZM39.5 11.34L42.14 7.44C44.66 9.24 47.66 11.94 49.04 13.74L46.28 18.24C44.9 16.26 41.9 13.38 39.5 11.34ZM50.72 18.3L54.74 16.8C56.18 19.68 57.56 23.4 57.92 25.74L53.6 27.54C53.24 25.14 52.04 21.24 50.72 18.3ZM40.58 21.54C44.18 21.3 48.92 20.94 53.96 20.52L54.08 25.08C49.7 25.68 45.44 26.22 41.6 26.7L40.58 21.54ZM46.1 0.419997L51.5 2.4C49.58 5.82 47.54 9.6 45.86 12.06L42.02 10.32C43.46 7.62 45.2 3.42 46.1 0.419997ZM51.14 6.84L56.12 9.24C52.88 14.28 48.8 20.4 45.5 24.24L41.78 22.14C44.96 18.12 48.92 11.58 51.14 6.84ZM18.5 11.34L21.2 7.44C23.66 9.24 26.72 11.94 28.04 13.74L25.28 18.24C23.96 16.26 20.96 13.38 18.5 11.34ZM28.76 19.02L32.78 17.7C34.1 20.58 35.24 24.36 35.48 26.7L31.16 28.32C30.92 25.86 29.9 22.02 28.76 19.02ZM18.92 22.5C22.58 22.26 27.38 21.9 32.48 21.48L32.6 26.34C28.16 26.88 23.78 27.36 19.88 27.78L18.92 22.5ZM25.16 0.419997L30.5 2.46C28.52 5.82 26.54 9.78 24.92 12.24L21.08 10.56C22.46 7.8 24.2 3.42 25.16 0.419997ZM30.2 6.84L35.12 9.24C31.76 14.58 27.5 21 24.02 25.02L20.3 22.98C23.66 18.78 27.8 11.88 30.2 6.84ZM1.64 12.48H19.94V19.08H1.64V12.48ZM8.06 0.0599978H14.48V56.4H8.06V0.0599978ZM7.94 17.04L11.66 18.3C10.22 27.72 7.16 39.3 3.26 45.42C2.66 43.62 1.22 40.92 0.2 39.3C3.68 34.14 6.68 24.66 7.94 17.04ZM14.18 21.06C15.38 22.68 20 30.36 20.9 32.1L17.48 37.08C16.28 33.54 13.04 26.52 11.54 23.7L14.18 21.06ZM9.86 72.76L17.36 74.38C15.2 79.9 12.5 85.78 10.22 89.62L3.98 88C6.14 83.92 8.6 77.56 9.86 72.76ZM0.8 85.06C7.28 84.88 17 84.46 26.3 84.04L26.24 90.28C17.42 90.94 8.18 91.48 1.34 91.9L0.8 85.06ZM4.34 94.72H23.42V100.66H11V129.34H4.34V94.72ZM20 94.72H27.14V122.14C27.14 125.2 26.54 127 24.5 128.08C22.4 129.16 19.7 129.28 16.04 129.28C15.68 127.36 14.66 124.6 13.76 122.86C15.86 122.98 18.26 122.98 19.04 122.92C19.76 122.92 20 122.74 20 121.96V94.72ZM7.4 103.78H24.02V109.12H7.4V103.78ZM7.4 112.6H24.02V117.94H7.4V112.6ZM31.82 73.3H39.02V91.3C39.02 93.4 39.38 93.7 41.66 93.7C42.62 93.7 46.94 93.7 48.2 93.7C50.18 93.7 50.54 92.8 50.78 87.52C52.28 88.66 55.22 89.74 57.2 90.16C56.42 97.96 54.5 100.12 48.92 100.12C47.42 100.12 42.02 100.12 40.64 100.12C33.56 100.12 31.82 98.08 31.82 91.42V73.3ZM49.82 76.84L54.38 82.06C49.04 84.64 42.08 86.92 36.14 88.54C35.84 87.1 34.88 84.94 34.1 83.56C39.68 81.82 45.86 79.12 49.82 76.84ZM31.82 101.32H38.96V120.22C38.96 122.44 39.38 122.68 41.72 122.68C42.74 122.68 47.24 122.68 48.56 122.68C50.66 122.68 51.02 121.6 51.32 115.48C52.82 116.56 55.7 117.7 57.68 118.12C56.9 126.58 54.98 128.98 49.22 128.98C47.72 128.98 42.14 128.98 40.7 128.98C33.62 128.98 31.82 126.94 31.82 120.28V101.32ZM50.3 103.84L54.98 109.12C49.52 112.06 42.26 114.58 36.08 116.32C35.72 114.94 34.7 112.66 33.98 111.28C39.8 109.42 46.22 106.48 50.3 103.84ZM18.02 79.36L24.14 77.08C27.08 81.4 30.2 87.1 31.34 91.06L24.8 93.7C23.78 89.86 20.9 83.86 18.02 79.36ZM17.5817 189.863C14.2834 189.85 11.4453 189.038 9.06747 187.428C6.70242 185.817 4.88068 183.484 3.60227 180.428C2.33665 177.373 1.71023 173.697 1.72301 169.402C1.72301 165.119 2.35582 161.469 3.62145 158.452C4.89986 155.435 6.72159 153.141 9.08665 151.568C11.4645 149.983 14.2962 149.19 17.5817 149.19C20.8672 149.19 23.6925 149.983 26.0575 151.568C28.4354 153.153 30.2635 155.455 31.5419 158.472C32.8203 161.476 33.4531 165.119 33.4403 169.402C33.4403 173.71 32.8011 177.392 31.5227 180.447C30.2571 183.503 28.4418 185.836 26.0767 187.447C23.7116 189.058 20.88 189.863 17.5817 189.863ZM17.5817 182.979C19.8317 182.979 21.6278 181.847 22.9702 179.585C24.3125 177.322 24.9773 173.928 24.9645 169.402C24.9645 166.423 24.6577 163.943 24.044 161.962C23.4432 159.98 22.5866 158.491 21.4744 157.494C20.375 156.496 19.0774 155.998 17.5817 155.998C15.3445 155.998 13.5547 157.116 12.2124 159.354C10.87 161.591 10.1925 164.94 10.1797 169.402C10.1797 172.419 10.4801 174.938 11.081 176.957C11.6946 178.964 12.5575 180.473 13.6697 181.483C14.782 182.48 16.0859 182.979 17.5817 182.979ZM56.4469 149.727V189H48.1436V157.609H47.9135L38.9199 163.246V155.883L48.6422 149.727H56.4469Z" fill="white"/>
</svg>
