<svg width="190" height="90" viewBox="0 0 190 90" fill="none" xmlns="http://www.w3.org/2000/svg">
<rect width="190" height="90" rx="12" fill="white"/>
<path d="M18.225 27.987L19.802 26.866C21.037 27.74 21.075 27.759 22.177 28.766C23.507 27.683 24.191 26.98 25.426 25.479H20.429C18.947 27.075 17.408 28.253 15.299 29.431C14.976 28.785 14.653 28.405 14.007 27.835C17.123 26.315 19.631 24.035 20.752 21.698L22.994 22.249C22.5 22.971 22.329 23.199 22.006 23.636H25.901C26.623 23.636 27.079 23.617 27.573 23.541L28.694 24.738C28.466 25.023 28.447 25.042 28.01 25.612C26.357 27.778 24.533 29.526 22.291 31.103H28.447C29.207 31.103 29.587 31.084 30.043 31.027C29.967 31.54 29.948 32.034 29.948 32.775V37.658C29.948 38.418 29.986 39.045 30.062 39.539H27.896V38.513H20.638V39.539H18.434C18.51 38.969 18.548 38.342 18.548 37.658V33.535C17.389 34.181 16.648 34.523 14.938 35.245C14.615 34.428 14.349 34.029 13.722 33.345C15.356 32.813 16.914 32.148 18.282 31.407C18.89 31.065 19.517 30.666 20.543 29.982C19.745 29.146 19.213 28.69 18.225 27.987ZM20.619 32.965V36.708H27.915V32.965H20.619ZM34.109 24.453H36.94C36.465 23.655 36.18 23.256 35.401 22.363L37.453 21.774C38.403 23.028 38.65 23.389 39.22 24.453H41.785C42.545 23.56 42.982 22.857 43.457 21.793L45.604 22.382C45.11 23.161 44.54 23.921 44.084 24.453H47.01C47.941 24.453 48.511 24.415 49.043 24.339V26.391C48.473 26.296 47.979 26.277 47.01 26.277H34.109C33.197 26.277 32.665 26.296 32.076 26.391V24.339C32.817 24.434 33.14 24.453 34.109 24.453ZM35.097 35.492V37.43C35.097 38.399 35.116 38.912 35.211 39.463H33.026C33.102 38.836 33.121 38.285 33.121 37.297V29.108C33.121 28.177 33.102 27.873 33.064 27.398C33.634 27.455 34.09 27.474 34.85 27.474H38.536C39.505 27.474 39.809 27.455 40.227 27.398C40.189 27.854 40.17 28.291 40.17 29.298V37.468C40.17 38.931 39.752 39.292 37.985 39.292C37.7 39.292 37.472 39.292 36.788 39.273C36.655 38.38 36.598 38.152 36.332 37.411C36.959 37.487 37.32 37.525 37.662 37.525C38.118 37.525 38.213 37.449 38.213 37.107V35.492H35.097ZM35.097 33.706H38.213V32.376H35.097V33.706ZM35.097 30.59H38.213V29.26H35.097V30.59ZM41.88 27.74H44.065C43.989 28.272 43.97 28.595 43.97 29.545V33.611C43.97 34.827 43.989 35.112 44.046 35.663H41.899C41.956 35.112 41.975 34.77 41.975 33.63V29.526C41.975 28.652 41.956 28.31 41.88 27.74ZM45.889 27.227H48.112C48.017 27.759 47.998 28.291 47.998 29.241V37.24C47.998 38.076 47.865 38.57 47.561 38.874C47.162 39.254 46.649 39.387 45.433 39.387C44.977 39.387 44.578 39.368 43.381 39.311C43.267 38.532 43.134 38.076 42.792 37.297C43.837 37.449 44.54 37.506 45.11 37.506C45.889 37.506 45.984 37.43 45.984 36.898V29.184C45.984 28.12 45.965 27.778 45.889 27.227ZM49.765 35.15L51.38 33.649C53.128 34.979 54.192 36.024 55.655 37.829L53.888 39.482C52.501 37.601 51.418 36.461 49.765 35.15ZM79.728 24.51H77.334C77.22 26.125 76.973 26.999 76.327 27.968C75.909 28.614 75.491 29.032 74.579 29.716C74.18 29.089 73.895 28.766 73.344 28.291C72.983 28.823 72.698 29.203 72.489 29.469C72.185 29.849 72.166 29.849 72.033 30.077V37.164C72.033 38.114 72.071 38.855 72.166 39.558H69.886C69.962 39.007 70 38.171 70 37.164V33.117C70 33.06 70 32.851 70.019 32.585V32.091C69.677 32.528 69.145 33.022 68.499 33.516C68.29 32.661 68.043 32.072 67.606 31.426C69.012 30.476 70 29.45 71.311 27.664C71.767 27.037 71.938 26.733 72.147 26.277L73.8 27.512C74.921 26.467 75.32 25.422 75.32 23.446C75.32 23.123 75.301 22.933 75.263 22.591C75.738 22.629 76.042 22.648 76.745 22.648H80.431C81.153 22.648 81.4 22.629 81.837 22.591C81.799 22.971 81.78 23.237 81.78 23.94V26.638C81.78 26.942 81.913 27.018 82.483 27.018C83.49 27.018 83.509 26.942 83.566 24.795C84.459 25.232 84.782 25.365 85.428 25.498C85.314 27.037 85.2 27.74 84.953 28.139C84.649 28.652 83.889 28.861 82.293 28.861C80.146 28.861 79.728 28.633 79.728 27.493V24.51ZM83.034 29.887L84.079 31.084C83.794 31.464 83.794 31.464 83.186 32.414C82.388 33.649 81.419 34.827 80.45 35.72C81.856 36.499 83.319 36.993 85.371 37.354C84.896 38.19 84.801 38.437 84.478 39.539C82.008 38.95 80.545 38.323 78.702 37.088C77.125 38.171 75.7 38.817 73.42 39.52C73.192 38.741 72.964 38.304 72.394 37.506C74.37 37.012 75.567 36.537 76.992 35.682C76.061 34.732 75.339 33.668 74.427 31.863C73.724 31.882 73.515 31.882 73.116 31.939V29.887C73.553 29.963 73.99 29.982 74.674 29.982H81.704C82.388 29.982 82.768 29.963 83.034 29.887ZM81.077 31.863H76.536C77.353 33.174 77.828 33.744 78.702 34.485C79.633 33.725 80.184 33.117 81.077 31.863ZM72.052 21.926L73.781 23.161C73.61 23.351 73.61 23.351 73.268 23.731C71.767 25.441 70.779 26.296 69.05 27.36C68.632 26.505 68.404 26.125 67.872 25.593C69.259 24.833 70.247 24.073 71.311 22.895C71.748 22.401 71.9 22.23 72.052 21.926ZM97.987 23.693V25.365C97.55 25.327 97.55 25.327 97.379 25.327C97.246 26.106 97.094 26.752 96.904 27.36H98.424C98.386 26.03 98.386 26.03 98.367 23.503C98.367 22.743 98.348 22.572 98.31 22.135H100.286C100.191 22.8 100.191 23.104 100.191 24.548C100.191 25.213 100.21 26.79 100.229 27.36H101.331C102.471 27.36 102.851 27.341 103.459 27.246V29.241C102.756 29.165 102.452 29.146 101.331 29.146H100.286C100.381 30.628 100.495 31.635 100.647 32.623C101.141 31.654 101.597 30.533 101.711 29.925L103.25 30.894C103.136 31.122 102.984 31.464 102.832 31.806C102.414 32.832 101.768 34.067 101.217 34.941C101.483 35.72 101.635 36.1 101.863 36.499C102.034 36.803 102.11 36.898 102.148 36.898C102.281 36.898 102.414 36.005 102.471 34.504C102.965 34.941 103.497 35.302 103.972 35.53C103.82 36.993 103.668 37.734 103.421 38.304C103.155 38.874 102.737 39.178 102.243 39.178C101.445 39.178 100.552 38.266 99.887 36.727C98.937 37.848 98.139 38.57 96.828 39.539C96.353 38.779 96.163 38.57 95.631 38.076C96.296 37.639 96.543 37.468 96.923 37.164H94.016V38.399H92.306C92.344 37.848 92.382 37.373 92.382 36.746V31.597C92.382 30.761 92.363 30.533 92.325 29.906C92.648 29.944 92.857 29.963 93.522 29.963H96.543C97.094 29.963 97.341 29.944 97.778 29.906C97.74 30.343 97.74 30.628 97.74 31.597V35.663C97.74 36.309 97.74 36.309 97.74 36.48C98.272 35.967 98.709 35.473 99.241 34.808C98.823 33.231 98.652 31.901 98.481 29.146H91.432V37.563C91.432 38.551 91.451 39.026 91.527 39.577H89.608C89.665 39.026 89.703 38.437 89.703 37.544V36.119C88.867 36.385 87.974 36.67 87.309 36.86C86.416 37.088 86.359 37.107 86.036 37.24L85.599 35.188C85.808 35.188 86.093 35.15 86.644 35.036V24.453C86.245 24.472 86.074 24.491 85.808 24.529V22.515C86.207 22.572 86.644 22.61 87.404 22.61H90.387C91.204 22.61 91.603 22.591 92.04 22.515V23.674C92.42 23.731 92.724 23.75 93.218 23.75H94.13V23.636C94.13 22.876 94.092 22.534 94.016 22.097H96.049C95.973 22.534 95.954 22.895 95.954 23.636V23.75H96.638C97.322 23.75 97.607 23.731 97.987 23.693ZM95.802 25.308H94.263C94.377 25.859 94.491 26.543 94.586 27.36H95.384C95.555 26.771 95.707 26.068 95.802 25.308ZM91.432 27.36H93.066C92.971 26.79 92.838 26.087 92.648 25.308C92.363 25.327 92.287 25.327 92.002 25.365V24.491C91.736 24.472 91.66 24.472 91.432 24.453V27.36ZM88.392 24.453V26.676H89.703V24.453H88.392ZM88.392 28.367V30.4H89.703V28.367H88.392ZM88.392 32.091V34.637C89.019 34.485 89.19 34.428 89.703 34.276V32.091H88.392ZM94.016 31.54V32.756H96.144V31.54H94.016ZM93.997 34.238V35.587H96.144V34.238H93.997ZM100.552 23.617L101.939 22.876C102.623 23.921 102.946 24.529 103.459 25.745L101.958 26.619C101.521 25.251 101.236 24.643 100.552 23.617ZM103.915 35.15L105.53 33.649C107.278 34.979 108.342 36.024 109.805 37.829L108.038 39.482C106.651 37.601 105.568 36.461 103.915 35.15ZM125.993 29.716V28.253C124.815 29.013 124.283 29.298 122.953 29.887C122.63 29.127 122.326 28.595 121.851 27.949C123.903 27.132 125.176 26.429 126.62 25.308C127.874 24.339 128.843 23.332 129.622 22.116H131.883C132.89 23.522 133.65 24.263 135.094 25.27C136.709 26.41 138.248 27.208 139.977 27.835C139.445 28.652 139.198 29.184 138.932 29.963C137.735 29.45 137.013 29.07 135.683 28.234V29.716C135.189 29.659 134.695 29.64 133.973 29.64H127.627C127.076 29.64 126.506 29.659 125.993 29.716ZM127.646 27.664H133.954C134.258 27.664 134.429 27.664 134.79 27.645C133.042 26.448 131.959 25.46 130.819 23.959C129.812 25.308 128.634 26.41 126.867 27.645C127.19 27.664 127.304 27.664 127.646 27.664ZM127.836 33.155H124.948C123.979 33.155 123.333 33.193 122.706 33.269V31.065C123.333 31.141 124.055 31.179 124.948 31.179H136.785C137.716 31.179 138.381 31.141 139.008 31.065V33.269C138.381 33.193 137.735 33.155 136.785 33.155H130.249C129.66 34.542 129.071 35.663 128.273 36.841C131.636 36.651 131.636 36.651 134.296 36.366C133.688 35.701 133.365 35.359 132.301 34.257L134.182 33.421C136.215 35.473 137.032 36.423 138.571 38.494L136.747 39.691C136.12 38.76 135.93 38.494 135.607 38.038C134.03 38.247 132.89 38.38 132.187 38.456C130.306 38.627 126.544 38.969 125.784 39.026C124.72 39.102 123.77 39.197 123.333 39.292L123.029 36.974C123.542 37.012 123.865 37.031 124.131 37.031C124.264 37.031 124.834 37.012 125.803 36.955C126.734 35.549 127.323 34.447 127.836 33.155ZM145.05 32.129V37.639C145.05 38.532 145.069 39.007 145.145 39.577H142.846C142.941 39.007 142.96 38.494 142.96 37.601V32.832C142.219 33.516 141.82 33.82 140.851 34.447C140.623 33.725 140.281 33.041 139.882 32.471C141.212 31.711 142.124 30.989 143.15 29.906C144.043 28.975 144.594 28.196 145.221 26.98H142.124C141.44 26.98 141.041 26.999 140.528 27.056V24.947C141.003 25.004 141.402 25.023 142.029 25.023H142.979V23.427C142.979 22.933 142.941 22.42 142.865 21.983H145.164C145.088 22.42 145.05 22.838 145.05 23.465V25.023H145.829C146.418 25.023 146.684 25.004 146.931 24.966L147.843 25.954C147.672 26.239 147.558 26.429 147.425 26.752C146.798 28.12 146.437 28.747 145.525 30.001C146.418 31.008 147.292 31.692 148.546 32.414C148.09 33.022 147.805 33.554 147.501 34.276C146.513 33.63 145.867 33.079 145.05 32.129ZM153.106 29.317V36.746H155.386C156.336 36.746 156.963 36.708 157.552 36.632V38.931C156.887 38.836 156.146 38.798 155.386 38.798H148.888C148.128 38.798 147.406 38.836 146.741 38.931V36.632C147.349 36.708 148.014 36.746 148.926 36.746H150.997V29.317H149.572C148.926 29.317 148.318 29.355 147.71 29.412V27.265C148.261 27.341 148.755 27.36 149.572 27.36H150.997V24.016C150.997 23.237 150.959 22.781 150.864 22.04H153.239C153.125 22.8 153.106 23.199 153.106 24.016V27.36H155.12C155.975 27.36 156.45 27.341 156.982 27.265V29.412C156.374 29.355 155.785 29.317 155.12 29.317H153.106ZM162.625 27.987L164.202 26.866C165.437 27.74 165.475 27.759 166.577 28.766C167.907 27.683 168.591 26.98 169.826 25.479H164.829C163.347 27.075 161.808 28.253 159.699 29.431C159.376 28.785 159.053 28.405 158.407 27.835C161.523 26.315 164.031 24.035 165.152 21.698L167.394 22.249C166.9 22.971 166.729 23.199 166.406 23.636H170.301C171.023 23.636 171.479 23.617 171.973 23.541L173.094 24.738C172.866 25.023 172.847 25.042 172.41 25.612C170.757 27.778 168.933 29.526 166.691 31.103H172.847C173.607 31.103 173.987 31.084 174.443 31.027C174.367 31.54 174.348 32.034 174.348 32.775V37.658C174.348 38.418 174.386 39.045 174.462 39.539H172.296V38.513H165.038V39.539H162.834C162.91 38.969 162.948 38.342 162.948 37.658V33.535C161.789 34.181 161.048 34.523 159.338 35.245C159.015 34.428 158.749 34.029 158.122 33.345C159.756 32.813 161.314 32.148 162.682 31.407C163.29 31.065 163.917 30.666 164.943 29.982C164.145 29.146 163.613 28.69 162.625 27.987ZM165.019 32.965V36.708H172.315V32.965H165.019ZM23.564 55.866V63.675H28.162C29.492 63.675 29.891 63.656 30.632 63.542V65.936C29.948 65.86 29.454 65.841 28.2 65.841H16.8C15.546 65.841 15.052 65.86 14.368 65.936V63.542C15.109 63.656 15.508 63.675 16.838 63.675H21.132V55.866H18.225C16.971 55.866 16.477 55.885 15.793 55.961V53.586C16.515 53.7 16.971 53.719 18.263 53.719H26.718C28.01 53.719 28.466 53.7 29.188 53.586V55.961C28.504 55.885 28.029 55.866 26.756 55.866H23.564ZM34.926 52.009L37.51 52.028C37.434 52.56 37.434 52.731 37.434 53.738V58.982C37.434 59.932 37.434 60.179 37.51 60.654H34.907C34.964 60.217 35.002 59.628 35.002 58.944V53.719C35.002 52.75 34.983 52.503 34.926 52.009ZM43.495 52.047H46.136C46.06 52.522 46.041 52.731 46.041 53.814V56.379C46.022 59.343 45.889 60.939 45.547 62.136C44.996 64.036 43.78 65.461 41.804 66.563C40.797 67.133 39.847 67.513 38.099 68.026C37.757 67.095 37.567 66.772 36.769 65.765C38.631 65.404 39.733 65.005 40.873 64.245C42.659 63.067 43.286 61.908 43.495 59.4C43.571 58.583 43.59 57.747 43.59 56.227V53.852C43.59 52.883 43.571 52.484 43.495 52.047ZM65.611 52.465L66.884 53.909C66.618 54.232 66.618 54.251 66.124 55.239C65.459 56.645 64.357 58.07 63.198 59.058C62.438 59.723 61.811 60.141 60.918 60.635C60.348 59.837 60.063 59.552 59.208 58.906C60.481 58.336 61.203 57.899 61.982 57.158C62.761 56.436 63.35 55.657 63.787 54.745H53.812C52.482 54.745 52.007 54.764 51.228 54.859V52.484C51.95 52.598 52.539 52.636 53.85 52.636H63.768C64.908 52.636 65.079 52.617 65.611 52.465ZM56.586 56.303H59.17C59.113 56.664 59.113 56.683 59.094 57.842C59.018 61.091 58.505 62.915 57.213 64.568C56.073 66.031 54.686 67 52.311 67.988C51.817 66.962 51.57 66.62 50.81 65.822C52.349 65.366 53.204 64.948 54.135 64.207C56.073 62.668 56.681 61.034 56.681 57.443C56.681 56.873 56.662 56.702 56.586 56.303ZM72.945 51.249L75.377 51.496C75.263 51.857 75.263 51.857 75.073 52.769C74.978 53.225 74.883 53.605 74.674 54.441C75.985 54.308 76.973 54.137 77.714 53.909L77.771 56.094C77.562 56.113 77.524 56.113 77.163 56.189C76.479 56.303 75.32 56.436 74.142 56.531C73.591 58.431 72.907 60.236 72.052 62.041C71.615 62.972 71.444 63.314 70.722 64.644C70.475 65.1 70.475 65.1 70.361 65.328L68.176 64.112C68.841 63.238 69.373 62.383 70.019 61.072C70.76 59.552 71.083 58.773 71.805 56.588C70.95 56.607 70.836 56.607 70.608 56.607C70.361 56.607 70.247 56.607 69.848 56.588L68.841 56.569V54.403C69.525 54.536 70.247 54.574 71.406 54.574C71.634 54.574 71.957 54.574 72.375 54.555C72.698 53.206 72.907 52.066 72.945 51.249ZM85.105 56.189L84.079 58.146C82.426 57.044 80.735 56.227 78.607 55.486L79.747 53.643C81.989 54.498 83.414 55.163 85.105 56.189ZM85.029 64.758L83.984 66.886C83.3 66.069 82.198 65.176 81.077 64.53C81.096 64.701 81.115 64.834 81.115 64.91C81.115 65.613 80.792 66.43 80.298 66.924C79.633 67.608 78.493 67.988 77.144 67.988C74.636 67.988 73.002 66.734 73.002 64.796C73.002 62.877 74.693 61.528 77.106 61.528C77.676 61.528 78.075 61.566 78.873 61.699C78.816 60.825 78.778 60.084 78.778 59.514C78.778 58.773 78.816 58.222 78.93 57.595L81.134 57.709C80.944 58.412 80.906 58.849 80.906 59.628C80.906 60.388 80.944 61.148 81.077 62.231C82.445 62.839 82.635 62.934 84.079 63.979C84.364 64.169 84.44 64.245 84.744 64.492C84.896 64.644 84.896 64.644 85.029 64.758ZM78.949 63.713C78.284 63.485 77.828 63.409 77.239 63.409C76.004 63.409 75.206 63.922 75.206 64.72C75.206 65.499 75.89 65.955 77.068 65.955C78.36 65.955 78.987 65.423 78.987 64.359C78.987 64.169 78.949 63.713 78.949 63.713ZM90.691 51.971L93.161 51.591C93.161 52.503 93.902 55.999 94.415 57.538C95.593 57.082 96.315 56.835 98.709 56.075C99.716 55.752 99.716 55.752 100.058 55.581L100.875 57.975C99.222 58.298 96.733 59.001 94.605 59.799C91.831 60.825 90.444 62.022 90.444 63.39C90.444 64.777 91.736 65.366 94.795 65.366C97.17 65.366 99.507 65.081 100.932 64.606L101.141 67.19C100.742 67.209 100.609 67.228 99.602 67.323C97.55 67.532 96.486 67.608 95.156 67.608C92.515 67.608 90.862 67.285 89.646 66.563C88.601 65.936 87.993 64.777 87.993 63.39C87.993 62.136 88.601 60.92 89.684 59.989C90.425 59.381 91.033 58.982 92.268 58.374C91.831 56.987 91.47 55.581 90.995 53.225C90.786 52.275 90.786 52.256 90.691 51.971ZM98.139 52.256L99.469 51.591C100.305 52.484 100.818 53.206 101.464 54.384L100.134 55.087C99.507 53.928 98.975 53.168 98.139 52.256ZM103.725 53.149L102.414 53.89C101.844 52.845 101.217 51.952 100.476 51.135L101.749 50.47C102.604 51.344 103.136 52.066 103.725 53.149ZM104.789 56.227L104.656 53.738C105.074 53.757 105.283 53.757 105.378 53.757C105.72 53.757 105.72 53.757 108.513 53.567C109.9 53.491 113.149 53.32 118.222 53.073C119.78 52.997 119.875 52.997 120.179 52.921L120.312 55.334C120.103 55.315 120.103 55.315 119.913 55.315C118.773 55.315 117.367 55.695 116.151 56.341C113.738 57.595 112.313 59.495 112.313 61.414C112.313 62.896 113.244 64.036 114.84 64.511C115.771 64.796 116.987 65.005 117.671 65.005C117.69 65.005 117.861 65.005 118.051 64.986L117.709 67.57C117.462 67.513 117.424 67.513 117.063 67.456C114.973 67.19 113.776 66.848 112.617 66.202C110.869 65.214 109.9 63.599 109.9 61.623C109.9 60.008 110.546 58.412 111.705 57.158C112.427 56.379 113.111 55.866 114.346 55.239C112.807 55.467 111.629 55.581 107.943 55.847C106.252 55.98 105.378 56.094 104.789 56.227ZM116.417 58.051L117.747 57.386C118.583 58.279 119.096 59.001 119.742 60.179L118.412 60.882C117.785 59.723 117.253 58.963 116.417 58.051ZM122.003 58.944L120.692 59.685C120.122 58.64 119.495 57.747 118.754 56.93L120.027 56.265C120.882 57.139 121.414 57.861 122.003 58.944ZM132.453 57.139H131.693C130.933 57.139 130.667 57.158 130.154 57.196V56.341C129.337 56.968 129.09 57.12 128.349 57.557C128.026 56.892 127.95 56.721 127.722 56.379C127.418 56.36 127.285 56.36 127.057 56.36H126.563C126.981 57.462 127.513 58.336 128.52 59.59C128.14 60.179 127.893 60.692 127.646 61.395C126.867 60.065 126.867 60.046 126.354 58.83C126.411 59.4 126.449 60.236 126.449 61.357V66.278C126.449 67.285 126.487 68.007 126.563 68.615H124.397C124.473 68.007 124.511 67.247 124.511 66.278V62.345C124.511 61.718 124.549 60.768 124.625 59.856C124.093 61.547 124.036 61.737 123.694 62.535C123.618 62.744 123.352 63.314 122.896 64.264C122.516 63.276 122.269 62.82 121.813 62.231C122.82 60.806 123.922 58.241 124.321 56.36H123.561C122.991 56.36 122.63 56.379 122.288 56.436V54.365C122.649 54.422 122.953 54.441 123.561 54.441H124.511V52.959C124.511 51.971 124.473 51.458 124.397 50.964H126.544C126.468 51.496 126.449 52.028 126.449 52.94V54.441H127.019C127.475 54.441 127.722 54.422 128.045 54.365V55.448C128.729 55.011 129.413 54.517 130.078 53.909C131.085 52.978 131.674 52.256 132.301 51.135H134.41C134.942 52.047 135.55 52.712 136.652 53.586C137.754 54.46 138.742 55.03 139.996 55.543C139.559 56.151 139.274 56.702 139.008 57.424C138.191 57.006 137.678 56.721 136.899 56.189V57.196C136.462 57.158 136.12 57.139 135.36 57.139H134.353V58.317H136.861C137.64 58.317 138.039 58.298 138.533 58.26C138.495 58.83 138.476 59.229 138.476 59.723V62.06C138.476 62.706 138.495 62.972 138.533 63.504C137.982 63.447 137.526 63.428 136.747 63.428H134.79C135.93 65.005 137.64 66.031 139.863 66.525C139.331 67.247 139.027 67.817 138.818 68.558C137.393 68.064 136.025 67.266 135.018 66.335C134.296 65.67 133.859 65.1 133.422 64.34C132.491 66.354 130.952 67.646 128.33 68.539C127.969 67.684 127.703 67.228 127.133 66.62C129.603 66.088 130.857 65.214 131.731 63.428H130.249C129.508 63.428 129.052 63.447 128.501 63.504C128.539 63.01 128.558 62.725 128.558 62.288V59.571C128.558 59.039 128.539 58.735 128.501 58.26C128.995 58.317 129.204 58.317 130.135 58.317H132.453V57.139ZM132.415 59.932H130.439V61.794H132.263C132.358 61.224 132.377 60.958 132.415 59.932ZM136.576 59.932H134.315C134.277 60.787 134.239 61.205 134.144 61.794H136.576V59.932ZM131.693 55.391H135.36C135.436 55.391 135.474 55.391 135.816 55.391C134.79 54.574 134.201 53.928 133.422 52.807C132.681 53.928 132.092 54.65 131.275 55.391C131.427 55.391 131.427 55.391 131.693 55.391ZM140.984 63.808L140.718 61.661C141.307 61.756 142.371 61.794 144.043 61.794C144.499 61.794 144.499 61.794 146.684 61.756C146.779 61.68 146.779 61.68 146.874 61.604C145.316 60.54 144.48 60.027 143.131 59.324L144.328 57.823C144.974 58.165 145.24 58.317 145.639 58.564C146.171 58.013 146.437 57.69 146.817 57.158H142.77V59.343H140.604C140.661 58.887 140.68 58.507 140.68 58.032V56.664C140.68 55.98 140.661 55.733 140.623 55.315C141.326 55.372 141.858 55.391 142.637 55.391H147.634V54.156H142.732C141.63 54.156 141.041 54.175 140.433 54.251V52.218C140.965 52.294 141.725 52.332 142.751 52.332H147.634V52.218C147.634 51.8 147.596 51.401 147.52 50.983H149.876C149.781 51.401 149.743 51.781 149.743 52.218V52.332H154.93C155.975 52.332 156.735 52.294 157.267 52.218V54.251C156.716 54.194 155.956 54.156 154.968 54.156H149.743V55.391H155.044C155.937 55.391 156.507 55.372 157.077 55.315C157.039 55.714 157.02 55.904 157.02 56.569V58.013C157.02 58.564 157.039 58.963 157.096 59.362H154.911V57.158H149.211C148.527 58.089 147.976 58.716 147.178 59.552C147.634 59.856 147.767 59.932 148.356 60.369C149.61 59.21 150.351 58.355 150.864 57.462L153.011 58.374C152.821 58.545 152.669 58.697 152.403 58.963C151.358 60.065 150.37 60.958 149.382 61.699C150.864 61.661 151.206 61.642 153.448 61.509C153.068 61.11 152.859 60.901 152.27 60.331L153.828 59.305C155.215 60.616 156.393 61.889 157.419 63.238L155.785 64.511C155.272 63.77 155.082 63.504 154.778 63.086C151.491 63.352 151.491 63.352 149.8 63.428V66.639C149.8 67.532 149.838 67.988 149.933 68.558H147.501C147.596 68.007 147.615 67.551 147.615 66.639V63.523C143.796 63.694 143.777 63.694 142.96 63.694C141.82 63.713 141.478 63.732 140.984 63.808ZM144.784 63.846L146.513 64.948C145.145 66.411 143.929 67.266 141.877 68.216C141.326 67.418 140.946 67.019 140.319 66.525C141.44 66.183 142.124 65.879 143.055 65.309C143.853 64.815 144.214 64.511 144.784 63.846ZM150.845 64.91L152.346 63.58C154.208 64.986 155.462 65.67 157.4 66.297C156.754 66.981 156.45 67.361 155.994 68.159C154.208 67.361 153.049 66.639 150.845 64.91ZM171.327 53.738H160.839C160.003 53.738 159.262 53.776 158.502 53.852V51.705C159.186 51.781 159.889 51.819 160.801 51.819H173.246C174.101 51.819 174.899 51.781 175.583 51.705V53.852C174.956 53.776 174.348 53.757 173.455 53.738V66.316C173.455 68.102 172.942 68.425 170.244 68.425C169.693 68.425 168.99 68.406 168.154 68.368C168.078 67.646 167.907 66.924 167.622 66.259C168.743 66.392 169.693 66.468 170.472 66.468C171.175 66.468 171.327 66.373 171.327 65.879V53.738ZM168.724 57.329V62.117C168.724 62.706 168.743 63.162 168.8 63.656C168.477 63.618 168.401 63.618 168.059 63.599C167.869 63.599 167.717 63.599 167.565 63.599C167.318 63.58 167.147 63.58 167.071 63.58H162.606V65.157H160.421C160.497 64.549 160.535 64.017 160.535 63.447V57.462C160.535 56.721 160.516 56.246 160.44 55.714C160.934 55.771 161.447 55.79 162.207 55.79H166.995C167.755 55.79 168.287 55.771 168.819 55.714C168.743 56.208 168.724 56.55 168.724 57.329ZM162.587 57.633V61.737H166.691V57.633H162.587Z" fill="#5D5D5D"/>
</svg>
