<svg width="61" height="182" viewBox="0 0 61 182" fill="none" xmlns="http://www.w3.org/2000/svg">
<path d="M20.88 30.66H57.66V36.24H20.88V30.66ZM25.74 42.06L29.4 37.74C32.22 39.48 36 42.18 37.8 44.04L33.96 48.9C32.28 46.92 28.62 43.98 25.74 42.06ZM45.3 28.44L48.78 25.26C50.7 26.46 53.1 28.26 54.24 29.58L50.52 33C49.44 31.68 47.16 29.7 45.3 28.44ZM24.84 33.54H31.2C30.48 42.72 28.8 51.06 21.3 56.34C20.46 54.84 18.72 52.62 17.22 51.54C23.34 47.46 24.42 40.56 24.84 33.54ZM35.16 0.119997H41.4C40.86 27.54 44.88 50.4 52.08 50.4C53.58 50.4 54.12 49.32 54.42 44.52C55.68 45.9 57.66 47.1 59.1 47.76C58.02 54.66 56.28 56.46 51.6 56.46C38.4 56.4 35.16 29.88 35.16 0.119997ZM48.9 36.12L54.84 38.34C50.7 46.74 43.32 52.8 34.26 56.34C33.48 55.08 31.68 52.92 30.48 51.72C39.06 48.72 45.6 43.2 48.9 36.12ZM40.5 11.34L43.14 7.44C45.66 9.24 48.66 11.94 50.04 13.74L47.28 18.24C45.9 16.26 42.9 13.38 40.5 11.34ZM51.72 18.3L55.74 16.8C57.18 19.68 58.56 23.4 58.92 25.74L54.6 27.54C54.24 25.14 53.04 21.24 51.72 18.3ZM41.58 21.54C45.18 21.3 49.92 20.94 54.96 20.52L55.08 25.08C50.7 25.68 46.44 26.22 42.6 26.7L41.58 21.54ZM47.1 0.419997L52.5 2.4C50.58 5.82 48.54 9.6 46.86 12.06L43.02 10.32C44.46 7.62 46.2 3.42 47.1 0.419997ZM52.14 6.84L57.12 9.24C53.88 14.28 49.8 20.4 46.5 24.24L42.78 22.14C45.96 18.12 49.92 11.58 52.14 6.84ZM19.5 11.34L22.2 7.44C24.66 9.24 27.72 11.94 29.04 13.74L26.28 18.24C24.96 16.26 21.96 13.38 19.5 11.34ZM29.76 19.02L33.78 17.7C35.1 20.58 36.24 24.36 36.48 26.7L32.16 28.32C31.92 25.86 30.9 22.02 29.76 19.02ZM19.92 22.5C23.58 22.26 28.38 21.9 33.48 21.48L33.6 26.34C29.16 26.88 24.78 27.36 20.88 27.78L19.92 22.5ZM26.16 0.419997L31.5 2.46C29.52 5.82 27.54 9.78 25.92 12.24L22.08 10.56C23.46 7.8 25.2 3.42 26.16 0.419997ZM31.2 6.84L36.12 9.24C32.76 14.58 28.5 21 25.02 25.02L21.3 22.98C24.66 18.78 28.8 11.88 31.2 6.84ZM2.64 12.48H20.94V19.08H2.64V12.48ZM9.06 0.0599978H15.48V56.4H9.06V0.0599978ZM8.94 17.04L12.66 18.3C11.22 27.72 8.16 39.3 4.26 45.42C3.66 43.62 2.22 40.92 1.2 39.3C4.68 34.14 7.68 24.66 8.94 17.04ZM15.18 21.06C16.38 22.68 21 30.36 21.9 32.1L18.48 37.08C17.28 33.54 14.04 26.52 12.54 23.7L15.18 21.06ZM10.86 72.76L18.36 74.38C16.2 79.9 13.5 85.78 11.22 89.62L4.98 88C7.14 83.92 9.6 77.56 10.86 72.76ZM1.8 85.06C8.28 84.88 18 84.46 27.3 84.04L27.24 90.28C18.42 90.94 9.18 91.48 2.34 91.9L1.8 85.06ZM5.34 94.72H24.42V100.66H12V129.34H5.34V94.72ZM21 94.72H28.14V122.14C28.14 125.2 27.54 127 25.5 128.08C23.4 129.16 20.7 129.28 17.04 129.28C16.68 127.36 15.66 124.6 14.76 122.86C16.86 122.98 19.26 122.98 20.04 122.92C20.76 122.92 21 122.74 21 121.96V94.72ZM8.4 103.78H25.02V109.12H8.4V103.78ZM8.4 112.6H25.02V117.94H8.4V112.6ZM32.82 73.3H40.02V91.3C40.02 93.4 40.38 93.7 42.66 93.7C43.62 93.7 47.94 93.7 49.2 93.7C51.18 93.7 51.54 92.8 51.78 87.52C53.28 88.66 56.22 89.74 58.2 90.16C57.42 97.96 55.5 100.12 49.92 100.12C48.42 100.12 43.02 100.12 41.64 100.12C34.56 100.12 32.82 98.08 32.82 91.42V73.3ZM50.82 76.84L55.38 82.06C50.04 84.64 43.08 86.92 37.14 88.54C36.84 87.1 35.88 84.94 35.1 83.56C40.68 81.82 46.86 79.12 50.82 76.84ZM32.82 101.32H39.96V120.22C39.96 122.44 40.38 122.68 42.72 122.68C43.74 122.68 48.24 122.68 49.56 122.68C51.66 122.68 52.02 121.6 52.32 115.48C53.82 116.56 56.7 117.7 58.68 118.12C57.9 126.58 55.98 128.98 50.22 128.98C48.72 128.98 43.14 128.98 41.7 128.98C34.62 128.98 32.82 126.94 32.82 120.28V101.32ZM51.3 103.84L55.98 109.12C50.52 112.06 43.26 114.58 37.08 116.32C36.72 114.94 35.7 112.66 34.98 111.28C40.8 109.42 47.22 106.48 51.3 103.84ZM19.02 79.36L25.14 77.08C28.08 81.4 31.2 87.1 32.34 91.06L25.8 93.7C24.78 89.86 21.9 83.86 19.02 79.36ZM14.067 181.751C11.1962 181.74 8.72607 181.033 6.65647 179.631C4.598 178.229 3.01241 176.199 1.89972 173.539C0.798162 170.88 0.252945 167.681 0.264071 163.942C0.264071 160.215 0.814853 157.038 1.91642 154.412C3.0291 151.786 4.61469 149.789 6.67316 148.42C8.74276 147.041 11.2074 146.351 14.067 146.351C16.9266 146.351 19.3856 147.041 21.4441 148.42C23.5137 149.8 25.1049 151.803 26.2176 154.429C27.3302 157.044 27.881 160.215 27.8699 163.942C27.8699 167.692 27.3136 170.897 26.2009 173.556C25.0993 176.215 23.5193 178.246 21.4608 179.648C19.4023 181.05 16.9377 181.751 14.067 181.751ZM14.067 175.759C16.0253 175.759 17.5886 174.775 18.757 172.805C19.9253 170.836 20.5039 167.881 20.4928 163.942C20.4928 161.35 20.2257 159.191 19.6916 157.467C19.1687 155.742 18.4232 154.446 17.4551 153.578C16.4982 152.71 15.3688 152.276 14.067 152.276C12.1198 152.276 10.562 153.25 9.39369 155.197C8.22536 157.144 7.63564 160.059 7.62451 163.942C7.62451 166.568 7.88599 168.76 8.40896 170.518C8.94305 172.265 9.69411 173.578 10.6622 174.457C11.6302 175.325 12.7651 175.759 14.067 175.759ZM32.5056 174.991V169.3L46.7759 146.818H51.6828V154.696H48.7787L39.7826 168.933V169.2H60.0614V174.991H32.5056ZM48.9122 181V173.256L49.0458 170.735V146.818H55.822V181H48.9122Z" fill="#0054AC"/>
</svg>
