<svg width="59" height="182" viewBox="0 0 59 182" fill="none" xmlns="http://www.w3.org/2000/svg">
<path d="M20.38 30.66H57.16V36.24H20.38V30.66ZM25.24 42.06L28.9 37.74C31.72 39.48 35.5 42.18 37.3 44.04L33.46 48.9C31.78 46.92 28.12 43.98 25.24 42.06ZM44.8 28.44L48.28 25.26C50.2 26.46 52.6 28.26 53.74 29.58L50.02 33C48.94 31.68 46.66 29.7 44.8 28.44ZM24.34 33.54H30.7C29.98 42.72 28.3 51.06 20.8 56.34C19.96 54.84 18.22 52.62 16.72 51.54C22.84 47.46 23.92 40.56 24.34 33.54ZM34.66 0.119997H40.9C40.36 27.54 44.38 50.4 51.58 50.4C53.08 50.4 53.62 49.32 53.92 44.52C55.18 45.9 57.16 47.1 58.6 47.76C57.52 54.66 55.78 56.46 51.1 56.46C37.9 56.4 34.66 29.88 34.66 0.119997ZM48.4 36.12L54.34 38.34C50.2 46.74 42.82 52.8 33.76 56.34C32.98 55.08 31.18 52.92 29.98 51.72C38.56 48.72 45.1 43.2 48.4 36.12ZM40 11.34L42.64 7.44C45.16 9.24 48.16 11.94 49.54 13.74L46.78 18.24C45.4 16.26 42.4 13.38 40 11.34ZM51.22 18.3L55.24 16.8C56.68 19.68 58.06 23.4 58.42 25.74L54.1 27.54C53.74 25.14 52.54 21.24 51.22 18.3ZM41.08 21.54C44.68 21.3 49.42 20.94 54.46 20.52L54.58 25.08C50.2 25.68 45.94 26.22 42.1 26.7L41.08 21.54ZM46.6 0.419997L52 2.4C50.08 5.82 48.04 9.6 46.36 12.06L42.52 10.32C43.96 7.62 45.7 3.42 46.6 0.419997ZM51.64 6.84L56.62 9.24C53.38 14.28 49.3 20.4 46 24.24L42.28 22.14C45.46 18.12 49.42 11.58 51.64 6.84ZM19 11.34L21.7 7.44C24.16 9.24 27.22 11.94 28.54 13.74L25.78 18.24C24.46 16.26 21.46 13.38 19 11.34ZM29.26 19.02L33.28 17.7C34.6 20.58 35.74 24.36 35.98 26.7L31.66 28.32C31.42 25.86 30.4 22.02 29.26 19.02ZM19.42 22.5C23.08 22.26 27.88 21.9 32.98 21.48L33.1 26.34C28.66 26.88 24.28 27.36 20.38 27.78L19.42 22.5ZM25.66 0.419997L31 2.46C29.02 5.82 27.04 9.78 25.42 12.24L21.58 10.56C22.96 7.8 24.7 3.42 25.66 0.419997ZM30.7 6.84L35.62 9.24C32.26 14.58 28 21 24.52 25.02L20.8 22.98C24.16 18.78 28.3 11.88 30.7 6.84ZM2.14 12.48H20.44V19.08H2.14V12.48ZM8.56 0.0599978H14.98V56.4H8.56V0.0599978ZM8.44 17.04L12.16 18.3C10.72 27.72 7.66 39.3 3.76 45.42C3.16 43.62 1.72 40.92 0.7 39.3C4.18 34.14 7.18 24.66 8.44 17.04ZM14.68 21.06C15.88 22.68 20.5 30.36 21.4 32.1L17.98 37.08C16.78 33.54 13.54 26.52 12.04 23.7L14.68 21.06ZM10.36 72.76L17.86 74.38C15.7 79.9 13 85.78 10.72 89.62L4.48 88C6.64 83.92 9.1 77.56 10.36 72.76ZM1.3 85.06C7.78 84.88 17.5 84.46 26.8 84.04L26.74 90.28C17.92 90.94 8.68 91.48 1.84 91.9L1.3 85.06ZM4.84 94.72H23.92V100.66H11.5V129.34H4.84V94.72ZM20.5 94.72H27.64V122.14C27.64 125.2 27.04 127 25 128.08C22.9 129.16 20.2 129.28 16.54 129.28C16.18 127.36 15.16 124.6 14.26 122.86C16.36 122.98 18.76 122.98 19.54 122.92C20.26 122.92 20.5 122.74 20.5 121.96V94.72ZM7.9 103.78H24.52V109.12H7.9V103.78ZM7.9 112.6H24.52V117.94H7.9V112.6ZM32.32 73.3H39.52V91.3C39.52 93.4 39.88 93.7 42.16 93.7C43.12 93.7 47.44 93.7 48.7 93.7C50.68 93.7 51.04 92.8 51.28 87.52C52.78 88.66 55.72 89.74 57.7 90.16C56.92 97.96 55 100.12 49.42 100.12C47.92 100.12 42.52 100.12 41.14 100.12C34.06 100.12 32.32 98.08 32.32 91.42V73.3ZM50.32 76.84L54.88 82.06C49.54 84.64 42.58 86.92 36.64 88.54C36.34 87.1 35.38 84.94 34.6 83.56C40.18 81.82 46.36 79.12 50.32 76.84ZM32.32 101.32H39.46V120.22C39.46 122.44 39.88 122.68 42.22 122.68C43.24 122.68 47.74 122.68 49.06 122.68C51.16 122.68 51.52 121.6 51.82 115.48C53.32 116.56 56.2 117.7 58.18 118.12C57.4 126.58 55.48 128.98 49.72 128.98C48.22 128.98 42.64 128.98 41.2 128.98C34.12 128.98 32.32 126.94 32.32 120.28V101.32ZM50.8 103.84L55.48 109.12C50.02 112.06 42.76 114.58 36.58 116.32C36.22 114.94 35.2 112.66 34.48 111.28C40.3 109.42 46.72 106.48 50.8 103.84ZM18.52 79.36L24.64 77.08C27.58 81.4 30.7 87.1 31.84 91.06L25.3 93.7C24.28 89.86 21.4 83.86 18.52 79.36ZM14.6915 181.751C11.8208 181.74 9.35059 181.033 7.28098 179.631C5.22251 178.229 3.63693 176.199 2.52424 173.539C1.42267 170.88 0.877456 167.681 0.888583 163.942C0.888583 160.215 1.43936 157.038 2.54093 154.412C3.65362 151.786 5.2392 149.789 7.29767 148.42C9.36728 147.041 11.8319 146.351 14.6915 146.351C17.5511 146.351 20.0102 147.041 22.0686 148.42C24.1382 149.8 25.7294 151.803 26.8421 154.429C27.9548 157.044 28.5055 160.215 28.4944 163.942C28.4944 167.692 27.9381 170.897 26.8254 173.556C25.7238 176.215 24.1438 178.246 22.0853 179.648C20.0268 181.05 17.5622 181.751 14.6915 181.751ZM14.6915 175.759C16.6498 175.759 18.2132 174.775 19.3815 172.805C20.5498 170.836 21.1284 167.881 21.1173 163.942C21.1173 161.35 20.8502 159.191 20.3161 157.467C19.7932 155.742 19.0477 154.446 18.0796 153.578C17.1227 152.71 15.9933 152.276 14.6915 152.276C12.7443 152.276 11.1865 153.25 10.0182 155.197C8.84988 157.144 8.26015 160.059 8.24902 163.942C8.24902 166.568 8.51051 168.76 9.03347 170.518C9.56756 172.265 10.3186 173.578 11.2867 174.457C12.2547 175.325 13.3896 175.759 14.6915 175.759ZM33.6475 181V175.793L45.8148 164.527C46.8496 163.525 47.7175 162.624 48.4185 161.823C49.1306 161.022 49.6703 160.237 50.0375 159.469C50.4047 158.691 50.5882 157.85 50.5882 156.949C50.5882 155.948 50.3601 155.085 49.9039 154.362C49.4477 153.628 48.8246 153.066 48.0346 152.676C47.2446 152.276 46.3489 152.076 45.3475 152.076C44.3016 152.076 43.3891 152.287 42.6103 152.71C41.8314 153.133 41.2305 153.739 40.8077 154.529C40.3849 155.319 40.1735 156.259 40.1735 157.35H33.3137C33.3137 155.113 33.82 153.172 34.8326 151.525C35.8451 149.878 37.2638 148.604 39.0886 147.703C40.9134 146.801 43.0164 146.351 45.3976 146.351C47.8455 146.351 49.9763 146.785 51.79 147.653C53.6148 148.509 55.0334 149.7 56.046 151.224C57.0585 152.749 57.5648 154.496 57.5648 156.465C57.5648 157.756 57.3089 159.03 56.7971 160.287C56.2963 161.545 55.4006 162.941 54.1099 164.477C52.8192 166.001 50.9999 167.831 48.6522 169.968L43.6618 174.858V175.092H58.0154V181H33.6475Z" fill="#0054AC"/>
</svg>
