<svg width="59" height="181" viewBox="0 0 59 181" fill="none" xmlns="http://www.w3.org/2000/svg">
<path d="M19.88 30.66H56.66V36.24H19.88V30.66ZM24.74 42.06L28.4 37.74C31.22 39.48 35 42.18 36.8 44.04L32.96 48.9C31.28 46.92 27.62 43.98 24.74 42.06ZM44.3 28.44L47.78 25.26C49.7 26.46 52.1 28.26 53.24 29.58L49.52 33C48.44 31.68 46.16 29.7 44.3 28.44ZM23.84 33.54H30.2C29.48 42.72 27.8 51.06 20.3 56.34C19.46 54.84 17.72 52.62 16.22 51.54C22.34 47.46 23.42 40.56 23.84 33.54ZM34.16 0.119997H40.4C39.86 27.54 43.88 50.4 51.08 50.4C52.58 50.4 53.12 49.32 53.42 44.52C54.68 45.9 56.66 47.1 58.1 47.76C57.02 54.66 55.28 56.46 50.6 56.46C37.4 56.4 34.16 29.88 34.16 0.119997ZM47.9 36.12L53.84 38.34C49.7 46.74 42.32 52.8 33.26 56.34C32.48 55.08 30.68 52.92 29.48 51.72C38.06 48.72 44.6 43.2 47.9 36.12ZM39.5 11.34L42.14 7.44C44.66 9.24 47.66 11.94 49.04 13.74L46.28 18.24C44.9 16.26 41.9 13.38 39.5 11.34ZM50.72 18.3L54.74 16.8C56.18 19.68 57.56 23.4 57.92 25.74L53.6 27.54C53.24 25.14 52.04 21.24 50.72 18.3ZM40.58 21.54C44.18 21.3 48.92 20.94 53.96 20.52L54.08 25.08C49.7 25.68 45.44 26.22 41.6 26.7L40.58 21.54ZM46.1 0.419997L51.5 2.4C49.58 5.82 47.54 9.6 45.86 12.06L42.02 10.32C43.46 7.62 45.2 3.42 46.1 0.419997ZM51.14 6.84L56.12 9.24C52.88 14.28 48.8 20.4 45.5 24.24L41.78 22.14C44.96 18.12 48.92 11.58 51.14 6.84ZM18.5 11.34L21.2 7.44C23.66 9.24 26.72 11.94 28.04 13.74L25.28 18.24C23.96 16.26 20.96 13.38 18.5 11.34ZM28.76 19.02L32.78 17.7C34.1 20.58 35.24 24.36 35.48 26.7L31.16 28.32C30.92 25.86 29.9 22.02 28.76 19.02ZM18.92 22.5C22.58 22.26 27.38 21.9 32.48 21.48L32.6 26.34C28.16 26.88 23.78 27.36 19.88 27.78L18.92 22.5ZM25.16 0.419997L30.5 2.46C28.52 5.82 26.54 9.78 24.92 12.24L21.08 10.56C22.46 7.8 24.2 3.42 25.16 0.419997ZM30.2 6.84L35.12 9.24C31.76 14.58 27.5 21 24.02 25.02L20.3 22.98C23.66 18.78 27.8 11.88 30.2 6.84ZM1.64 12.48H19.94V19.08H1.64V12.48ZM8.06 0.0599978H14.48V56.4H8.06V0.0599978ZM7.94 17.04L11.66 18.3C10.22 27.72 7.16 39.3 3.26 45.42C2.66 43.62 1.22 40.92 0.2 39.3C3.68 34.14 6.68 24.66 7.94 17.04ZM14.18 21.06C15.38 22.68 20 30.36 20.9 32.1L17.48 37.08C16.28 33.54 13.04 26.52 11.54 23.7L14.18 21.06ZM9.86 72.76L17.36 74.38C15.2 79.9 12.5 85.78 10.22 89.62L3.98 88C6.14 83.92 8.6 77.56 9.86 72.76ZM0.8 85.06C7.28 84.88 17 84.46 26.3 84.04L26.24 90.28C17.42 90.94 8.18 91.48 1.34 91.9L0.8 85.06ZM4.34 94.72H23.42V100.66H11V129.34H4.34V94.72ZM20 94.72H27.14V122.14C27.14 125.2 26.54 127 24.5 128.08C22.4 129.16 19.7 129.28 16.04 129.28C15.68 127.36 14.66 124.6 13.76 122.86C15.86 122.98 18.26 122.98 19.04 122.92C19.76 122.92 20 122.74 20 121.96V94.72ZM7.4 103.78H24.02V109.12H7.4V103.78ZM7.4 112.6H24.02V117.94H7.4V112.6ZM31.82 73.3H39.02V91.3C39.02 93.4 39.38 93.7 41.66 93.7C42.62 93.7 46.94 93.7 48.2 93.7C50.18 93.7 50.54 92.8 50.78 87.52C52.28 88.66 55.22 89.74 57.2 90.16C56.42 97.96 54.5 100.12 48.92 100.12C47.42 100.12 42.02 100.12 40.64 100.12C33.56 100.12 31.82 98.08 31.82 91.42V73.3ZM49.82 76.84L54.38 82.06C49.04 84.64 42.08 86.92 36.14 88.54C35.84 87.1 34.88 84.94 34.1 83.56C39.68 81.82 45.86 79.12 49.82 76.84ZM31.82 101.32H38.96V120.22C38.96 122.44 39.38 122.68 41.72 122.68C42.74 122.68 47.24 122.68 48.56 122.68C50.66 122.68 51.02 121.6 51.32 115.48C52.82 116.56 55.7 117.7 57.68 118.12C56.9 126.58 54.98 128.98 49.22 128.98C47.72 128.98 42.14 128.98 40.7 128.98C33.62 128.98 31.82 126.94 31.82 120.28V101.32ZM50.3 103.84L54.98 109.12C49.52 112.06 42.26 114.58 36.08 116.32C35.72 114.94 34.7 112.66 33.98 111.28C39.8 109.42 46.22 106.48 50.3 103.84ZM18.02 79.36L24.14 77.08C27.08 81.4 30.2 87.1 31.34 91.06L24.8 93.7C23.78 89.86 20.9 83.86 18.02 79.36ZM14.1697 180.735C11.36 180.724 8.94238 180.033 6.91682 178.661C4.90214 177.288 3.35029 175.301 2.26127 172.698C1.18315 170.095 0.649532 166.964 0.660423 163.305C0.660423 159.657 1.19949 156.548 2.27761 153.978C3.36663 151.408 4.91847 149.453 6.93315 148.114C8.95872 146.763 11.3709 146.088 14.1697 146.088C16.9684 146.088 19.3751 146.763 21.3898 148.114C23.4154 149.464 24.9727 151.424 26.0617 153.994C27.1507 156.554 27.6898 159.657 27.6789 163.305C27.6789 166.975 27.1344 170.112 26.0454 172.714C24.9672 175.317 23.4208 177.305 21.4062 178.677C19.3915 180.049 16.9793 180.735 14.1697 180.735ZM14.1697 174.871C16.0863 174.871 17.6164 173.907 18.7599 171.979C19.9033 170.052 20.4696 167.161 20.4587 163.305C20.4587 160.768 20.1974 158.655 19.6746 156.967C19.1628 155.279 18.4332 154.011 17.4857 153.161C16.5492 152.312 15.4438 151.887 14.1697 151.887C12.2639 151.887 10.7393 152.84 9.59579 154.746C8.45233 156.652 7.87515 159.505 7.86426 163.305C7.86426 165.875 8.12018 168.021 8.63201 169.741C9.15474 171.451 9.88983 172.736 10.8373 173.597C11.7847 174.446 12.8955 174.871 14.1697 174.871ZM44.9411 180.457C42.6324 180.457 40.5742 180.033 38.7664 179.183C36.9695 178.334 35.5429 177.163 34.4866 175.671C33.4302 174.179 32.8803 172.469 32.8367 170.542H39.6975C39.7738 171.838 40.3183 172.889 41.3311 173.695C42.3438 174.5 43.5472 174.903 44.9411 174.903C46.0519 174.903 47.032 174.658 47.8815 174.168C48.7418 173.667 49.4115 172.976 49.8907 172.094C50.3808 171.201 50.6258 170.177 50.6258 169.023C50.6258 167.847 50.3753 166.812 49.8744 165.919C49.3843 165.026 48.7037 164.329 47.8325 163.828C46.9613 163.327 45.9648 163.071 44.8431 163.06C43.863 163.06 42.9101 163.262 41.9845 163.665C41.0697 164.068 40.3564 164.618 39.8445 165.315L33.5555 164.188L35.14 146.545H55.5917V152.328H40.9717L40.1059 160.708H40.3019C40.89 159.88 41.7776 159.194 42.9646 158.65C44.1516 158.105 45.4802 157.833 46.9504 157.833C48.9651 157.833 50.7619 158.307 52.341 159.254C53.9201 160.202 55.167 161.503 56.0818 163.158C56.9965 164.803 57.4485 166.698 57.4376 168.843C57.4485 171.097 56.9258 173.101 55.8694 174.854C54.824 176.597 53.3592 177.969 51.4752 178.971C49.6021 179.962 47.4241 180.457 44.9411 180.457Z" fill="white"/>
</svg>
