<svg width="264" height="93" viewBox="0 0 264 93" fill="none" xmlns="http://www.w3.org/2000/svg">
<path d="M13.9 82.9911L24.6784 42.1123L48.7536 59.0646L13.9 82.9911Z" fill="white"/>
<rect width="264" height="61" rx="30" fill="white"/>
<path d="M26.608 31.604L26.624 34.756C26.624 35.412 26.592 35.796 26.496 36.116C26.352 36.676 25.776 37.044 25.024 37.044C24.016 37.044 22.8 36.596 22 35.908C21.424 35.412 21.12 34.788 21.12 34.1C21.12 33.348 21.616 32.5 22.496 31.732C23.072 31.236 23.776 30.82 24.832 30.372L24.816 27.908C24.688 27.908 24.688 27.908 24.16 27.94C23.92 27.956 23.696 27.956 23.296 27.956C23.056 27.956 22.608 27.94 22.416 27.94C22.208 27.924 22.064 27.924 22.016 27.924C21.952 27.924 21.824 27.924 21.68 27.94L21.664 26.148C22.112 26.244 22.752 26.292 23.6 26.292C23.76 26.292 23.936 26.292 24.16 26.276C24.544 26.26 24.624 26.26 24.8 26.26V25.204C24.8 24.292 24.784 23.876 24.704 23.364H26.704C26.624 23.876 26.608 24.212 26.608 25.108V26.132C27.808 25.988 28.88 25.78 29.696 25.524L29.76 27.316C29.472 27.364 29.168 27.412 28.064 27.604C27.536 27.7 27.216 27.748 26.608 27.812V29.892C27.696 29.572 28.704 29.444 29.872 29.444C32.544 29.444 34.448 31.076 34.448 33.348C34.448 35.428 32.896 36.996 30.816 36.996C29.52 36.996 28.608 36.372 28.192 35.22C27.984 34.676 27.92 34.148 27.92 33.172C28.736 32.948 29.008 32.836 29.696 32.468C29.664 32.772 29.664 32.916 29.664 33.172C29.664 33.844 29.728 34.276 29.888 34.58C30.064 34.916 30.448 35.124 30.896 35.124C31.84 35.124 32.512 34.372 32.512 33.348C32.512 31.972 31.392 31.076 29.68 31.076C28.72 31.076 27.744 31.252 26.608 31.604ZM24.816 34.516V32.18C23.616 32.82 22.912 33.524 22.912 34.1C22.912 34.372 23.072 34.612 23.44 34.836C23.76 35.06 24.16 35.188 24.464 35.188C24.736 35.188 24.816 35.044 24.816 34.516ZM35.152 27.764L33.68 28.948C32.88 27.684 31.712 26.42 30.48 25.492L31.984 24.484C33.376 25.556 34.304 26.516 35.152 27.764ZM43.008 28.948H41.536C40.896 28.948 40.432 28.964 39.968 29.028V28.26C39.056 28.804 38.416 29.14 37.36 29.572C36.976 28.724 36.864 28.516 36.432 27.924C39.408 26.884 41.808 25.156 42.96 23.236H44.944C45.584 24.18 46.272 24.868 47.408 25.7C48.72 26.692 49.92 27.3 51.648 27.86C51.264 28.452 51.024 28.964 50.784 29.62C49.52 29.092 48.992 28.836 47.984 28.212V29.028C47.52 28.964 47.088 28.948 46.416 28.948H44.784V30.5H48.832C49.664 30.5 50.16 30.468 50.576 30.404V32.18C50.128 32.116 49.568 32.084 48.816 32.084H44.784V35.668H49.136C49.952 35.668 50.496 35.636 51.024 35.572V37.412C50.432 37.332 49.76 37.3 49.104 37.3H38.992C38.256 37.3 37.68 37.332 37.008 37.412V35.572C37.584 35.636 38.176 35.668 38.992 35.668H43.008V32.084H39.216C38.528 32.084 37.968 32.116 37.488 32.18V30.404C37.92 30.468 38.432 30.5 39.232 30.5H43.008V28.948ZM41.152 27.444H41.488L46.448 27.46C46.592 27.46 46.592 27.46 46.832 27.444C45.568 26.548 44.784 25.812 43.952 24.756C43.136 25.844 42.48 26.484 41.152 27.444ZM38.816 32.868L40.4 32.228C40.944 33.188 41.248 33.796 41.68 34.884L40.08 35.524C39.744 34.516 39.328 33.668 38.816 32.868ZM47.44 32.244L49.136 32.884C48.928 33.252 48.928 33.252 48.336 34.42C48.288 34.516 48.224 34.628 47.68 35.556L46.176 34.996C46.672 34.196 47.056 33.348 47.44 32.244ZM53.664 31.364L53.84 29.524C54.576 29.812 55.024 29.908 56.656 30.132C56.72 29.556 56.864 28.484 56.944 27.892C56 27.764 55.744 27.732 54.656 27.492C54.432 27.444 54.352 27.428 54.112 27.38L54.272 25.62C54.944 25.876 56.08 26.1 57.168 26.196C57.392 24.852 57.488 24.02 57.488 23.54C57.488 23.492 57.488 23.46 57.472 23.38L59.6 23.572C59.424 24.068 59.376 24.308 59.088 26.276C60.896 26.244 61.824 26.164 62.736 25.94L62.672 27.812C62.464 27.828 62.384 27.844 62.032 27.876C60.88 27.972 60.368 28.004 59.792 28.004C59.632 28.004 59.488 28.004 58.8 27.988C58.64 29.156 58.592 29.476 58.496 30.244C58.976 30.26 59.104 30.26 59.28 30.26C60.416 30.26 61.568 30.148 62.336 29.94L62.288 31.78C62.128 31.78 62.08 31.78 61.808 31.828C61.104 31.908 60.16 31.972 59.408 31.972C59.152 31.972 59.008 31.972 58.384 31.94C58.336 32.372 58.304 32.788 58.304 33.076C58.304 33.86 58.48 34.356 58.896 34.724C59.36 35.124 60 35.316 60.88 35.316C62.912 35.316 64.08 34.42 64.08 32.852C64.08 31.924 63.6 31.028 62.64 30.148C63.536 30.084 63.872 30.02 64.624 29.748C65.024 30.212 65.2 30.452 65.376 30.756C65.792 31.46 66.064 32.372 66.064 33.108C66.064 34.244 65.504 35.348 64.528 36.1C63.616 36.804 62.416 37.156 60.912 37.156C58 37.156 56.416 35.764 56.416 33.188C56.416 32.772 56.432 32.372 56.496 31.828C55.536 31.7 54.912 31.604 54.272 31.46C53.936 31.38 53.888 31.38 53.664 31.364ZM78 27.108L79.808 27.62C79.744 27.748 79.744 27.748 79.616 28.084C79.456 28.532 79.44 28.548 79.392 28.692C80.048 28.852 80.512 29.076 81.056 29.476C82.08 30.244 82.576 31.236 82.576 32.5C82.576 34.244 81.632 35.604 79.824 36.5C78.88 36.964 77.968 37.204 76.56 37.348C76.384 36.66 76.24 36.372 75.712 35.54C77.008 35.524 77.824 35.348 78.768 34.9C80.048 34.292 80.64 33.508 80.64 32.404C80.64 31.396 79.984 30.58 78.848 30.196C77.968 32.1 77.216 33.252 76.064 34.452C74.624 35.972 73.2 36.756 71.872 36.756C70.384 36.756 69.376 35.62 69.376 33.956C69.376 32.644 69.936 31.38 70.96 30.372C71.6 29.748 72.192 29.348 73.152 28.932C73.152 28.42 73.184 27.78 73.216 27.012C73.04 27.012 72.176 26.996 70.624 26.948C70.464 26.948 70.352 26.948 70.32 26.948C70.272 26.948 70.128 26.948 69.952 26.964V25.172C70.672 25.332 71.616 25.412 72.944 25.412C72.96 25.412 72.976 25.412 73.296 25.412C73.312 25.092 73.312 25.092 73.36 24.452C73.376 24.244 73.392 23.844 73.392 23.54C73.392 23.476 73.392 23.412 73.36 23.284L75.344 23.38C75.216 23.812 75.152 24.228 75.056 25.348C77.616 25.204 79.888 24.884 81.12 24.5L81.2 26.34C80.976 26.356 80.912 26.356 80.576 26.404C78.816 26.692 76.224 26.932 74.944 26.964C74.896 27.652 74.88 28.164 74.864 28.5C75.728 28.324 76.096 28.292 77.072 28.292C77.264 28.292 77.392 28.292 77.68 28.324C77.856 27.812 77.952 27.476 78 27.108ZM73.184 30.756C72.48 31.22 72.208 31.46 71.888 31.86C71.408 32.484 71.168 33.14 71.168 33.812C71.168 34.532 71.52 34.98 72.08 34.98C72.528 34.98 72.96 34.788 73.472 34.372C73.264 33.332 73.184 32.308 73.184 30.756ZM74.992 33.172L75.024 33.188C75.088 33.092 75.088 33.092 75.2 32.964C75.952 32.116 76.592 31.092 77.184 29.764C77.008 29.748 76.928 29.748 76.768 29.748C76.064 29.748 75.488 29.828 74.848 30.036C74.864 31.508 74.864 31.668 74.96 32.788C74.976 32.884 74.976 32.884 74.976 32.996C74.976 33.076 74.976 33.092 74.992 33.172ZM98.384 34.804L97.296 36.676C96.592 35.892 95.488 35.076 94.336 34.484C93.984 34.292 93.856 34.244 93.472 34.084C93.472 34.164 93.472 34.228 93.472 34.26C93.472 35.268 93.184 35.956 92.576 36.42C91.968 36.884 91.104 37.108 89.936 37.108C87.6 37.108 86.256 36.196 86.256 34.612C86.256 32.868 87.84 31.844 90.528 31.844C90.912 31.844 91.184 31.86 91.6 31.908C91.6 31.716 91.6 31.716 91.584 31.524C91.584 31.444 91.584 31.332 91.584 31.172C91.568 30.948 91.568 30.948 91.552 30.308C90.784 30.324 90.288 30.34 89.952 30.34C88.976 30.34 88.384 30.324 87.056 30.228C86.848 30.212 86.688 30.212 86.448 30.212L86.48 28.484C87.168 28.644 88.688 28.756 90.208 28.756C90.528 28.756 91.072 28.74 91.52 28.724C91.52 28.58 91.52 28.036 91.504 27.124C90.992 27.14 90.736 27.14 90.496 27.14C89.712 27.14 87.648 27.06 86.576 26.98C86.4 26.964 86.272 26.964 86.224 26.964C86.16 26.964 86.08 26.964 85.968 26.964L85.984 25.188C86.8 25.396 88.448 25.524 90.288 25.524C90.544 25.524 91.088 25.508 91.488 25.492C91.472 23.892 91.472 23.876 91.408 23.476H93.44C93.36 23.908 93.344 24.116 93.328 25.428C95.504 25.3 96.896 25.124 97.936 24.82L98.016 26.596C97.664 26.612 97.664 26.612 96.752 26.74C95.344 26.932 94.72 26.98 93.312 27.06C93.328 27.46 93.328 27.652 93.344 28.644C94.144 28.596 94.144 28.596 95.616 28.436C96.624 28.308 96.88 28.276 97.6 28.084L97.648 29.844C97.376 29.86 96.976 29.908 96.608 29.956C96.368 29.988 95.648 30.068 94.448 30.18C94.224 30.196 93.984 30.212 93.36 30.244C93.408 31.796 93.408 31.796 93.424 32.18C94.832 32.596 96.08 33.22 97.808 34.436C98.08 34.612 98.16 34.676 98.384 34.804ZM91.632 33.572C91.104 33.46 90.784 33.428 90.304 33.428C89.008 33.428 88.224 33.844 88.224 34.532C88.224 35.124 88.912 35.492 90.048 35.492C90.72 35.492 91.216 35.3 91.44 34.98C91.568 34.772 91.632 34.436 91.632 33.956C91.632 33.892 91.632 33.572 91.632 33.572ZM103.648 23.316L105.68 23.428C105.488 23.972 105.408 24.388 105.104 26.516C104.992 27.188 104.928 27.732 104.896 28.116H104.944C104.976 28.02 104.976 28.02 105.04 27.764C105.2 27.204 105.616 26.42 106.048 25.86C106.928 24.772 107.92 24.228 109.088 24.228C110.176 24.228 111.136 24.74 111.824 25.668C112.624 26.74 112.976 28.036 112.976 29.924C112.976 33.012 111.536 35.316 108.848 36.5C108.032 36.868 106.912 37.188 105.712 37.396C105.392 36.484 105.216 36.132 104.768 35.508C106.368 35.332 107.296 35.092 108.272 34.596C110.128 33.652 110.976 32.132 110.976 29.7C110.976 27.396 110.208 26.116 108.832 26.116C108.224 26.116 107.664 26.388 107.104 26.964C105.856 28.26 105.088 30.228 105.088 32.132C105.088 32.212 105.088 32.324 105.088 32.468L103.168 32.5C103.184 32.404 103.184 32.324 103.184 32.292C103.184 32.228 103.184 32.132 103.184 31.988C103.168 31.524 103.136 30.34 103.136 30.02C103.136 28.724 103.232 26.948 103.36 25.844L103.6 23.86C103.632 23.588 103.648 23.524 103.648 23.316ZM129.056 32.084H126.432C126.256 33.092 126 33.764 125.536 34.532C127.232 35.46 128.864 35.828 131.536 35.94C131.248 36.516 130.992 37.124 130.848 37.716C128.144 37.428 126.304 36.852 124.544 35.732C123.616 36.628 122.608 37.204 120.976 37.78C120.688 37.204 120.352 36.708 119.984 36.276C121.456 35.876 122.4 35.428 123.232 34.74C122.816 34.356 122.608 34.116 122.24 33.636C122.032 33.364 121.904 33.22 121.744 33.044L123.136 32.308C123.328 32.692 123.648 33.092 124.192 33.588C124.48 33.06 124.624 32.676 124.752 32.084H122.4C121.888 32.084 121.504 32.1 121.104 32.148C121.152 31.684 121.168 31.38 121.168 30.804V28.58C121.168 27.892 121.152 27.62 121.104 27.236C121.584 27.268 121.824 27.284 122.592 27.284H125.072L125.056 26.132H122.416C121.776 26.132 121.36 26.148 120.88 26.212V24.484C121.36 24.548 121.968 24.58 122.608 24.58H125.056C125.04 23.748 125.024 23.46 124.96 22.964H126.8C126.752 23.412 126.752 23.412 126.752 24.58H129.536C130.272 24.58 130.8 24.548 131.344 24.484V26.212C130.864 26.148 130.384 26.132 129.744 26.132H126.752C126.752 26.356 126.752 26.516 126.752 26.612V27.284H129.104C129.824 27.284 130.16 27.268 130.608 27.236C130.576 27.636 130.56 28.036 130.56 28.628V30.692C130.56 31.46 130.576 31.764 130.608 32.148C130.144 32.1 129.776 32.084 129.056 32.084ZM125.056 28.82H122.832V30.564H124.96C125.024 29.844 125.024 29.716 125.056 28.82ZM128.88 28.82H126.72C126.688 29.652 126.672 29.956 126.608 30.564H128.88V28.82ZM118.112 35.972V31.268C118.112 30.772 118.112 30.516 118.16 29.492C117.808 30.116 117.552 30.5 117.04 31.172C116.816 30.404 116.64 29.94 116.304 29.268C117.776 27.668 119.008 25.028 119.296 22.9L121.12 23.332C120.48 25.316 120.384 25.604 119.808 26.884V35.988C119.808 36.676 119.824 37.204 119.888 37.844H118.016C118.08 37.236 118.112 36.756 118.112 35.972ZM133.712 24.74H135.904C135.824 25.332 135.776 26.116 135.776 27.172C135.776 28.564 135.904 30.484 136.08 31.46C136.352 33.124 136.864 34.148 137.376 34.148C137.616 34.148 137.84 33.908 138.032 33.46C138.416 32.596 138.704 31.636 138.88 30.564C139.44 31.204 139.696 31.444 140.48 32.02C139.648 35.14 138.72 36.436 137.36 36.436C136.288 36.436 135.424 35.652 134.784 34.116C134.128 32.516 133.84 30.196 133.776 25.764C133.76 25.204 133.76 25.092 133.712 24.74ZM141.792 26.26L143.472 25.46C145.488 27.876 146.608 30.548 147.072 34.068L145.088 34.82C144.992 33.316 144.624 31.652 144.064 30.196C143.52 28.74 142.752 27.444 141.792 26.26ZM149.488 27.732L149.52 25.876C150.096 25.972 150.736 26.02 151.664 26.02C151.856 26.02 152.032 26.02 152.4 26.004C152.544 25.236 152.704 24.004 152.704 23.556C152.704 23.492 152.704 23.396 152.688 23.268L154.8 23.46C154.688 23.828 154.688 23.828 154.496 24.996C154.416 25.444 154.4 25.54 154.336 25.908C155.52 25.796 156.272 25.668 157.072 25.428L157.152 27.268C157.024 27.284 157.024 27.284 156.64 27.348C155.824 27.508 154.544 27.668 154.016 27.684C153.84 28.676 153.44 30.372 153.024 31.828C152.56 33.492 152.288 34.292 151.232 37.124L149.216 36.34C150.32 34.308 151.552 30.58 152.08 27.732C151.968 27.748 151.904 27.748 151.872 27.748H150.944C150.864 27.748 150.704 27.748 150.432 27.732C150.144 27.716 149.92 27.716 149.792 27.716C149.712 27.716 149.632 27.716 149.488 27.732ZM162.176 28.084L162.208 29.988C161.44 29.908 160.992 29.876 160.192 29.876C158.608 29.876 157.552 29.988 155.968 30.34L155.824 28.58C158.096 28.148 158.864 28.068 160.592 28.068C161.024 28.068 161.168 28.068 162.176 28.084ZM155.872 31.444L157.456 32.084C156.816 32.884 156.624 33.284 156.624 33.844C156.624 34.66 157.424 35.076 159.024 35.076C160.192 35.076 161.728 34.82 162.656 34.484L162.8 36.452C162.512 36.484 162.384 36.5 162.016 36.564C160.688 36.756 159.984 36.82 159.04 36.82C157.616 36.82 156.592 36.612 155.824 36.18C155.136 35.78 154.688 35.012 154.688 34.212C154.688 33.364 154.992 32.644 155.872 31.444ZM173.84 23.22L175.68 24.628C175.408 24.82 175.104 25.092 173.712 26.388C172.896 27.14 171.776 28.036 169.904 29.46C169.408 29.828 169.296 29.956 169.296 30.132C169.296 30.372 169.328 30.404 170.736 31.46C173.232 33.348 173.696 33.748 175.776 35.636C175.936 35.796 176.032 35.876 176.24 36.036L174.592 37.7C174.176 37.124 173.6 36.516 172.512 35.508C171.376 34.452 170.848 34.02 168.384 32.1C167.328 31.284 167.04 30.852 167.04 30.116C167.04 29.636 167.216 29.204 167.568 28.82C167.776 28.596 167.792 28.58 168.976 27.668C170.704 26.356 171.6 25.588 172.672 24.548C173.392 23.828 173.568 23.62 173.84 23.22ZM184.88 23.236L186.928 23.444C186.832 23.748 186.832 23.748 186.672 24.516C186.592 24.9 186.512 25.22 186.336 25.924C187.44 25.812 188.272 25.668 188.896 25.476L188.944 27.316C188.768 27.332 188.736 27.332 188.432 27.396C187.856 27.492 186.88 27.604 185.888 27.684C185.424 29.284 184.848 30.804 184.128 32.324C183.76 33.108 183.616 33.396 183.008 34.516C182.8 34.9 182.8 34.9 182.704 35.092L180.864 34.068C181.424 33.332 181.872 32.612 182.416 31.508C183.04 30.228 183.312 29.572 183.92 27.732C183.2 27.748 183.104 27.748 182.912 27.748C182.704 27.748 182.608 27.748 182.272 27.732L181.424 27.716V25.892C182 26.004 182.608 26.036 183.584 26.036C183.776 26.036 184.048 26.036 184.4 26.02C184.672 24.884 184.848 23.924 184.88 23.236ZM195.12 27.396L194.256 29.044C192.864 28.116 191.44 27.428 189.648 26.804L190.608 25.252C192.496 25.972 193.696 26.532 195.12 27.396ZM195.056 34.612L194.176 36.404C193.6 35.716 192.672 34.964 191.728 34.42C191.744 34.564 191.76 34.676 191.76 34.74C191.76 35.332 191.488 36.02 191.072 36.436C190.512 37.012 189.552 37.332 188.416 37.332C186.304 37.332 184.928 36.276 184.928 34.644C184.928 33.028 186.352 31.892 188.384 31.892C188.864 31.892 189.2 31.924 189.872 32.036C189.824 31.3 189.792 30.676 189.792 30.196C189.792 29.572 189.824 29.108 189.92 28.58L191.776 28.676C191.616 29.268 191.584 29.636 191.584 30.292C191.584 30.932 191.616 31.572 191.728 32.484C192.88 32.996 193.04 33.076 194.256 33.956C194.496 34.116 194.56 34.18 194.816 34.388C194.944 34.516 194.944 34.516 195.056 34.612ZM189.936 33.732C189.376 33.54 188.992 33.476 188.496 33.476C187.456 33.476 186.784 33.908 186.784 34.58C186.784 35.236 187.36 35.62 188.352 35.62C189.44 35.62 189.968 35.172 189.968 34.276C189.968 34.116 189.936 33.732 189.936 33.732ZM197.712 24.74H199.904C199.824 25.332 199.776 26.116 199.776 27.172C199.776 28.564 199.904 30.484 200.08 31.46C200.352 33.124 200.864 34.148 201.376 34.148C201.616 34.148 201.84 33.908 202.032 33.46C202.416 32.596 202.704 31.636 202.88 30.564C203.44 31.204 203.696 31.444 204.48 32.02C203.648 35.14 202.72 36.436 201.36 36.436C200.288 36.436 199.424 35.652 198.784 34.116C198.128 32.516 197.84 30.196 197.776 25.764C197.76 25.204 197.76 25.092 197.712 24.74ZM205.792 26.26L207.472 25.46C209.488 27.876 210.608 30.548 211.072 34.068L209.088 34.82C208.992 33.316 208.624 31.652 208.064 30.196C207.52 28.74 206.752 27.444 205.792 26.26ZM215.36 32.34C216.864 32.34 218.064 33.556 218.064 35.044C218.064 36.548 216.848 37.764 215.36 37.764C213.872 37.764 212.656 36.548 212.656 35.044C212.656 33.556 213.872 32.34 215.36 32.34ZM215.36 33.588C214.56 33.588 213.904 34.244 213.904 35.044C213.904 35.86 214.56 36.516 215.36 36.516C216.16 36.516 216.816 35.86 216.816 35.044C216.816 34.244 216.16 33.588 215.36 33.588ZM231.36 32.34C232.864 32.34 234.064 33.556 234.064 35.044C234.064 36.548 232.848 37.764 231.36 37.764C229.872 37.764 228.656 36.548 228.656 35.044C228.656 33.556 229.872 32.34 231.36 32.34ZM231.36 33.588C230.56 33.588 229.904 34.244 229.904 35.044C229.904 35.86 230.56 36.516 231.36 36.516C232.16 36.516 232.816 35.86 232.816 35.044C232.816 34.244 232.16 33.588 231.36 33.588Z" fill="#0054AC"/>
</svg>
