<svg width="333" height="109" viewBox="0 0 333 109" fill="none" xmlns="http://www.w3.org/2000/svg">
<path d="M303.1 98.9911L292.322 58.1123L268.246 75.0646L303.1 98.9911Z" fill="white"/>
<rect width="333" height="78" rx="39" transform="matrix(-1 0 0 1 333 0)" fill="white"/>
<path d="M15.664 27.864L15.84 26.024C16.576 26.312 17.024 26.408 18.656 26.632C18.72 26.056 18.864 24.984 18.944 24.392C18 24.264 17.744 24.232 16.656 23.992C16.432 23.944 16.352 23.928 16.112 23.88L16.272 22.12C16.944 22.376 18.08 22.6 19.168 22.696C19.392 21.352 19.488 20.52 19.488 20.04C19.488 19.992 19.488 19.96 19.472 19.88L21.6 20.072C21.424 20.568 21.376 20.808 21.088 22.776C22.896 22.744 23.824 22.664 24.736 22.44L24.672 24.312C24.464 24.328 24.384 24.344 24.032 24.376C22.88 24.472 22.368 24.504 21.792 24.504C21.632 24.504 21.488 24.504 20.8 24.488C20.64 25.656 20.592 25.976 20.496 26.744C20.976 26.76 21.104 26.76 21.28 26.76C22.416 26.76 23.568 26.648 24.336 26.44L24.288 28.28C24.128 28.28 24.08 28.28 23.808 28.328C23.104 28.408 22.16 28.472 21.408 28.472C21.152 28.472 21.008 28.472 20.384 28.44C20.336 28.872 20.304 29.288 20.304 29.576C20.304 30.36 20.48 30.856 20.896 31.224C21.36 31.624 22 31.816 22.88 31.816C24.912 31.816 26.08 30.92 26.08 29.352C26.08 28.424 25.6 27.528 24.64 26.648C25.536 26.584 25.872 26.52 26.624 26.248C27.024 26.712 27.2 26.952 27.376 27.256C27.792 27.96 28.064 28.872 28.064 29.608C28.064 30.744 27.504 31.848 26.528 32.6C25.616 33.304 24.416 33.656 22.912 33.656C20 33.656 18.416 32.264 18.416 29.688C18.416 29.272 18.432 28.872 18.496 28.328C17.536 28.2 16.912 28.104 16.272 27.96C15.936 27.88 15.888 27.88 15.664 27.864ZM34.592 21.56L35.52 19.944C36.624 20.552 39.68 21.464 41.488 21.72L40.832 23.56C38.096 22.936 36.416 22.408 34.592 21.56ZM33.312 22.968L35.312 23.08C35.072 23.96 34.8 25.448 34.592 27.016C34.56 27.24 34.56 27.24 34.512 27.48L34.544 27.512C35.472 26.616 37.456 25.992 39.392 25.992C42.112 25.992 43.904 27.336 43.904 29.384C43.904 30.552 43.28 31.736 42.256 32.472C41.216 33.224 39.888 33.56 38.032 33.56C36.656 33.56 35.776 33.448 33.952 33C33.936 32.008 33.904 31.688 33.712 30.936C35.28 31.48 36.656 31.736 38.016 31.736C40.272 31.736 41.84 30.792 41.84 29.432C41.84 28.36 40.832 27.72 39.136 27.72C37.712 27.72 36.224 28.152 35.152 28.888C34.864 29.096 34.768 29.192 34.432 29.576L32.416 29.512C32.464 29.224 32.464 29.16 32.544 28.552C32.672 27.56 32.928 25.784 33.216 23.896C33.28 23.512 33.296 23.32 33.312 22.968ZM48.704 27.64L48.304 25.72C48.752 25.688 48.752 25.688 49.968 25.416C52.144 24.936 53.584 24.744 54.912 24.744C56.736 24.744 57.968 25.272 58.688 26.376C59.088 26.984 59.28 27.656 59.28 28.44C59.28 30.568 57.776 32.296 55.232 33.096C54.24 33.4 53.84 33.464 51.76 33.704C51.6 32.904 51.472 32.6 51.072 31.88C51.184 31.88 51.248 31.88 51.312 31.88C51.904 31.88 52.8 31.784 53.584 31.64C54.832 31.4 55.536 31.112 56.256 30.552C57.024 29.976 57.392 29.272 57.392 28.392C57.392 27.144 56.464 26.472 54.768 26.472C53.664 26.472 52.432 26.648 50.56 27.096C49.536 27.336 49.248 27.416 48.704 27.64ZM62.251 23.96L62.139 21.88C62.491 21.896 62.667 21.896 62.747 21.896C63.035 21.896 63.035 21.896 65.387 21.736C66.283 21.688 68.939 21.544 73.371 21.336C74.683 21.272 74.923 21.256 75.211 21.176L75.323 23.224C75.147 23.208 75.147 23.208 74.987 23.208C74.027 23.208 72.843 23.528 71.819 24.072C69.787 25.128 68.587 26.728 68.587 28.344C68.587 29.592 69.371 30.552 70.715 30.952C71.499 31.192 72.523 31.368 73.099 31.368C73.115 31.368 73.259 31.368 73.419 31.352L73.131 33.528C72.939 33.48 72.859 33.464 72.587 33.432C70.827 33.208 69.819 32.92 68.843 32.376C67.371 31.544 66.555 30.184 66.555 28.52C66.555 27.16 67.099 25.816 68.075 24.744C68.683 24.088 69.259 23.672 70.299 23.144C69.003 23.336 68.379 23.384 64.907 23.64C63.835 23.72 62.875 23.832 62.251 23.96ZM78.587 21.24H80.779C80.699 21.832 80.651 22.616 80.651 23.672C80.651 25.064 80.779 26.984 80.955 27.96C81.227 29.624 81.739 30.648 82.251 30.648C82.491 30.648 82.715 30.408 82.907 29.96C83.291 29.096 83.579 28.136 83.755 27.064C84.315 27.704 84.571 27.944 85.355 28.52C84.523 31.64 83.595 32.936 82.235 32.936C81.163 32.936 80.299 32.152 79.659 30.616C79.003 29.016 78.715 26.696 78.651 22.264C78.635 21.704 78.635 21.592 78.587 21.24ZM86.667 22.76L88.347 21.96C90.363 24.376 91.483 27.048 91.947 30.568L89.963 31.32C89.867 29.816 89.499 28.152 88.939 26.696C88.395 25.24 87.627 23.944 86.667 22.76ZM99.179 26.36L99.211 26.392C100.667 25.816 101.371 25.656 102.571 25.656C105.307 25.656 107.067 27.064 107.067 29.256C107.067 30.776 106.315 31.992 104.891 32.792C103.851 33.384 102.491 33.704 101.019 33.704C99.675 33.704 98.555 33.448 97.915 32.968C97.307 32.52 96.955 31.848 96.955 31.128C96.955 29.8 98.107 28.84 99.707 28.84C100.827 28.84 101.803 29.304 102.475 30.152C102.795 30.552 102.971 30.904 103.211 31.592C104.539 31.096 105.115 30.408 105.115 29.272C105.115 28.024 103.883 27.208 101.947 27.208C99.611 27.208 97.275 28.152 95.355 29.896L94.267 28.168C94.827 27.896 95.467 27.464 96.523 26.664C98.011 25.528 100.091 23.736 101.307 22.504C101.339 22.472 101.499 22.312 101.595 22.216L101.579 22.2C100.971 22.28 99.947 22.344 97.051 22.472C96.699 22.488 96.587 22.504 96.283 22.552L96.203 20.632C96.747 20.696 97.211 20.728 98.091 20.728C99.451 20.728 101.403 20.648 102.955 20.536C103.515 20.488 103.691 20.456 103.947 20.328L104.939 21.736C104.667 21.88 104.555 21.976 104.107 22.392C103.307 23.128 102.139 24.168 101.595 24.632C101.307 24.872 100.155 25.736 99.835 25.944C99.435 26.216 99.435 26.216 99.179 26.36ZM101.483 32.056C101.195 30.952 100.587 30.376 99.691 30.376C99.115 30.376 98.747 30.664 98.747 31.112C98.747 31.752 99.467 32.12 100.651 32.12C100.955 32.12 101.035 32.12 101.483 32.056ZM113.275 24.568L114.603 23.624C115.643 24.36 115.675 24.376 116.603 25.224C117.723 24.312 118.299 23.72 119.339 22.456H115.131C113.883 23.8 112.587 24.792 110.811 25.784C110.539 25.24 110.267 24.92 109.723 24.44C112.347 23.16 114.459 21.24 115.403 19.272L117.291 19.736C116.875 20.344 116.731 20.536 116.459 20.904H119.739C120.347 20.904 120.731 20.888 121.147 20.824L122.091 21.832C121.899 22.072 121.883 22.088 121.515 22.568C120.123 24.392 118.587 25.864 116.699 27.192H121.883C122.523 27.192 122.843 27.176 123.227 27.128C123.163 27.56 123.147 27.976 123.147 28.6V32.712C123.147 33.352 123.179 33.88 123.243 34.296H121.419V33.432H115.307V34.296H113.451C113.515 33.816 113.547 33.288 113.547 32.712V29.24C112.571 29.784 111.947 30.072 110.507 30.68C110.235 29.992 110.011 29.656 109.483 29.08C110.859 28.632 112.171 28.072 113.323 27.448C113.835 27.16 114.363 26.824 115.227 26.248C114.555 25.544 114.107 25.16 113.275 24.568ZM115.291 28.76V31.912H121.435V28.76H115.291ZM129.211 22.712H127.211C126.507 22.712 126.139 22.728 125.627 22.792V21.064C126.155 21.128 126.619 21.16 127.323 21.16H129.211V20.824C129.211 20.312 129.179 19.96 129.131 19.576H130.939C130.891 19.864 130.859 20.376 130.859 20.808V21.16H132.491C133.211 21.16 133.739 21.128 134.283 21.064V22.792C133.787 22.728 133.339 22.712 132.619 22.712H130.859V23.864H132.635C133.227 23.864 133.643 23.848 134.043 23.8C134.011 24.088 133.995 24.504 133.995 25.064V26.936C133.995 27.752 133.915 28.056 133.659 28.312C133.387 28.584 132.987 28.68 132.123 28.68C132.075 28.68 131.947 28.68 131.819 28.68C131.755 28.008 131.691 27.768 131.499 27.304C131.739 27.32 131.867 27.336 132.043 27.336C132.411 27.336 132.491 27.288 132.491 27.064V25.352H130.859V27.352C131.435 28.328 131.819 28.808 132.539 29.496C133.259 30.168 133.723 30.536 134.587 31.08C134.123 31.64 133.931 31.944 133.595 32.536C132.283 31.528 131.691 30.904 130.795 29.624C130.827 29.848 130.843 30.296 130.843 30.872V32.872C130.843 33.48 130.859 33.88 130.923 34.312H129.115C129.179 33.928 129.211 33.432 129.211 32.792V30.984C129.211 30.472 129.227 30.04 129.243 29.832C128.283 31.416 127.675 32.104 126.267 33.192C125.963 32.616 125.755 32.28 125.291 31.736C126.427 30.92 126.939 30.456 127.675 29.576C128.443 28.664 128.779 28.152 129.211 27.272V25.352H127.707V27.528C127.707 28.072 127.723 28.408 127.755 28.776H126.059C126.107 28.312 126.139 27.912 126.139 27.208V25.288C126.139 24.664 126.123 24.232 126.075 23.8C126.587 23.848 126.955 23.864 127.579 23.864H129.211V22.712ZM134.859 20.792H136.683C136.619 21.208 136.603 21.64 136.603 22.456V28.792C136.603 29.752 136.619 30.056 136.667 30.488H134.859C134.923 30.008 134.939 29.688 134.939 28.776V22.488C134.939 21.704 134.907 21.24 134.859 20.792ZM137.963 19.672H139.835C139.755 20.12 139.739 20.632 139.739 21.608V32.184C139.739 33.112 139.611 33.48 139.211 33.768C138.875 34.024 138.363 34.104 137.259 34.104C136.987 34.104 136.331 34.088 135.755 34.056C135.659 33.368 135.563 33.048 135.291 32.376C135.995 32.456 136.779 32.52 137.211 32.52C137.915 32.52 138.059 32.44 138.059 32.024V21.656C138.059 20.696 138.027 20.184 137.963 19.672ZM152.283 24.2L153.899 23.4C155.003 24.92 155.835 26.648 156.299 28.488L154.475 29.4C154.155 27.72 153.163 25.368 152.283 24.2ZM147.579 20.68L147.547 20.888C147.467 21.352 147.355 22.008 147.195 22.872C147.147 23.144 147.147 23.144 147.099 23.352C147.579 23.336 147.803 23.32 148.091 23.32C149.147 23.32 149.931 23.608 150.459 24.168C151.003 24.776 151.211 25.544 151.211 27C151.211 29.752 150.747 31.944 149.979 32.824C149.531 33.352 149.051 33.544 148.203 33.544C147.467 33.544 146.811 33.416 145.739 33.064C145.755 32.76 145.771 32.52 145.771 32.36C145.771 31.944 145.739 31.624 145.611 31C146.475 31.384 147.387 31.64 147.947 31.64C148.411 31.64 148.667 31.336 148.907 30.552C149.163 29.72 149.323 28.264 149.323 26.904C149.323 25.432 148.955 25 147.723 25C147.387 25 147.131 25.016 146.763 25.048C145.979 28.328 145.259 30.264 143.499 33.752L141.643 32.728C142.875 31.048 144.107 28.168 144.859 25.192C144.619 25.224 144.619 25.224 144.107 25.32L142.651 25.56C142.395 25.608 142.219 25.656 141.995 25.72L141.803 23.832C142.523 23.816 143.355 23.736 145.211 23.496C145.515 21.72 145.627 20.808 145.627 20.264C145.627 20.2 145.627 20.104 145.627 19.976L147.707 20.184C147.659 20.312 147.611 20.52 147.579 20.68ZM151.291 20.792L152.411 20.232C153.115 20.984 153.547 21.592 154.091 22.584L152.971 23.176C152.443 22.2 151.995 21.56 151.291 20.792ZM155.995 21.544L154.891 22.168C154.411 21.288 153.883 20.536 153.259 19.848L154.331 19.288C155.051 20.024 155.499 20.632 155.995 21.544ZM161.611 23.864L162.859 22.984C163.595 23.432 163.947 23.688 164.619 24.184C165.851 23.304 166.427 22.824 167.211 21.976H163.499C162.107 23.24 160.811 24.072 159.003 24.872C158.747 24.36 158.443 23.992 157.947 23.544C159.739 22.84 161.147 21.992 162.283 20.936C163.035 20.232 163.435 19.768 163.707 19.272L165.675 19.624C165.259 20.12 165.179 20.2 164.843 20.584H167.643C168.267 20.584 168.683 20.552 169.067 20.504L169.899 21.384C168.971 22.472 168.507 22.968 167.835 23.592C165.179 26.056 162.491 27.544 158.827 28.552C158.619 27.96 158.363 27.512 157.931 27.016C160.123 26.52 161.787 25.912 163.259 25.048C162.779 24.632 162.315 24.296 161.611 23.864ZM169.579 27.896H165.899C164.731 28.792 164.251 29.096 163.275 29.608C162.187 30.168 161.451 30.472 160.267 30.84C159.931 30.104 159.787 29.864 159.339 29.384C162.427 28.632 165.451 26.808 166.587 24.968L168.283 25.512C167.867 26.008 167.787 26.104 167.435 26.504H169.755C170.379 26.504 170.779 26.488 171.163 26.424L172.107 27.384C171.899 27.64 171.867 27.672 171.563 28.104C170.059 30.168 168.507 31.448 166.011 32.648C164.091 33.576 162.555 34.04 159.787 34.504C159.483 33.72 159.371 33.528 158.827 32.872C161.691 32.6 163.675 32.072 165.515 31.096C164.891 30.504 164.507 30.232 163.723 29.768L165.131 28.888C165.931 29.432 166.267 29.688 166.955 30.248C167.883 29.64 168.491 29.112 169.579 27.896ZM182.715 19.72L184.555 21.128C184.283 21.32 183.979 21.592 182.587 22.888C181.771 23.64 180.651 24.536 178.779 25.96C178.283 26.328 178.171 26.456 178.171 26.632C178.171 26.872 178.203 26.904 179.611 27.96C182.107 29.848 182.571 30.248 184.651 32.136C184.811 32.296 184.907 32.376 185.115 32.536L183.467 34.2C183.051 33.624 182.475 33.016 181.387 32.008C180.251 30.952 179.723 30.52 177.259 28.6C176.203 27.784 175.915 27.352 175.915 26.616C175.915 26.136 176.091 25.704 176.443 25.32C176.651 25.096 176.667 25.08 177.851 24.168C179.579 22.856 180.475 22.088 181.547 21.048C182.267 20.328 182.443 20.12 182.715 19.72ZM190.251 23.96L190.139 21.88C190.491 21.896 190.667 21.896 190.747 21.896C191.035 21.896 191.035 21.896 193.387 21.736C194.283 21.688 196.939 21.544 201.371 21.336C202.683 21.272 202.923 21.256 203.211 21.176L203.323 23.224C203.147 23.208 203.147 23.208 202.987 23.208C202.027 23.208 200.843 23.528 199.819 24.072C197.787 25.128 196.587 26.728 196.587 28.344C196.587 29.592 197.371 30.552 198.715 30.952C199.499 31.192 200.523 31.368 201.099 31.368C201.115 31.368 201.259 31.368 201.419 31.352L201.131 33.528C200.939 33.48 200.859 33.464 200.587 33.432C198.827 33.208 197.819 32.92 196.843 32.376C195.371 31.544 194.555 30.184 194.555 28.52C194.555 27.16 195.099 25.816 196.075 24.744C196.683 24.088 197.259 23.672 198.299 23.144C197.003 23.336 196.379 23.384 192.907 23.64C191.835 23.72 190.875 23.832 190.251 23.96ZM209.015 20.344L211.095 20.024C211.095 20.792 211.719 23.736 212.151 25.032C213.143 24.648 213.751 24.44 215.767 23.8C216.615 23.528 216.615 23.528 216.903 23.384L217.591 25.4C216.199 25.672 214.103 26.264 212.311 26.936C209.975 27.8 208.807 28.808 208.807 29.96C208.807 31.128 209.895 31.624 212.471 31.624C214.471 31.624 216.439 31.384 217.639 30.984L217.815 33.16C217.479 33.176 217.367 33.192 216.519 33.272C214.791 33.448 213.895 33.512 212.775 33.512C210.551 33.512 209.159 33.24 208.135 32.632C207.255 32.104 206.743 31.128 206.743 29.96C206.743 28.904 207.255 27.88 208.167 27.096C208.791 26.584 209.303 26.248 210.343 25.736C209.975 24.568 209.671 23.384 209.271 21.4C209.095 20.6 209.095 20.584 209.015 20.344ZM215.287 20.584L216.407 20.024C217.111 20.776 217.543 21.384 218.087 22.376L216.967 22.968C216.439 21.992 215.991 21.352 215.287 20.584ZM219.991 21.336L218.887 21.96C218.407 21.08 217.879 20.328 217.255 19.64L218.327 19.08C219.047 19.816 219.495 20.424 219.991 21.336ZM224.407 21.816L225.031 19.928C226.807 20.52 229.175 20.856 231.703 20.856C231.783 20.856 231.959 20.856 232.151 20.856L231.879 22.824C228.967 22.696 226.759 22.408 224.407 21.816ZM222.999 27.16L222.535 25.032C222.951 25.016 222.951 25.016 224.391 24.76C226.663 24.36 228.055 24.216 229.415 24.216C230.711 24.216 231.703 24.424 232.439 24.872C233.431 25.464 233.991 26.536 233.991 27.8C233.991 29.624 232.887 31.288 230.951 32.392C229.639 33.144 228.519 33.48 225.911 33.896C225.751 33.048 225.575 32.648 225.079 31.896C226.935 31.816 228.663 31.368 229.895 30.68C231.159 29.976 231.847 28.968 231.847 27.864C231.847 26.664 230.999 26.056 229.335 26.056C227.527 26.056 224.327 26.616 222.999 27.16ZM241.959 23.416L243.511 22.984C243.959 22.872 244.231 22.808 244.871 22.68C244.871 22.36 244.871 22.36 244.855 21.8C244.839 20.408 244.839 20.296 244.759 19.88H246.775C246.711 20.376 246.711 20.376 246.695 22.44C247.079 22.408 247.303 22.392 247.623 22.392C249.879 22.392 251.367 23.688 251.367 25.656C251.367 26.728 250.887 27.768 250.071 28.44C249.319 29.064 248.327 29.384 247.111 29.384C246.327 29.384 245.479 29.224 244.631 28.936C244.615 28.168 244.567 27.864 244.343 26.968C245.303 27.4 246.087 27.592 246.903 27.592C247.591 27.592 248.215 27.4 248.711 27.064C249.127 26.76 249.367 26.264 249.367 25.704C249.367 24.696 248.583 24.104 247.239 24.104C246.103 24.104 245.143 24.296 242.439 25.096C243.431 28.568 243.511 28.872 244.471 32.872C244.551 33.208 244.583 33.32 244.711 33.64L242.599 34.12C242.519 32.84 241.639 29.048 240.647 25.608C240.439 25.704 240.407 25.704 239.847 25.896C239.271 26.072 238.199 26.504 237.783 26.712L237.159 24.84C237.623 24.744 237.831 24.696 238.615 24.424C239.271 24.2 239.399 24.168 240.167 23.928C239.687 22.36 239.383 21.512 239.079 20.952L241.063 20.392C241.159 20.904 241.159 20.904 241.623 22.28C241.751 22.68 241.815 22.888 241.959 23.416ZM255.095 27.64L254.695 25.72C255.143 25.688 255.143 25.688 256.359 25.416C258.535 24.936 259.975 24.744 261.303 24.744C263.127 24.744 264.359 25.272 265.079 26.376C265.479 26.984 265.671 27.656 265.671 28.44C265.671 30.568 264.167 32.296 261.623 33.096C260.631 33.4 260.231 33.464 258.151 33.704C257.991 32.904 257.863 32.6 257.463 31.88C257.575 31.88 257.639 31.88 257.703 31.88C258.295 31.88 259.191 31.784 259.975 31.64C261.223 31.4 261.927 31.112 262.647 30.552C263.415 29.976 263.783 29.272 263.783 28.392C263.783 27.144 262.855 26.472 261.159 26.472C260.055 26.472 258.823 26.648 256.951 27.096C255.927 27.336 255.639 27.416 255.095 27.64ZM268.642 23.96L268.53 21.88C268.882 21.896 269.058 21.896 269.138 21.896C269.426 21.896 269.426 21.896 271.778 21.736C272.674 21.688 275.33 21.544 279.762 21.336C281.074 21.272 281.314 21.256 281.602 21.176L281.714 23.224C281.538 23.208 281.538 23.208 281.378 23.208C280.418 23.208 279.234 23.528 278.21 24.072C276.178 25.128 274.978 26.728 274.978 28.344C274.978 29.592 275.762 30.552 277.106 30.952C277.89 31.192 278.914 31.368 279.49 31.368C279.506 31.368 279.65 31.368 279.81 31.352L279.522 33.528C279.33 33.48 279.25 33.464 278.978 33.432C277.218 33.208 276.21 32.92 275.234 32.376C273.762 31.544 272.946 30.184 272.946 28.52C272.946 27.16 273.49 25.816 274.466 24.744C275.074 24.088 275.65 23.672 276.69 23.144C275.394 23.336 274.77 23.384 271.298 23.64C270.226 23.72 269.266 23.832 268.642 23.96ZM287.474 21.992H286.61C286.098 22.632 285.778 22.952 285.058 23.544C284.626 22.968 284.53 22.872 283.89 22.36C285.09 21.528 285.938 20.488 286.322 19.368L288.034 19.688C287.81 20.12 287.746 20.264 287.554 20.568H289.746C290.466 20.568 290.802 20.552 291.17 20.488V21.736C291.89 21 292.338 20.248 292.562 19.384L294.274 19.656C294.018 20.216 293.986 20.28 293.842 20.584H296.994C297.778 20.584 298.098 20.568 298.562 20.504V22.072C298.13 22.024 297.778 22.008 297.074 22.008H295.586C295.938 22.584 295.986 22.664 296.194 23.096L294.61 23.56C294.386 22.952 294.21 22.6 293.858 22.008H292.962C292.658 22.424 292.498 22.6 291.986 23.128V23.448L291.97 23.704H296.466C297.378 23.704 297.666 23.688 298.194 23.656C298.146 23.944 298.146 24.136 298.146 24.648V25.768C298.146 26.248 298.162 26.52 298.21 26.824H296.482V25.08H286.162V26.824H284.466C284.498 26.504 284.53 26.216 284.53 25.768V24.68C284.53 24.2 284.514 23.96 284.466 23.656C284.946 23.688 285.218 23.704 286.146 23.704H290.29V23.448C290.29 23.096 290.29 22.92 290.242 22.68H291.346C291.01 22.424 290.93 22.36 290.61 22.184L290.85 22.008C290.578 21.992 290.402 21.992 290.13 21.992H289.074C289.33 22.44 289.426 22.648 289.618 23.048L288.066 23.576C287.89 22.904 287.746 22.536 287.474 21.992ZM288.322 34.312H286.546C286.61 33.752 286.642 33.272 286.642 32.536V26.776C286.642 26.312 286.626 26.024 286.578 25.72C286.962 25.768 287.378 25.784 287.922 25.784H294.45C295.042 25.784 295.442 25.768 295.826 25.72C295.778 26.056 295.778 26.36 295.778 26.808V28.008C295.778 28.6 295.778 28.872 295.826 29.256C295.426 29.224 295.058 29.208 294.514 29.208H288.322V29.976H295.186C295.778 29.976 296.13 29.96 296.498 29.912C296.45 30.312 296.434 30.712 296.434 31.24V32.856C296.434 33.4 296.45 33.848 296.514 34.312H294.754V33.624H288.322V34.312ZM288.322 27.096V27.944H294.114V27.096H288.322ZM288.322 31.256V32.296H294.754V31.256H288.322ZM308.866 32.248V30.6H307.09C306.178 30.6 305.842 30.616 305.426 30.664V29.032C305.826 29.096 306.146 29.112 307.074 29.112H308.866V27.8H307.346C306.274 27.8 305.906 27.816 305.426 27.848C305.458 27.48 305.458 27.48 305.49 25.864V22.248C305.49 21.16 305.474 20.632 305.41 20.104C306.018 20.168 306.53 20.184 307.57 20.184H311.986C313.17 20.184 313.65 20.168 314.05 20.104C314.002 20.568 313.986 21.32 313.986 22.296V25.704C313.986 26.824 314.002 27.384 314.05 27.848C313.522 27.8 313.266 27.8 312.306 27.8H310.466V29.112H312.514C313.394 29.112 313.746 29.096 314.21 29.032V30.68C313.746 30.616 313.346 30.6 312.53 30.6H310.466V32.248H313.042C313.89 32.248 314.306 32.232 314.738 32.168V33.88C314.226 33.816 313.794 33.8 312.93 33.8H306.194C305.346 33.8 304.93 33.816 304.386 33.88V32.168C304.818 32.232 305.17 32.248 306.002 32.248H308.866ZM308.866 21.736H307.09V23.336H308.866V21.736ZM310.466 21.736V23.336H312.322V21.736H310.466ZM308.866 24.68H307.09V26.296H308.866V24.68ZM310.466 24.68V26.296H312.322V24.68H310.466ZM301.746 21.896H301.138C300.626 21.896 300.338 21.912 299.938 21.976V20.248C300.322 20.312 300.738 20.344 301.394 20.344H303.65C304.29 20.344 304.674 20.328 305.074 20.248V21.96C304.674 21.912 304.338 21.896 303.89 21.896H303.41V25.016H303.778C304.194 25.016 304.434 25 304.786 24.936V26.568C304.466 26.52 304.146 26.504 303.778 26.504H303.41V29.656C304.082 29.368 304.274 29.288 304.978 28.936L305.026 30.632C303.634 31.32 303.01 31.592 300.53 32.6C300.45 32.632 300.37 32.664 300.21 32.728L299.778 30.92C300.322 30.808 300.658 30.696 301.746 30.312V26.504H301.218C300.754 26.504 300.498 26.52 300.13 26.584V24.936C300.514 25 300.754 25.016 301.25 25.016H301.746V21.896ZM24.32 48.488L24.304 49.864C24.304 49.928 24.32 50.056 24.32 50.248C24.672 50.984 24.832 51.64 24.832 52.504C24.832 54.248 24 55.752 22.448 56.824C21.776 57.288 21.04 57.624 19.552 58.136C19.104 57.144 18.944 56.904 18.416 56.328C19.728 56.072 20.384 55.848 21.136 55.4C22.224 54.776 22.864 53.96 22.992 53.064C22.528 53.8 21.696 54.2 20.64 54.2C19.904 54.2 19.328 54.024 18.784 53.624C18.032 53.08 17.68 52.376 17.68 51.464C17.68 49.768 19.008 48.552 20.864 48.552C21.552 48.552 22.16 48.728 22.528 49.032C22.512 48.952 22.512 48.952 22.512 48.84C22.496 48.808 22.496 47.912 22.496 47.48C20.208 47.544 18.704 47.592 18 47.64C15.584 47.816 15.584 47.816 15.152 47.88L15.088 45.976C15.44 46.008 15.584 46.008 15.872 46.008C16.272 46.008 16.528 46.008 18.592 45.928C19.632 45.896 19.792 45.896 21.104 45.864C21.632 45.848 21.632 45.848 22.464 45.816C22.448 44.296 22.448 44.296 22.368 43.88L24.384 43.864C24.32 44.36 24.32 44.392 24.304 45.768C27.088 45.752 28.336 45.72 28.928 45.656L28.944 47.496C28.352 47.448 27.584 47.416 26.256 47.416C25.872 47.416 25.584 47.416 24.32 47.448V48.488ZM22.48 51.128C22.48 50.456 21.92 50.024 21.04 50.024C20.224 50.024 19.552 50.6 19.552 51.304C19.552 52.04 20.112 52.568 20.912 52.568C21.824 52.568 22.48 51.96 22.48 51.128ZM35.296 49.464H35.312C35.776 48.952 36.112 48.664 37.264 47.8C38.656 46.744 39.664 46.296 40.64 46.296C41.984 46.296 42.88 47.144 42.88 48.424C42.88 48.952 42.768 49.64 42.48 50.872C41.936 53.288 41.808 53.96 41.808 54.472C41.808 54.984 42.048 55.272 42.464 55.272C42.816 55.272 43.248 54.952 43.584 54.456C43.968 53.896 44.32 53.208 44.512 52.632C44.864 53.48 45.056 53.816 45.584 54.552C45.104 55.384 44.88 55.688 44.464 56.136C43.76 56.92 42.976 57.288 42.096 57.288C41.568 57.288 41.072 57.128 40.72 56.872C40.144 56.424 39.888 55.832 39.888 54.856C39.888 53.928 39.952 53.496 40.544 50.84C40.784 49.816 40.88 49.192 40.88 48.824C40.88 48.44 40.656 48.232 40.224 48.232C39.712 48.232 39.024 48.536 38.24 49.096C37.072 49.96 35.936 50.968 35.328 51.704C35.296 52.424 35.296 52.872 35.296 53.32C35.296 53.448 35.296 53.448 35.312 55.224C35.328 57.224 35.328 57.272 35.392 57.864H33.328C33.424 57.208 33.424 57.208 33.44 55.32C33.44 53.608 33.44 53.608 33.472 53.176L33.44 53.192C33.296 53.416 33.12 53.624 32.304 54.536C31.952 54.936 31.728 55.208 31.568 55.448L30.64 53.544C31.008 53.288 31.264 53.048 31.68 52.632C33.184 51.144 33.184 51.144 33.488 50.808C33.504 50.04 33.504 49.864 33.536 49.24C33.536 48.872 33.552 48.84 33.552 48.408C31.856 48.52 31.536 48.552 31.104 48.632L31.008 46.824C31.296 46.856 31.44 46.856 31.664 46.856C31.968 46.856 32.848 46.808 33.6 46.76C33.616 46.52 33.616 46.52 33.632 46.152C33.632 45.704 33.648 45.208 33.648 44.84C33.648 44.424 33.648 44.312 33.6 43.944L35.632 43.976C35.584 44.168 35.584 44.2 35.568 44.568C35.568 44.648 35.552 44.856 35.52 45.176C35.504 45.496 35.488 45.624 35.456 46.6C35.472 46.6 35.536 46.568 35.648 46.536L36.24 47.208C36.08 47.336 36.016 47.4 35.776 47.688C35.696 47.768 35.696 47.768 35.552 47.976C35.488 48.072 35.456 48.104 35.36 48.232L35.328 49.176C35.328 49.176 35.312 49.272 35.296 49.464ZM51.552 49.128L51.584 47.304C52.32 47.48 53.152 47.544 54.464 47.544C54.992 47.544 55.36 47.544 55.952 47.528C55.952 47.16 55.952 46.904 55.936 46.776C55.936 46.44 55.936 46.248 55.936 46.152V45.096C55.92 44.712 55.92 44.584 55.888 44.456L57.872 44.424C57.792 44.888 57.76 45.56 57.76 46.632V47.384C58.896 47.256 59.76 47.08 60.4 46.84L60.464 48.648C60.32 48.664 60.288 48.664 60 48.728C59.36 48.872 58.544 49 57.776 49.08V49.448C57.792 50.2 57.808 50.664 57.856 51.56L57.904 52.392L57.936 53.048C59.024 53.56 59.616 53.912 60.448 54.504C60.656 54.648 60.752 54.712 60.896 54.792L60.144 56.712C59.696 56.216 59.296 55.912 57.92 55.032C57.936 55.144 57.936 55.16 57.936 55.272C57.936 55.608 57.888 55.928 57.808 56.168C57.44 57.096 56.32 57.656 54.768 57.656C52.656 57.656 51.376 56.664 51.376 55.032C51.376 53.496 52.752 52.408 54.672 52.408C55.264 52.408 55.696 52.472 56.096 52.616C56.064 52.072 56.032 50.936 55.984 49.208C55.344 49.24 54.976 49.24 54.56 49.24C53.952 49.24 53.312 49.224 52.56 49.176C52.32 49.16 52.16 49.16 52.08 49.144C51.936 49.144 51.84 49.144 51.792 49.144C51.712 49.128 51.664 49.128 51.648 49.128C51.632 49.128 51.584 49.128 51.552 49.128ZM56.128 54.248C55.616 54.072 55.296 54.008 54.816 54.008C53.792 54.008 53.152 54.408 53.152 55.048C53.152 55.656 53.728 56.04 54.624 56.04C55.232 56.04 55.696 55.864 55.936 55.56C56.08 55.368 56.144 55.128 56.144 54.68C56.144 54.504 56.144 54.248 56.128 54.248ZM49.872 57.656L47.952 57.784C47.952 57.624 47.936 57.512 47.872 57.16C47.568 55.272 47.44 53.736 47.44 52.056C47.44 50.616 47.536 49.208 47.744 47.832C47.824 47.336 47.824 47.336 48.176 45.528C48.288 44.968 48.352 44.504 48.352 44.344C48.352 44.344 48.352 44.312 48.352 44.296L50.512 44.504C49.872 45.896 49.2 50.056 49.232 52.552C49.216 52.952 49.216 53.176 49.216 53.176V53.368C49.216 53.544 49.2 53.72 49.2 53.96H49.216L49.296 53.8L49.472 53.336C49.712 52.696 49.728 52.648 49.904 52.248C49.936 52.168 50 52.024 50.096 51.752L51.424 52.328C50.48 54.2 49.84 56.168 49.84 57.24C49.84 57.352 49.84 57.416 49.872 57.656ZM57.92 43.848L58.976 43.48C59.456 44.264 59.808 45.032 60.08 45.976L59.008 46.36C58.704 45.336 58.368 44.552 57.92 43.848ZM61.952 45.368L60.944 45.784C60.688 44.92 60.288 44.024 59.872 43.336L60.864 42.968C61.296 43.64 61.632 44.392 61.952 45.368ZM63.712 45.24H65.904C65.824 45.832 65.776 46.616 65.776 47.672C65.776 49.064 65.904 50.984 66.08 51.96C66.352 53.624 66.864 54.648 67.376 54.648C67.616 54.648 67.84 54.408 68.032 53.96C68.416 53.096 68.704 52.136 68.88 51.064C69.44 51.704 69.696 51.944 70.48 52.52C69.648 55.64 68.72 56.936 67.36 56.936C66.288 56.936 65.424 56.152 64.784 54.616C64.128 53.016 63.84 50.696 63.776 46.264C63.76 45.704 63.76 45.592 63.712 45.24ZM71.792 46.76L73.472 45.96C75.488 48.376 76.608 51.048 77.072 54.568L75.088 55.32C74.992 53.816 74.624 52.152 74.064 50.696C73.52 49.24 72.752 47.944 71.792 46.76ZM79.712 45.24H81.904C81.824 45.832 81.776 46.616 81.776 47.672C81.776 49.064 81.904 50.984 82.08 51.96C82.352 53.624 82.864 54.648 83.376 54.648C83.616 54.648 83.84 54.408 84.032 53.96C84.416 53.096 84.704 52.136 84.88 51.064C85.44 51.704 85.696 51.944 86.48 52.52C85.648 55.64 84.72 56.936 83.36 56.936C82.288 56.936 81.424 56.152 80.784 54.616C80.128 53.016 79.84 50.696 79.776 46.264C79.76 45.704 79.76 45.592 79.712 45.24ZM87.792 46.76L89.472 45.96C91.488 48.376 92.608 51.048 93.072 54.568L91.088 55.32C90.992 53.816 90.624 52.152 90.064 50.696C89.52 49.24 88.752 47.944 87.792 46.76ZM103.248 46.744C102.944 49.256 102.384 51.464 101.584 53.272C100.672 55.336 99.648 56.28 98.336 56.28C96.512 56.28 95.2 54.424 95.2 51.848C95.2 50.088 95.824 48.44 96.96 47.192C98.304 45.72 100.192 44.952 102.464 44.952C106.304 44.952 108.8 47.288 108.8 50.888C108.8 53.656 107.36 55.864 104.912 56.856C104.144 57.176 103.52 57.336 102.4 57.528C102.128 56.68 101.936 56.328 101.424 55.656C102.896 55.464 103.856 55.208 104.608 54.776C106 54.008 106.832 52.488 106.832 50.776C106.832 49.24 106.144 47.992 104.864 47.224C104.368 46.936 103.952 46.808 103.248 46.744ZM101.296 46.76C100.464 46.856 99.888 47.08 99.232 47.544C97.888 48.504 97.056 50.152 97.056 51.864C97.056 53.176 97.616 54.216 98.32 54.216C98.848 54.216 99.392 53.544 99.968 52.168C100.576 50.728 101.104 48.568 101.296 46.76ZM114.848 43.864L116.928 44.088C116.88 44.232 116.832 44.408 116.8 44.584C116.768 44.792 116.752 44.872 116.704 45.128C116.656 45.464 116.656 45.464 116.432 46.664C116.368 47.016 116.368 47.048 116.32 47.256C116.784 47.224 117.008 47.208 117.312 47.208C118.368 47.208 119.152 47.496 119.68 48.056C120.224 48.664 120.432 49.432 120.432 50.888C120.432 53.64 119.968 55.832 119.2 56.712C118.752 57.24 118.272 57.432 117.424 57.432C116.688 57.432 116.032 57.304 114.96 56.968C114.976 56.648 114.992 56.424 114.992 56.264C114.992 55.848 114.96 55.528 114.832 54.904C115.696 55.288 116.608 55.528 117.168 55.528C117.632 55.528 117.888 55.224 118.128 54.44C118.384 53.608 118.544 52.152 118.544 50.792C118.544 49.32 118.176 48.888 116.912 48.888C116.592 48.888 116.352 48.904 115.984 48.936C115.504 50.888 115.36 51.368 115.008 52.408C114.448 54.008 114.016 55.032 113.088 56.904C113.008 57.064 113.008 57.064 112.848 57.384C112.8 57.48 112.8 57.496 112.72 57.656L110.864 56.632C111.344 55.992 111.984 54.84 112.528 53.624C113.216 52.056 113.44 51.384 114.08 49.096C113.264 49.192 111.744 49.464 111.216 49.608L111.024 47.72C111.616 47.72 113.552 47.528 114.432 47.4C114.72 45.672 114.848 44.696 114.848 44.168C114.848 44.104 114.848 43.992 114.848 43.864ZM120.576 46.936L122.224 46.136C123.824 48.008 124.832 49.912 125.52 52.376L123.696 53.304C123.392 51.928 123.024 50.872 122.416 49.672C121.84 48.488 121.328 47.752 120.576 46.936ZM130.88 43.736L132.928 43.944C132.832 44.248 132.832 44.248 132.672 45.016C132.592 45.4 132.512 45.72 132.336 46.424C133.44 46.312 134.272 46.168 134.896 45.976L134.944 47.816C134.768 47.832 134.736 47.832 134.432 47.896C133.856 47.992 132.88 48.104 131.888 48.184C131.424 49.784 130.848 51.304 130.128 52.824C129.76 53.608 129.616 53.896 129.008 55.016C128.8 55.4 128.8 55.4 128.704 55.592L126.864 54.568C127.424 53.832 127.872 53.112 128.416 52.008C129.04 50.728 129.312 50.072 129.92 48.232C129.2 48.248 129.104 48.248 128.912 48.248C128.704 48.248 128.608 48.248 128.272 48.232L127.424 48.216V46.392C128 46.504 128.608 46.536 129.584 46.536C129.776 46.536 130.048 46.536 130.4 46.52C130.672 45.384 130.848 44.424 130.88 43.736ZM141.12 47.896L140.256 49.544C138.864 48.616 137.44 47.928 135.648 47.304L136.608 45.752C138.496 46.472 139.696 47.032 141.12 47.896ZM141.056 55.112L140.176 56.904C139.6 56.216 138.672 55.464 137.728 54.92C137.744 55.064 137.76 55.176 137.76 55.24C137.76 55.832 137.488 56.52 137.072 56.936C136.512 57.512 135.552 57.832 134.416 57.832C132.304 57.832 130.928 56.776 130.928 55.144C130.928 53.528 132.352 52.392 134.384 52.392C134.864 52.392 135.2 52.424 135.872 52.536C135.824 51.8 135.792 51.176 135.792 50.696C135.792 50.072 135.824 49.608 135.92 49.08L137.776 49.176C137.616 49.768 137.584 50.136 137.584 50.792C137.584 51.432 137.616 52.072 137.728 52.984C138.88 53.496 139.04 53.576 140.256 54.456C140.496 54.616 140.56 54.68 140.816 54.888C140.944 55.016 140.944 55.016 141.056 55.112ZM135.936 54.232C135.376 54.04 134.992 53.976 134.496 53.976C133.456 53.976 132.784 54.408 132.784 55.08C132.784 55.736 133.36 56.12 134.352 56.12C135.44 56.12 135.968 55.672 135.968 54.776C135.968 54.616 135.936 54.232 135.936 54.232ZM145.056 49.432L145.04 47.848C145.632 47.992 146.368 48.04 147.76 48.04C147.776 47.848 147.776 47.848 147.824 47.288C147.824 47.16 147.84 46.872 147.84 46.696C147.84 46.632 147.84 46.552 147.84 46.408L149.568 46.488C149.472 46.824 149.408 47.256 149.344 47.992C151.152 47.896 153.232 47.608 154.16 47.32L154.24 48.936C154.064 48.952 154 48.952 153.728 49C152.048 49.24 150.544 49.4 149.248 49.448C149.232 49.752 149.2 50.376 149.184 50.616C149.632 50.52 150.144 50.456 150.672 50.456C150.832 50.456 151.056 50.472 151.36 50.488C151.504 50.088 151.568 49.832 151.616 49.496L153.184 49.976C153.104 50.136 153.104 50.136 152.848 50.808C154.576 51.4 155.392 52.408 155.392 53.944C155.392 55.464 154.448 56.728 152.864 57.352C152.096 57.656 151.264 57.848 150.464 57.928C150.256 57.272 150.128 57.016 149.712 56.36C150.784 56.312 151.472 56.168 152.176 55.848C153.12 55.432 153.68 54.664 153.68 53.768C153.68 53 153.28 52.504 152.336 52.12C151.568 53.864 150.816 54.984 149.776 55.96C148.704 56.952 147.696 57.432 146.704 57.432C145.44 57.432 144.56 56.472 144.56 55.096C144.56 54.232 144.912 53.288 145.52 52.536C146.08 51.848 146.72 51.4 147.632 51.016C147.632 50.568 147.664 49.848 147.696 49.48C147.568 49.48 147.424 49.48 147.296 49.48C146.896 49.48 146.336 49.464 145.712 49.448C145.44 49.432 145.424 49.432 145.264 49.432C145.232 49.432 145.152 49.432 145.056 49.432ZM147.648 52.6C146.64 53.288 146.144 54.056 146.144 54.968C146.144 55.512 146.416 55.864 146.848 55.864C147.152 55.864 147.568 55.688 147.872 55.448C147.728 54.648 147.664 53.784 147.648 52.6ZM149.296 54.408H149.312C149.376 54.312 149.376 54.312 149.456 54.2C149.888 53.704 150.272 53.064 150.912 51.768C150.768 51.752 150.64 51.752 150.576 51.752C150.08 51.752 149.68 51.816 149.168 51.96C149.168 52.104 149.168 52.232 149.168 52.296C149.168 52.744 149.232 53.832 149.28 54.152C149.28 54.2 149.296 54.296 149.296 54.408ZM166.768 53.768H164.624C164.656 53.496 164.672 53.304 164.672 53.096L164.656 52.792C164.656 51.944 164.864 51.288 165.312 50.712C165.648 50.312 165.776 50.2 166.816 49.512C167.856 48.824 168.224 48.328 168.224 47.592C168.224 46.616 167.376 46.008 166.016 46.008C165.184 46.008 164.48 46.344 164.096 46.92C163.872 47.256 163.776 47.528 163.712 48.136L161.344 47.848C161.6 46.68 161.92 46.072 162.608 45.432C163.424 44.696 164.64 44.312 166.144 44.312C167.488 44.312 168.56 44.632 169.36 45.272C170.112 45.864 170.496 46.616 170.496 47.512C170.496 48.28 170.32 48.888 169.936 49.4C169.568 49.912 169.264 50.168 167.968 51.048C166.976 51.72 166.72 52.104 166.72 52.952C166.72 53.208 166.736 53.464 166.768 53.768ZM164.528 55.096H166.848V57.288H164.528V55.096Z" fill="#0054AC"/>
</svg>
