<svg width="300" height="99" viewBox="0 0 300 99" fill="none" xmlns="http://www.w3.org/2000/svg">
<path d="M285.321 88.9911L274.543 48.1123L250.468 65.0646L285.321 88.9911Z" fill="white"/>
<rect width="300" height="68" rx="34" transform="matrix(-1 0 0 1 300 0)" fill="white"/>
<path d="M23.576 27.344V27.168C22.424 27.968 21.928 28.288 20.68 28.928C20.296 28.256 20.04 27.936 19.48 27.408C21.032 26.72 22.232 26.016 23.576 25.024V19.648C23.576 19.024 23.56 18.72 23.48 18.016H25.416C25.352 18.512 25.32 19.024 25.32 19.6V23.552C26.52 22.416 27.768 20.896 28.744 19.36C29.592 18.016 30.312 16.464 30.536 15.472L32.376 16.208C32.184 16.544 32.184 16.544 31.752 17.44C30.616 19.76 29.352 21.664 27.736 23.52C27 24.368 26.344 24.992 25.32 25.824V26.944C25.32 27.344 25.736 27.456 27.256 27.456C28.68 27.456 29.224 27.344 29.416 27.008C29.64 26.608 29.768 25.6 29.8 23.984C30.488 24.32 30.84 24.448 31.496 24.592C31.144 28.8 30.888 29.056 27.16 29.056C24.232 29.056 23.576 28.736 23.576 27.344ZM23.416 15.808L24.488 14.432C26.632 15.28 27.464 15.68 29.16 16.72L28.104 18.256C26.888 17.344 25.544 16.64 23.416 15.808ZM20.984 19.456L22.68 19.776C22.28 22.448 21.976 23.616 21.112 25.84L19.448 25.008C20.312 23.04 20.632 21.888 20.984 19.456ZM30.536 20.4L32.104 19.632C33.16 21.648 33.768 23.12 34.568 25.648L32.872 26.56C32.12 23.728 31.688 22.576 30.536 20.4ZM37.768 22.848H40.632C40.888 22.464 41 22.272 41.224 21.84H38.792C37.96 21.84 37.432 21.856 36.936 21.904C36.984 21.44 37 21.072 37 20.352V19.248C37 18.512 36.984 18.096 36.936 17.616C37.448 17.68 37.96 17.696 38.712 17.696H40.456V16.688H37.8C37.048 16.688 36.456 16.72 35.96 16.768V15.072C36.44 15.136 37.032 15.168 37.928 15.168H48.104C49.032 15.168 49.656 15.136 50.088 15.072V16.768C49.576 16.72 49 16.688 48.232 16.688H45.368V17.696H47.224C48.04 17.696 48.552 17.68 49.016 17.616C48.968 18.064 48.952 18.464 48.952 19.248V20.336C48.952 21.136 48.968 21.504 49 21.904C48.6 21.856 48.104 21.84 47.192 21.84H43.144C42.808 22.432 42.76 22.528 42.568 22.848H48.216C49.144 22.848 49.624 22.832 50.072 22.752V24.416C49.544 24.368 49 24.336 48.216 24.336H46.776C46.36 25.168 45.928 25.792 45.32 26.416C47.352 27.04 47.928 27.248 49.704 27.968L48.584 29.44C48.184 29.264 47.864 29.12 47.656 29.024C46.296 28.4 46.296 28.4 43.848 27.52C41.976 28.576 39.816 29.104 36.632 29.264C36.44 28.608 36.328 28.336 35.912 27.632C36.072 27.632 36.184 27.632 36.264 27.632C38.472 27.632 40.216 27.376 41.64 26.848C39.784 26.352 39.512 26.288 37.896 25.904C38.616 25.28 38.92 24.992 39.48 24.336H37.768C36.984 24.336 36.456 24.368 35.928 24.416V22.752C36.376 22.816 36.888 22.848 37.768 22.848ZM44.872 24.336H41.48C41.24 24.624 41.112 24.768 40.712 25.168C41.272 25.328 41.272 25.328 42.52 25.616C42.696 25.648 42.92 25.712 43.48 25.872C44.056 25.456 44.504 24.976 44.872 24.336ZM42.04 16.688V17.696H43.784V16.688H42.04ZM40.456 18.992H38.696V20.512H40.456V18.992ZM42.04 18.992V20.512H43.784V18.992H42.04ZM45.368 18.992V20.512H47.24V18.992H45.368ZM55.88 14.736L57.928 14.944C57.832 15.248 57.832 15.248 57.672 16.016C57.592 16.4 57.512 16.72 57.336 17.424C58.44 17.312 59.272 17.168 59.896 16.976L59.944 18.816C59.768 18.832 59.736 18.832 59.432 18.896C58.856 18.992 57.88 19.104 56.888 19.184C56.424 20.784 55.848 22.304 55.128 23.824C54.76 24.608 54.616 24.896 54.008 26.016C53.8 26.4 53.8 26.4 53.704 26.592L51.864 25.568C52.424 24.832 52.872 24.112 53.416 23.008C54.04 21.728 54.312 21.072 54.92 19.232C54.2 19.248 54.104 19.248 53.912 19.248C53.704 19.248 53.608 19.248 53.272 19.232L52.424 19.216V17.392C53 17.504 53.608 17.536 54.584 17.536C54.776 17.536 55.048 17.536 55.4 17.52C55.672 16.384 55.848 15.424 55.88 14.736ZM66.12 18.896L65.256 20.544C63.864 19.616 62.44 18.928 60.648 18.304L61.608 16.752C63.496 17.472 64.696 18.032 66.12 18.896ZM66.056 26.112L65.176 27.904C64.6 27.216 63.672 26.464 62.728 25.92C62.744 26.064 62.76 26.176 62.76 26.24C62.76 26.832 62.488 27.52 62.072 27.936C61.512 28.512 60.552 28.832 59.416 28.832C57.304 28.832 55.928 27.776 55.928 26.144C55.928 24.528 57.352 23.392 59.384 23.392C59.864 23.392 60.2 23.424 60.872 23.536C60.824 22.8 60.792 22.176 60.792 21.696C60.792 21.072 60.824 20.608 60.92 20.08L62.776 20.176C62.616 20.768 62.584 21.136 62.584 21.792C62.584 22.432 62.616 23.072 62.728 23.984C63.88 24.496 64.04 24.576 65.256 25.456C65.496 25.616 65.56 25.68 65.816 25.888C65.944 26.016 65.944 26.016 66.056 26.112ZM60.936 25.232C60.376 25.04 59.992 24.976 59.496 24.976C58.456 24.976 57.784 25.408 57.784 26.08C57.784 26.736 58.36 27.12 59.352 27.12C60.44 27.12 60.968 26.672 60.968 25.776C60.968 25.616 60.936 25.232 60.936 25.232ZM71.4 19.568L72.728 18.624C73.768 19.36 73.8 19.376 74.728 20.224C75.848 19.312 76.424 18.72 77.464 17.456H73.256C72.008 18.8 70.712 19.792 68.936 20.784C68.664 20.24 68.392 19.92 67.848 19.44C70.472 18.16 72.584 16.24 73.528 14.272L75.416 14.736C75 15.344 74.856 15.536 74.584 15.904H77.864C78.472 15.904 78.856 15.888 79.272 15.824L80.216 16.832C80.024 17.072 80.008 17.088 79.64 17.568C78.248 19.392 76.712 20.864 74.824 22.192H80.008C80.648 22.192 80.968 22.176 81.352 22.128C81.288 22.56 81.272 22.976 81.272 23.6V27.712C81.272 28.352 81.304 28.88 81.368 29.296H79.544V28.432H73.432V29.296H71.576C71.64 28.816 71.672 28.288 71.672 27.712V24.24C70.696 24.784 70.072 25.072 68.632 25.68C68.36 24.992 68.136 24.656 67.608 24.08C68.984 23.632 70.296 23.072 71.448 22.448C71.96 22.16 72.488 21.824 73.352 21.248C72.68 20.544 72.232 20.16 71.4 19.568ZM73.416 23.76V26.912H79.56V23.76H73.416ZM87.336 17.712H85.336C84.632 17.712 84.264 17.728 83.752 17.792V16.064C84.28 16.128 84.744 16.16 85.448 16.16H87.336V15.824C87.336 15.312 87.304 14.96 87.256 14.576H89.064C89.016 14.864 88.984 15.376 88.984 15.808V16.16H90.616C91.336 16.16 91.864 16.128 92.408 16.064V17.792C91.912 17.728 91.464 17.712 90.744 17.712H88.984V18.864H90.76C91.352 18.864 91.768 18.848 92.168 18.8C92.136 19.088 92.12 19.504 92.12 20.064V21.936C92.12 22.752 92.04 23.056 91.784 23.312C91.512 23.584 91.112 23.68 90.248 23.68C90.2 23.68 90.072 23.68 89.944 23.68C89.88 23.008 89.816 22.768 89.624 22.304C89.864 22.32 89.992 22.336 90.168 22.336C90.536 22.336 90.616 22.288 90.616 22.064V20.352H88.984V22.352C89.56 23.328 89.944 23.808 90.664 24.496C91.384 25.168 91.848 25.536 92.712 26.08C92.248 26.64 92.056 26.944 91.72 27.536C90.408 26.528 89.816 25.904 88.92 24.624C88.952 24.848 88.968 25.296 88.968 25.872V27.872C88.968 28.48 88.984 28.88 89.048 29.312H87.24C87.304 28.928 87.336 28.432 87.336 27.792V25.984C87.336 25.472 87.352 25.04 87.368 24.832C86.408 26.416 85.8 27.104 84.392 28.192C84.088 27.616 83.88 27.28 83.416 26.736C84.552 25.92 85.064 25.456 85.8 24.576C86.568 23.664 86.904 23.152 87.336 22.272V20.352H85.832V22.528C85.832 23.072 85.848 23.408 85.88 23.776H84.184C84.232 23.312 84.264 22.912 84.264 22.208V20.288C84.264 19.664 84.248 19.232 84.2 18.8C84.712 18.848 85.08 18.864 85.704 18.864H87.336V17.712ZM92.984 15.792H94.808C94.744 16.208 94.728 16.64 94.728 17.456V23.792C94.728 24.752 94.744 25.056 94.792 25.488H92.984C93.048 25.008 93.064 24.688 93.064 23.776V17.488C93.064 16.704 93.032 16.24 92.984 15.792ZM96.088 14.672H97.96C97.88 15.12 97.864 15.632 97.864 16.608V27.184C97.864 28.112 97.736 28.48 97.336 28.768C97 29.024 96.488 29.104 95.384 29.104C95.112 29.104 94.456 29.088 93.88 29.056C93.784 28.368 93.688 28.048 93.416 27.376C94.12 27.456 94.904 27.52 95.336 27.52C96.04 27.52 96.184 27.44 96.184 27.024V16.656C96.184 15.696 96.152 15.184 96.088 14.672ZM100.76 18.32L100.792 16.496C101.448 16.64 102.472 16.704 104.504 16.704C104.936 15.744 105.08 15.264 105.144 14.72L107.24 14.944C107.144 15.104 107.144 15.104 106.6 16.384C106.52 16.56 106.488 16.608 106.456 16.672C106.584 16.656 106.584 16.656 107.464 16.608C109.32 16.496 110.776 16.32 111.656 16.064L111.768 17.888C111.32 17.92 111.32 17.92 110.504 18.016C109.336 18.16 107.304 18.288 105.688 18.336C105.224 19.248 104.776 19.888 104.216 20.464L104.232 20.496C104.344 20.416 104.344 20.416 104.552 20.256C105.144 19.808 105.992 19.536 106.808 19.536C108.056 19.536 108.84 20.128 109.096 21.232C110.328 20.784 111.144 20.496 111.544 20.368C112.408 20.064 112.472 20.048 112.728 19.888L113.48 21.728C113.032 21.792 112.552 21.92 111.704 22.16C111.48 22.224 110.68 22.496 109.304 22.976V23.152C109.32 23.568 109.32 23.568 109.32 23.792C109.32 23.952 109.32 24.224 109.32 24.432C109.304 24.704 109.304 24.848 109.304 24.96C109.304 25.312 109.32 25.536 109.352 25.808L107.496 25.856C107.56 25.568 107.592 24.752 107.592 24C107.592 23.776 107.592 23.776 107.592 23.616C106.808 23.984 106.392 24.208 106.056 24.448C105.496 24.864 105.224 25.296 105.224 25.76C105.224 26.592 105.992 26.928 107.928 26.928C109.848 26.928 111.496 26.688 112.632 26.256L112.792 28.32C112.52 28.32 112.44 28.336 112.056 28.384C110.904 28.56 109.368 28.672 107.96 28.672C106.264 28.672 105.208 28.48 104.392 28C103.656 27.584 103.224 26.816 103.224 25.936C103.224 25.28 103.416 24.768 103.928 24.16C104.648 23.264 105.56 22.656 107.368 21.904C107.288 21.312 106.968 21.04 106.392 21.04C105.464 21.04 104.344 21.6 103.112 22.688C102.44 23.248 102.072 23.648 101.72 24.144L100.264 22.704C100.68 22.384 101.144 21.936 101.704 21.28C102.328 20.544 103.304 19.152 103.624 18.544C103.688 18.416 103.688 18.416 103.752 18.336C103.688 18.336 103.48 18.352 103.48 18.352C103.224 18.352 101.816 18.32 101.464 18.32C101.16 18.304 101.16 18.304 101.016 18.304C100.968 18.304 100.872 18.304 100.76 18.32ZM120.248 23.904V22.624C119.672 22.864 119.672 22.864 119.112 23.072V27.712C119.112 28.528 118.904 28.896 118.344 29.088C117.992 29.2 117.448 29.28 116.904 29.28C116.68 29.28 116.504 29.28 116.088 29.248C116.008 28.544 115.944 28.24 115.72 27.568C116.216 27.632 116.536 27.664 116.904 27.664C117.32 27.664 117.416 27.568 117.416 27.184V23.68C116.952 23.84 116.92 23.856 116.52 23.984C116.28 24.064 116.088 24.144 115.848 24.24L115.496 22.464C115.976 22.416 116.328 22.32 117.416 22V19.12H116.792C116.376 19.12 116.024 19.136 115.64 19.184V17.472C116.024 17.536 116.344 17.568 116.824 17.568H117.416V16.256C117.416 15.504 117.4 15.12 117.32 14.624H119.208C119.128 15.12 119.112 15.504 119.112 16.24V17.568H119.624C119.928 17.568 120.12 17.552 120.328 17.536V16.224C120.328 15.776 120.312 15.456 120.28 15.12C120.68 15.168 121.08 15.184 121.816 15.184H128.472C129.24 15.184 129.64 15.168 130.04 15.12C130.008 15.44 129.992 15.68 129.992 16.192V17.024C129.992 17.52 130.008 17.792 130.056 18.112H128.36V16.72H127V19.136C127 19.424 127.112 19.472 127.832 19.472C128.888 19.472 128.92 19.44 128.968 18.368C129.512 18.576 129.736 18.64 130.312 18.72C130.152 20.688 129.848 20.928 127.592 20.928C126.632 20.928 126.216 20.864 125.848 20.688C125.8 20.928 125.784 21.2 125.784 21.584V22.256H128.568C129.224 22.256 129.704 22.224 130.2 22.16V23.904C129.64 23.84 129.176 23.824 128.6 23.824H126.664C127.112 24.416 127.768 25.072 128.44 25.584C129.096 26.096 129.752 26.464 130.632 26.832C130.296 27.328 130.12 27.68 129.784 28.496C128.072 27.584 126.92 26.56 125.752 24.912C125.752 25.136 125.768 25.312 125.768 25.424C125.784 25.808 125.784 25.888 125.784 26.304V28.016C125.784 28.56 125.816 28.912 125.88 29.344H124.024C124.088 28.864 124.12 28.48 124.12 27.984V26.176C124.12 25.824 124.136 25.2 124.152 24.928C123.176 26.432 122.04 27.488 120.312 28.496C119.944 27.808 119.736 27.52 119.272 27.04C120.888 26.304 122.344 25.136 123.208 23.824H121.864C121.16 23.824 120.712 23.84 120.248 23.904ZM120.488 20.944L120.536 22.208C120.936 22.24 121.336 22.256 121.944 22.256H124.12V21.84C124.12 21.28 124.088 20.944 124.024 20.576H125.704C125.528 20.4 125.48 20.208 125.48 19.824V16.72H124.6C124.552 17.648 124.52 17.872 124.408 18.336C124.024 19.728 123.048 20.752 121.32 21.52C120.984 20.96 120.76 20.672 120.296 20.224C121.352 19.904 122.072 19.44 122.52 18.832C122.92 18.304 123.08 17.696 123.112 16.72H121.88V18.304H120.52V19.168C120.232 19.136 119.992 19.12 119.64 19.12H119.112V21.472C119.64 21.28 119.816 21.216 120.488 20.944ZM141.32 19.488L141.304 20.864C141.304 20.928 141.32 21.056 141.32 21.248C141.672 21.984 141.832 22.64 141.832 23.504C141.832 25.248 141 26.752 139.448 27.824C138.776 28.288 138.04 28.624 136.552 29.136C136.104 28.144 135.944 27.904 135.416 27.328C136.728 27.072 137.384 26.848 138.136 26.4C139.224 25.776 139.864 24.96 139.992 24.064C139.528 24.8 138.696 25.2 137.64 25.2C136.904 25.2 136.328 25.024 135.784 24.624C135.032 24.08 134.68 23.376 134.68 22.464C134.68 20.768 136.008 19.552 137.864 19.552C138.552 19.552 139.16 19.728 139.528 20.032C139.512 19.952 139.512 19.952 139.512 19.84C139.496 19.808 139.496 18.912 139.496 18.48C137.208 18.544 135.704 18.592 135 18.64C132.584 18.816 132.584 18.816 132.152 18.88L132.088 16.976C132.44 17.008 132.584 17.008 132.872 17.008C133.272 17.008 133.528 17.008 135.592 16.928C136.632 16.896 136.792 16.896 138.104 16.864C138.632 16.848 138.632 16.848 139.464 16.816C139.448 15.296 139.448 15.296 139.368 14.88L141.384 14.864C141.32 15.36 141.32 15.392 141.304 16.768C144.088 16.752 145.336 16.72 145.928 16.656L145.944 18.496C145.352 18.448 144.584 18.416 143.256 18.416C142.872 18.416 142.584 18.416 141.32 18.448V19.488ZM139.48 22.128C139.48 21.456 138.92 21.024 138.04 21.024C137.224 21.024 136.552 21.6 136.552 22.304C136.552 23.04 137.112 23.568 137.912 23.568C138.824 23.568 139.48 22.96 139.48 22.128ZM156.248 17.744C155.944 20.256 155.384 22.464 154.584 24.272C153.672 26.336 152.648 27.28 151.336 27.28C149.512 27.28 148.2 25.424 148.2 22.848C148.2 21.088 148.824 19.44 149.96 18.192C151.304 16.72 153.192 15.952 155.464 15.952C159.304 15.952 161.8 18.288 161.8 21.888C161.8 24.656 160.36 26.864 157.912 27.856C157.144 28.176 156.52 28.336 155.4 28.528C155.128 27.68 154.936 27.328 154.424 26.656C155.896 26.464 156.856 26.208 157.608 25.776C159 25.008 159.832 23.488 159.832 21.776C159.832 20.24 159.144 18.992 157.864 18.224C157.368 17.936 156.952 17.808 156.248 17.744ZM154.296 17.76C153.464 17.856 152.888 18.08 152.232 18.544C150.888 19.504 150.056 21.152 150.056 22.864C150.056 24.176 150.616 25.216 151.32 25.216C151.848 25.216 152.392 24.544 152.968 23.168C153.576 21.728 154.104 19.568 154.296 17.76ZM167.224 28.384L165.288 28.496C165.272 28.208 165.256 28.112 165.208 27.744C164.904 25.808 164.792 24.576 164.792 22.96C164.792 20.896 164.984 19.072 165.448 16.704C165.624 15.808 165.656 15.648 165.688 15.216L167.8 15.44C167.416 16.384 167.048 18.176 166.792 20.224C166.632 21.424 166.568 22.368 166.552 23.76C166.552 24.112 166.536 24.24 166.52 24.64C166.696 24.08 166.728 23.968 167.352 22.528L168.632 23.104C167.752 24.96 167.208 26.816 167.208 27.952C167.208 28.048 167.208 28.176 167.224 28.384ZM169.432 18.8L169.464 16.88C170.184 17.072 171.032 17.136 172.424 17.136C174.2 17.136 175.72 16.992 176.776 16.704L176.872 18.64C176.744 18.656 176.504 18.688 175.736 18.784C174.712 18.912 173.496 18.976 172.312 18.976C171.144 18.976 171.128 18.976 169.432 18.8ZM170.536 21.44L172.104 22.176C171.304 23.104 170.968 23.792 170.968 24.48C170.968 25.392 171.848 25.872 173.512 25.872C174.92 25.872 176.312 25.648 177.32 25.264L177.48 27.296C177.256 27.312 177.192 27.328 176.824 27.392C175.544 27.6 174.568 27.696 173.512 27.696C171.528 27.696 170.248 27.248 169.544 26.304C169.24 25.904 169.064 25.312 169.064 24.736C169.064 23.696 169.544 22.624 170.536 21.44ZM188.744 17.824H187.384C186.056 17.856 186.056 17.856 185.672 17.904V16.208C186.12 16.272 186.632 16.304 187.336 16.304H188.744V15.872C188.744 15.424 188.712 15.072 188.648 14.672H190.488C190.44 15.04 190.408 15.376 190.408 15.872V16.304H192.152C192.84 16.304 193.368 16.272 193.816 16.208V17.904C193.368 17.84 192.888 17.824 192.168 17.824H190.408V19.344H192.616C193.384 19.344 193.96 19.312 194.36 19.248V20.944C193.928 20.88 193.496 20.864 192.792 20.864H192.52V22.224H192.728C193.496 22.224 193.928 22.208 194.312 22.144V23.888C193.848 23.808 193.448 23.792 192.728 23.792H192.52V27.408C192.52 28.336 192.36 28.72 191.88 28.944C191.48 29.12 190.92 29.2 190.12 29.2C189.976 29.2 189.976 29.2 188.872 29.184C188.84 28.496 188.728 28.016 188.488 27.504C188.888 27.568 189.72 27.632 190.28 27.632C190.776 27.632 190.872 27.552 190.872 27.2V23.792H187.048C186.456 23.792 185.848 23.824 185.336 23.888V22.144C185.752 22.208 186.248 22.224 187.08 22.224H190.872V20.864H187.08C186.408 20.864 185.816 20.896 185.32 20.944V19.248C185.72 19.312 186.328 19.344 187.096 19.344H188.744V17.824ZM180.28 26.384V17.024C180.28 16.304 180.264 15.888 180.216 15.408C180.568 15.44 180.872 15.456 181.624 15.456H183.56C184.28 15.456 184.568 15.44 184.952 15.408C184.904 15.776 184.904 16.064 184.904 16.992V26.144C184.904 26.992 184.92 27.344 184.952 27.744H183.32V26.944H181.864V28.288H180.184C180.248 27.792 180.28 27.232 180.28 26.384ZM181.88 16.976V20.32H183.32V16.976H181.88ZM181.88 21.792V25.392H183.32V21.792H181.88ZM189.416 26.432L188.008 27.504C187.368 26.432 186.76 25.664 185.96 24.88L187.32 23.984C188.104 24.688 188.744 25.424 189.416 26.432ZM206.184 22.784V26.032C206.184 26.64 206.2 27.008 206.232 27.424C206.584 27.456 207.16 27.504 207.448 27.504C207.896 27.504 208.04 27.392 208.04 27.072V20.384H204.888C204.328 20.384 203.816 20.4 203.416 20.432C203.448 19.968 203.464 19.664 203.464 18.976V16.528C203.464 15.984 203.448 15.536 203.416 15.04C203.848 15.088 204.232 15.104 205.048 15.104H208.12C208.92 15.104 209.32 15.088 209.768 15.04C209.72 15.616 209.704 16.016 209.704 16.816V27.296C209.704 28.256 209.512 28.672 208.936 28.912C208.6 29.056 208.12 29.104 207.128 29.104C206.904 29.104 206.84 29.104 206.024 29.056C205.928 28.336 205.848 28.048 205.608 27.408C205.144 27.392 204.84 27.392 204.712 27.392H201.32V28.288H199.624C199.688 27.904 199.736 27.264 199.736 26.688V22.784C199.736 22.224 199.72 21.776 199.688 21.344C200.152 21.392 200.52 21.408 201.176 21.408H204.744C205.416 21.408 205.768 21.392 206.232 21.344C206.2 21.76 206.184 22.16 206.184 22.784ZM205.048 16.4V17.2H208.04V16.4H205.048ZM205.048 18.336V19.152H208.04V18.336H205.048ZM201.32 22.752V23.712H204.584V22.752H201.32ZM201.32 25.008V26.048H204.584V25.008H201.32ZM197.976 20.384V27.296C197.976 28.256 198.008 28.832 198.072 29.264H196.2C196.264 28.784 196.296 28.272 196.296 27.28V16.832C196.296 16 196.28 15.552 196.232 15.04C196.68 15.088 197.096 15.104 197.88 15.104H200.712C201.544 15.104 201.912 15.088 202.344 15.04C202.312 15.552 202.296 15.904 202.296 16.528V18.976C202.296 19.712 202.312 20.08 202.344 20.432C201.928 20.4 201.432 20.384 200.872 20.384H197.976ZM197.976 16.4V17.2H200.728V16.4H197.976ZM197.976 18.336V19.152H200.728V18.336H197.976ZM222.408 19.2L224.024 18.4C225.128 19.92 225.96 21.648 226.424 23.488L224.6 24.4C224.28 22.72 223.288 20.368 222.408 19.2ZM217.704 15.68L217.672 15.888C217.592 16.352 217.48 17.008 217.32 17.872C217.272 18.144 217.272 18.144 217.224 18.352C217.704 18.336 217.928 18.32 218.216 18.32C219.272 18.32 220.056 18.608 220.584 19.168C221.128 19.776 221.336 20.544 221.336 22C221.336 24.752 220.872 26.944 220.104 27.824C219.656 28.352 219.176 28.544 218.328 28.544C217.592 28.544 216.936 28.416 215.864 28.064C215.88 27.76 215.896 27.52 215.896 27.36C215.896 26.944 215.864 26.624 215.736 26C216.6 26.384 217.512 26.64 218.072 26.64C218.536 26.64 218.792 26.336 219.032 25.552C219.288 24.72 219.448 23.264 219.448 21.904C219.448 20.432 219.08 20 217.848 20C217.512 20 217.256 20.016 216.888 20.048C216.104 23.328 215.384 25.264 213.624 28.752L211.768 27.728C213 26.048 214.232 23.168 214.984 20.192C214.744 20.224 214.744 20.224 214.232 20.32L212.776 20.56C212.52 20.608 212.344 20.656 212.12 20.72L211.928 18.832C212.648 18.816 213.48 18.736 215.336 18.496C215.64 16.72 215.752 15.808 215.752 15.264C215.752 15.2 215.752 15.104 215.752 14.976L217.832 15.184C217.784 15.312 217.736 15.52 217.704 15.68ZM221.416 15.792L222.536 15.232C223.24 15.984 223.672 16.592 224.216 17.584L223.096 18.176C222.568 17.2 222.12 16.56 221.416 15.792ZM226.12 16.544L225.016 17.168C224.536 16.288 224.008 15.536 223.384 14.848L224.456 14.288C225.176 15.024 225.624 15.632 226.12 16.544ZM231.848 14.864L233.928 15.088C233.88 15.232 233.832 15.408 233.8 15.584C233.768 15.792 233.752 15.872 233.704 16.128C233.656 16.464 233.656 16.464 233.432 17.664C233.368 18.016 233.368 18.048 233.32 18.256C233.784 18.224 234.008 18.208 234.312 18.208C235.368 18.208 236.152 18.496 236.68 19.056C237.224 19.664 237.432 20.432 237.432 21.888C237.432 24.64 236.968 26.832 236.2 27.712C235.752 28.24 235.272 28.432 234.424 28.432C233.688 28.432 233.032 28.304 231.96 27.968C231.976 27.648 231.992 27.424 231.992 27.264C231.992 26.848 231.96 26.528 231.832 25.904C232.696 26.288 233.608 26.528 234.168 26.528C234.632 26.528 234.888 26.224 235.128 25.44C235.384 24.608 235.544 23.152 235.544 21.792C235.544 20.32 235.176 19.888 233.912 19.888C233.592 19.888 233.352 19.904 232.984 19.936C232.504 21.888 232.36 22.368 232.008 23.408C231.448 25.008 231.016 26.032 230.088 27.904C230.008 28.064 230.008 28.064 229.848 28.384C229.8 28.48 229.8 28.496 229.72 28.656L227.864 27.632C228.344 26.992 228.984 25.84 229.528 24.624C230.216 23.056 230.44 22.384 231.08 20.096C230.264 20.192 228.744 20.464 228.216 20.608L228.024 18.72C228.616 18.72 230.552 18.528 231.432 18.4C231.72 16.672 231.848 15.696 231.848 15.168C231.848 15.104 231.848 14.992 231.848 14.864ZM237.576 17.936L239.224 17.136C240.824 19.008 241.832 20.912 242.52 23.376L240.696 24.304C240.392 22.928 240.024 21.872 239.416 20.672C238.84 19.488 238.328 18.752 237.576 17.936ZM247.848 14.864L249.928 15.088C249.88 15.232 249.832 15.408 249.8 15.584C249.768 15.792 249.752 15.872 249.704 16.128C249.656 16.464 249.656 16.464 249.432 17.664C249.368 18.016 249.368 18.048 249.32 18.256C249.784 18.224 250.008 18.208 250.312 18.208C251.368 18.208 252.152 18.496 252.68 19.056C253.224 19.664 253.432 20.432 253.432 21.888C253.432 24.64 252.968 26.832 252.2 27.712C251.752 28.24 251.272 28.432 250.424 28.432C249.688 28.432 249.032 28.304 247.96 27.968C247.976 27.648 247.992 27.424 247.992 27.264C247.992 26.848 247.96 26.528 247.832 25.904C248.696 26.288 249.608 26.528 250.168 26.528C250.632 26.528 250.888 26.224 251.128 25.44C251.384 24.608 251.544 23.152 251.544 21.792C251.544 20.32 251.176 19.888 249.912 19.888C249.592 19.888 249.352 19.904 248.984 19.936C248.504 21.888 248.36 22.368 248.008 23.408C247.448 25.008 247.016 26.032 246.088 27.904C246.008 28.064 246.008 28.064 245.848 28.384C245.8 28.48 245.8 28.496 245.72 28.656L243.864 27.632C244.344 26.992 244.984 25.84 245.528 24.624C246.216 23.056 246.44 22.384 247.08 20.096C246.264 20.192 244.744 20.464 244.216 20.608L244.024 18.72C244.616 18.72 246.552 18.528 247.432 18.4C247.72 16.672 247.848 15.696 247.848 15.168C247.848 15.104 247.848 14.992 247.848 14.864ZM253.576 17.936L255.224 17.136C256.824 19.008 257.832 20.912 258.52 23.376L256.696 24.304C256.392 22.928 256.024 21.872 255.416 20.672C254.84 19.488 254.328 18.752 253.576 17.936ZM262.648 14.816L264.68 14.928C264.488 15.472 264.408 15.888 264.104 18.016C263.992 18.688 263.928 19.232 263.896 19.616H263.944C263.976 19.52 263.976 19.52 264.04 19.264C264.2 18.704 264.616 17.92 265.048 17.36C265.928 16.272 266.92 15.728 268.088 15.728C269.176 15.728 270.136 16.24 270.824 17.168C271.624 18.24 271.976 19.536 271.976 21.424C271.976 24.512 270.536 26.816 267.848 28C267.032 28.368 265.912 28.688 264.712 28.896C264.392 27.984 264.216 27.632 263.768 27.008C265.368 26.832 266.296 26.592 267.272 26.096C269.128 25.152 269.976 23.632 269.976 21.2C269.976 18.896 269.208 17.616 267.832 17.616C267.224 17.616 266.664 17.888 266.104 18.464C264.856 19.76 264.088 21.728 264.088 23.632C264.088 23.712 264.088 23.824 264.088 23.968L262.168 24C262.184 23.904 262.184 23.824 262.184 23.792C262.184 23.728 262.184 23.632 262.184 23.488C262.168 23.024 262.136 21.84 262.136 21.52C262.136 20.224 262.232 18.448 262.36 17.344L262.6 15.36C262.632 15.088 262.648 15.024 262.648 14.816ZM275.56 25.6L276.92 24.336C278.392 25.456 279.288 26.336 280.52 27.856L279.032 29.248C277.864 27.664 276.952 26.704 275.56 25.6ZM29 43.408H28.744C28.04 43.408 27.768 43.424 27.432 43.472V42.128C27.176 42.112 26.744 42.096 26.152 42.096H21.4C20.808 42.096 20.424 42.112 19.896 42.176V40.464C20.376 40.528 20.712 40.544 21.464 40.544H22.952V39.856C22.952 39.264 22.936 38.912 22.872 38.528H24.728C24.664 38.96 24.648 39.296 24.648 39.856V40.544H25.976C26.728 40.544 27.144 40.528 27.56 40.464V41.792C27.848 41.824 28.168 41.84 28.76 41.84H29.064C29.096 41.12 29.096 40.64 29.096 40.128C29.096 39.488 29.08 39.136 29 38.672H30.888C30.824 39.232 30.824 39.344 30.808 40.08C30.792 41.152 30.792 41.52 30.776 41.84H32.424C33.352 41.84 33.688 41.824 34.056 41.776C34.008 42.224 33.992 42.656 33.976 43.664C33.896 47.936 33.72 50.224 33.336 51.616C33.032 52.672 32.504 53.04 31.24 53.04C30.68 53.04 30.168 53.024 29.704 52.976C29.656 52.288 29.576 51.904 29.352 51.248C29.896 51.344 30.568 51.424 30.888 51.424C31.528 51.424 31.64 51.296 31.8 50.32C32.12 48.592 32.232 46.896 32.264 43.408H30.712C30.504 46.176 30.008 48.24 29.192 49.824C28.424 51.312 27.768 52.112 26.392 53.28C26.008 52.72 25.672 52.384 25.08 52C26.456 50.976 27.112 50.16 27.88 48.576C28.472 47.36 28.824 45.744 29 43.408ZM21.32 46.752L22.456 45.76C23.08 46.304 23.256 46.464 23.768 46.96C24.104 46.208 24.216 45.872 24.408 44.976L25.928 45.776C25.592 46.816 25.416 47.264 24.952 48.192C25.496 48.816 25.736 49.088 26.408 49.936L25.192 51.2C24.664 50.432 24.472 50.208 24.072 49.712C23.112 51.12 22.056 52.176 20.552 53.2C20.248 52.64 19.896 52.16 19.464 51.744C20.12 51.376 20.552 51.088 21.016 50.688C21.736 50.08 22.456 49.264 22.984 48.432C22.328 47.696 22.056 47.424 21.32 46.752ZM21.752 42.336L23.24 42.944C22.408 44.816 21.928 45.536 20.6 46.896C20.312 46.256 20.088 45.936 19.624 45.472C20.248 44.912 20.52 44.624 20.936 44C21.32 43.424 21.48 43.088 21.752 42.336ZM24.584 43.008L25.928 42.368C26.616 43.792 27.096 44.48 28.104 45.472C27.624 45.84 27.464 46 26.936 46.64C25.832 45.376 25.48 44.832 24.584 43.008ZM39.464 42.8L40.504 41.696C40.792 41.904 40.872 41.968 41.112 42.16C41.4 41.776 41.512 41.6 41.704 41.232H37.512C36.824 41.232 36.376 41.248 35.864 41.312V39.568C36.392 39.632 36.92 39.664 37.752 39.664H42.024V39.504C42.024 39.12 41.992 38.832 41.928 38.496H43.88C43.816 38.848 43.784 39.104 43.784 39.488V39.664H48.344C49.192 39.664 49.736 39.632 50.248 39.568V41.312C49.736 41.248 49.288 41.232 48.584 41.232H43.448C42.984 42 42.696 42.4 42.152 43.056C42.472 43.344 42.536 43.424 42.808 43.712C43.512 42.944 43.8 42.576 44.408 41.728L45.688 42.576C44.728 43.728 43.8 44.64 42.344 45.872C43.512 45.824 43.832 45.808 44.568 45.712C44.344 45.376 44.232 45.216 43.88 44.768L45.048 44.272C45.928 45.376 46.04 45.52 47.016 47.2L45.64 47.76C45.432 47.28 45.352 47.12 45.224 46.848C43.64 47.104 42.632 47.216 40.056 47.424C39.688 47.44 39.416 47.472 39.272 47.488L39.112 46.384C38.328 46.944 37.688 47.312 36.376 47.968L35.736 46.304C36.984 45.968 38.216 45.312 39.272 44.416L40.072 45.664L39.688 45.968C39.784 45.968 39.816 45.968 39.864 45.968C39.896 45.968 40.328 45.952 40.44 45.952C41.032 45.456 41.288 45.232 41.768 44.768C41.112 44.048 40.408 43.44 39.464 42.8ZM41.992 50.112H37.544C36.824 50.112 36.376 50.128 35.672 50.208V48.448C36.072 48.512 36.712 48.544 37.384 48.544H41.992V48.416C41.992 48.016 41.976 47.696 41.928 47.472H43.832C43.784 47.712 43.768 48.032 43.768 48.416V48.544H48.712C49.368 48.544 49.896 48.512 50.36 48.448V50.208C49.816 50.144 49.192 50.112 48.488 50.112H43.768V51.888C43.768 52.512 43.8 52.928 43.88 53.44H41.88C41.96 52.912 41.992 52.48 41.992 51.888V50.112ZM36.2 42.512L37.416 41.456C38.328 42.16 38.952 42.704 39.64 43.456L38.44 44.64C37.672 43.712 37.192 43.248 36.2 42.512ZM48.248 41.456L49.512 42.528C48.616 43.424 47.832 44.064 46.712 44.832L45.608 43.664C46.792 42.896 47.416 42.368 48.248 41.456ZM46.376 45.776L47.352 44.672C48.664 45.472 49.016 45.728 50.2 46.704L49.064 48.032C48.184 47.104 47.464 46.496 46.376 45.776ZM62.408 43.2L64.024 42.4C65.128 43.92 65.96 45.648 66.424 47.488L64.6 48.4C64.28 46.72 63.288 44.368 62.408 43.2ZM57.704 39.68L57.672 39.888C57.592 40.352 57.48 41.008 57.32 41.872C57.272 42.144 57.272 42.144 57.224 42.352C57.704 42.336 57.928 42.32 58.216 42.32C59.272 42.32 60.056 42.608 60.584 43.168C61.128 43.776 61.336 44.544 61.336 46C61.336 48.752 60.872 50.944 60.104 51.824C59.656 52.352 59.176 52.544 58.328 52.544C57.592 52.544 56.936 52.416 55.864 52.064C55.88 51.76 55.896 51.52 55.896 51.36C55.896 50.944 55.864 50.624 55.736 50C56.6 50.384 57.512 50.64 58.072 50.64C58.536 50.64 58.792 50.336 59.032 49.552C59.288 48.72 59.448 47.264 59.448 45.904C59.448 44.432 59.08 44 57.848 44C57.512 44 57.256 44.016 56.888 44.048C56.104 47.328 55.384 49.264 53.624 52.752L51.768 51.728C53 50.048 54.232 47.168 54.984 44.192C54.744 44.224 54.744 44.224 54.232 44.32L52.776 44.56C52.52 44.608 52.344 44.656 52.12 44.72L51.928 42.832C52.648 42.816 53.48 42.736 55.336 42.496C55.64 40.72 55.752 39.808 55.752 39.264C55.752 39.2 55.752 39.104 55.752 38.976L57.832 39.184C57.784 39.312 57.736 39.52 57.704 39.68ZM61.416 39.792L62.536 39.232C63.24 39.984 63.672 40.592 64.216 41.584L63.096 42.176C62.568 41.2 62.12 40.56 61.416 39.792ZM66.12 40.544L65.016 41.168C64.536 40.288 64.008 39.536 63.384 38.848L64.456 38.288C65.176 39.024 65.624 39.632 66.12 40.544ZM72.456 40.48H69.88C69.208 40.48 68.664 40.512 68.12 40.576V38.928C68.616 38.992 69.176 39.024 69.944 39.024H80.072C80.872 39.024 81.4 38.992 81.896 38.928V40.576C81.4 40.512 80.808 40.48 80.136 40.48H77.4V41.456H79.352C80.248 41.456 80.632 41.44 81.032 41.408C80.984 41.808 80.968 42.112 80.968 42.688V44.24C80.968 44.736 80.984 45.12 81.032 45.52C80.616 45.472 80.152 45.456 79.4 45.456H77.4V46.448H80.408C81.176 46.448 81.688 46.416 82.168 46.352V48C81.64 47.936 81.144 47.904 80.408 47.904H69.56C68.84 47.904 68.296 47.936 67.8 48V46.352C68.296 46.416 68.808 46.448 69.56 46.448H72.456V45.456H70.584C69.752 45.456 69.368 45.472 68.92 45.52C68.968 45.104 68.984 44.752 68.984 44.24V42.688C68.984 42.192 68.968 41.808 68.92 41.408C69.336 41.44 69.672 41.456 70.584 41.456H72.456V40.48ZM74.04 40.48V41.456H75.816V40.48H74.04ZM74.04 45.456V46.448H75.816V45.456H74.04ZM72.456 42.784H70.632V44.128H72.456V42.784ZM74.04 42.784V44.128H75.816V42.784H74.04ZM77.4 42.784V44.128H79.352V42.784H77.4ZM68.984 52.896L67.56 51.856C68.504 50.688 68.936 49.888 69.448 48.384L70.936 49.056C70.28 50.912 69.896 51.648 68.984 52.896ZM73.336 49.808V51.12C73.336 51.408 73.384 51.52 73.544 51.584C73.752 51.68 74.12 51.712 74.712 51.712C76.552 51.712 76.968 51.68 77.224 51.504C77.48 51.312 77.592 50.864 77.688 49.696C78.28 50 78.632 50.112 79.336 50.24C79.128 51.68 78.968 52.24 78.616 52.592C78.152 53.056 77.464 53.168 74.84 53.168C73.432 53.168 72.648 53.088 72.2 52.88C71.8 52.704 71.64 52.352 71.64 51.664V49.824C71.64 49.2 71.624 48.912 71.544 48.464H73.416C73.352 48.864 73.336 49.152 73.336 49.808ZM77.256 50.048L75.8 50.896C75.224 49.936 74.92 49.536 74.152 48.736L75.464 48.032C76.168 48.672 76.712 49.28 77.256 50.048ZM82.456 51.84L80.984 52.784C80.2 50.96 79.784 50.256 78.808 49.04L80.168 48.288C81.144 49.456 81.608 50.176 82.456 51.84ZM84.712 40.24H86.904C86.824 40.832 86.776 41.616 86.776 42.672C86.776 44.064 86.904 45.984 87.08 46.96C87.352 48.624 87.864 49.648 88.376 49.648C88.616 49.648 88.84 49.408 89.032 48.96C89.416 48.096 89.704 47.136 89.88 46.064C90.44 46.704 90.696 46.944 91.48 47.52C90.648 50.64 89.72 51.936 88.36 51.936C87.288 51.936 86.424 51.152 85.784 49.616C85.128 48.016 84.84 45.696 84.776 41.264C84.76 40.704 84.76 40.592 84.712 40.24ZM92.792 41.76L94.472 40.96C96.488 43.376 97.608 46.048 98.072 49.568L96.088 50.32C95.992 48.816 95.624 47.152 95.064 45.696C94.52 44.24 93.752 42.944 92.792 41.76ZM107.944 48.784H106.072C106.088 48.448 106.104 48.288 106.104 48.096C106.104 47.92 106.104 47.92 106.056 46.96L105.832 41.52C105.8 40.816 105.752 40.016 105.688 39.568H108.312C108.264 40 108.2 40.832 108.168 41.52L107.944 46.96C107.912 47.888 107.912 47.888 107.912 48.112C107.912 48.304 107.912 48.464 107.944 48.784ZM108.168 52.288H105.848V50.096H108.168V52.288Z" fill="#0054AC"/>
</svg>
