<svg width="328" height="93" viewBox="0 0 328 93" fill="none" xmlns="http://www.w3.org/2000/svg">
<path d="M19.9 82.9911L30.6784 42.1123L54.7536 59.0646L19.9 82.9911Z" fill="white"/>
<rect width="328" height="60" rx="30" fill="white"/>
<path d="M25.716 25.744L26.628 26.544C26.5 26.832 26.468 27.056 26.452 27.616C26.404 29.424 26.228 31.888 26.068 32.944C25.652 35.712 25.092 36.368 23.172 36.368C22.564 36.368 22.02 36.32 21.188 36.192C21.156 35.184 21.108 34.88 20.82 34.144C21.764 34.4 22.404 34.512 22.932 34.512C23.62 34.512 23.86 34.16 24.116 32.768C24.308 31.664 24.468 29.488 24.468 27.648L20.74 27.664C20.516 29.664 20.18 30.864 19.46 32.24C18.58 33.936 17.156 35.392 15.14 36.672C14.596 35.824 14.372 35.568 13.7 34.976C15.7 33.92 17.012 32.656 17.86 30.944C18.292 30.064 18.532 29.28 18.676 28.16C18.708 27.936 18.74 27.776 18.756 27.664L16.1 27.68C15.124 27.68 14.9 27.696 14.372 27.76L14.356 25.792C14.9 25.888 15.332 25.92 16.132 25.92L18.932 25.904C18.98 25.296 19.012 24.368 19.012 23.904V23.504C19.012 23.296 19.012 23.168 18.964 22.88L21.108 22.928C21.076 23.136 21.06 23.2 21.044 23.424C21.044 23.52 21.028 23.616 21.028 23.728C20.996 24.064 20.996 24.064 20.964 24.896C20.948 25.248 20.948 25.392 20.9 25.904L24.452 25.888C25.172 25.888 25.316 25.872 25.716 25.744ZM31.7 23.408L33.972 23.424C33.908 23.856 33.892 24.256 33.876 25.04L33.796 34.176C35.46 33.856 36.964 33.248 38.164 32.416C39.636 31.408 40.628 30.304 41.428 28.752C42.052 29.584 42.26 29.808 42.948 30.384C41.844 32.08 40.82 33.152 39.38 34.112C37.78 35.184 36.148 35.808 33.556 36.304C33.124 36.384 32.932 36.448 32.596 36.576L31.572 35.344C31.684 34.912 31.716 34.624 31.716 33.696L31.78 25.056C31.78 23.936 31.78 23.936 31.7 23.408ZM45.8114 25.728L47.1394 24.144C49.0434 25.328 50.0354 26.064 51.2674 27.232L49.8914 28.976C48.6114 27.616 47.2994 26.56 45.8114 25.728ZM46.3714 36.288L45.7794 34.08C47.1554 34 49.0594 33.536 50.5154 32.896C52.5154 32.032 54.0034 30.8 55.2674 28.976C55.9714 27.952 56.4194 27.072 56.8994 25.776C57.5234 26.528 57.7794 26.768 58.5954 27.344C57.2354 30.272 55.7154 32.16 53.5234 33.616C51.8914 34.704 49.9074 35.488 47.4274 36.016C46.7874 36.144 46.7394 36.16 46.3714 36.288ZM73.0434 25.184L73.5554 25.92C73.3634 26.176 73.2994 26.32 73.0594 26.992C71.1554 32.224 68.6754 34.976 63.8434 37.216C63.3634 36.4 63.0754 36.032 62.5154 35.552C64.9154 34.624 66.9794 33.248 68.2594 31.728C67.2834 30.88 65.9874 29.984 64.9794 29.456L66.1954 28.032C67.4594 28.736 68.2914 29.296 69.4114 30.176C70.0834 29.2 70.7554 27.776 71.2034 26.4L66.2274 26.448C65.3474 27.952 63.9394 29.552 62.4834 30.752C61.9874 30.176 61.6834 29.936 60.8834 29.472C62.5154 28.272 63.9554 26.64 64.8834 24.896C65.4274 23.888 65.6994 23.264 65.8274 22.672L67.9074 23.136C67.7314 23.44 67.7154 23.456 67.4274 24.048C67.1554 24.608 67.1234 24.672 67.0434 24.816C67.2034 24.8 67.2514 24.8 67.4914 24.784H67.8754L71.2034 24.752C71.5394 24.736 71.9074 24.72 72.0834 24.688C71.7154 23.968 71.4274 23.52 70.9314 22.88L72.1634 22.512C72.8194 23.344 73.2034 23.984 73.6354 24.992L73.0434 25.184ZM75.7954 24.384L74.5634 24.816C74.1794 23.936 73.7154 23.12 73.1394 22.368L74.3234 21.984C74.9794 22.768 75.3634 23.408 75.7954 24.384ZM76.0423 30.976V28.752C76.7463 28.848 77.0503 28.864 78.6343 28.864H87.1623C88.7463 28.864 89.0503 28.848 89.7543 28.752V30.976C89.1143 30.896 88.9383 30.896 87.1463 30.896H78.6503C76.8583 30.896 76.6823 30.896 76.0423 30.976ZM95.6743 23.184L97.7543 22.848C97.8183 23.92 98.2983 26.224 98.8103 27.856C99.8503 27.472 99.8503 27.472 102.954 26.448C103.242 26.352 103.322 26.32 103.562 26.208L104.25 28.224C102.858 28.496 100.762 29.104 98.9703 29.76C96.6343 30.624 95.4663 31.648 95.4663 32.8C95.4663 33.968 96.5543 34.464 99.1302 34.464C101.13 34.464 103.098 34.224 104.298 33.808L104.474 36C104.122 36 104.042 36.016 103.178 36.112C101.45 36.288 100.554 36.352 99.4343 36.352C97.2103 36.352 95.8183 36.08 94.7943 35.472C93.9143 34.944 93.4023 33.952 93.4023 32.8C93.4023 31.728 93.9143 30.704 94.8263 29.936C95.4503 29.408 95.9623 29.088 97.0023 28.56C96.6023 27.264 96.3303 26.192 95.9303 24.224C95.7703 23.456 95.7543 23.424 95.6743 23.184ZM115.994 25.168H113.066C112.362 25.168 112.042 25.184 111.754 25.248V23.664C112.218 23.728 112.714 23.744 113.562 23.744H115.978C115.962 23.2 115.946 22.976 115.882 22.544H117.674C117.61 22.944 117.594 23.216 117.578 23.744H120.218C120.986 23.744 121.578 23.712 122.042 23.664V25.248C121.658 25.184 121.242 25.168 120.426 25.168H117.578V25.936H120.058C120.634 25.936 120.922 25.92 121.386 25.872C121.338 26.272 121.322 26.56 121.322 27.104V30.4C121.322 30.912 121.338 31.2 121.386 31.568C120.938 31.536 120.586 31.52 120.058 31.52H117.578V32.288H120.506C121.322 32.288 121.722 32.272 122.106 32.224V33.776C121.706 33.712 121.29 33.696 120.506 33.696H117.578C117.578 34.224 117.61 34.592 117.674 35.04H115.882C115.962 34.576 115.978 34.304 115.994 33.696H113.45C112.874 33.696 112.218 33.712 111.866 33.76V32.224C112.202 32.272 112.586 32.288 113.45 32.288H115.994V31.52H113.722C113.242 31.52 112.794 31.536 112.394 31.568C112.442 31.168 112.458 30.896 112.458 30.4V27.008C112.458 26.528 112.442 26.304 112.394 25.872C112.794 25.92 113.162 25.936 113.706 25.936H115.994V25.168ZM115.994 27.216H114.026V28.112H115.994V27.216ZM117.578 27.216V28.112H119.706V27.216H117.578ZM115.994 29.296H114.026V30.224H115.994V29.296ZM117.578 29.296V30.224H119.706V29.296H117.578ZM107.658 23.872L108.938 22.688C110.042 23.632 110.634 24.256 111.722 25.568L110.378 26.864C109.402 25.536 108.874 24.96 107.658 23.872ZM107.626 30.368V28.64C108.042 28.704 108.298 28.72 108.906 28.72H110.106C110.57 28.72 110.922 28.704 111.322 28.64C111.274 29.136 111.258 29.52 111.258 30.384V33.808C111.514 34.24 111.69 34.432 111.994 34.64C112.778 35.152 113.706 35.328 115.706 35.328C118.922 35.328 120.826 35.248 122.554 35.008C122.25 35.872 122.218 35.984 122.074 36.896C120.73 36.96 118.41 36.992 116.506 36.992C113.738 36.992 112.842 36.88 111.834 36.384C111.258 36.128 110.906 35.824 110.426 35.232C109.642 35.952 109.322 36.224 108.554 36.768C108.378 36.912 108.234 37.008 108.09 37.136L107.306 35.312C107.882 35.072 108.762 34.48 109.578 33.76V30.288H108.698C108.266 30.288 108.042 30.304 107.626 30.368ZM134.762 28.992V29.632H136.698C137.434 29.632 137.802 29.616 138.154 29.552V30.96C137.754 30.896 137.338 30.88 136.714 30.88H130.458C130.058 30.88 129.802 30.896 129.258 30.928C129.274 30.512 129.29 30.24 129.29 29.712V28.368C129.29 27.824 129.29 27.712 129.322 27.168C129.146 27.456 128.89 27.76 128.538 28.08C128.314 27.6 128.154 27.392 127.818 27.008C127.674 27.008 127.594 27.008 127.45 27.008H127.226V29.504C127.722 29.328 127.962 29.248 128.826 28.912L128.81 30.48C128.042 30.784 127.866 30.848 127.226 31.072V35.712L127.21 35.968C129.114 35.472 130.122 34.544 130.458 32.992H129.466C129.018 32.992 128.73 33.008 128.33 33.072V31.408C128.746 31.472 129.066 31.488 129.594 31.488H134.858C135.466 31.488 135.834 31.472 136.186 31.44C136.106 31.728 136.106 31.728 135.978 32.176C135.914 32.368 135.786 32.768 135.69 33.04H136.97C137.53 33.04 137.85 33.024 138.138 32.96C138.058 33.456 138.058 33.488 137.994 33.888C137.77 35.232 137.514 36.128 137.194 36.544C136.826 37.056 136.346 37.232 135.338 37.232C134.858 37.232 134.202 37.2 133.482 37.136C133.402 36.448 133.322 36.096 133.082 35.568C133.93 35.712 134.442 35.776 134.986 35.776C135.498 35.776 135.642 35.728 135.802 35.472C135.946 35.232 135.978 35.12 136.154 34.432H134.522C134.138 34.432 133.77 34.448 133.514 34.48C133.722 34.032 133.866 33.632 134.058 32.992H132.138C131.914 34.128 131.498 35.008 130.826 35.76C130.138 36.512 129.338 37.008 128.042 37.472C127.77 36.928 127.53 36.544 127.194 36.112C127.114 36.704 126.938 36.928 126.426 37.088C125.962 37.232 125.578 37.28 124.906 37.28C124.698 37.28 124.49 37.264 124.09 37.248C124.042 36.576 123.962 36.208 123.738 35.568C124.234 35.648 124.65 35.68 125.018 35.68C125.434 35.68 125.53 35.584 125.53 35.216V31.648C125.13 31.776 125.002 31.824 124.666 31.92C124.41 32 124.154 32.096 123.882 32.208L123.578 30.416C124.122 30.368 124.554 30.272 125.53 30V27.008H124.922C124.49 27.008 124.138 27.024 123.754 27.072V25.344C124.154 25.424 124.474 25.456 124.938 25.456H125.53V24.224C125.53 23.472 125.514 23.12 125.434 22.608H127.322C127.258 23.136 127.226 23.52 127.226 24.208V25.456H127.45C127.85 25.456 128.042 25.44 128.33 25.376V26.016C129.354 24.88 130.058 23.6 130.362 22.432L132.042 22.784C131.738 23.536 131.642 23.728 131.386 24.128H133.354C133.69 23.632 133.882 23.232 134.106 22.592L135.786 22.896C135.45 23.52 135.29 23.776 135.05 24.128H136.618C137.338 24.128 137.69 24.112 138.058 24.064V25.504C137.69 25.44 137.338 25.424 136.81 25.424H134.762V26.064H136.09C136.906 26.064 137.226 26.048 137.562 26V27.264C137.194 27.232 136.842 27.216 136.09 27.216H134.762V27.84H136.09C136.906 27.84 137.226 27.824 137.562 27.776V29.04C137.226 29.008 136.858 28.992 136.09 28.992H134.762ZM133.226 28.992H130.858V29.632H133.226V28.992ZM133.226 27.84V27.216H130.858V27.84H133.226ZM133.226 26.064V25.424H130.858V26.064H133.226ZM140.202 26.928L140.09 24.832C140.442 24.848 140.618 24.848 140.698 24.848C140.986 24.848 140.986 24.848 143.338 24.688C144.506 24.624 147.242 24.48 151.514 24.272C152.826 24.208 152.906 24.208 153.162 24.144L153.274 26.176C153.098 26.16 153.098 26.16 152.938 26.16C151.978 26.16 150.794 26.48 149.77 27.024C147.738 28.08 146.538 29.68 146.538 31.296C146.538 32.544 147.322 33.504 148.666 33.904C149.45 34.144 150.474 34.32 151.05 34.32C151.066 34.32 151.21 34.32 151.37 34.304L151.082 36.48C150.874 36.432 150.842 36.432 150.538 36.384C148.778 36.16 147.77 35.872 146.794 35.328C145.322 34.496 144.506 33.136 144.506 31.472C144.506 30.112 145.05 28.768 146.026 27.712C146.634 27.056 147.21 26.624 148.25 26.096C146.954 26.288 145.962 26.384 142.858 26.608C141.434 26.72 140.698 26.816 140.202 26.928ZM149.994 28.464L151.114 27.904C151.818 28.656 152.25 29.264 152.794 30.256L151.674 30.848C151.146 29.872 150.698 29.232 149.994 28.464ZM154.698 29.216L153.594 29.84C153.114 28.96 152.586 28.208 151.962 27.52L153.034 26.96C153.754 27.696 154.202 28.304 154.698 29.216ZM157.13 26.784L157.05 25.088C157.514 25.136 157.882 25.152 158.586 25.152C159.802 25.152 160.666 25.104 161.882 24.976C161.834 24.848 161.834 24.848 161.706 24.56C161.306 23.632 161.082 23.136 161.066 23.104L163.066 22.832C163.13 23.232 163.29 23.712 163.722 24.768C165.082 24.592 166.938 24.176 168.042 23.808L168.202 25.504C168.042 25.536 168.042 25.536 167.658 25.616C166.586 25.872 164.81 26.224 164.314 26.288C164.57 26.88 164.666 27.088 164.938 27.6C166.314 27.312 167.05 27.152 167.146 27.136C168.058 26.912 168.25 26.848 168.666 26.672L168.826 28.416C168.522 28.464 168.186 28.528 167.818 28.624C167.162 28.784 166.634 28.896 166.25 28.976C165.85 29.056 165.85 29.056 165.658 29.104C166.49 30.48 166.746 30.816 167.802 32.032L166.394 33.04C165.242 32.56 164.282 32.384 162.714 32.384C161.498 32.384 160.57 32.544 160.026 32.832C159.578 33.088 159.338 33.424 159.338 33.808C159.338 34.192 159.61 34.56 160.026 34.736C160.538 34.96 161.386 35.088 162.314 35.088C163.978 35.088 166.234 34.608 167.242 34.048L167.53 36.016C167.226 36.064 167.226 36.064 166.49 36.256C165.13 36.624 163.802 36.8 162.394 36.8C160.554 36.8 159.386 36.56 158.49 36.016C157.722 35.536 157.258 34.72 157.258 33.824C157.258 32.96 157.738 32.16 158.602 31.6C159.434 31.072 160.714 30.8 162.33 30.8C163.306 30.8 164.234 30.912 165.098 31.136C164.842 30.896 164.538 30.448 163.866 29.344C162.17 29.6 161.146 29.664 157.674 29.776C157.402 29.792 157.29 29.792 157.018 29.824L156.954 28.08C157.418 28.144 157.514 28.144 158.602 28.144C160.282 28.144 161.61 28.048 163.13 27.84C163.034 27.648 162.97 27.552 162.842 27.248C162.682 26.912 162.634 26.816 162.506 26.528C161.226 26.672 160.074 26.736 158.218 26.752C157.546 26.752 157.466 26.768 157.13 26.784ZM177.21 29.36L177.242 29.392C178.698 28.816 179.402 28.656 180.602 28.656C183.338 28.656 185.098 30.064 185.098 32.256C185.098 33.776 184.346 34.992 182.922 35.792C181.882 36.384 180.522 36.704 179.05 36.704C177.706 36.704 176.586 36.448 175.946 35.968C175.338 35.52 174.986 34.848 174.986 34.128C174.986 32.8 176.138 31.84 177.738 31.84C178.858 31.84 179.834 32.304 180.506 33.152C180.826 33.552 181.002 33.904 181.242 34.592C182.57 34.096 183.146 33.408 183.146 32.272C183.146 31.024 181.914 30.208 179.978 30.208C177.642 30.208 175.306 31.152 173.386 32.896L172.298 31.168C172.858 30.896 173.498 30.464 174.554 29.664C176.042 28.528 178.122 26.736 179.338 25.504C179.37 25.472 179.53 25.312 179.626 25.216L179.61 25.2C179.002 25.28 177.978 25.344 175.082 25.472C174.73 25.488 174.618 25.504 174.314 25.552L174.234 23.632C174.778 23.696 175.242 23.728 176.122 23.728C177.482 23.728 179.434 23.648 180.986 23.536C181.546 23.488 181.722 23.456 181.978 23.328L182.97 24.736C182.698 24.88 182.586 24.976 182.138 25.392C181.338 26.128 180.17 27.168 179.626 27.632C179.338 27.872 178.186 28.736 177.866 28.944C177.466 29.216 177.466 29.216 177.21 29.36ZM179.514 35.056C179.226 33.952 178.618 33.376 177.722 33.376C177.146 33.376 176.778 33.664 176.778 34.112C176.778 34.752 177.498 35.12 178.682 35.12C178.986 35.12 179.066 35.12 179.514 35.056ZM200.81 23.76L201.882 24.976C201.658 25.248 201.658 25.264 201.242 26.096C200.682 27.28 199.754 28.48 198.778 29.312C198.138 29.872 197.61 30.224 196.858 30.64C196.378 29.968 196.138 29.728 195.418 29.184C196.49 28.704 197.098 28.336 197.754 27.712C198.41 27.104 198.906 26.448 199.274 25.68H190.874C189.754 25.68 189.354 25.696 188.698 25.776V23.776C189.306 23.872 189.802 23.904 190.906 23.904H199.258C200.218 23.904 200.362 23.888 200.81 23.76ZM193.21 26.992H195.386C195.338 27.296 195.338 27.312 195.322 28.288C195.258 31.024 194.826 32.56 193.738 33.952C192.778 35.184 191.61 36 189.61 36.832C189.194 35.968 188.986 35.68 188.346 35.008C189.642 34.624 190.362 34.272 191.146 33.648C192.778 32.352 193.29 30.976 193.29 27.952C193.29 27.472 193.274 27.328 193.21 26.992ZM206.698 24.368H214.042C214.522 24.368 214.714 24.352 214.986 24.336C215.002 23.296 215.802 22.48 216.826 22.48C217.85 22.48 218.682 23.312 218.682 24.32C218.682 25.344 217.85 26.176 216.826 26.176C216.73 26.176 216.634 26.16 216.522 26.144C215.226 31.376 212.394 34.64 207.338 36.752C206.922 35.92 206.65 35.552 205.93 34.848C210.362 33.472 213.258 30.496 214.282 26.24H206.666C205.482 26.24 205.178 26.256 204.65 26.336V24.256C205.226 24.352 205.61 24.368 206.698 24.368ZM216.826 23.28C216.25 23.28 215.786 23.744 215.786 24.32C215.786 24.896 216.25 25.376 216.826 25.376C217.418 25.376 217.882 24.896 217.882 24.32C217.882 23.744 217.418 23.28 216.826 23.28ZM222.17 23.376L224.346 23.392C224.282 23.84 224.282 23.984 224.282 24.832V29.248C224.282 30.048 224.282 30.256 224.346 30.656H222.154C222.202 30.288 222.234 29.792 222.234 29.216V24.816C222.234 24 222.218 23.792 222.17 23.376ZM229.386 23.408H231.61C231.546 23.808 231.53 23.984 231.53 24.896V27.056C231.514 29.552 231.402 30.896 231.114 31.904C230.65 33.504 229.626 34.704 227.962 35.632C227.114 36.112 226.314 36.432 224.842 36.864C224.554 36.08 224.394 35.808 223.722 34.96C225.29 34.656 226.218 34.32 227.178 33.68C228.682 32.688 229.21 31.712 229.386 29.6C229.45 28.912 229.466 28.208 229.466 26.928V24.928C229.466 24.112 229.45 23.776 229.386 23.408ZM246.314 27.2L247.93 26.4C249.034 27.92 249.866 29.648 250.33 31.488L248.506 32.4C248.186 30.72 247.194 28.368 246.314 27.2ZM241.61 23.68L241.578 23.888C241.498 24.352 241.386 25.008 241.226 25.872C241.178 26.144 241.178 26.144 241.13 26.352C241.61 26.336 241.834 26.32 242.122 26.32C243.178 26.32 243.962 26.608 244.49 27.168C245.034 27.776 245.242 28.544 245.242 30C245.242 32.752 244.778 34.944 244.01 35.824C243.562 36.352 243.082 36.544 242.234 36.544C241.498 36.544 240.842 36.416 239.77 36.064C239.786 35.76 239.802 35.52 239.802 35.36C239.802 34.944 239.77 34.624 239.642 34C240.506 34.384 241.418 34.64 241.978 34.64C242.442 34.64 242.698 34.336 242.938 33.552C243.194 32.72 243.354 31.264 243.354 29.904C243.354 28.432 242.986 28 241.754 28C241.418 28 241.162 28.016 240.794 28.048C240.01 31.328 239.29 33.264 237.53 36.752L235.674 35.728C236.906 34.048 238.138 31.168 238.89 28.192C238.65 28.224 238.65 28.224 238.138 28.32L236.682 28.56C236.426 28.608 236.25 28.656 236.026 28.72L235.834 26.832C236.554 26.816 237.386 26.736 239.242 26.496C239.546 24.72 239.658 23.808 239.658 23.264C239.658 23.2 239.658 23.104 239.658 22.976L241.738 23.184C241.69 23.312 241.642 23.52 241.61 23.68ZM245.322 23.792L246.442 23.232C247.146 23.984 247.578 24.592 248.122 25.584L247.002 26.176C246.474 25.2 246.026 24.56 245.322 23.792ZM250.026 24.544L248.922 25.168C248.442 24.288 247.914 23.536 247.29 22.848L248.362 22.288C249.082 23.024 249.53 23.632 250.026 24.544ZM261.114 27.168H262.842C262.81 27.408 262.81 27.552 262.81 27.824C262.81 29.92 263.418 31.936 264.538 33.536C265.082 34.336 265.626 34.848 266.698 35.616C266.378 36.112 266.106 36.56 265.674 37.344C264.842 36.656 264.266 36.064 263.754 35.36C262.922 34.24 262.538 33.376 262.122 31.776C261.882 33.152 261.61 33.952 261.002 34.928C260.346 35.968 259.738 36.624 258.746 37.36C258.266 36.64 258.266 36.64 257.882 36.224C257.626 36.208 257.562 36.208 257.146 36.208H254.538V37.04H252.762C252.842 36.496 252.874 35.952 252.874 35.296V31.632C252.714 31.776 252.442 32 251.994 32.384C251.77 31.712 251.546 31.2 251.194 30.624C251.786 30.224 252.394 29.696 252.874 29.2C253.642 28.368 254.202 27.44 254.762 26.08H256.41C257.194 27.728 258.17 28.848 259.818 29.952C259.338 30.56 259.178 30.816 258.826 31.552C258.538 31.312 258.442 31.232 258.298 31.104C258.298 31.344 258.298 31.408 258.298 31.52V34.992C258.298 35.136 258.298 35.168 258.298 35.312C259.37 34.384 259.914 33.632 260.378 32.48C260.858 31.28 261.162 29.536 261.162 27.856C261.162 27.664 261.146 27.456 261.114 27.168ZM254.138 30.272H257.258C257.386 30.272 257.386 30.272 257.418 30.272C256.714 29.52 256.202 28.784 255.658 27.728C255.242 28.736 254.874 29.36 254.138 30.272ZM254.538 31.808V34.672H256.666V31.808H254.538ZM261.898 24.704H264.346C265.098 24.704 265.45 24.688 265.738 24.624L266.49 25.488C266.378 25.776 266.362 25.856 266.218 26.384C265.754 28.16 265.354 29.168 264.714 30.176C264.234 29.744 263.866 29.488 263.322 29.184C263.994 28.176 264.266 27.552 264.634 26.24H261.37C260.778 27.68 260.33 28.528 259.706 29.424C259.258 28.944 258.97 28.704 258.378 28.304C259.226 27.136 259.818 25.888 260.266 24.384C260.506 23.52 260.634 22.928 260.666 22.368L262.458 22.672C262.298 23.232 262.202 23.616 262.138 23.84C262.01 24.304 261.946 24.544 261.898 24.704ZM253.834 22.704L255.29 23.504C254.442 25.12 253.738 26.016 252.282 27.312C252.042 26.8 251.77 26.368 251.306 25.808C252.586 24.768 253.114 24.096 253.834 22.704ZM255.898 23.504L257.29 22.704C257.93 23.808 258.522 24.48 259.482 25.248C259.13 25.728 258.826 26.192 258.538 26.736C257.29 25.632 256.73 24.928 255.898 23.504ZM270.17 23.216L272.41 23.248C272.314 23.712 272.282 24.176 272.218 25.408C272.154 26.896 272.058 30.144 272.058 31.28C272.058 32.8 272.154 33.376 272.474 33.856C272.842 34.384 273.61 34.688 274.618 34.688C276.346 34.688 277.738 33.712 278.49 31.952C278.842 31.12 279.05 30.368 279.226 29.264C280.09 29.968 280.378 30.144 281.162 30.496C280.522 32.656 280.042 33.696 279.258 34.576C278.058 35.936 276.474 36.608 274.458 36.608C273.354 36.608 272.33 36.352 271.658 35.904C270.554 35.168 270.09 33.936 270.09 31.792C270.09 30.96 270.122 29.36 270.218 25.344C270.234 24.864 270.234 24.528 270.234 24.304C270.234 23.856 270.218 23.632 270.17 23.216ZM284.618 24.24H286.81C286.73 24.832 286.682 25.616 286.682 26.672C286.682 28.064 286.81 29.984 286.986 30.96C287.258 32.624 287.77 33.648 288.282 33.648C288.522 33.648 288.746 33.408 288.938 32.96C289.322 32.096 289.61 31.136 289.786 30.064C290.346 30.704 290.602 30.944 291.386 31.52C290.554 34.64 289.626 35.936 288.266 35.936C287.194 35.936 286.33 35.152 285.69 33.616C285.034 32.016 284.746 29.696 284.682 25.264C284.666 24.704 284.666 24.592 284.618 24.24ZM292.698 25.76L294.378 24.96C296.394 27.376 297.514 30.048 297.978 33.568L295.994 34.32C295.898 32.816 295.53 31.152 294.97 29.696C294.426 28.24 293.658 26.944 292.698 25.76ZM307.85 32.784H305.978C305.994 32.448 306.01 32.288 306.01 32.096C306.01 31.92 306.01 31.92 305.962 30.96L305.738 25.52C305.706 24.816 305.658 24.016 305.594 23.568H308.218C308.17 24 308.106 24.832 308.074 25.52L307.85 30.96C307.818 31.888 307.818 31.888 307.818 32.112C307.818 32.304 307.818 32.464 307.85 32.784ZM308.074 36.288H305.754V34.096H308.074V36.288Z" fill="#0054AC"/>
</svg>
